<svg xmlns="http://www.w3.org/2000/svg" width="800" height="800" viewBox="0 0 800 800">
  <rect width="100%" height="100%" fill="#0d1b2a"/>
  <g transform="translate(400.0,400.0)">
    <g fill="none" stroke="#3498db" stroke-width="1.5" opacity="1.00">
      <path d="M -7.1,8.6 L -16.8,12.9 L -27.8,12.8 L -38.3,8.0 L -46.2,-0.9 L -50.0,-12.4 L -49.0,-24.7 L -43.1,-35.7 L -33.4,-43.5 L -21.5,-46.9 L -9.4,-45.3 L 0.7,-39.1 L 7.4,-29.7 L 9.5,-18.9 L 7.1,-8.6 L 16.8,-12.9 L 27.8,-12.8 L 38.3,-8.0 L 46.2,0.9 L 50.0,12.4 L 49.0,24.7 L 43.1,35.7 L 33.4,43.5 L 21.5,46.9 L 9.4,45.3 L -0.7,39.1 L -7.4,29.7 L -9.5,18.9 L -7.1,8.6 Z"/>
      <path d="M -31.7,8.1 L -40.9,1.1 L -46.7,-9.4 L -47.9,-21.5 L -44.1,-33.4 L -36.0,-42.8 L -24.8,-48.3 L -12.5,-48.9 L -1.2,-44.7 L 7.3,-36.6 L 11.7,-26.0 L 11.4,-15.1 L 10.3,-8.7 L 20.8,-10.7 L 31.7,-8.1 L 40.9,-1.1 L 46.7,9.4 L 47.9,21.5 L 44.1,33.4 L 36.0,42.8 L 24.8,48.3 L 12.5,48.9 L 1.2,44.7 L -7.3,36.6 L -11.7,26.0 L -11.4,15.1 L -10.3,8.7 L -20.8,10.7 L -31.7,8.1 Z"/>
      <path d="M -45.5,-18.0 L -44.0,-30.2 L -37.7,-40.9 L -27.7,-48.4 L -15.6,-51.3 L -3.5,-49.2 L 6.6,-42.7 L 13.1,-32.9 L 15.0,-21.8 L 12.2,-11.3 L 13.7,-7.8 L 24.5,-7.4 L 34.6,-2.5 L 42.1,6.5 L 45.5,18.0 L 44.0,30.2 L 37.7,40.9 L 27.7,48.4 L 15.6,51.3 L 3.5,49.2 L -6.6,42.7 L -13.1,32.9 L -15.0,21.8 L -12.2,11.3 L -13.7,7.8 L -24.5,7.4 L -34.6,2.5 L -42.1,-6.5 L -45.5,-18.0 Z"/>
      <path d="M -29.9,-47.2 L -18.5,-52.3 L -6.1,-52.5 L 5.2,-47.8 L 13.6,-39.3 L 17.7,-28.4 L 17.1,-17.2 L 12.1,-7.7 L 17.0,-6.0 L 27.5,-3.2 L 36.4,4.0 L 41.7,14.4 L 42.5,26.5 L 38.4,38.1 L 29.9,47.2 L 18.5,52.3 L 6.1,52.5 L -5.2,47.8 L -13.6,39.3 L -17.7,28.4 L -17.1,17.2 L -12.1,7.7 L -17.0,6.0 L -27.5,3.2 L -36.4,-4.0 L -41.7,-14.4 L -42.5,-26.5 L -38.4,-38.1 L -29.9,-47.2 Z"/>
      <path d="M 3.3,-51.8 L 13.3,-44.8 L 19.5,-34.7 L 21.1,-23.3 L 18.1,-12.6 L 11.2,-4.5 L 20.0,-3.3 L 29.8,1.9 L 36.9,10.9 L 39.8,22.4 L 37.9,34.4 L 31.3,44.8 L 21.0,51.9 L 8.8,54.4 L -3.3,51.8 L -13.3,44.8 L -19.5,34.7 L -21.1,23.3 L -18.1,12.6 L -11.2,4.5 L -20.0,3.3 L -29.8,-1.9 L -36.9,-10.9 L -39.8,-22.4 L -37.9,-34.4 L -31.3,-44.8 L -21.0,-51.9 L -8.8,-54.4 L 3.3,-51.8 Z"/>
      <path d="M 24.3,-29.3 L 23.3,-17.9 L 18.0,-8.2 L 12.3,-2.6 L 22.5,0.4 L 31.0,7.7 L 35.9,18.1 L 36.3,30.0 L 31.8,41.4 L 23.0,50.1 L 11.4,54.8 L -1.0,54.5 L -12.3,49.4 L -20.4,40.5 L -24.3,29.3 L -23.3,17.9 L -18.0,8.2 L -12.3,2.6 L -22.5,-0.4 L -31.0,-7.7 L -35.9,-18.1 L -36.3,-30.0 L -31.8,-41.4 L -23.0,-50.1 L -11.4,-54.8 L 1.0,-54.5 L 12.3,-49.4 L 20.4,-40.5 L 24.3,-29.3 Z"/>
      <path d="M 17.0,-4.3 L 14.9,-0.4 L 24.3,4.9 L 30.9,13.9 L 33.5,25.3 L 31.2,37.0 L 24.3,47.2 L 13.8,53.8 L 1.5,55.8 L -10.6,52.8 L -20.4,45.4 L -26.4,34.9 L -27.7,23.3 L -24.2,12.5 L -17.0,4.3 L -14.9,0.4 L -24.3,-4.9 L -30.9,-13.9 L -33.5,-25.3 L -31.2,-37.0 L -24.3,-47.2 L -13.8,-53.8 L -1.5,-55.8 L 10.6,-52.8 L 20.4,-45.4 L 26.4,-34.9 L 27.7,-23.3 L 24.2,-12.5 L 17.0,-4.3 Z"/>
      <path d="M 25.0,9.9 L 29.6,20.3 L 29.5,32.0 L 24.7,43.1 L 15.7,51.5 L 4.0,55.7 L -8.5,54.9 L -19.6,49.4 L -27.5,40.1 L -31.0,28.6 L -29.7,17.0 L -24.0,7.3 L -15.2,1.1 L -17.0,-2.6 L -25.0,-9.9 L -29.6,-20.3 L -29.5,-32.0 L -24.7,-43.1 L -15.7,-51.5 L -4.0,-55.7 L 8.5,-54.9 L 19.6,-49.4 L 27.5,-40.1 L 31.0,-28.6 L 29.7,-17.0 L 24.0,-7.3 L 15.2,-1.1 L 17.0,2.6 L 25.0,9.9 Z"/>
      <path d="M 24.1,38.1 L 16.9,47.9 L 6.3,54.1 L -6.1,55.6 L -18.0,52.2 L -27.7,44.4 L -33.3,33.6 L -34.2,21.7 L -30.4,10.8 L -22.7,2.6 L -12.9,-1.4 L -18.4,-6.4 L -24.6,-15.4 L -26.8,-26.6 L -24.1,-38.1 L -16.9,-47.9 L -6.3,-54.1 L 6.1,-55.6 L 18.0,-52.2 L 27.7,-44.4 L 33.3,-33.6 L 34.2,-21.7 L 30.4,-10.8 L 22.7,-2.6 L 12.9,1.4 L 18.4,6.4 L 24.6,15.4 L 26.8,26.6 L 24.1,38.1 Z"/>
      <path d="M -3.5,54.9 L -15.9,53.7 L -26.8,47.7 L -34.5,38.0 L -37.6,26.3 L -35.9,14.5 L -29.8,4.8 L -20.6,-1.3 L -11.3,-3.3 L -18.9,-10.6 L -23.1,-20.9 L -22.6,-32.4 L -17.5,-43.1 L -8.3,-51.1 L 3.5,-54.9 L 15.9,-53.7 L 26.8,-47.7 L 34.5,-38.0 L 37.6,-26.3 L 35.9,-14.5 L 29.8,-4.8 L 20.6,1.3 L 11.3,3.3 L 18.9,10.6 L 23.1,20.9 L 22.6,32.4 L 17.5,43.1 L 8.3,51.1 L -3.5,54.9 Z"/>
    </g>
    <circle cx="-31.3" cy="21.6" r="1.8" fill="#3498db" opacity="1.00"/>
    <circle cx="38.6" cy="29.1" r="2.6" fill="#3498db" opacity="1.00"/>
    <circle cx="-29.3" cy="-11.0" r="2.3" fill="#3498db" opacity="1.00"/>
    <circle cx="-18.6" cy="-26.8" r="1.7" fill="#3498db" opacity="1.00"/>
    <circle cx="17.6" cy="16.1" r="2.2" fill="#3498db" opacity="1.00"/>
    <circle cx="-34.5" cy="-14.8" r="2.3" fill="#3498db" opacity="1.00"/>
    <circle cx="40.4" cy="-25.6" r="1.5" fill="#3498db" opacity="1.00"/>
    <circle cx="-18.8" cy="17.7" r="2.9" fill="#3498db" opacity="1.00"/>
    <circle cx="4.5" cy="-35.7" r="1.2" fill="#3498db" opacity="1.00"/>
    <circle cx="-13.2" cy="20.3" r="2.0" fill="#3498db" opacity="1.00"/>
    <g fill="none" stroke="#2ecc71" stroke-width="1.4" opacity="0.95">
      <path d="M 22.4,1.3 L 36.9,6.3 L 49.9,14.4 L 60.7,25.2 L 68.5,37.9 L 72.7,51.7 L 73.2,65.6 L 70.0,78.5 L 63.4,89.6 L 54.0,98.0 L 42.5,103.0 L 29.9,104.3 L 17.2,101.7 L 5.2,95.3 L -4.9,85.6 L -12.5,73.2 L -17.0,58.9 L -18.1,43.6 L -15.7,28.4 L -15.9,22.3 L -28.2,31.5 L -42.3,37.7 L -57.2,40.5 L -71.9,39.6 L -85.5,35.3 L -96.9,27.8 L -105.5,17.8 L -110.6,6.1 L -111.8,-6.4 L -109.1,-18.7 L -102.8,-29.7 L -93.1,-38.7 L -80.9,-44.8 L -66.9,-47.6 L -52.2,-46.7 L -37.7,-42.3 L -24.5,-34.6 L -13.2,-24.0 L -12.4,-30.0 L -13.0,-45.4 L -10.2,-60.4 L -4.1,-74.1 L 4.9,-85.6 L 16.1,-94.1 L 28.7,-99.1 L 41.6,-100.2 L 54.0,-97.5 L 64.8,-91.2 L 73.2,-81.8 L 78.5,-70.0 L 80.2,-56.8 L 78.1,-43.1 L 72.3,-29.9 L 63.2,-18.1 L 51.3,-8.7 L 37.4,-2.1 L 22.4,1.3 Z"/>
      <path d="M 50.6,41.4 L 54.4,55.8 L 54.6,70.2 L 51.1,83.6 L 44.4,95.2 L 34.9,103.9 L 23.5,109.3 L 11.1,110.9 L -1.3,108.6 L -12.8,102.5 L -22.4,93.1 L -29.4,80.9 L -33.2,66.8 L -33.5,51.8 L -30.2,36.9 L -23.5,23.0 L -21.3,16.6 L -35.8,21.9 L -51.0,23.8 L -66.1,22.2 L -79.9,17.2 L -91.7,9.2 L -100.6,-1.2 L -106.0,-13.3 L -107.6,-26.0 L -105.3,-38.3 L -99.2,-49.3 L -90.0,-58.1 L -78.2,-64.0 L -64.8,-66.4 L -50.6,-65.1 L -36.7,-60.1 L -24.1,-51.7 L -13.6,-40.5 L -5.9,-27.2 L -3.2,-31.8 L 0.6,-46.8 L 7.6,-60.4 L 17.3,-71.8 L 29.2,-80.3 L 42.4,-85.3 L 55.8,-86.5 L 68.6,-83.9 L 79.7,-77.8 L 88.3,-68.7 L 93.7,-57.3 L 95.5,-44.5 L 93.4,-31.4 L 87.5,-18.8 L 78.2,-7.8 L 66.1,0.8 L 52.0,6.5 L 36.8,8.9 L 21.5,7.8 L 33.1,16.5 L 43.3,28.0 L 50.6,41.4 Z"/>
      <path d="M 24.9,94.6 L 15.1,103.7 L 3.6,109.5 L -8.9,111.5 L -21.3,109.5 L -32.6,103.7 L -41.8,94.7 L -48.4,82.9 L -51.6,69.2 L -51.3,54.7 L -47.2,40.3 L -39.8,26.9 L -29.5,15.4 L -24.8,9.6 L -40.1,10.5 L -55.3,8.1 L -69.3,2.3 L -81.2,-6.5 L -90.2,-17.5 L -95.8,-30.1 L -97.6,-43.1 L -95.5,-55.8 L -89.8,-66.9 L -80.9,-75.8 L -69.6,-81.6 L -56.6,-83.9 L -43.1,-82.4 L -29.9,-77.2 L -18.0,-68.5 L -8.3,-56.9 L -1.4,-43.2 L 2.3,-28.2 L 6.0,-31.0 L 13.9,-44.2 L 24.5,-55.3 L 37.1,-63.5 L 50.9,-68.3 L 64.9,-69.3 L 78.2,-66.6 L 89.7,-60.5 L 98.7,-51.5 L 104.4,-40.4 L 106.3,-27.9 L 104.4,-15.2 L 98.7,-3.2 L 89.5,7.1 L 77.5,15.1 L 63.5,19.9 L 48.3,21.4 L 33.1,19.3 L 18.7,13.9 L 26.7,25.0 L 33.2,38.9 L 36.3,53.9 L 35.9,68.8 L 32.0,82.7 L 24.9,94.6 Z"/>
      <path d="M -40.6,104.2 L -51.9,98.8 L -61.1,90.1 L -67.4,78.8 L -70.4,65.6 L -69.6,51.7 L -65.1,37.8 L -57.2,25.1 L -46.3,14.4 L -33.1,6.4 L -26.0,2.0 L -41.0,-1.4 L -54.9,-8.1 L -66.6,-17.7 L -75.6,-29.4 L -81.1,-42.6 L -82.9,-56.2 L -80.9,-69.3 L -75.4,-80.8 L -66.7,-89.9 L -55.7,-95.9 L -43.2,-98.3 L -30.2,-96.9 L -17.6,-91.6 L -6.4,-82.8 L 2.5,-71.1 L 8.5,-57.3 L 11.2,-42.2 L 10.4,-26.8 L 14.5,-27.6 L 25.8,-38.0 L 39.1,-45.6 L 53.5,-49.9 L 68.1,-50.5 L 81.9,-47.6 L 93.9,-41.3 L 103.2,-32.1 L 109.3,-21.0 L 111.6,-8.7 L 110.0,3.8 L 104.5,15.5 L 95.7,25.4 L 83.9,32.7 L 70.2,36.9 L 55.4,37.5 L 40.4,34.6 L 26.4,28.3 L 14.1,19.0 L 18.1,31.2 L 20.4,46.5 L 19.2,61.7 L 14.6,75.8 L 6.8,88.1 L -3.4,97.5 L -15.3,103.5 L -28.0,105.8 L -40.6,104.2 Z"/>
      <path d="M -87.4,56.2 L -86.5,42.7 L -81.8,29.6 L -73.6,17.6 L -62.4,7.7 L -48.9,0.5 L -34.0,-3.5 L -25.1,-5.5 L -38.5,-13.0 L -49.8,-23.4 L -58.4,-35.9 L -63.7,-49.7 L -65.2,-63.9 L -63.1,-77.5 L -57.5,-89.5 L -48.9,-99.0 L -38.1,-105.3 L -25.8,-108.0 L -13.1,-106.7 L -1.0,-101.6 L 9.5,-93.0 L 17.7,-81.5 L 22.9,-67.8 L 24.8,-52.8 L 23.1,-37.5 L 18.0,-23.0 L 21.5,-21.9 L 35.3,-28.7 L 50.2,-32.3 L 65.3,-32.3 L 79.5,-28.7 L 91.9,-21.9 L 101.6,-12.5 L 108.0,-1.1 L 110.6,11.3 L 109.4,23.8 L 104.3,35.3 L 95.8,45.0 L 84.5,51.9 L 71.2,55.6 L 56.9,55.7 L 42.5,52.2 L 29.0,45.1 L 17.3,35.1 L 8.2,22.7 L 8.3,34.7 L 6.1,50.0 L 0.6,64.2 L -7.8,76.5 L -18.7,86.0 L -31.2,92.2 L -44.4,94.6 L -57.2,93.2 L -68.8,88.1 L -78.1,79.7 L -84.5,68.8 L -87.4,56.2 Z"/>
      <path d="M -75.9,-4.3 L -62.3,-10.7 L -47.4,-13.7 L -32.0,-13.3 L -22.1,-12.2 L -32.8,-23.3 L -40.7,-36.5 L -45.4,-50.9 L -46.5,-65.7 L -44.0,-79.7 L -38.1,-92.2 L -29.3,-102.1 L -18.4,-108.8 L -6.2,-111.8 L 6.3,-110.9 L 18.2,-106.1 L 28.3,-97.8 L 36.0,-86.6 L 40.6,-73.2 L 41.7,-58.6 L 39.2,-43.7 L 33.2,-29.6 L 24.2,-17.1 L 26.5,-14.6 L 41.7,-17.2 L 57.0,-16.4 L 71.4,-12.1 L 84.1,-4.6 L 94.0,5.4 L 100.7,17.2 L 103.6,30.0 L 102.7,42.7 L 97.9,54.3 L 89.8,63.9 L 79.0,70.7 L 66.2,74.2 L 52.4,74.0 L 38.6,70.0 L 25.8,62.5 L 14.9,52.0 L 6.6,39.0 L 1.4,24.6 L -2.0,35.2 L -8.4,49.2 L -17.7,61.3 L -29.4,70.7 L -42.5,76.7 L -56.3,79.1 L -69.6,77.7 L -81.5,72.7 L -91.2,64.5 L -97.8,53.9 L -100.8,41.6 L -100.0,28.7 L -95.4,16.1 L -87.2,4.8 L -75.9,-4.3 Z"/>
      <path d="M -27.1,-22.2 L -17.3,-17.7 L -24.4,-31.4 L -28.3,-46.3 L -28.7,-61.5 L -25.5,-75.9 L -19.1,-88.7 L -9.9,-99.0 L 1.3,-106.1 L 13.7,-109.4 L 26.3,-108.8 L 38.0,-104.4 L 48.0,-96.5 L 55.4,-85.7 L 59.5,-72.8 L 60.2,-58.7 L 57.1,-44.4 L 50.4,-30.8 L 40.7,-19.0 L 28.5,-9.6 L 29.1,-6.3 L 44.4,-4.5 L 58.9,0.7 L 71.5,9.0 L 81.5,19.7 L 88.3,32.1 L 91.3,45.4 L 90.5,58.4 L 86.0,70.3 L 78.2,80.1 L 67.7,87.1 L 55.4,90.6 L 42.1,90.3 L 29.0,86.2 L 16.9,78.5 L 6.8,67.7 L -0.7,54.5 L -5.0,39.7 L -5.9,24.3 L -11.9,32.7 L -22.0,44.3 L -34.4,53.3 L -48.2,59.0 L -62.6,61.1 L -76.4,59.4 L -88.9,54.3 L -98.9,46.1 L -105.9,35.6 L -109.2,23.5 L -108.6,10.9 L -104.2,-1.3 L -96.2,-12.0 L -85.1,-20.5 L -71.8,-26.1 L -57.0,-28.3 L -41.8,-27.0 L -27.1,-22.2 Z"/>
      <path d="M -13.7,-52.1 L -9.7,-66.7 L -2.6,-79.7 L 7.2,-90.2 L 18.9,-97.5 L 31.7,-101.1 L 44.5,-100.8 L 56.4,-96.7 L 66.5,-89.1 L 73.8,-78.8 L 77.8,-66.3 L 78.2,-52.8 L 74.8,-39.1 L 67.7,-26.2 L 57.6,-15.1 L 44.8,-6.5 L 30.5,-1.0 L 29.3,2.3 L 43.4,8.4 L 55.8,17.5 L 65.6,29.0 L 72.2,42.1 L 75.1,56.0 L 74.2,69.6 L 69.8,81.9 L 62.1,92.0 L 51.8,99.3 L 39.8,102.9 L 27.0,102.8 L 14.4,98.8 L 3.0,91.2 L -6.4,80.4 L -13.0,67.1 L -16.4,52.4 L -16.3,37.0 L -12.8,22.0 L -20.5,27.6 L -33.6,35.8 L -48.0,40.9 L -62.9,42.4 L -77.2,40.3 L -90.1,34.9 L -100.5,26.4 L -107.9,15.7 L -111.6,3.6 L -111.4,-8.9 L -107.3,-20.8 L -99.6,-31.3 L -88.9,-39.3 L -75.9,-44.3 L -61.5,-45.9 L -46.7,-43.8 L -32.5,-38.2 L -19.8,-29.4 L -11.3,-21.6 L -14.2,-36.7 L -13.7,-52.1 Z"/>
      <path d="M 32.7,-84.1 L 46.1,-87.7 L 59.3,-87.5 L 71.6,-83.6 L 81.8,-76.3 L 89.3,-66.3 L 93.4,-54.3 L 93.8,-41.2 L 90.3,-28.1 L 83.2,-16.0 L 72.8,-5.6 L 59.9,2.1 L 45.3,6.7 L 29.9,7.9 L 27.0,10.5 L 38.8,20.4 L 48.1,32.6 L 54.2,46.4 L 56.8,60.9 L 55.7,75.0 L 51.0,87.8 L 43.2,98.4 L 33.0,106.0 L 21.1,110.0 L 8.5,110.1 L -3.7,106.4 L -14.7,99.0 L -23.4,88.4 L -29.4,75.4 L -32.0,60.9 L -31.0,45.8 L -26.6,31.0 L -18.9,17.7 L -27.3,20.2 L -42.1,24.4 L -57.3,25.2 L -72.1,22.4 L -85.3,16.4 L -96.1,7.5 L -103.7,-3.6 L -107.7,-15.9 L -107.9,-28.6 L -104.1,-40.6 L -96.9,-50.9 L -86.6,-58.7 L -74.0,-63.4 L -60.2,-64.5 L -45.9,-61.9 L -32.4,-55.7 L -20.3,-46.3 L -10.7,-34.3 L -4.5,-23.5 L -3.0,-38.8 L 1.9,-53.4 L 9.8,-66.3 L 20.4,-76.8 L 32.7,-84.1 Z"/>
      <path d="M 92.5,-59.5 L 100.3,-49.6 L 104.7,-37.8 L 105.2,-25.1 L 101.9,-12.5 L 94.8,-1.0 L 84.5,8.7 L 71.7,15.6 L 57.1,19.3 L 41.8,19.6 L 26.7,16.4 L 22.5,17.5 L 31.0,30.4 L 36.4,44.7 L 38.4,59.7 L 36.7,74.3 L 31.6,87.6 L 23.5,98.6 L 13.1,106.5 L 1.1,110.9 L -11.4,111.4 L -23.5,108.0 L -34.2,101.0 L -42.6,90.8 L -48.0,78.2 L -50.0,64.1 L -48.4,49.4 L -43.2,35.2 L -34.7,22.3 L -23.6,11.7 L -31.5,11.4 L -46.9,11.2 L -61.8,7.6 L -75.1,0.8 L -86.1,-8.8 L -93.9,-20.4 L -98.1,-33.2 L -98.5,-46.2 L -95.0,-58.4 L -88.1,-68.8 L -78.2,-76.6 L -66.1,-81.2 L -52.8,-82.2 L -39.2,-79.3 L -26.3,-72.8 L -15.1,-63.0 L -6.2,-50.6 L -0.4,-36.3 L 2.4,-23.4 L 8.2,-37.6 L 17.0,-50.2 L 28.3,-60.4 L 41.4,-67.4 L 55.4,-70.9 L 69.2,-70.6 L 81.9,-66.7 L 92.5,-59.5 Z"/>
    </g>
    <circle cx="25.8" cy="-45.1" r="1.3" fill="#2ecc71" opacity="0.95"/>
    <circle cx="17.4" cy="-30.1" r="1.4" fill="#2ecc71" opacity="0.95"/>
    <circle cx="56.5" cy="79.0" r="1.3" fill="#2ecc71" opacity="0.95"/>
    <circle cx="33.8" cy="20.1" r="2.3" fill="#2ecc71" opacity="0.95"/>
    <circle cx="27.0" cy="-50.8" r="1.8" fill="#2ecc71" opacity="0.95"/>
    <circle cx="-85.6" cy="-31.7" r="2.3" fill="#2ecc71" opacity="0.95"/>
    <circle cx="32.2" cy="32.3" r="2.7" fill="#2ecc71" opacity="0.95"/>
    <circle cx="-44.1" cy="-22.0" r="0.9" fill="#2ecc71" opacity="0.95"/>
    <circle cx="3.8" cy="-76.4" r="1.5" fill="#2ecc71" opacity="0.95"/>
    <circle cx="44.3" cy="33.4" r="2.3" fill="#2ecc71" opacity="0.95"/>
    <circle cx="-22.2" cy="81.8" r="2.2" fill="#2ecc71" opacity="0.95"/>
    <circle cx="-54.0" cy="-7.1" r="2.7" fill="#2ecc71" opacity="0.95"/>
    <circle cx="13.7" cy="-53.5" r="1.6" fill="#2ecc71" opacity="0.95"/>
    <circle cx="-68.8" cy="11.8" r="1.6" fill="#2ecc71" opacity="0.95"/>
    <circle cx="-59.3" cy="57.2" r="2.5" fill="#2ecc71" opacity="0.95"/>
    <circle cx="-61.9" cy="78.4" r="2.1" fill="#2ecc71" opacity="0.95"/>
    <circle cx="1.5" cy="-91.2" r="1.7" fill="#2ecc71" opacity="0.95"/>
    <circle cx="55.5" cy="73.2" r="1.2" fill="#2ecc71" opacity="0.95"/>
    <circle cx="-46.3" cy="-1.5" r="1.1" fill="#2ecc71" opacity="0.95"/>
    <circle cx="1.2" cy="78.7" r="2.4" fill="#2ecc71" opacity="0.95"/>
    <g fill="none" stroke="#1abc9c" stroke-width="1.2" opacity="0.90">
      <path d="M 29.5,16.1 L 45.0,29.2 L 58.3,44.3 L 68.8,60.9 L 76.2,78.4 L 80.2,95.9 L 80.7,112.7 L 78.0,128.1 L 72.1,141.4 L 63.7,151.8 L 53.1,159.0 L 41.1,162.5 L 28.3,162.2 L 15.5,157.9 L 3.5,150.0 L -7.2,138.5 L -15.8,124.0 L -21.9,107.1 L -25.1,88.4 L -25.2,68.8 L -22.1,48.8 L -16.1,29.5 L -29.2,45.0 L -44.3,58.3 L -60.9,68.8 L -78.4,76.2 L -95.9,80.2 L -112.7,80.7 L -128.1,78.0 L -141.4,72.1 L -151.8,63.7 L -159.0,53.1 L -162.5,41.1 L -162.2,28.3 L -157.9,15.5 L -150.0,3.5 L -138.5,-7.2 L -124.0,-15.8 L -107.1,-21.9 L -88.4,-25.1 L -68.8,-25.2 L -48.8,-22.1 L -29.5,-16.1 L -45.0,-29.2 L -58.3,-44.3 L -68.8,-60.9 L -76.2,-78.4 L -80.2,-95.9 L -80.7,-112.7 L -78.0,-128.1 L -72.1,-141.4 L -63.7,-151.8 L -53.1,-159.0 L -41.1,-162.5 L -28.3,-162.2 L -15.5,-157.9 L -3.5,-150.0 L 7.2,-138.5 L 15.8,-124.0 L 21.9,-107.1 L 25.1,-88.4 L 25.2,-68.8 L 22.1,-48.8 L 16.1,-29.5 L 29.2,-45.0 L 44.3,-58.3 L 60.9,-68.8 L 78.4,-76.2 L 95.9,-80.2 L 112.7,-80.7 L 128.1,-78.0 L 141.4,-72.1 L 151.8,-63.7 L 159.0,-53.1 L 162.5,-41.1 L 162.2,-28.3 L 157.9,-15.5 L 150.0,-3.5 L 138.5,7.2 L 124.0,15.8 L 107.1,21.9 L 88.4,25.1 L 68.8,25.2 L 48.8,22.1 L 29.5,16.1 Z"/>
      <path d="M 41.9,88.6 L 41.2,107.2 L 37.5,124.4 L 30.8,139.5 L 21.8,151.7 L 10.9,160.7 L -1.1,166.0 L -13.7,167.4 L -26.0,164.9 L -37.3,158.6 L -47.0,148.8 L -54.4,135.9 L -59.1,120.6 L -60.6,103.4 L -58.9,85.1 L -53.9,66.6 L -45.6,48.5 L -34.5,31.6 L -31.8,25.0 L -50.1,33.7 L -69.3,39.4 L -88.6,41.9 L -107.2,41.2 L -124.4,37.5 L -139.5,30.8 L -151.7,21.8 L -160.7,10.9 L -166.0,-1.1 L -167.4,-13.7 L -164.9,-26.0 L -158.6,-37.3 L -148.8,-47.0 L -135.9,-54.4 L -120.6,-59.1 L -103.4,-60.6 L -85.1,-58.9 L -66.6,-53.9 L -48.5,-45.6 L -31.6,-34.5 L -25.0,-31.8 L -33.7,-50.1 L -39.4,-69.3 L -41.9,-88.6 L -41.2,-107.2 L -37.5,-124.4 L -30.8,-139.5 L -21.8,-151.7 L -10.9,-160.7 L 1.1,-166.0 L 13.7,-167.4 L 26.0,-164.9 L 37.3,-158.6 L 47.0,-148.8 L 54.4,-135.9 L 59.1,-120.6 L 60.6,-103.4 L 58.9,-85.1 L 53.9,-66.6 L 45.6,-48.5 L 34.5,-31.6 L 31.8,-25.0 L 50.1,-33.7 L 69.3,-39.4 L 88.6,-41.9 L 107.2,-41.2 L 124.4,-37.5 L 139.5,-30.8 L 151.7,-21.8 L 160.7,-10.9 L 166.0,1.1 L 167.4,13.7 L 164.9,26.0 L 158.6,37.3 L 148.8,47.0 L 135.9,54.4 L 120.6,59.1 L 103.4,60.6 L 85.1,58.9 L 66.6,53.9 L 48.5,45.6 L 31.6,34.5 L 25.0,31.8 L 33.7,50.1 L 39.4,69.3 L 41.9,88.6 Z"/>
      <path d="M -27.2,144.2 L -40.3,151.0 L -53.8,154.0 L -66.7,153.1 L -78.4,148.5 L -88.2,140.5 L -95.5,129.5 L -99.7,116.1 L -100.7,100.8 L -98.1,84.6 L -92.1,68.0 L -82.6,52.0 L -70.0,37.1 L -54.9,24.0 L -37.7,13.2 L -45.7,12.3 L -65.9,12.5 L -85.6,9.7 L -103.9,4.0 L -120.2,-4.4 L -133.8,-15.0 L -144.2,-27.2 L -151.0,-40.3 L -154.0,-53.8 L -153.1,-66.7 L -148.5,-78.4 L -140.5,-88.2 L -129.5,-95.5 L -116.1,-99.7 L -100.8,-100.7 L -84.6,-98.1 L -68.0,-92.1 L -52.0,-82.6 L -37.1,-70.0 L -24.0,-54.9 L -13.2,-37.7 L -12.3,-45.7 L -12.5,-65.9 L -9.7,-85.6 L -4.0,-103.9 L 4.4,-120.2 L 15.0,-133.8 L 27.2,-144.2 L 40.3,-151.0 L 53.8,-154.0 L 66.7,-153.1 L 78.4,-148.5 L 88.2,-140.5 L 95.5,-129.5 L 99.7,-116.1 L 100.7,-100.8 L 98.1,-84.6 L 92.1,-68.0 L 82.6,-52.0 L 70.0,-37.1 L 54.9,-24.0 L 37.7,-13.2 L 45.7,-12.3 L 65.9,-12.5 L 85.6,-9.7 L 103.9,-4.0 L 120.2,4.4 L 133.8,15.0 L 144.2,27.2 L 151.0,40.3 L 154.0,53.8 L 153.1,66.7 L 148.5,78.4 L 140.5,88.2 L 129.5,95.5 L 116.1,99.7 L 100.8,100.7 L 84.6,98.1 L 68.0,92.1 L 52.0,82.6 L 37.1,70.0 L 24.0,54.9 L 13.2,37.7 L 12.3,45.7 L 12.5,65.9 L 9.7,85.6 L 4.0,103.9 L -4.4,120.2 L -15.0,133.8 L -27.2,144.2 Z"/>
      <path d="M -122.0,115.0 L -130.2,105.5 L -135.2,93.8 L -136.6,80.4 L -134.4,66.1 L -128.4,51.6 L -118.8,37.7 L -105.9,25.1 L -90.3,14.4 L -72.5,6.0 L -53.1,0.4 L -34.1,-2.3 L -53.6,-7.6 L -72.0,-15.8 L -88.5,-26.5 L -102.5,-39.3 L -113.4,-53.5 L -121.0,-68.5 L -124.8,-83.6 L -125.0,-98.1 L -121.7,-111.1 L -115.0,-122.0 L -105.5,-130.2 L -93.8,-135.2 L -80.4,-136.6 L -66.1,-134.4 L -51.6,-128.4 L -37.7,-118.8 L -25.1,-105.9 L -14.4,-90.3 L -6.0,-72.5 L -0.4,-53.1 L 2.3,-34.1 L 7.6,-53.6 L 15.8,-72.0 L 26.5,-88.5 L 39.3,-102.5 L 53.5,-113.4 L 68.5,-121.0 L 83.6,-124.8 L 98.1,-125.0 L 111.1,-121.7 L 122.0,-115.0 L 130.2,-105.5 L 135.2,-93.8 L 136.6,-80.4 L 134.4,-66.1 L 128.4,-51.6 L 118.8,-37.7 L 105.9,-25.1 L 90.3,-14.4 L 72.5,-6.0 L 53.1,-0.4 L 34.1,2.3 L 53.6,7.6 L 72.0,15.8 L 88.5,26.5 L 102.5,39.3 L 113.4,53.5 L 121.0,68.5 L 124.8,83.6 L 125.0,98.1 L 121.7,111.1 L 115.0,122.0 L 105.5,130.2 L 93.8,135.2 L 80.4,136.6 L 66.1,134.4 L 51.6,128.4 L 37.7,118.8 L 25.1,105.9 L 14.4,90.3 L 6.0,72.5 L 0.4,53.1 L -2.3,34.1 L -7.6,53.6 L -15.8,72.0 L -26.5,88.5 L -39.3,102.5 L -53.5,113.4 L -68.5,121.0 L -83.6,124.8 L -98.1,125.0 L -111.1,121.7 L -122.0,115.0 Z"/>
      <path d="M -154.5,19.9 L -145.9,7.7 L -133.9,-2.9 L -118.9,-11.5 L -101.6,-17.6 L -82.6,-20.7 L -62.7,-20.8 L -42.7,-17.8 L -36.6,-18.6 L -52.1,-31.6 L -65.3,-46.6 L -75.7,-63.1 L -82.8,-80.3 L -86.5,-97.4 L -86.8,-113.8 L -83.7,-128.7 L -77.6,-141.4 L -68.8,-151.2 L -57.9,-157.7 L -45.7,-160.5 L -32.8,-159.5 L -19.9,-154.5 L -7.7,-145.9 L 2.9,-133.9 L 11.5,-118.9 L 17.6,-101.6 L 20.7,-82.6 L 20.8,-62.7 L 17.8,-42.7 L 18.6,-36.6 L 31.6,-52.1 L 46.6,-65.3 L 63.1,-75.7 L 80.3,-82.8 L 97.4,-86.5 L 113.8,-86.8 L 128.7,-83.7 L 141.4,-77.6 L 151.2,-68.8 L 157.7,-57.9 L 160.5,-45.7 L 159.5,-32.8 L 154.5,-19.9 L 145.9,-7.7 L 133.9,2.9 L 118.9,11.5 L 101.6,17.6 L 82.6,20.7 L 62.7,20.8 L 42.7,17.8 L 36.6,18.6 L 52.1,31.6 L 65.3,46.6 L 75.7,63.1 L 82.8,80.3 L 86.5,97.4 L 86.8,113.8 L 83.7,128.7 L 77.6,141.4 L 68.8,151.2 L 57.9,157.7 L 45.7,160.5 L 32.8,159.5 L 19.9,154.5 L 7.7,145.9 L -2.9,133.9 L -11.5,118.9 L -17.6,101.6 L -20.7,82.6 L -20.8,62.7 L -17.8,42.7 L -18.6,36.6 L -31.6,52.1 L -46.6,65.3 L -63.1,75.7 L -80.3,82.8 L -97.4,86.5 L -113.8,86.8 L -128.7,83.7 L -141.4,77.6 L -151.2,68.8 L -157.7,57.9 L -160.5,45.7 L -159.5,32.8 L -154.5,19.9 Z"/>
      <path d="M -100.0,-54.7 L -81.5,-52.8 L -62.7,-47.6 L -44.4,-39.4 L -27.5,-28.3 L -30.7,-36.7 L -39.4,-55.0 L -45.0,-74.0 L -47.5,-93.0 L -46.7,-111.3 L -42.7,-128.0 L -36.0,-142.5 L -26.9,-154.1 L -16.0,-162.4 L -3.9,-167.0 L 8.7,-167.7 L 20.9,-164.5 L 32.1,-157.5 L 41.7,-147.0 L 48.9,-133.5 L 53.3,-117.7 L 54.7,-100.0 L 52.8,-81.5 L 47.6,-62.7 L 39.4,-44.4 L 28.3,-27.5 L 36.7,-30.7 L 55.0,-39.4 L 74.0,-45.0 L 93.0,-47.5 L 111.3,-46.7 L 128.0,-42.7 L 142.5,-36.0 L 154.1,-26.9 L 162.4,-16.0 L 167.0,-3.9 L 167.7,8.7 L 164.5,20.9 L 157.5,32.1 L 147.0,41.7 L 133.5,48.9 L 117.7,53.3 L 100.0,54.7 L 81.5,52.8 L 62.7,47.6 L 44.4,39.4 L 27.5,28.3 L 30.7,36.7 L 39.4,55.0 L 45.0,74.0 L 47.5,93.0 L 46.7,111.3 L 42.7,128.0 L 36.0,142.5 L 26.9,154.1 L 16.0,162.4 L 3.9,167.0 L -8.7,167.7 L -20.9,164.5 L -32.1,157.5 L -41.7,147.0 L -48.9,133.5 L -53.3,117.7 L -54.7,100.0 L -52.8,81.5 L -47.6,62.7 L -39.4,44.4 L -28.3,27.5 L -36.7,30.7 L -55.0,39.4 L -74.0,45.0 L -93.0,47.5 L -111.3,46.7 L -128.0,42.7 L -142.5,36.0 L -154.1,26.9 L -162.4,16.0 L -167.0,3.9 L -167.7,-8.7 L -164.5,-20.9 L -157.5,-32.1 L -147.0,-41.7 L -133.5,-48.9 L -117.7,-53.3 L -100.0,-54.7 Z"/>
      <path d="M -22.5,-47.5 L -12.4,-32.4 L -15.8,-52.4 L -16.0,-72.5 L -13.2,-91.9 L -7.5,-109.9 L 0.9,-125.8 L 11.4,-138.9 L 23.5,-148.7 L 36.5,-154.9 L 49.7,-157.2 L 62.3,-155.7 L 73.7,-150.4 L 83.2,-141.8 L 90.1,-130.2 L 94.0,-116.2 L 94.6,-100.5 L 91.6,-83.9 L 85.2,-67.0 L 75.5,-50.7 L 62.8,-35.7 L 47.5,-22.5 L 32.4,-12.4 L 52.4,-15.8 L 72.5,-16.0 L 91.9,-13.2 L 109.9,-7.5 L 125.8,0.9 L 138.9,11.4 L 148.7,23.5 L 154.9,36.5 L 157.2,49.7 L 155.7,62.3 L 150.4,73.7 L 141.8,83.2 L 130.2,90.1 L 116.2,94.0 L 100.5,94.6 L 83.9,91.6 L 67.0,85.2 L 50.7,75.5 L 35.7,62.8 L 22.5,47.5 L 12.4,32.4 L 15.8,52.4 L 16.0,72.5 L 13.2,91.9 L 7.5,109.9 L -0.9,125.8 L -11.4,138.9 L -23.5,148.7 L -36.5,154.9 L -49.7,157.2 L -62.3,155.7 L -73.7,150.4 L -83.2,141.8 L -90.1,130.2 L -94.0,116.2 L -94.6,100.5 L -91.6,83.9 L -85.2,67.0 L -75.5,50.7 L -62.8,35.7 L -47.5,22.5 L -32.4,12.4 L -52.4,15.8 L -72.5,16.0 L -91.9,13.2 L -109.9,7.5 L -125.8,-0.9 L -138.9,-11.4 L -148.7,-23.5 L -154.9,-36.5 L -157.2,-49.7 L -155.7,-62.3 L -150.4,-73.7 L -141.8,-83.2 L -130.2,-90.1 L -116.2,-94.0 L -100.5,-94.6 L -83.9,-91.6 L -67.0,-85.2 L -50.7,-75.5 L -35.7,-62.8 L -22.5,-47.5 Z"/>
      <path d="M 15.0,-79.3 L 25.6,-95.6 L 38.2,-109.3 L 52.2,-119.8 L 66.9,-126.9 L 81.7,-130.3 L 95.8,-129.9 L 108.3,-126.0 L 118.7,-118.9 L 126.4,-108.9 L 130.8,-96.7 L 131.7,-82.9 L 128.9,-68.2 L 122.4,-53.5 L 112.3,-39.4 L 99.1,-26.6 L 83.2,-15.8 L 65.1,-7.4 L 45.7,-1.7 L 41.5,1.5 L 61.1,6.8 L 79.3,15.0 L 95.6,25.6 L 109.3,38.2 L 119.8,52.2 L 126.9,66.9 L 130.3,81.7 L 129.9,95.8 L 126.0,108.3 L 118.9,118.7 L 108.9,126.4 L 96.7,130.8 L 82.9,131.7 L 68.2,128.9 L 53.5,122.4 L 39.4,112.3 L 26.6,99.1 L 15.8,83.2 L 7.4,65.1 L 1.7,45.7 L -1.5,41.5 L -6.8,61.1 L -15.0,79.3 L -25.6,95.6 L -38.2,109.3 L -52.2,119.8 L -66.9,126.9 L -81.7,130.3 L -95.8,129.9 L -108.3,126.0 L -118.7,118.9 L -126.4,108.9 L -130.8,96.7 L -131.7,82.9 L -128.9,68.2 L -122.4,53.5 L -112.3,39.4 L -99.1,26.6 L -83.2,15.8 L -65.1,7.4 L -45.7,1.7 L -41.5,-1.5 L -61.1,-6.8 L -79.3,-15.0 L -95.6,-25.6 L -109.3,-38.2 L -119.8,-52.2 L -126.9,-66.9 L -130.3,-81.7 L -129.9,-95.8 L -126.0,-108.3 L -118.9,-118.7 L -108.9,-126.4 L -96.7,-130.8 L -82.9,-131.7 L -68.2,-128.9 L -53.5,-122.4 L -39.4,-112.3 L -26.6,-99.1 L -15.8,-83.2 L -7.4,-65.1 L -1.7,-45.7 L 1.5,-41.5 L 6.8,-61.1 L 15.0,-79.3 Z"/>
      <path d="M 98.4,-92.8 L 114.4,-92.8 L 128.7,-89.3 L 140.8,-82.8 L 150.0,-73.7 L 155.8,-62.6 L 157.9,-50.1 L 156.2,-37.0 L 150.6,-24.0 L 141.4,-11.8 L 128.8,-1.0 L 113.4,7.6 L 95.6,13.6 L 76.4,16.8 L 56.3,16.9 L 36.3,13.9 L 43.8,20.6 L 59.3,33.6 L 72.4,48.5 L 82.5,64.7 L 89.4,81.6 L 92.8,98.4 L 92.8,114.4 L 89.3,128.7 L 82.8,140.8 L 73.7,150.0 L 62.6,155.8 L 50.1,157.9 L 37.0,156.2 L 24.0,150.6 L 11.8,141.4 L 1.0,128.8 L -7.6,113.4 L -13.6,95.6 L -16.8,76.4 L -16.9,56.3 L -13.9,36.3 L -20.6,43.8 L -33.6,59.3 L -48.5,72.4 L -64.7,82.5 L -81.6,89.4 L -98.4,92.8 L -114.4,92.8 L -128.7,89.3 L -140.8,82.8 L -150.0,73.7 L -155.8,62.6 L -157.9,50.1 L -156.2,37.0 L -150.6,24.0 L -141.4,11.8 L -128.8,1.0 L -113.4,-7.6 L -95.6,-13.6 L -76.4,-16.8 L -56.3,-16.9 L -36.3,-13.9 L -43.8,-20.6 L -59.3,-33.6 L -72.4,-48.5 L -82.5,-64.7 L -89.4,-81.6 L -92.8,-98.4 L -92.8,-114.4 L -89.3,-128.7 L -82.8,-140.8 L -73.7,-150.0 L -62.6,-155.8 L -50.1,-157.9 L -37.0,-156.2 L -24.0,-150.6 L -11.8,-141.4 L -1.0,-128.8 L 7.6,-113.4 L 13.6,-95.6 L 16.8,-76.4 L 16.9,-56.3 L 13.9,-36.3 L 20.6,-43.8 L 33.6,-59.3 L 48.5,-72.4 L 64.7,-82.5 L 81.6,-89.4 L 98.4,-92.8 Z"/>
      <path d="M 163.6,-21.0 L 167.5,-8.9 L 167.5,3.6 L 163.5,15.8 L 155.8,27.0 L 144.7,36.4 L 130.6,43.4 L 114.3,47.7 L 96.2,49.0 L 77.3,46.9 L 58.3,41.7 L 40.0,33.3 L 25.3,24.5 L 36.7,41.3 L 45.3,59.4 L 50.9,78.3 L 53.2,97.0 L 52.3,114.9 L 48.2,131.1 L 41.3,145.0 L 32.1,156.0 L 21.0,163.6 L 8.9,167.5 L -3.6,167.5 L -15.8,163.5 L -27.0,155.8 L -36.4,144.7 L -43.4,130.6 L -47.7,114.3 L -49.0,96.2 L -46.9,77.3 L -41.7,58.3 L -33.3,40.0 L -24.5,25.3 L -41.3,36.7 L -59.4,45.3 L -78.3,50.9 L -97.0,53.2 L -114.9,52.3 L -131.1,48.2 L -145.0,41.3 L -156.0,32.1 L -163.6,21.0 L -167.5,8.9 L -167.5,-3.6 L -163.5,-15.8 L -155.8,-27.0 L -144.7,-36.4 L -130.6,-43.4 L -114.3,-47.7 L -96.2,-49.0 L -77.3,-46.9 L -58.3,-41.7 L -40.0,-33.3 L -25.3,-24.5 L -36.7,-41.3 L -45.3,-59.4 L -50.9,-78.3 L -53.2,-97.0 L -52.3,-114.9 L -48.2,-131.1 L -41.3,-145.0 L -32.1,-156.0 L -21.0,-163.6 L -8.9,-167.5 L 3.6,-167.5 L 15.8,-163.5 L 27.0,-155.8 L 36.4,-144.7 L 43.4,-130.6 L 47.7,-114.3 L 49.0,-96.2 L 46.9,-77.3 L 41.7,-58.3 L 33.3,-40.0 L 24.5,-25.3 L 41.3,-36.7 L 59.4,-45.3 L 78.3,-50.9 L 97.0,-53.2 L 114.9,-52.3 L 131.1,-48.2 L 145.0,-41.3 L 156.0,-32.1 L 163.6,-21.0 Z"/>
    </g>
    <circle cx="-59.7" cy="56.3" r="1.2" fill="#1abc9c" opacity="0.90"/>
    <circle cx="-46.2" cy="20.3" r="2.0" fill="#1abc9c" opacity="0.90"/>
    <circle cx="-42.4" cy="75.0" r="1.5" fill="#1abc9c" opacity="0.90"/>
    <circle cx="-12.3" cy="59.6" r="1.0" fill="#1abc9c" opacity="0.90"/>
    <circle cx="30.8" cy="93.5" r="2.4" fill="#1abc9c" opacity="0.90"/>
    <circle cx="-116.3" cy="59.4" r="1.6" fill="#1abc9c" opacity="0.90"/>
    <circle cx="84.3" cy="-85.0" r="1.9" fill="#1abc9c" opacity="0.90"/>
    <circle cx="-116.7" cy="-19.1" r="2.5" fill="#1abc9c" opacity="0.90"/>
    <circle cx="-37.0" cy="-34.5" r="2.1" fill="#1abc9c" opacity="0.90"/>
    <circle cx="-22.4" cy="78.0" r="1.8" fill="#1abc9c" opacity="0.90"/>
    <circle cx="-58.9" cy="53.6" r="1.5" fill="#1abc9c" opacity="0.90"/>
    <circle cx="-13.9" cy="113.8" r="1.7" fill="#1abc9c" opacity="0.90"/>
    <circle cx="-54.1" cy="14.7" r="2.1" fill="#1abc9c" opacity="0.90"/>
    <circle cx="-8.3" cy="95.4" r="1.4" fill="#1abc9c" opacity="0.90"/>
    <circle cx="79.6" cy="68.4" r="1.8" fill="#1abc9c" opacity="0.90"/>
    <circle cx="78.8" cy="90.7" r="2.3" fill="#1abc9c" opacity="0.90"/>
    <circle cx="-46.0" cy="-49.9" r="2.0" fill="#1abc9c" opacity="0.90"/>
    <circle cx="32.2" cy="82.6" r="1.3" fill="#1abc9c" opacity="0.90"/>
    <circle cx="40.7" cy="116.3" r="1.5" fill="#1abc9c" opacity="0.90"/>
    <circle cx="48.8" cy="47.7" r="2.4" fill="#1abc9c" opacity="0.90"/>
    <circle cx="-19.6" cy="-95.4" r="1.1" fill="#1abc9c" opacity="0.90"/>
    <circle cx="97.9" cy="68.9" r="1.2" fill="#1abc9c" opacity="0.90"/>
    <circle cx="-42.8" cy="-27.7" r="1.9" fill="#1abc9c" opacity="0.90"/>
    <circle cx="-133.2" cy="34.7" r="1.0" fill="#1abc9c" opacity="0.90"/>
    <circle cx="-64.7" cy="11.3" r="1.0" fill="#1abc9c" opacity="0.90"/>
    <circle cx="-99.1" cy="-16.4" r="1.5" fill="#1abc9c" opacity="0.90"/>
    <circle cx="-91.0" cy="-95.2" r="2.2" fill="#1abc9c" opacity="0.90"/>
    <circle cx="133.1" cy="-16.5" r="1.8" fill="#1abc9c" opacity="0.90"/>
    <circle cx="49.9" cy="53.9" r="1.4" fill="#1abc9c" opacity="0.90"/>
    <circle cx="-47.1" cy="74.0" r="1.0" fill="#1abc9c" opacity="0.90"/>
    <g fill="none" stroke="#2980b9" stroke-width="1.1" opacity="0.85">
      <path d="M -43.3,11.4 L -68.5,13.9 L -93.4,13.5 L -117.5,10.4 L -140.1,4.5 L -160.4,-3.9 L -177.8,-14.3 L -192.0,-26.4 L -202.4,-39.5 L -208.9,-53.1 L -211.3,-66.5 L -209.5,-79.1 L -203.8,-90.3 L -194.3,-99.5 L -181.6,-106.2 L -166.0,-110.0 L -148.2,-110.6 L -128.7,-107.8 L -108.3,-101.6 L -87.6,-92.0 L -67.4,-79.2 L -48.2,-63.5 L -30.6,-45.5 L -30.6,-51.4 L -39.1,-75.1 L -44.8,-99.1 L -47.4,-122.7 L -46.9,-145.2 L -43.5,-165.9 L -37.4,-184.2 L -28.9,-199.6 L -18.6,-211.4 L -7.0,-219.4 L 5.4,-223.3 L 18.0,-223.0 L 30.0,-218.5 L 40.9,-210.0 L 50.2,-197.7 L 57.3,-182.1 L 61.8,-163.7 L 63.4,-143.1 L 61.9,-120.9 L 57.2,-97.9 L 49.5,-74.7 L 38.8,-52.0 L 32.0,-38.2 L 51.2,-54.6 L 71.8,-68.4 L 93.3,-79.4 L 115.0,-87.2 L 136.2,-91.7 L 156.2,-92.9 L 174.3,-90.9 L 189.9,-85.8 L 202.4,-78.1 L 211.5,-68.3 L 216.7,-56.8 L 217.8,-44.2 L 214.8,-31.1 L 207.6,-18.3 L 196.4,-6.3 L 181.7,4.4 L 163.7,13.2 L 143.0,19.6 L 120.3,23.5 L 96.2,24.4 L 71.4,22.5 L 46.6,17.6 L 59.3,26.3 L 79.7,40.8 L 97.9,57.2 L 113.2,75.0 L 125.4,93.7 L 134.1,112.4 L 139.2,130.7 L 140.7,147.7 L 138.6,162.9 L 133.3,175.7 L 125.0,185.5 L 114.2,192.0 L 101.5,194.6 L 87.4,193.4 L 72.6,188.1 L 57.8,178.9 L 43.5,165.9 L 30.3,149.5 L 18.9,130.1 L 9.5,108.3 L 2.7,84.6 L -1.5,59.8 L -4.4,54.7 L -10.9,79.0 L -19.9,102.1 L -31.3,123.1 L -44.6,141.7 L -59.3,157.1 L -74.9,169.1 L -90.7,177.3 L -106.2,181.6 L -120.6,182.0 L -133.3,178.6 L -143.8,171.6 L -151.5,161.5 L -156.1,148.7 L -157.1,133.7 L -154.4,117.1 L -148.0,99.7 L -137.9,82.0 L -124.3,64.8 L -107.5,48.6 L -88.1,34.0 L -66.5,21.5 L -43.3,11.4 Z"/>
      <path d="M -121.8,-47.5 L -138.1,-63.1 L -151.2,-79.6 L -160.7,-96.4 L -166.5,-113.0 L -168.4,-128.7 L -166.5,-142.7 L -161.1,-154.6 L -152.5,-163.7 L -141.1,-169.7 L -127.5,-172.1 L -112.3,-170.8 L -96.0,-165.6 L -79.4,-156.6 L -63.1,-144.0 L -47.8,-128.0 L -33.9,-109.1 L -21.9,-87.7 L -12.3,-64.6 L -6.5,-48.5 L -5.7,-73.7 L -2.0,-98.4 L 4.3,-121.7 L 13.1,-143.0 L 24.1,-161.8 L 36.7,-177.4 L 50.4,-189.5 L 64.6,-197.7 L 78.8,-201.9 L 92.2,-202.1 L 104.3,-198.2 L 114.4,-190.7 L 122.0,-179.7 L 126.8,-165.8 L 128.2,-149.6 L 126.2,-131.5 L 120.6,-112.4 L 111.5,-92.8 L 99.1,-73.4 L 83.6,-55.0 L 65.5,-38.0 L 45.2,-22.9 L 58.6,-25.7 L 83.1,-31.0 L 107.5,-33.4 L 131.1,-32.8 L 153.1,-29.3 L 172.9,-23.1 L 189.9,-14.6 L 203.6,-4.2 L 213.5,7.6 L 219.5,20.2 L 221.2,32.9 L 218.8,45.2 L 212.3,56.5 L 202.0,66.0 L 188.2,73.5 L 171.5,78.3 L 152.3,80.1 L 131.4,78.8 L 109.4,74.3 L 87.0,66.5 L 64.9,55.7 L 43.8,42.1 L 36.8,39.5 L 50.5,60.7 L 61.4,82.9 L 69.4,105.5 L 74.1,127.8 L 75.7,149.2 L 74.0,168.8 L 69.5,186.2 L 62.3,200.6 L 52.9,211.6 L 41.8,218.8 L 29.7,222.0 L 17.0,221.0 L 4.4,215.8 L -7.3,206.5 L -17.8,193.5 L -26.3,177.1 L -32.6,157.8 L -36.2,136.2 L -36.9,112.9 L -34.6,88.7 L -29.4,64.3 L -21.3,40.4 L -35.5,59.2 L -52.6,77.4 L -71.2,93.1 L -90.7,105.8 L -110.6,115.3 L -130.1,121.2 L -148.6,123.6 L -165.4,122.6 L -179.9,118.3 L -191.5,111.0 L -199.7,101.3 L -204.2,89.5 L -204.7,76.4 L -201.2,62.5 L -193.6,48.4 L -182.2,34.8 L -167.1,22.3 L -148.8,11.4 L -127.8,2.6 L -104.7,-3.7 L -80.3,-7.4 L -55.1,-8.2 L -57.8,-11.9 L -81.0,-21.5 L -102.5,-33.5 L -121.8,-47.5 Z"/>
      <path d="M -105.6,-164.6 L -102.1,-180.8 L -95.8,-194.2 L -86.9,-204.3 L -76.0,-210.7 L -63.6,-213.2 L -50.4,-211.6 L -37.0,-205.8 L -23.9,-196.0 L -12.0,-182.4 L -1.6,-165.5 L 6.8,-145.7 L 12.7,-123.5 L 16.0,-99.6 L 16.3,-74.8 L 13.8,-49.7 L 20.3,-59.8 L 32.9,-81.5 L 47.5,-101.1 L 63.9,-118.2 L 81.3,-132.1 L 99.2,-142.7 L 117.0,-149.6 L 134.0,-152.8 L 149.4,-152.3 L 162.8,-148.3 L 173.5,-141.1 L 181.1,-131.0 L 185.1,-118.7 L 185.3,-104.7 L 181.6,-89.6 L 174.0,-74.0 L 162.5,-58.6 L 147.5,-44.0 L 129.4,-30.8 L 108.6,-19.5 L 85.7,-10.5 L 61.5,-4.0 L 53.1,-0.5 L 78.0,3.6 L 101.8,10.5 L 123.9,19.9 L 143.7,31.4 L 160.5,44.6 L 174.0,59.1 L 183.9,74.1 L 189.8,89.2 L 191.7,103.6 L 189.6,116.7 L 183.9,127.9 L 174.7,136.6 L 162.4,142.5 L 147.7,145.0 L 131.1,144.0 L 113.3,139.3 L 94.8,131.0 L 76.5,119.2 L 58.8,104.1 L 42.5,86.2 L 28.0,65.9 L 15.8,43.8 L 19.5,65.3 L 21.5,90.2 L 20.6,114.6 L 16.8,137.6 L 10.4,158.7 L 1.7,177.2 L -9.0,192.6 L -21.1,204.4 L -34.0,212.3 L -47.2,216.1 L -60.0,215.7 L -71.7,211.2 L -81.8,202.9 L -89.8,191.0 L -95.1,176.0 L -97.5,158.4 L -96.6,138.9 L -92.4,118.1 L -84.8,96.7 L -74.0,75.4 L -60.2,54.9 L -43.9,35.7 L -47.1,34.1 L -69.8,44.8 L -93.2,52.7 L -116.5,57.5 L -139.1,59.1 L -160.2,57.7 L -179.1,53.4 L -195.3,46.5 L -208.3,37.4 L -217.5,26.6 L -222.7,14.6 L -223.8,2.1 L -220.6,-10.3 L -213.4,-22.0 L -202.2,-32.4 L -187.5,-41.0 L -169.8,-47.2 L -149.5,-50.8 L -127.4,-51.4 L -104.1,-48.9 L -80.3,-43.4 L -56.7,-34.9 L -39.5,-27.4 L -57.6,-45.0 L -73.3,-64.3 L -86.3,-84.7 L -96.2,-105.7 L -102.8,-126.4 L -105.9,-146.3 L -105.6,-164.6 Z"/>
      <path d="M 12.9,-223.2 L 25.4,-222.1 L 37.3,-216.9 L 47.8,-207.7 L 56.5,-194.9 L 62.9,-178.8 L 66.6,-160.0 L 67.4,-139.2 L 64.9,-117.0 L 59.3,-94.0 L 50.6,-71.1 L 39.0,-48.8 L 34.9,-38.9 L 54.7,-54.5 L 75.8,-67.5 L 97.6,-77.6 L 119.5,-84.5 L 140.7,-88.0 L 160.5,-88.3 L 178.4,-85.5 L 193.5,-79.8 L 205.6,-71.5 L 214.0,-61.2 L 218.5,-49.4 L 218.8,-36.8 L 215.0,-23.8 L 207.1,-11.2 L 195.2,0.4 L 179.9,10.4 L 161.4,18.5 L 140.3,24.1 L 117.3,27.0 L 93.1,27.0 L 68.3,24.1 L 43.8,18.2 L 60.5,29.3 L 80.3,44.6 L 97.8,61.7 L 112.3,80.0 L 123.7,99.0 L 131.5,118.0 L 135.7,136.2 L 136.4,153.2 L 133.6,168.1 L 127.6,180.5 L 118.7,189.7 L 107.6,195.5 L 94.6,197.5 L 80.5,195.4 L 65.9,189.3 L 51.3,179.3 L 37.5,165.6 L 25.0,148.6 L 14.2,128.6 L 5.8,106.3 L -0.2,82.3 L -3.3,57.4 L -6.5,56.9 L -13.9,80.9 L -23.8,103.5 L -36.0,124.1 L -50.0,141.9 L -65.2,156.6 L -81.2,167.8 L -97.2,175.2 L -112.7,178.7 L -127.0,178.3 L -139.4,174.2 L -149.5,166.6 L -156.6,156.0 L -160.4,142.8 L -160.7,127.6 L -157.2,111.1 L -149.9,93.8 L -138.9,76.4 L -124.5,59.7 L -107.1,44.1 L -87.0,30.3 L -64.9,18.6 L -46.0,10.4 L -71.2,12.0 L -96.1,10.6 L -120.0,6.5 L -142.2,-0.3 L -162.0,-9.4 L -178.8,-20.5 L -192.3,-33.0 L -202.0,-46.5 L -207.7,-60.3 L -209.3,-73.7 L -206.8,-86.1 L -200.4,-96.9 L -190.3,-105.7 L -177.1,-111.8 L -161.2,-114.8 L -143.2,-114.6 L -123.7,-110.9 L -103.4,-103.8 L -83.1,-93.3 L -63.3,-79.6 L -44.7,-63.2 L -27.8,-44.5 L -30.0,-54.5 L -37.6,-78.5 L -42.3,-102.6 L -43.9,-126.2 L -42.5,-148.5 L -38.2,-168.9 L -31.4,-186.8 L -22.3,-201.6 L -11.6,-212.7 L 0.4,-220.0 L 12.9,-223.2 Z"/>
      <path d="M 131.6,-160.7 L 132.3,-144.2 L 129.5,-126.1 L 123.0,-107.1 L 113.0,-87.7 L 99.7,-68.8 L 83.5,-50.9 L 64.6,-34.6 L 43.8,-20.4 L 61.6,-24.6 L 86.3,-28.9 L 110.7,-30.3 L 134.1,-28.8 L 155.8,-24.4 L 175.2,-17.4 L 191.6,-8.3 L 204.7,2.7 L 213.9,14.8 L 219.1,27.6 L 220.1,40.4 L 217.0,52.5 L 209.8,63.4 L 198.9,72.5 L 184.6,79.3 L 167.5,83.4 L 148.1,84.4 L 127.1,82.2 L 105.2,76.7 L 83.0,68.0 L 61.3,56.2 L 40.7,41.8 L 37.0,42.5 L 49.8,64.2 L 59.9,86.8 L 66.9,109.6 L 70.7,132.0 L 71.3,153.2 L 68.9,172.6 L 63.6,189.5 L 55.7,203.4 L 45.9,213.8 L 34.5,220.4 L 22.2,222.8 L 9.5,221.0 L -2.8,215.1 L -14.2,205.1 L -24.1,191.4 L -32.0,174.5 L -37.5,154.8 L -40.2,132.9 L -39.9,109.6 L -36.7,85.4 L -30.5,61.2 L -22.9,40.2 L -38.7,59.9 L -56.5,77.5 L -75.6,92.3 L -95.6,104.2 L -115.7,112.7 L -135.3,117.8 L -153.7,119.4 L -170.3,117.5 L -184.4,112.5 L -195.4,104.7 L -203.0,94.5 L -206.8,82.5 L -206.6,69.3 L -202.3,55.4 L -194.0,41.6 L -181.7,28.4 L -166.0,16.5 L -147.1,6.3 L -125.7,-1.6 L -102.3,-7.1 L -77.7,-9.8 L -52.5,-9.6 L -59.6,-14.4 L -82.5,-24.9 L -103.5,-37.7 L -122.0,-52.4 L -137.7,-68.5 L -149.9,-85.4 L -158.6,-102.6 L -163.5,-119.3 L -164.6,-134.8 L -162.0,-148.6 L -155.9,-160.1 L -146.8,-168.7 L -135.1,-174.0 L -121.2,-175.7 L -105.9,-173.5 L -89.8,-167.5 L -73.4,-157.7 L -57.6,-144.3 L -42.8,-127.6 L -29.6,-108.0 L -18.5,-86.1 L -9.8,-62.6 L -5.1,-51.1 L -3.3,-76.2 L 1.3,-100.7 L 8.6,-123.6 L 18.2,-144.5 L 29.8,-162.6 L 43.0,-177.6 L 57.1,-188.9 L 71.6,-196.3 L 85.8,-199.8 L 99.1,-199.1 L 110.9,-194.6 L 120.6,-186.4 L 127.6,-175.0 L 131.6,-160.7 Z"/>
      <path d="M 147.1,-38.5 L 128.3,-26.0 L 107.0,-15.5 L 83.7,-7.4 L 59.2,-1.9 L 55.5,1.3 L 80.1,6.5 L 103.6,14.2 L 125.3,24.4 L 144.4,36.7 L 160.6,50.5 L 173.4,65.4 L 182.4,80.8 L 187.5,96.0 L 188.6,110.3 L 185.8,123.2 L 179.4,134.0 L 169.7,142.2 L 157.0,147.4 L 142.1,149.1 L 125.4,147.3 L 107.6,141.8 L 89.3,132.6 L 71.4,120.0 L 54.3,104.1 L 38.6,85.5 L 24.9,64.6 L 14.0,43.2 L 17.9,68.2 L 18.9,93.1 L 17.0,117.3 L 12.4,140.1 L 5.1,160.8 L -4.3,178.8 L -15.6,193.5 L -28.1,204.6 L -41.3,211.7 L -54.5,214.8 L -67.2,213.6 L -78.7,208.4 L -88.4,199.5 L -95.7,187.0 L -100.4,171.6 L -101.9,153.8 L -100.2,134.2 L -95.0,113.4 L -86.5,92.2 L -74.9,71.3 L -60.3,51.3 L -43.2,32.8 L -50.2,33.8 L -73.3,43.6 L -96.9,50.5 L -120.3,54.4 L -142.8,55.1 L -163.6,52.8 L -182.2,47.7 L -197.9,40.1 L -210.2,30.5 L -218.8,19.3 L -223.3,7.1 L -223.6,-5.4 L -219.7,-17.7 L -211.7,-29.1 L -199.9,-39.0 L -184.7,-46.9 L -166.5,-52.4 L -146.0,-55.1 L -123.7,-54.8 L -100.4,-51.4 L -76.8,-44.9 L -53.5,-35.5 L -40.4,-30.2 L -57.8,-48.5 L -72.8,-68.3 L -84.9,-89.2 L -93.9,-110.3 L -99.5,-131.2 L -101.8,-151.1 L -100.7,-169.2 L -96.5,-185.0 L -89.4,-197.9 L -80.1,-207.4 L -68.8,-213.2 L -56.3,-214.9 L -43.1,-212.5 L -29.9,-206.0 L -17.2,-195.4 L -5.8,-181.2 L 4.0,-163.7 L 11.6,-143.4 L 16.6,-120.8 L 18.9,-96.8 L 18.3,-71.9 L 14.8,-46.9 L 23.1,-61.3 L 36.5,-82.4 L 51.9,-101.4 L 68.9,-117.7 L 86.7,-130.9 L 105.0,-140.6 L 122.9,-146.6 L 139.8,-149.0 L 155.1,-147.7 L 168.1,-143.0 L 178.3,-135.2 L 185.2,-124.8 L 188.5,-112.2 L 188.0,-98.0 L 183.5,-82.9 L 175.0,-67.6 L 162.8,-52.6 L 147.1,-38.5 Z"/>
      <path d="M 65.3,25.5 L 41.0,18.7 L 61.6,32.4 L 80.8,48.5 L 97.4,66.2 L 111.2,85.0 L 121.6,104.3 L 128.6,123.4 L 132.0,141.7 L 131.8,158.5 L 128.3,173.1 L 121.6,185.0 L 112.3,193.7 L 100.8,198.8 L 87.7,200.0 L 73.6,197.2 L 59.1,190.3 L 44.9,179.5 L 31.6,165.1 L 19.7,147.4 L 9.7,126.9 L 2.1,104.2 L -2.8,79.9 L -5.0,54.9 L -8.8,59.0 L -17.1,82.7 L -27.9,104.8 L -40.8,124.8 L -55.4,141.9 L -71.1,155.9 L -87.5,166.2 L -103.7,172.8 L -119.2,175.5 L -133.3,174.4 L -145.4,169.6 L -154.9,161.4 L -161.4,150.4 L -164.5,136.9 L -164.0,121.5 L -159.7,105.0 L -151.5,87.9 L -139.8,70.9 L -124.6,54.6 L -106.4,39.7 L -85.8,26.6 L -63.2,15.8 L -48.7,9.3 L -73.9,9.9 L -98.7,7.6 L -122.3,2.5 L -144.1,-5.1 L -163.3,-15.0 L -179.6,-26.7 L -192.3,-39.8 L -201.3,-53.5 L -206.2,-67.4 L -207.0,-80.8 L -203.8,-93.0 L -196.7,-103.5 L -186.1,-111.7 L -172.5,-117.1 L -156.2,-119.4 L -138.1,-118.4 L -118.6,-113.8 L -98.5,-105.8 L -78.5,-94.4 L -59.2,-79.9 L -41.2,-62.7 L -25.1,-43.3 L -29.2,-57.6 L -35.9,-81.8 L -39.6,-106.0 L -40.2,-129.5 L -37.9,-151.7 L -32.8,-171.7 L -25.3,-189.1 L -15.6,-203.3 L -4.4,-213.8 L 7.8,-220.4 L 20.5,-222.8 L 32.9,-221.0 L 44.4,-215.0 L 54.6,-205.2 L 62.7,-191.8 L 68.4,-175.3 L 71.3,-156.2 L 71.1,-135.2 L 67.8,-112.9 L 61.2,-90.1 L 51.6,-67.5 L 39.1,-45.6 L 37.8,-39.4 L 58.2,-54.2 L 79.8,-66.3 L 101.9,-75.5 L 123.9,-81.5 L 145.1,-84.1 L 164.8,-83.6 L 182.3,-79.9 L 197.0,-73.5 L 208.4,-64.7 L 216.2,-54.0 L 220.0,-42.0 L 219.6,-29.3 L 215.0,-16.5 L 206.3,-4.2 L 193.8,6.9 L 177.8,16.3 L 158.8,23.6 L 137.4,28.4 L 114.2,30.4 L 90.0,29.4 L 65.3,25.5 Z"/>
      <path d="M 58.1,90.6 L 64.2,113.6 L 67.1,136.0 L 66.8,157.1 L 63.5,176.2 L 57.5,192.7 L 49.1,206.1 L 38.7,215.8 L 27.1,221.6 L 14.6,223.3 L 2.1,220.8 L -10.0,214.1 L -21.0,203.4 L -30.3,189.2 L -37.5,171.7 L -42.2,151.7 L -44.0,129.5 L -42.8,106.1 L -38.6,82.0 L -31.4,58.0 L -25.5,41.5 L -42.1,60.5 L -60.5,77.3 L -80.1,91.4 L -100.5,102.4 L -120.8,110.0 L -140.4,114.2 L -158.7,114.9 L -175.0,112.3 L -188.7,106.6 L -199.2,98.2 L -206.1,87.7 L -209.2,75.4 L -208.2,62.1 L -203.1,48.4 L -194.0,34.8 L -181.1,22.1 L -164.7,10.8 L -145.3,1.4 L -123.4,-5.8 L -99.8,-10.3 L -75.0,-12.0 L -49.8,-10.9 L -61.4,-17.1 L -83.8,-28.4 L -104.2,-42.0 L -122.1,-57.4 L -136.9,-74.0 L -148.4,-91.3 L -156.2,-108.7 L -160.3,-125.4 L -160.6,-140.8 L -157.3,-154.3 L -150.6,-165.4 L -141.0,-173.4 L -128.8,-178.0 L -114.8,-179.0 L -99.5,-176.0 L -83.4,-169.2 L -67.4,-158.6 L -52.0,-144.4 L -37.9,-126.9 L -25.4,-106.8 L -15.2,-84.4 L -7.4,-60.5 L -3.5,-53.6 L -0.7,-78.7 L 4.8,-102.8 L 12.9,-125.4 L 23.4,-145.7 L 35.7,-163.2 L 49.3,-177.5 L 63.8,-188.0 L 78.5,-194.7 L 92.8,-197.3 L 105.9,-196.0 L 117.4,-190.7 L 126.6,-182.0 L 133.0,-170.0 L 136.3,-155.4 L 136.2,-138.8 L 132.5,-120.6 L 125.1,-101.7 L 114.3,-82.7 L 100.2,-64.3 L 83.1,-47.0 L 63.6,-31.4 L 42.3,-18.0 L 64.7,-23.3 L 89.4,-26.7 L 113.8,-27.1 L 137.0,-24.6 L 158.4,-19.3 L 177.3,-11.6 L 193.2,-1.8 L 205.5,9.6 L 214.1,22.1 L 218.5,35.0 L 218.7,47.8 L 214.8,59.7 L 207.0,70.3 L 195.5,78.8 L 180.7,85.0 L 163.3,88.3 L 143.7,88.4 L 122.7,85.3 L 100.9,78.9 L 79.0,69.3 L 57.7,56.6 L 37.7,41.4 L 37.1,45.6 L 49.0,67.7 L 58.1,90.6 Z"/>
      <path d="M -10.4,180.1 L -22.2,194.2 L -35.1,204.5 L -48.6,210.9 L -61.8,213.2 L -74.4,211.3 L -85.5,205.4 L -94.7,195.8 L -101.5,182.9 L -105.4,167.1 L -106.2,149.0 L -103.5,129.4 L -97.5,108.7 L -88.1,87.8 L -75.5,67.2 L -60.1,47.8 L -42.3,29.9 L -53.3,33.4 L -76.8,42.2 L -100.6,48.2 L -124.0,51.1 L -146.4,50.9 L -166.9,47.8 L -185.1,41.9 L -200.3,33.6 L -212.0,23.5 L -219.8,11.9 L -223.6,-0.4 L -223.1,-12.9 L -218.5,-25.0 L -209.8,-36.1 L -197.4,-45.4 L -181.7,-52.7 L -163.1,-57.4 L -142.3,-59.3 L -119.9,-58.0 L -96.7,-53.7 L -73.3,-46.2 L -50.4,-35.9 L -41.3,-33.0 L -57.9,-51.9 L -72.1,-72.3 L -83.3,-93.6 L -91.4,-115.0 L -96.1,-135.9 L -97.4,-155.7 L -95.5,-173.6 L -90.6,-189.0 L -83.0,-201.4 L -73.1,-210.3 L -61.6,-215.3 L -49.0,-216.3 L -35.8,-213.1 L -22.8,-205.9 L -10.6,-194.6 L 0.3,-179.7 L 9.4,-161.7 L 16.1,-140.9 L 20.3,-118.1 L 21.6,-93.9 L 20.0,-69.0 L 15.5,-44.1 L 26.1,-62.7 L 40.3,-83.3 L 56.4,-101.6 L 73.9,-117.1 L 92.2,-129.4 L 110.7,-138.2 L 128.7,-143.4 L 145.5,-145.0 L 160.5,-142.9 L 173.1,-137.5 L 182.8,-129.2 L 189.1,-118.3 L 191.7,-105.5 L 190.4,-91.2 L 185.1,-76.3 L 175.8,-61.2 L 162.8,-46.6 L 146.4,-33.1 L 127.0,-21.3 L 105.2,-11.7 L 81.6,-4.4 L 56.8,0.1 L 57.8,3.4 L 82.2,9.4 L 105.3,18.1 L 126.4,29.1 L 145.0,42.1 L 160.4,56.5 L 172.4,71.8 L 180.6,87.4 L 184.9,102.6 L 185.3,116.9 L 181.8,129.5 L 174.7,139.9 L 164.5,147.5 L 151.5,152.0 L 136.3,153.0 L 119.5,150.4 L 101.8,144.0 L 83.9,134.0 L 66.3,120.5 L 49.8,103.9 L 34.9,84.6 L 22.0,63.1 L 13.2,46.0 L 16.1,71.1 L 16.1,96.0 L 13.3,120.0 L 7.7,142.5 L -0.3,162.7 L -10.4,180.1 Z"/>
      <path d="M -139.4,170.2 L -151.1,164.7 L -160.2,156.0 L -166.0,144.5 L -168.4,130.8 L -167.1,115.3 L -161.9,98.8 L -153.0,81.9 L -140.4,65.4 L -124.4,49.7 L -105.6,35.4 L -84.4,23.1 L -61.3,13.2 L -51.4,8.0 L -76.6,7.6 L -101.2,4.4 L -124.5,-1.6 L -145.8,-10.1 L -164.5,-20.7 L -180.1,-33.0 L -192.1,-46.5 L -200.3,-60.5 L -204.4,-74.5 L -204.5,-87.8 L -200.5,-99.8 L -192.8,-109.9 L -181.7,-117.5 L -167.6,-122.3 L -151.1,-123.8 L -132.9,-121.9 L -113.5,-116.5 L -93.6,-107.5 L -74.0,-95.3 L -55.2,-80.0 L -37.9,-62.1 L -22.5,-42.0 L -28.3,-60.7 L -34.0,-85.1 L -36.7,-109.4 L -36.4,-132.8 L -33.2,-154.7 L -27.3,-174.4 L -19.0,-191.2 L -8.8,-204.8 L 2.8,-214.6 L 15.3,-220.4 L 28.0,-222.1 L 40.3,-219.5 L 51.5,-212.9 L 61.2,-202.4 L 68.7,-188.4 L 73.7,-171.5 L 75.7,-152.2 L 74.7,-131.0 L 70.4,-108.8 L 62.9,-86.2 L 52.3,-63.9 L 39.0,-42.5 L 40.8,-39.8 L 61.8,-53.8 L 83.7,-65.0 L 106.1,-73.2 L 128.3,-78.3 L 149.4,-80.0 L 168.8,-78.6 L 186.0,-74.2 L 200.2,-67.1 L 211.1,-57.8 L 218.1,-46.8 L 221.2,-34.6 L 220.0,-21.9 L 214.7,-9.2 L 205.3,2.7 L 192.1,13.3 L 175.6,22.1 L 156.2,28.6 L 134.4,32.5 L 111.1,33.6 L 86.7,31.6 L 62.2,26.7 L 42.0,20.9 L 62.5,35.6 L 81.0,52.4 L 96.9,70.7 L 109.8,90.0 L 119.4,109.6 L 125.5,128.8 L 128.0,147.1 L 127.0,163.7 L 122.8,177.9 L 115.5,189.3 L 105.8,197.4 L 94.0,201.8 L 80.7,202.3 L 66.6,198.7 L 52.3,191.0 L 38.5,179.5 L 25.7,164.3 L 14.5,146.0 L 5.4,125.0 L -1.3,101.9 L -5.4,77.5 L -6.6,52.3 L -11.2,61.0 L -20.4,84.3 L -32.0,106.0 L -45.7,125.3 L -60.9,141.7 L -77.1,154.9 L -93.7,164.4 L -110.1,170.2 L -125.5,172.1 L -139.4,170.2 Z"/>
    </g>
    <circle cx="-15.7" cy="-73.9" r="1.5" fill="#2980b9" opacity="0.85"/>
    <circle cx="-98.1" cy="-47.1" r="0.8" fill="#2980b9" opacity="0.85"/>
    <circle cx="53.8" cy="48.1" r="1.2" fill="#2980b9" opacity="0.85"/>
    <circle cx="-149.0" cy="-45.6" r="1.8" fill="#2980b9" opacity="0.85"/>
    <circle cx="64.5" cy="-38.6" r="0.9" fill="#2980b9" opacity="0.85"/>
    <circle cx="-142.8" cy="-113.9" r="2.1" fill="#2980b9" opacity="0.85"/>
    <circle cx="-80.1" cy="143.7" r="1.9" fill="#2980b9" opacity="0.85"/>
    <circle cx="-51.9" cy="192.2" r="2.1" fill="#2980b9" opacity="0.85"/>
    <circle cx="-40.6" cy="88.0" r="1.4" fill="#2980b9" opacity="0.85"/>
    <circle cx="-106.7" cy="-166.8" r="1.1" fill="#2980b9" opacity="0.85"/>
    <circle cx="7.1" cy="-189.8" r="2.0" fill="#2980b9" opacity="0.85"/>
    <circle cx="-184.1" cy="7.8" r="1.6" fill="#2980b9" opacity="0.85"/>
    <circle cx="64.1" cy="185.2" r="1.5" fill="#2980b9" opacity="0.85"/>
    <circle cx="31.4" cy="78.4" r="1.6" fill="#2980b9" opacity="0.85"/>
    <circle cx="23.1" cy="86.1" r="2.1" fill="#2980b9" opacity="0.85"/>
    <circle cx="-30.2" cy="65.3" r="2.2" fill="#2980b9" opacity="0.85"/>
    <circle cx="143.5" cy="-100.6" r="1.3" fill="#2980b9" opacity="0.85"/>
    <circle cx="-73.0" cy="165.4" r="1.5" fill="#2980b9" opacity="0.85"/>
    <circle cx="-41.2" cy="77.6" r="2.2" fill="#2980b9" opacity="0.85"/>
    <circle cx="151.7" cy="-123.2" r="1.7" fill="#2980b9" opacity="0.85"/>
    <circle cx="14.9" cy="-129.2" r="1.7" fill="#2980b9" opacity="0.85"/>
    <circle cx="-122.2" cy="129.6" r="0.9" fill="#2980b9" opacity="0.85"/>
    <circle cx="136.9" cy="-86.1" r="1.7" fill="#2980b9" opacity="0.85"/>
    <circle cx="-125.6" cy="-79.7" r="1.8" fill="#2980b9" opacity="0.85"/>
    <circle cx="-86.4" cy="-167.4" r="1.9" fill="#2980b9" opacity="0.85"/>
    <circle cx="111.1" cy="137.2" r="1.3" fill="#2980b9" opacity="0.85"/>
    <circle cx="-20.3" cy="118.1" r="0.8" fill="#2980b9" opacity="0.85"/>
    <circle cx="-72.2" cy="-56.8" r="1.3" fill="#2980b9" opacity="0.85"/>
    <circle cx="-76.4" cy="-24.2" r="0.9" fill="#2980b9" opacity="0.85"/>
    <circle cx="83.2" cy="135.0" r="1.8" fill="#2980b9" opacity="0.85"/>
    <circle cx="-67.8" cy="-173.3" r="1.4" fill="#2980b9" opacity="0.85"/>
    <circle cx="-43.5" cy="-138.7" r="2.2" fill="#2980b9" opacity="0.85"/>
    <circle cx="103.7" cy="106.1" r="2.2" fill="#2980b9" opacity="0.85"/>
    <circle cx="13.2" cy="-107.2" r="1.7" fill="#2980b9" opacity="0.85"/>
    <circle cx="93.0" cy="166.7" r="0.9" fill="#2980b9" opacity="0.85"/>
    <circle cx="145.5" cy="102.8" r="1.5" fill="#2980b9" opacity="0.85"/>
    <circle cx="-60.4" cy="-123.6" r="0.8" fill="#2980b9" opacity="0.85"/>
    <circle cx="73.4" cy="-87.0" r="1.5" fill="#2980b9" opacity="0.85"/>
    <circle cx="127.8" cy="117.5" r="1.0" fill="#2980b9" opacity="0.85"/>
    <circle cx="44.4" cy="-156.3" r="1.9" fill="#2980b9" opacity="0.85"/>
    <g fill="none" stroke="#16a085" stroke-width="1.0" opacity="0.80">
      <path d="M -45.3,33.0 L -71.8,47.5 L -99.2,59.4 L -126.8,68.4 L -153.9,74.3 L -179.9,77.0 L -204.0,76.7 L -225.6,73.5 L -244.1,67.6 L -259.0,59.3 L -269.9,49.2 L -276.5,37.7 L -278.6,25.3 L -276.1,12.6 L -269.0,0.2 L -257.6,-11.4 L -242.0,-21.6 L -222.7,-30.0 L -200.1,-36.2 L -174.9,-39.8 L -147.7,-40.6 L -119.1,-38.6 L -89.9,-33.7 L -60.8,-25.9 L -68.6,-33.0 L -93.2,-50.1 L -115.7,-69.0 L -135.4,-89.2 L -151.9,-110.2 L -164.9,-131.3 L -174.2,-151.9 L -179.6,-171.4 L -181.2,-189.2 L -179.1,-204.6 L -173.5,-217.2 L -164.8,-226.4 L -153.3,-231.9 L -139.7,-233.3 L -124.3,-230.6 L -107.9,-223.6 L -91.0,-212.5 L -74.2,-197.3 L -58.1,-178.4 L -43.3,-156.3 L -30.1,-131.3 L -19.0,-104.1 L -10.3,-75.4 L -6.0,-65.8 L -4.4,-95.9 L -0.1,-125.2 L 6.8,-153.0 L 15.9,-178.7 L 27.1,-201.6 L 39.9,-221.1 L 53.9,-236.9 L 68.4,-248.6 L 82.9,-255.9 L 96.9,-258.9 L 109.8,-257.3 L 120.9,-251.6 L 129.8,-241.7 L 136.1,-228.2 L 139.3,-211.5 L 139.3,-192.0 L 135.7,-170.5 L 128.6,-147.5 L 118.0,-123.6 L 104.0,-99.6 L 87.0,-76.1 L 67.2,-53.7 L 45.3,-33.0 L 71.8,-47.5 L 99.2,-59.4 L 126.8,-68.4 L 153.9,-74.3 L 179.9,-77.0 L 204.0,-76.7 L 225.6,-73.5 L 244.1,-67.6 L 259.0,-59.3 L 269.9,-49.2 L 276.5,-37.7 L 278.6,-25.3 L 276.1,-12.6 L 269.0,-0.2 L 257.6,11.4 L 242.0,21.6 L 222.7,30.0 L 200.1,36.2 L 174.9,39.8 L 147.7,40.6 L 119.1,38.6 L 89.9,33.7 L 60.8,25.9 L 68.6,33.0 L 93.2,50.1 L 115.7,69.0 L 135.4,89.2 L 151.9,110.2 L 164.9,131.3 L 174.2,151.9 L 179.6,171.4 L 181.2,189.2 L 179.1,204.6 L 173.5,217.2 L 164.8,226.4 L 153.3,231.9 L 139.7,233.3 L 124.3,230.6 L 107.9,223.6 L 91.0,212.5 L 74.2,197.3 L 58.1,178.4 L 43.3,156.3 L 30.1,131.3 L 19.0,104.1 L 10.3,75.4 L 6.0,65.8 L 4.4,95.9 L 0.1,125.2 L -6.8,153.0 L -15.9,178.7 L -27.1,201.6 L -39.9,221.1 L -53.9,236.9 L -68.4,248.6 L -82.9,255.9 L -96.9,258.9 L -109.8,257.3 L -120.9,251.6 L -129.8,241.7 L -136.1,228.2 L -139.3,211.5 L -139.3,192.0 L -135.7,170.5 L -128.6,147.5 L -118.0,123.6 L -104.0,99.6 L -87.0,76.1 L -67.2,53.7 L -45.3,33.0 Z"/>
      <path d="M -163.4,0.1 L -188.6,-8.3 L -211.0,-18.8 L -229.9,-31.0 L -245.0,-44.3 L -256.0,-58.2 L -262.5,-72.2 L -264.6,-85.7 L -262.2,-98.2 L -255.5,-109.0 L -244.7,-117.6 L -230.3,-123.7 L -212.6,-126.8 L -192.3,-126.7 L -169.8,-123.2 L -145.9,-116.2 L -121.3,-105.8 L -96.5,-92.1 L -72.3,-75.4 L -49.2,-56.2 L -42.1,-52.7 L -57.3,-78.7 L -69.8,-105.6 L -79.3,-132.5 L -85.7,-158.9 L -88.9,-184.1 L -88.8,-207.4 L -85.8,-228.1 L -80.1,-245.7 L -71.9,-259.7 L -61.8,-269.7 L -50.2,-275.3 L -37.7,-276.4 L -24.8,-272.9 L -12.1,-264.9 L -0.2,-252.6 L 10.4,-236.2 L 19.3,-216.1 L 26.0,-192.8 L 30.2,-167.0 L 31.7,-139.2 L 30.3,-110.1 L 26.1,-80.5 L 20.1,-53.8 L 34.3,-80.5 L 50.7,-105.4 L 68.8,-128.0 L 88.2,-147.8 L 108.3,-164.3 L 128.5,-177.2 L 148.3,-186.2 L 166.9,-191.4 L 183.8,-192.6 L 198.4,-190.0 L 210.1,-183.9 L 218.5,-174.6 L 223.3,-162.5 L 224.0,-148.1 L 220.7,-132.1 L 213.2,-114.9 L 201.5,-97.2 L 186.0,-79.7 L 166.8,-62.8 L 144.4,-47.1 L 119.4,-33.0 L 92.2,-21.1 L 63.6,-11.6 L 76.8,-10.5 L 106.8,-9.7 L 135.9,-6.2 L 163.4,-0.1 L 188.6,8.3 L 211.0,18.8 L 229.9,31.0 L 245.0,44.3 L 256.0,58.2 L 262.5,72.2 L 264.6,85.7 L 262.2,98.2 L 255.5,109.0 L 244.7,117.6 L 230.3,123.7 L 212.6,126.8 L 192.3,126.7 L 169.8,123.2 L 145.9,116.2 L 121.3,105.8 L 96.5,92.1 L 72.3,75.4 L 49.2,56.2 L 42.1,52.7 L 57.3,78.7 L 69.8,105.6 L 79.3,132.5 L 85.7,158.9 L 88.9,184.1 L 88.8,207.4 L 85.8,228.1 L 80.1,245.7 L 71.9,259.7 L 61.8,269.7 L 50.2,275.3 L 37.7,276.4 L 24.8,272.9 L 12.1,264.9 L 0.2,252.6 L -10.4,236.2 L -19.3,216.1 L -26.0,192.8 L -30.2,167.0 L -31.7,139.2 L -30.3,110.1 L -26.1,80.5 L -20.1,53.8 L -34.3,80.5 L -50.7,105.4 L -68.8,128.0 L -88.2,147.8 L -108.3,164.3 L -128.5,177.2 L -148.3,186.2 L -166.9,191.4 L -183.8,192.6 L -198.4,190.0 L -210.1,183.9 L -218.5,174.6 L -223.3,162.5 L -224.0,148.1 L -220.7,132.1 L -213.2,114.9 L -201.5,97.2 L -186.0,79.7 L -166.8,62.8 L -144.4,47.1 L -119.4,33.0 L -92.2,21.1 L -63.6,11.6 L -76.8,10.5 L -106.8,9.7 L -135.9,6.2 L -163.4,0.1 Z"/>
      <path d="M -197.9,-143.5 L -202.6,-161.3 L -203.4,-177.4 L -200.3,-191.2 L -193.6,-202.1 L -183.6,-209.8 L -170.8,-213.9 L -155.8,-214.0 L -138.9,-210.1 L -121.0,-202.1 L -102.5,-190.1 L -84.1,-174.2 L -66.3,-154.8 L -49.8,-132.4 L -35.0,-107.3 L -22.2,-80.2 L -13.1,-57.3 L -15.9,-87.4 L -16.0,-117.2 L -13.3,-146.0 L -7.9,-173.1 L -0.2,-197.9 L 9.7,-219.6 L 21.2,-237.9 L 34.0,-252.3 L 47.4,-262.4 L 61.0,-268.2 L 74.1,-269.3 L 86.2,-266.0 L 96.7,-258.4 L 105.2,-246.7 L 111.1,-231.3 L 114.2,-212.6 L 114.1,-191.4 L 110.7,-168.0 L 103.9,-143.3 L 93.8,-117.8 L 80.5,-92.3 L 64.4,-67.4 L 45.7,-43.7 L 59.4,-52.0 L 84.9,-67.8 L 111.1,-80.8 L 137.3,-90.8 L 163.0,-97.6 L 187.3,-101.0 L 209.7,-101.2 L 229.6,-98.3 L 246.2,-92.6 L 259.3,-84.5 L 268.2,-74.3 L 272.9,-62.5 L 273.1,-49.8 L 268.7,-36.6 L 259.8,-23.6 L 246.6,-11.3 L 229.4,-0.2 L 208.5,9.2 L 184.6,16.5 L 158.2,21.3 L 129.9,23.5 L 100.5,22.9 L 70.6,19.4 L 65.5,21.2 L 92.5,34.6 L 117.7,50.2 L 140.4,67.5 L 160.1,86.0 L 176.5,105.3 L 189.2,124.6 L 197.9,143.5 L 202.6,161.3 L 203.4,177.4 L 200.3,191.2 L 193.6,202.1 L 183.6,209.8 L 170.8,213.9 L 155.8,214.0 L 138.9,210.1 L 121.0,202.1 L 102.5,190.1 L 84.1,174.2 L 66.3,154.8 L 49.8,132.4 L 35.0,107.3 L 22.2,80.2 L 13.1,57.3 L 15.9,87.4 L 16.0,117.2 L 13.3,146.0 L 7.9,173.1 L 0.2,197.9 L -9.7,219.6 L -21.2,237.9 L -34.0,252.3 L -47.4,262.4 L -61.0,268.2 L -74.1,269.3 L -86.2,266.0 L -96.7,258.4 L -105.2,246.7 L -111.1,231.3 L -114.2,212.6 L -114.1,191.4 L -110.7,168.0 L -103.9,143.3 L -93.8,117.8 L -80.5,92.3 L -64.4,67.4 L -45.7,43.7 L -59.4,52.0 L -84.9,67.8 L -111.1,80.8 L -137.3,90.8 L -163.0,97.6 L -187.3,101.0 L -209.7,101.2 L -229.6,98.3 L -246.2,92.6 L -259.3,84.5 L -268.2,74.3 L -272.9,62.5 L -273.1,49.8 L -268.7,36.6 L -259.8,23.6 L -246.6,11.3 L -229.4,0.2 L -208.5,-9.2 L -184.6,-16.5 L -158.2,-21.3 L -129.9,-23.5 L -100.5,-22.9 L -70.6,-19.4 L -65.5,-21.2 L -92.5,-34.6 L -117.7,-50.2 L -140.4,-67.5 L -160.1,-86.0 L -176.5,-105.3 L -189.2,-124.6 L -197.9,-143.5 Z"/>
      <path d="M -86.6,-265.7 L -74.6,-269.4 L -61.5,-268.6 L -48.0,-263.3 L -34.6,-253.6 L -21.8,-239.6 L -10.1,-221.6 L -0.2,-200.2 L 7.7,-175.7 L 13.3,-148.8 L 16.2,-120.1 L 16.3,-90.3 L 13.7,-60.3 L 21.3,-77.4 L 33.9,-104.6 L 48.6,-129.9 L 65.1,-152.6 L 82.8,-172.2 L 101.2,-188.4 L 119.7,-200.8 L 137.8,-209.1 L 154.8,-213.4 L 170.1,-213.6 L 183.1,-209.9 L 193.3,-202.5 L 200.3,-191.8 L 203.8,-178.3 L 203.4,-162.4 L 199.0,-144.8 L 190.6,-126.0 L 178.2,-106.7 L 162.1,-87.4 L 142.6,-68.8 L 120.2,-51.5 L 95.2,-35.8 L 68.3,-22.3 L 67.7,-18.8 L 97.6,-22.4 L 127.2,-23.2 L 155.6,-21.2 L 182.2,-16.5 L 206.3,-9.4 L 227.5,-0.2 L 245.0,10.8 L 258.6,23.1 L 267.9,36.1 L 272.7,49.3 L 273.0,62.1 L 268.7,73.9 L 260.1,84.3 L 247.4,92.6 L 231.1,98.5 L 211.5,101.7 L 189.4,101.7 L 165.2,98.5 L 139.6,92.0 L 113.4,82.3 L 87.2,69.4 L 61.7,53.8 L 43.6,41.6 L 62.4,65.2 L 78.8,90.1 L 92.3,115.6 L 102.7,141.1 L 109.7,166.0 L 113.4,189.5 L 113.7,211.0 L 110.9,229.9 L 105.2,245.6 L 96.9,257.7 L 86.6,265.7 L 74.6,269.4 L 61.5,268.6 L 48.0,263.3 L 34.6,253.6 L 21.8,239.6 L 10.1,221.6 L 0.2,200.2 L -7.7,175.7 L -13.3,148.8 L -16.2,120.1 L -16.3,90.3 L -13.7,60.3 L -21.3,77.4 L -33.9,104.6 L -48.6,129.9 L -65.1,152.6 L -82.8,172.2 L -101.2,188.4 L -119.7,200.8 L -137.8,209.1 L -154.8,213.4 L -170.1,213.6 L -183.1,209.9 L -193.3,202.5 L -200.3,191.8 L -203.8,178.3 L -203.4,162.4 L -199.0,144.8 L -190.6,126.0 L -178.2,106.7 L -162.1,87.4 L -142.6,68.8 L -120.2,51.5 L -95.2,35.8 L -68.3,22.3 L -67.7,18.8 L -97.6,22.4 L -127.2,23.2 L -155.6,21.2 L -182.2,16.5 L -206.3,9.4 L -227.5,0.2 L -245.0,-10.8 L -258.6,-23.1 L -267.9,-36.1 L -272.7,-49.3 L -273.0,-62.1 L -268.7,-73.9 L -260.1,-84.3 L -247.4,-92.6 L -231.1,-98.5 L -211.5,-101.7 L -189.4,-101.7 L -165.2,-98.5 L -139.6,-92.0 L -113.4,-82.3 L -87.2,-69.4 L -61.7,-53.8 L -43.6,-41.6 L -62.4,-65.2 L -78.8,-90.1 L -92.3,-115.6 L -102.7,-141.1 L -109.7,-166.0 L -113.4,-189.5 L -113.7,-211.0 L -110.9,-229.9 L -105.2,-245.6 L -96.9,-257.7 L -86.6,-265.7 Z"/>
      <path d="M 80.0,-247.0 L 86.0,-229.8 L 89.3,-209.3 L 89.5,-186.3 L 86.6,-161.3 L 80.5,-134.9 L 71.2,-108.0 L 58.9,-81.2 L 43.9,-55.1 L 47.1,-54.0 L 70.1,-73.5 L 94.3,-90.3 L 119.1,-104.2 L 143.8,-114.9 L 167.9,-122.2 L 190.5,-126.0 L 211.1,-126.3 L 229.0,-123.5 L 243.8,-117.7 L 254.9,-109.2 L 262.0,-98.6 L 264.8,-86.3 L 263.2,-72.9 L 257.0,-58.9 L 246.4,-44.9 L 231.7,-31.6 L 213.1,-19.3 L 191.0,-8.7 L 166.0,-0.1 L 138.7,6.1 L 109.7,9.8 L 79.7,10.7 L 60.7,11.0 L 89.4,20.3 L 116.7,32.1 L 142.0,46.0 L 164.6,61.6 L 184.0,78.5 L 199.9,96.1 L 211.9,113.8 L 219.8,131.1 L 223.5,147.3 L 223.1,161.8 L 218.7,174.1 L 210.6,183.7 L 199.2,190.1 L 184.8,193.0 L 168.1,192.1 L 149.6,187.3 L 130.0,178.6 L 109.8,166.0 L 89.7,149.8 L 70.3,130.3 L 52.1,107.9 L 35.6,83.1 L 21.3,56.5 L 25.3,77.7 L 29.7,107.3 L 31.3,136.5 L 30.0,164.4 L 26.0,190.4 L 19.4,214.0 L 10.7,234.4 L 0.2,251.1 L -11.6,263.9 L -24.3,272.3 L -37.2,276.2 L -49.8,275.5 L -61.5,270.2 L -71.7,260.7 L -80.0,247.0 L -86.0,229.8 L -89.3,209.3 L -89.5,186.3 L -86.6,161.3 L -80.5,134.9 L -71.2,108.0 L -58.9,81.2 L -43.9,55.1 L -47.1,54.0 L -70.1,73.5 L -94.3,90.3 L -119.1,104.2 L -143.8,114.9 L -167.9,122.2 L -190.5,126.0 L -211.1,126.3 L -229.0,123.5 L -243.8,117.7 L -254.9,109.2 L -262.0,98.6 L -264.8,86.3 L -263.2,72.9 L -257.0,58.9 L -246.4,44.9 L -231.7,31.6 L -213.1,19.3 L -191.0,8.7 L -166.0,0.1 L -138.7,-6.1 L -109.7,-9.8 L -79.7,-10.7 L -60.7,-11.0 L -89.4,-20.3 L -116.7,-32.1 L -142.0,-46.0 L -164.6,-61.6 L -184.0,-78.5 L -199.9,-96.1 L -211.9,-113.8 L -219.8,-131.1 L -223.5,-147.3 L -223.1,-161.8 L -218.7,-174.1 L -210.6,-183.7 L -199.2,-190.1 L -184.8,-193.0 L -168.1,-192.1 L -149.6,-187.3 L -130.0,-178.6 L -109.8,-166.0 L -89.7,-149.8 L -70.3,-130.3 L -52.1,-107.9 L -35.6,-83.1 L -21.3,-56.5 L -25.3,-77.7 L -29.7,-107.3 L -31.3,-136.5 L -30.0,-164.4 L -26.0,-190.4 L -19.4,-214.0 L -10.7,-234.4 L -0.2,-251.1 L 11.6,-263.9 L 24.3,-272.3 L 37.2,-276.2 L 49.8,-275.5 L 61.5,-270.2 L 71.7,-260.7 L 80.0,-247.0 Z"/>
      <path d="M 153.7,-111.8 L 137.4,-90.9 L 118.0,-70.6 L 95.7,-51.6 L 71.2,-34.4 L 58.0,-24.8 L 87.1,-32.8 L 116.4,-37.9 L 145.0,-40.2 L 172.4,-39.5 L 197.9,-36.1 L 220.7,-30.1 L 240.3,-21.8 L 256.2,-11.7 L 268.1,-0.2 L 275.6,12.2 L 278.5,24.8 L 276.8,37.3 L 270.6,48.9 L 260.1,59.1 L 245.5,67.5 L 227.3,73.7 L 206.0,77.1 L 182.1,77.7 L 156.3,75.1 L 129.3,69.4 L 101.7,60.7 L 74.3,49.0 L 47.7,34.6 L 65.0,51.8 L 84.9,74.1 L 102.2,97.6 L 116.4,121.6 L 127.3,145.5 L 134.7,168.6 L 138.5,190.4 L 138.9,210.1 L 135.9,227.1 L 129.9,240.9 L 121.2,251.1 L 110.2,257.3 L 97.5,259.2 L 83.6,256.7 L 69.1,249.7 L 54.6,238.4 L 40.6,223.0 L 27.8,203.7 L 16.4,181.1 L 7.1,155.7 L 0.1,128.0 L -4.4,98.8 L -6.1,68.7 L -9.8,72.5 L -18.3,101.3 L -29.3,128.6 L -42.3,153.8 L -57.1,176.2 L -73.2,195.4 L -89.9,210.9 L -106.9,222.4 L -123.4,229.7 L -138.9,232.9 L -152.7,231.8 L -164.4,226.6 L -173.4,217.8 L -179.3,205.5 L -181.7,190.3 L -180.4,172.8 L -175.3,153.4 L -166.4,132.9 L -153.7,111.8 L -137.4,90.9 L -118.0,70.6 L -95.7,51.6 L -71.2,34.4 L -58.0,24.8 L -87.1,32.8 L -116.4,37.9 L -145.0,40.2 L -172.4,39.5 L -197.9,36.1 L -220.7,30.1 L -240.3,21.8 L -256.2,11.7 L -268.1,0.2 L -275.6,-12.2 L -278.5,-24.8 L -276.8,-37.3 L -270.6,-48.9 L -260.1,-59.1 L -245.5,-67.5 L -227.3,-73.7 L -206.0,-77.1 L -182.1,-77.7 L -156.3,-75.1 L -129.3,-69.4 L -101.7,-60.7 L -74.3,-49.0 L -47.7,-34.6 L -65.0,-51.8 L -84.9,-74.1 L -102.2,-97.6 L -116.4,-121.6 L -127.3,-145.5 L -134.7,-168.6 L -138.5,-190.4 L -138.9,-210.1 L -135.9,-227.1 L -129.9,-240.9 L -121.2,-251.1 L -110.2,-257.3 L -97.5,-259.2 L -83.6,-256.7 L -69.1,-249.7 L -54.6,-238.4 L -40.6,-223.0 L -27.8,-203.7 L -16.4,-181.1 L -7.1,-155.7 L -0.1,-128.0 L 4.4,-98.8 L 6.1,-68.7 L 9.8,-72.5 L 18.3,-101.3 L 29.3,-128.6 L 42.3,-153.8 L 57.1,-176.2 L 73.2,-195.4 L 89.9,-210.9 L 106.9,-222.4 L 123.4,-229.7 L 138.9,-232.9 L 152.7,-231.8 L 164.4,-226.6 L 173.4,-217.8 L 179.3,-205.5 L 181.7,-190.3 L 180.4,-172.8 L 175.3,-153.4 L 166.4,-132.9 L 153.7,-111.8 Z"/>
      <path d="M 87.6,-0.1 L 57.5,2.5 L 84.2,7.5 L 113.1,15.2 L 140.3,25.4 L 165.3,37.6 L 187.5,51.6 L 206.3,66.8 L 221.3,82.9 L 232.3,99.1 L 239.0,114.9 L 241.4,129.7 L 239.6,142.9 L 233.7,154.0 L 224.0,162.4 L 210.8,167.9 L 194.8,169.9 L 176.4,168.3 L 156.1,163.0 L 134.7,153.9 L 112.8,141.2 L 91.0,125.0 L 69.9,105.7 L 50.1,83.7 L 32.1,59.5 L 32.4,67.1 L 41.1,95.9 L 46.9,124.7 L 49.8,152.9 L 49.7,179.6 L 46.8,204.4 L 41.3,226.4 L 33.4,245.2 L 23.6,260.3 L 12.4,271.2 L 0.2,277.8 L -12.3,279.7 L -24.7,277.1 L -36.3,269.9 L -46.7,258.4 L -55.2,242.9 L -61.6,223.8 L -65.3,201.6 L -66.2,176.9 L -64.1,150.4 L -59.0,122.7 L -50.8,94.6 L -39.8,66.7 L -35.5,53.9 L -55.5,76.5 L -77.1,96.8 L -99.8,114.4 L -123.0,128.8 L -146.0,139.9 L -168.3,147.3 L -189.1,151.1 L -207.9,151.3 L -224.0,148.1 L -236.9,141.8 L -246.2,132.7 L -251.5,121.4 L -252.5,108.2 L -249.2,93.8 L -241.5,78.7 L -229.5,63.5 L -213.4,48.9 L -193.7,35.3 L -170.6,23.3 L -144.9,13.2 L -117.0,5.3 L -87.6,0.1 L -57.5,-2.5 L -84.2,-7.5 L -113.1,-15.2 L -140.3,-25.4 L -165.3,-37.6 L -187.5,-51.6 L -206.3,-66.8 L -221.3,-82.9 L -232.3,-99.1 L -239.0,-114.9 L -241.4,-129.7 L -239.6,-142.9 L -233.7,-154.0 L -224.0,-162.4 L -210.8,-167.9 L -194.8,-169.9 L -176.4,-168.3 L -156.1,-163.0 L -134.7,-153.9 L -112.8,-141.2 L -91.0,-125.0 L -69.9,-105.7 L -50.1,-83.7 L -32.1,-59.5 L -32.4,-67.1 L -41.1,-95.9 L -46.9,-124.7 L -49.8,-152.9 L -49.7,-179.6 L -46.8,-204.4 L -41.3,-226.4 L -33.4,-245.2 L -23.6,-260.3 L -12.4,-271.2 L -0.2,-277.8 L 12.3,-279.7 L 24.7,-277.1 L 36.3,-269.9 L 46.7,-258.4 L 55.2,-242.9 L 61.6,-223.8 L 65.3,-201.6 L 66.2,-176.9 L 64.1,-150.4 L 59.0,-122.7 L 50.8,-94.6 L 39.8,-66.7 L 35.5,-53.9 L 55.5,-76.5 L 77.1,-96.8 L 99.8,-114.4 L 123.0,-128.8 L 146.0,-139.9 L 168.3,-147.3 L 189.1,-151.1 L 207.9,-151.3 L 224.0,-148.1 L 236.9,-141.8 L 246.2,-132.7 L 251.5,-121.4 L 252.5,-108.2 L 249.2,-93.8 L 241.5,-78.7 L 229.5,-63.5 L 213.4,-48.9 L 193.7,-35.3 L 170.6,-23.3 L 144.9,-13.2 L 117.0,-5.3 L 87.6,-0.1 Z"/>
      <path d="M 108.9,79.0 L 126.8,100.9 L 141.3,123.3 L 152.4,145.5 L 159.8,166.9 L 163.5,186.8 L 163.5,204.6 L 160.0,219.8 L 153.3,231.9 L 143.8,240.3 L 131.9,244.7 L 118.2,244.9 L 103.2,240.9 L 87.5,232.5 L 71.6,219.8 L 56.3,203.3 L 41.9,183.0 L 29.1,159.6 L 18.2,133.6 L 9.6,105.5 L 3.5,76.1 L 0.1,65.9 L -4.2,95.8 L -11.1,124.6 L -20.4,151.7 L -31.9,176.4 L -45.1,198.2 L -59.6,216.5 L -74.9,231.0 L -90.4,241.4 L -105.5,247.4 L -119.7,249.1 L -132.4,246.5 L -143.0,239.7 L -151.0,229.1 L -156.0,215.1 L -157.8,198.2 L -156.0,178.8 L -150.5,157.7 L -141.4,135.4 L -128.7,112.6 L -112.6,90.0 L -93.6,68.1 L -71.9,47.5 L -48.2,28.8 L -75.6,40.8 L -104.0,50.2 L -132.3,56.7 L -159.8,60.1 L -185.9,60.6 L -209.9,58.1 L -231.1,53.0 L -249.1,45.4 L -263.2,35.9 L -273.2,24.8 L -278.8,12.7 L -279.8,0.2 L -276.2,-12.2 L -268.0,-23.9 L -255.6,-34.4 L -239.2,-43.2 L -219.2,-49.8 L -196.2,-54.0 L -170.8,-55.3 L -143.6,-53.8 L -115.3,-49.2 L -86.6,-41.6 L -58.3,-31.3 L -65.2,-38.9 L -88.3,-58.2 L -108.9,-79.0 L -126.8,-100.9 L -141.3,-123.3 L -152.4,-145.5 L -159.8,-166.9 L -163.5,-186.8 L -163.5,-204.6 L -160.0,-219.8 L -153.3,-231.9 L -143.8,-240.3 L -131.9,-244.7 L -118.2,-244.9 L -103.2,-240.9 L -87.5,-232.5 L -71.6,-219.8 L -56.3,-203.3 L -41.9,-183.0 L -29.1,-159.6 L -18.2,-133.6 L -9.6,-105.5 L -3.5,-76.1 L -0.1,-65.9 L 4.2,-95.8 L 11.1,-124.6 L 20.4,-151.7 L 31.9,-176.4 L 45.1,-198.2 L 59.6,-216.5 L 74.9,-231.0 L 90.4,-241.4 L 105.5,-247.4 L 119.7,-249.1 L 132.4,-246.5 L 143.0,-239.7 L 151.0,-229.1 L 156.0,-215.1 L 157.8,-198.2 L 156.0,-178.8 L 150.5,-157.7 L 141.4,-135.4 L 128.7,-112.6 L 112.6,-90.0 L 93.6,-68.1 L 71.9,-47.5 L 48.2,-28.8 L 75.6,-40.8 L 104.0,-50.2 L 132.3,-56.7 L 159.8,-60.1 L 185.9,-60.6 L 209.9,-58.1 L 231.1,-53.0 L 249.1,-45.4 L 263.2,-35.9 L 273.2,-24.8 L 278.8,-12.7 L 279.8,-0.2 L 276.2,12.2 L 268.0,23.9 L 255.6,34.4 L 239.2,43.2 L 219.2,49.8 L 196.2,54.0 L 170.8,55.3 L 143.6,53.8 L 115.3,49.2 L 86.6,41.6 L 58.3,31.3 L 65.2,38.9 L 88.3,58.2 L 108.9,79.0 Z"/>
      <path d="M 69.9,214.4 L 65.0,234.8 L 57.7,251.8 L 48.3,265.1 L 37.4,274.1 L 25.3,278.7 L 12.7,278.7 L 0.2,274.1 L -11.7,265.0 L -22.4,251.6 L -31.6,234.4 L -38.6,213.6 L -43.2,189.8 L -45.0,163.7 L -44.0,135.9 L -40.1,107.1 L -33.3,78.0 L -24.8,51.6 L -41.3,76.9 L -59.8,100.3 L -79.9,121.3 L -101.0,139.2 L -122.5,153.8 L -143.8,164.9 L -164.3,172.1 L -183.3,175.6 L -200.3,175.3 L -214.6,171.4 L -225.8,164.3 L -233.3,154.3 L -237.0,141.8 L -236.5,127.5 L -231.7,111.8 L -222.7,95.4 L -209.5,78.8 L -192.5,62.7 L -171.9,47.6 L -148.2,34.0 L -122.0,22.2 L -93.9,12.8 L -64.5,5.9 L -77.3,3.5 L -107.1,0.1 L -135.8,-6.0 L -162.6,-14.5 L -187.0,-25.2 L -208.3,-37.6 L -226.1,-51.4 L -240.0,-66.0 L -249.7,-80.9 L -255.0,-95.5 L -255.8,-109.1 L -252.4,-121.3 L -244.7,-131.4 L -233.3,-139.1 L -218.3,-143.9 L -200.5,-145.4 L -180.2,-143.5 L -158.2,-138.0 L -135.0,-128.9 L -111.4,-116.3 L -87.9,-100.5 L -65.3,-81.7 L -44.0,-60.5 L -37.1,-56.2 L -49.9,-83.4 L -60.0,-111.3 L -67.1,-139.0 L -71.1,-165.9 L -72.0,-191.2 L -69.9,-214.4 L -65.0,-234.8 L -57.7,-251.8 L -48.3,-265.1 L -37.4,-274.1 L -25.3,-278.7 L -12.7,-278.7 L -0.2,-274.1 L 11.7,-265.0 L 22.4,-251.6 L 31.6,-234.4 L 38.6,-213.6 L 43.2,-189.8 L 45.0,-163.7 L 44.0,-135.9 L 40.1,-107.1 L 33.3,-78.0 L 24.8,-51.6 L 41.3,-76.9 L 59.8,-100.3 L 79.9,-121.3 L 101.0,-139.2 L 122.5,-153.8 L 143.8,-164.9 L 164.3,-172.1 L 183.3,-175.6 L 200.3,-175.3 L 214.6,-171.4 L 225.8,-164.3 L 233.3,-154.3 L 237.0,-141.8 L 236.5,-127.5 L 231.7,-111.8 L 222.7,-95.4 L 209.5,-78.8 L 192.5,-62.7 L 171.9,-47.6 L 148.2,-34.0 L 122.0,-22.2 L 93.9,-12.8 L 64.5,-5.9 L 77.3,-3.5 L 107.1,-0.1 L 135.8,6.0 L 162.6,14.5 L 187.0,25.2 L 208.3,37.6 L 226.1,51.4 L 240.0,66.0 L 249.7,80.9 L 255.0,95.5 L 255.8,109.1 L 252.4,121.3 L 244.7,131.4 L 233.3,139.1 L 218.3,143.9 L 200.5,145.4 L 180.2,143.5 L 158.2,138.0 L 135.0,128.9 L 111.4,116.3 L 87.9,100.5 L 65.3,81.7 L 44.0,60.5 L 37.1,56.2 L 49.9,83.4 L 60.0,111.3 L 67.1,139.0 L 71.1,165.9 L 72.0,191.2 L 69.9,214.4 Z"/>
      <path d="M -84.8,261.6 L -97.9,261.6 L -109.7,257.2 L -119.5,248.7 L -126.9,236.3 L -131.5,220.4 L -132.9,201.6 L -130.9,180.4 L -125.4,157.5 L -116.4,133.5 L -104.1,109.1 L -88.6,84.8 L -70.2,61.5 L -49.5,39.5 L -63.7,46.3 L -90.5,59.8 L -117.7,70.5 L -144.8,78.1 L -171.0,82.5 L -195.5,83.8 L -217.9,82.0 L -237.4,77.3 L -253.5,70.2 L -265.7,60.9 L -273.8,49.9 L -277.4,37.8 L -276.5,25.1 L -270.9,12.4 L -260.9,0.2 L -246.7,-10.9 L -228.5,-20.4 L -207.0,-27.9 L -182.5,-33.0 L -155.8,-35.4 L -127.4,-35.1 L -98.2,-31.8 L -68.7,-25.7 L -63.2,-27.0 L -88.9,-42.7 L -112.6,-60.5 L -133.6,-79.7 L -151.7,-99.9 L -166.3,-120.6 L -177.2,-141.0 L -184.2,-160.7 L -187.3,-178.8 L -186.6,-194.9 L -182.3,-208.4 L -174.7,-218.7 L -164.1,-225.5 L -151.0,-228.4 L -136.0,-227.2 L -119.6,-221.8 L -102.4,-212.2 L -85.1,-198.6 L -68.2,-181.2 L -52.2,-160.3 L -37.8,-136.4 L -25.2,-110.1 L -15.0,-82.0 L -7.9,-58.2 L -8.0,-88.4 L -5.4,-118.1 L -0.1,-146.5 L 7.6,-173.0 L 17.6,-197.0 L 29.3,-217.8 L 42.4,-235.0 L 56.4,-248.2 L 70.7,-257.1 L 84.8,-261.6 L 97.9,-261.6 L 109.7,-257.2 L 119.5,-248.7 L 126.9,-236.3 L 131.5,-220.4 L 132.9,-201.6 L 130.9,-180.4 L 125.4,-157.5 L 116.4,-133.5 L 104.1,-109.1 L 88.6,-84.8 L 70.2,-61.5 L 49.5,-39.5 L 63.7,-46.3 L 90.5,-59.8 L 117.7,-70.5 L 144.8,-78.1 L 171.0,-82.5 L 195.5,-83.8 L 217.9,-82.0 L 237.4,-77.3 L 253.5,-70.2 L 265.7,-60.9 L 273.8,-49.9 L 277.4,-37.8 L 276.5,-25.1 L 270.9,-12.4 L 260.9,-0.2 L 246.7,10.9 L 228.5,20.4 L 207.0,27.9 L 182.5,33.0 L 155.8,35.4 L 127.4,35.1 L 98.2,31.8 L 68.7,25.7 L 63.2,27.0 L 88.9,42.7 L 112.6,60.5 L 133.6,79.7 L 151.7,99.9 L 166.3,120.6 L 177.2,141.0 L 184.2,160.7 L 187.3,178.8 L 186.6,194.9 L 182.3,208.4 L 174.7,218.7 L 164.1,225.5 L 151.0,228.4 L 136.0,227.2 L 119.6,221.8 L 102.4,212.2 L 85.1,198.6 L 68.2,181.2 L 52.2,160.3 L 37.8,136.4 L 25.2,110.1 L 15.0,82.0 L 7.9,58.2 L 8.0,88.4 L 5.4,118.1 L 0.1,146.5 L -7.6,173.0 L -17.6,197.0 L -29.3,217.8 L -42.4,235.0 L -56.4,248.2 L -70.7,257.1 L -84.8,261.6 Z"/>
    </g>
    <circle cx="92.5" cy="35.9" r="1.9" fill="#16a085" opacity="0.80"/>
    <circle cx="152.0" cy="52.8" r="0.9" fill="#16a085" opacity="0.80"/>
    <circle cx="-177.7" cy="-80.9" r="0.9" fill="#16a085" opacity="0.80"/>
    <circle cx="-140.6" cy="41.1" r="1.9" fill="#16a085" opacity="0.80"/>
    <circle cx="85.6" cy="-233.1" r="1.0" fill="#16a085" opacity="0.80"/>
    <circle cx="76.4" cy="80.0" r="1.3" fill="#16a085" opacity="0.80"/>
    <circle cx="-127.6" cy="-121.3" r="1.7" fill="#16a085" opacity="0.80"/>
    <circle cx="-105.3" cy="86.1" r="0.8" fill="#16a085" opacity="0.80"/>
    <circle cx="46.4" cy="222.5" r="0.7" fill="#16a085" opacity="0.80"/>
    <circle cx="58.5" cy="111.5" r="1.1" fill="#16a085" opacity="0.80"/>
    <circle cx="19.8" cy="95.1" r="1.5" fill="#16a085" opacity="0.80"/>
    <circle cx="75.1" cy="106.7" r="1.2" fill="#16a085" opacity="0.80"/>
    <circle cx="22.4" cy="164.2" r="1.2" fill="#16a085" opacity="0.80"/>
    <circle cx="35.9" cy="-178.8" r="0.8" fill="#16a085" opacity="0.80"/>
    <circle cx="-103.7" cy="-14.5" r="1.2" fill="#16a085" opacity="0.80"/>
    <circle cx="135.3" cy="-171.1" r="1.9" fill="#16a085" opacity="0.80"/>
    <circle cx="103.3" cy="-186.6" r="1.3" fill="#16a085" opacity="0.80"/>
    <circle cx="-183.3" cy="101.9" r="1.4" fill="#16a085" opacity="0.80"/>
    <circle cx="71.0" cy="-217.3" r="1.3" fill="#16a085" opacity="0.80"/>
    <circle cx="-65.8" cy="-70.3" r="1.8" fill="#16a085" opacity="0.80"/>
    <circle cx="47.9" cy="-132.7" r="1.8" fill="#16a085" opacity="0.80"/>
    <circle cx="-38.0" cy="-109.4" r="1.7" fill="#16a085" opacity="0.80"/>
    <circle cx="-94.4" cy="-75.1" r="1.4" fill="#16a085" opacity="0.80"/>
    <circle cx="43.4" cy="-113.0" r="1.9" fill="#16a085" opacity="0.80"/>
    <circle cx="215.5" cy="-2.1" r="1.0" fill="#16a085" opacity="0.80"/>
    <circle cx="58.8" cy="79.3" r="0.9" fill="#16a085" opacity="0.80"/>
    <circle cx="-69.1" cy="149.3" r="1.9" fill="#16a085" opacity="0.80"/>
    <circle cx="-144.1" cy="157.9" r="1.6" fill="#16a085" opacity="0.80"/>
    <circle cx="-123.2" cy="-26.6" r="1.4" fill="#16a085" opacity="0.80"/>
    <circle cx="62.9" cy="-108.2" r="1.7" fill="#16a085" opacity="0.80"/>
    <circle cx="248.4" cy="18.9" r="0.7" fill="#16a085" opacity="0.80"/>
    <circle cx="0.9" cy="-186.2" r="1.4" fill="#16a085" opacity="0.80"/>
    <circle cx="-179.9" cy="66.9" r="0.7" fill="#16a085" opacity="0.80"/>
    <circle cx="56.3" cy="197.4" r="1.1" fill="#16a085" opacity="0.80"/>
    <circle cx="-107.2" cy="16.6" r="1.4" fill="#16a085" opacity="0.80"/>
    <circle cx="104.2" cy="47.1" r="1.0" fill="#16a085" opacity="0.80"/>
    <circle cx="-121.4" cy="-175.5" r="1.0" fill="#16a085" opacity="0.80"/>
    <circle cx="36.8" cy="184.5" r="1.4" fill="#16a085" opacity="0.80"/>
    <circle cx="117.2" cy="-35.3" r="1.0" fill="#16a085" opacity="0.80"/>
    <circle cx="21.3" cy="-225.6" r="1.7" fill="#16a085" opacity="0.80"/>
    <circle cx="114.6" cy="222.9" r="1.2" fill="#16a085" opacity="0.80"/>
    <circle cx="-22.5" cy="127.7" r="0.9" fill="#16a085" opacity="0.80"/>
    <circle cx="-92.1" cy="51.2" r="0.7" fill="#16a085" opacity="0.80"/>
    <circle cx="10.0" cy="-197.9" r="0.8" fill="#16a085" opacity="0.80"/>
    <circle cx="106.3" cy="-158.0" r="2.0" fill="#16a085" opacity="0.80"/>
    <circle cx="-72.7" cy="231.7" r="1.2" fill="#16a085" opacity="0.80"/>
    <circle cx="-10.3" cy="153.7" r="1.1" fill="#16a085" opacity="0.80"/>
    <circle cx="-28.8" cy="101.1" r="1.3" fill="#16a085" opacity="0.80"/>
    <circle cx="91.2" cy="4.0" r="1.7" fill="#16a085" opacity="0.80"/>
    <circle cx="-145.9" cy="-186.6" r="1.2" fill="#16a085" opacity="0.80"/>
    <g fill="none" stroke="#3498db" stroke-width="0.8" opacity="0.75">
      <path d="M -44.9,50.0 L -71.1,73.5 L -98.7,94.7 L -127.0,113.1 L -155.5,128.3 L -183.4,140.1 L -210.1,148.4 L -235.0,153.1 L -257.3,154.3 L -276.5,152.1 L -292.1,146.7 L -303.6,138.5 L -310.7,127.9 L -313.1,115.4 L -310.7,101.5 L -303.4,86.7 L -291.3,71.6 L -274.7,56.7 L -253.7,42.6 L -228.9,29.7 L -200.8,18.4 L -169.8,9.2 L -136.8,2.3 L -102.3,-2.1 L -67.1,-3.9 L -101.8,-9.8 L -135.6,-18.1 L -167.6,-28.8 L -197.3,-41.6 L -223.9,-56.0 L -247.1,-71.7 L -266.2,-88.2 L -281.0,-104.9 L -291.3,-121.4 L -296.8,-136.9 L -297.6,-151.0 L -293.7,-163.1 L -285.5,-172.8 L -273.1,-179.6 L -257.0,-183.1 L -237.6,-183.1 L -215.6,-179.4 L -191.5,-171.8 L -165.9,-160.5 L -139.6,-145.5 L -113.1,-127.0 L -87.0,-105.5 L -62.1,-81.3 L -38.8,-54.9 L -55.8,-85.7 L -70.3,-117.3 L -82.0,-149.0 L -90.5,-180.2 L -95.8,-210.0 L -98.0,-237.9 L -97.0,-263.1 L -93.2,-285.2 L -86.7,-303.4 L -78.0,-317.4 L -67.5,-326.8 L -55.6,-331.4 L -42.9,-330.9 L -29.8,-325.5 L -17.0,-315.1 L -5.0,-299.9 L 5.8,-280.4 L 15.0,-256.8 L 22.0,-229.8 L 26.7,-199.8 L 28.8,-167.6 L 28.2,-133.8 L 24.8,-99.2 L 18.7,-64.5 L 32.2,-97.1 L 47.8,-128.1 L 65.4,-157.0 L 84.4,-183.1 L 104.5,-205.8 L 124.9,-224.9 L 145.2,-239.9 L 164.8,-250.6 L 183.1,-257.0 L 199.5,-258.9 L 213.4,-256.5 L 224.4,-250.1 L 232.0,-239.8 L 235.9,-226.3 L 235.7,-209.8 L 231.4,-190.9 L 222.9,-170.3 L 210.1,-148.4 L 193.4,-126.0 L 172.9,-103.7 L 149.0,-82.0 L 122.2,-61.4 L 93.1,-42.5 L 62.1,-25.6 L 96.0,-35.4 L 130.0,-42.5 L 163.5,-46.7 L 195.8,-48.1 L 226.1,-46.7 L 253.7,-42.6 L 278.1,-36.0 L 298.7,-27.4 L 315.1,-17.0 L 326.8,-5.4 L 333.6,6.9 L 335.4,19.5 L 332.2,31.9 L 324.0,43.3 L 311.0,53.5 L 293.5,61.9 L 272.1,68.1 L 247.1,71.7 L 219.1,72.6 L 188.9,70.5 L 157.0,65.4 L 124.2,57.3 L 91.2,46.3 L 58.7,32.6 L 87.5,53.0 L 114.3,75.2 L 138.5,98.7 L 159.7,123.1 L 177.4,147.6 L 191.5,171.8 L 201.6,195.0 L 207.7,216.5 L 209.8,235.7 L 208.0,252.1 L 202.6,265.2 L 193.9,274.4 L 182.2,279.6 L 168.1,280.3 L 152.1,276.5 L 134.6,268.1 L 116.4,255.2 L 98.0,237.9 L 79.8,216.6 L 62.6,191.6 L 46.7,163.5 L 32.6,132.8 L 20.7,100.2 L 11.1,66.3 L 13.1,101.4 L 12.5,136.2 L 9.2,169.8 L 3.3,201.6 L -4.8,230.8 L -15.0,256.8 L -26.8,279.2 L -39.8,297.3 L -53.5,311.0 L -67.4,319.8 L -81.0,323.7 L -93.7,322.7 L -105.0,316.8 L -114.3,306.2 L -121.4,291.3 L -125.7,272.4 L -126.9,250.1 L -124.9,224.9 L -119.5,197.5 L -110.8,168.4 L -98.7,138.5 L -83.5,108.3 L -65.4,78.6 L -44.9,50.0 Z"/>
      <path d="M -191.7,41.1 L -222.4,39.0 L -250.4,34.3 L -275.2,27.3 L -296.2,18.2 L -313.0,7.5 L -325.1,-4.3 L -332.4,-16.9 L -334.6,-29.6 L -331.8,-41.9 L -324.1,-53.3 L -311.5,-63.3 L -294.6,-71.4 L -273.6,-77.2 L -249.0,-80.5 L -221.5,-80.8 L -191.7,-78.2 L -160.3,-72.5 L -127.9,-63.7 L -95.3,-52.0 L -63.2,-37.6 L -80.6,-52.1 L -106.9,-75.0 L -130.8,-99.2 L -151.7,-124.3 L -169.1,-149.5 L -183.0,-174.4 L -192.9,-198.1 L -198.9,-220.2 L -201.0,-240.0 L -199.3,-256.9 L -194.0,-270.4 L -185.5,-280.0 L -174.2,-285.5 L -160.4,-286.6 L -144.8,-283.0 L -127.9,-274.8 L -110.2,-262.0 L -92.4,-244.9 L -74.9,-223.6 L -58.4,-198.7 L -43.3,-170.5 L -29.9,-139.7 L -18.8,-106.9 L -10.0,-72.9 L -9.5,-95.5 L -8.0,-130.4 L -4.0,-164.1 L 2.6,-196.1 L 11.4,-225.5 L 22.2,-251.8 L 34.6,-274.4 L 48.1,-292.8 L 62.3,-306.8 L 76.6,-316.0 L 90.4,-320.3 L 103.3,-319.7 L 114.7,-314.2 L 124.0,-304.1 L 131.0,-289.7 L 135.1,-271.3 L 136.2,-249.5 L 133.9,-224.9 L 128.1,-198.0 L 118.9,-169.5 L 106.3,-140.1 L 90.6,-110.5 L 71.9,-81.3 L 50.7,-53.2 L 68.8,-67.0 L 96.9,-87.6 L 125.9,-105.4 L 154.9,-120.2 L 183.4,-131.6 L 210.7,-139.6 L 236.1,-144.0 L 258.9,-144.9 L 278.7,-142.6 L 294.8,-137.2 L 306.8,-129.0 L 314.3,-118.6 L 317.1,-106.3 L 315.1,-92.6 L 308.1,-78.2 L 296.4,-63.5 L 280.0,-49.1 L 259.3,-35.6 L 234.7,-23.3 L 206.7,-12.7 L 175.8,-4.2 L 142.9,1.9 L 108.4,5.5 L 73.3,6.5 L 95.2,12.0 L 128.9,21.2 L 160.9,32.7 L 190.6,46.2 L 217.3,61.3 L 240.5,77.7 L 259.8,94.8 L 274.8,112.1 L 285.2,129.0 L 291.0,145.0 L 292.1,159.4 L 288.7,171.8 L 280.8,181.7 L 268.9,188.6 L 253.2,192.2 L 234.4,192.1 L 213.0,188.3 L 189.5,180.5 L 164.5,169.0 L 138.8,153.6 L 113.0,134.8 L 87.6,112.9 L 63.3,88.2 L 40.6,61.3 L 50.0,81.9 L 63.8,114.0 L 74.8,146.2 L 82.7,177.8 L 87.5,208.1 L 89.2,236.5 L 87.9,262.2 L 83.7,284.7 L 77.0,303.4 L 68.1,317.9 L 57.5,327.8 L 45.6,332.8 L 33.0,332.8 L 20.2,327.8 L 7.7,317.8 L -4.0,303.1 L -14.4,283.9 L -23.0,260.7 L -29.5,234.0 L -33.6,204.3 L -35.0,172.4 L -33.6,138.9 L -29.5,104.5 L -22.6,70.0 L -32.9,90.2 L -49.3,120.9 L -67.7,149.6 L -87.4,175.5 L -108.1,198.2 L -129.3,217.2 L -150.2,232.2 L -170.4,242.9 L -189.2,249.4 L -206.1,251.5 L -220.4,249.3 L -231.7,243.2 L -239.6,233.3 L -243.7,220.2 L -243.7,204.1 L -239.5,185.8 L -230.9,165.7 L -218.2,144.5 L -201.3,122.8 L -180.7,101.1 L -156.6,80.1 L -129.5,60.3 L -100.1,42.1 L -68.8,26.0 L -91.0,30.5 L -125.3,36.8 L -159.1,40.4 L -191.7,41.1 Z"/>
      <path d="M -268.2,-118.9 L -278.9,-136.3 L -284.9,-152.7 L -286.3,-167.5 L -283.2,-180.3 L -275.7,-190.4 L -264.2,-197.4 L -249.1,-201.0 L -230.8,-201.0 L -209.9,-197.1 L -187.0,-189.2 L -162.7,-177.4 L -137.6,-161.8 L -112.4,-142.7 L -87.7,-120.4 L -64.1,-95.2 L -42.1,-67.9 L -44.4,-77.9 L -57.5,-110.4 L -67.8,-143.0 L -75.1,-175.0 L -79.4,-205.8 L -80.6,-234.6 L -78.8,-260.9 L -74.3,-283.8 L -67.3,-303.0 L -58.2,-318.0 L -47.5,-328.3 L -35.6,-333.8 L -23.1,-334.3 L -10.4,-329.7 L 1.9,-320.1 L 13.2,-305.8 L 23.2,-287.0 L 31.3,-264.2 L 37.3,-237.8 L 40.7,-208.5 L 41.5,-176.9 L 39.4,-143.6 L 34.5,-109.5 L 26.8,-75.2 L 33.2,-83.3 L 50.4,-113.8 L 69.5,-142.2 L 90.0,-167.9 L 111.4,-190.4 L 133.2,-209.3 L 154.8,-224.2 L 175.6,-235.0 L 194.9,-241.6 L 212.3,-243.8 L 227.1,-241.9 L 238.8,-236.0 L 246.9,-226.5 L 251.3,-213.7 L 251.4,-198.1 L 247.3,-180.3 L 238.8,-160.8 L 226.1,-140.2 L 209.2,-119.1 L 188.4,-98.2 L 164.1,-77.9 L 136.9,-58.8 L 107.1,-41.3 L 75.6,-25.9 L 85.8,-25.9 L 120.4,-31.5 L 154.5,-34.3 L 187.4,-34.3 L 218.3,-31.6 L 246.7,-26.3 L 271.8,-18.8 L 293.2,-9.3 L 310.4,1.8 L 323.0,14.0 L 330.7,26.7 L 333.4,39.5 L 331.0,51.9 L 323.7,63.2 L 311.7,73.1 L 295.2,80.9 L 274.6,86.5 L 250.6,89.3 L 223.6,89.2 L 194.2,86.1 L 163.2,79.8 L 131.3,70.4 L 99.1,58.0 L 67.4,42.9 L 73.8,50.9 L 99.7,74.5 L 123.1,99.4 L 143.6,125.1 L 160.8,151.0 L 174.4,176.4 L 184.2,200.8 L 190.1,223.5 L 192.1,243.8 L 190.4,261.2 L 185.3,275.2 L 176.9,285.3 L 165.8,291.1 L 152.4,292.5 L 137.2,289.2 L 120.8,281.2 L 103.6,268.6 L 86.4,251.6 L 69.6,230.4 L 53.8,205.5 L 39.4,177.3 L 26.8,146.5 L 16.5,113.6 L 8.5,79.4 L 6.2,89.5 L 3.9,124.4 L -0.9,158.2 L -8.2,190.3 L -17.8,219.9 L -29.2,246.4 L -42.2,269.2 L -56.2,287.9 L -70.8,302.2 L -85.5,311.8 L -99.6,316.4 L -112.7,316.2 L -124.2,311.2 L -133.7,301.5 L -140.6,287.6 L -144.6,269.8 L -145.4,248.5 L -142.8,224.4 L -136.8,198.1 L -127.1,170.2 L -114.1,141.4 L -97.8,112.3 L -78.6,83.7 L -56.8,56.2 L -66.1,60.6 L -94.8,80.6 L -124.3,97.9 L -153.9,112.2 L -183.0,123.2 L -210.8,130.8 L -236.8,134.9 L -260.2,135.6 L -280.4,133.0 L -297.0,127.5 L -309.5,119.4 L -317.5,109.0 L -320.7,96.9 L -319.1,83.5 L -312.5,69.4 L -301.1,55.1 L -285.0,41.3 L -264.5,28.2 L -240.1,16.6 L -212.3,6.7 L -181.7,-1.1 L -148.8,-6.4 L -114.4,-9.2 L -79.3,-9.4 L -88.6,-13.9 L -122.1,-23.8 L -154.1,-36.1 L -183.7,-50.4 L -210.4,-66.2 L -233.7,-83.3 L -253.1,-101.0 L -268.2,-118.9 Z"/>
      <path d="M -168.1,-290.1 L -157.3,-296.4 L -144.2,-298.1 L -129.3,-295.1 L -113.3,-287.4 L -96.7,-275.0 L -80.1,-258.1 L -63.9,-237.0 L -48.8,-212.2 L -35.1,-184.1 L -23.3,-153.2 L -13.8,-120.3 L -6.6,-86.0 L -3.3,-83.3 L -0.2,-118.2 L 5.4,-152.1 L 13.5,-184.3 L 23.8,-214.0 L 35.9,-240.7 L 49.5,-263.7 L 64.0,-282.7 L 79.1,-297.3 L 94.2,-307.2 L 108.7,-312.2 L 122.0,-312.3 L 133.7,-307.7 L 143.2,-298.6 L 150.1,-285.1 L 154.0,-267.8 L 154.7,-247.1 L 151.9,-223.5 L 145.5,-197.8 L 135.5,-170.5 L 122.0,-142.2 L 105.2,-113.8 L 85.5,-85.7 L 63.1,-58.7 L 63.1,-54.5 L 92.3,-73.9 L 122.3,-90.6 L 152.5,-104.4 L 182.1,-114.9 L 210.5,-122.0 L 237.0,-125.8 L 261.0,-126.2 L 281.8,-123.5 L 298.9,-117.9 L 311.8,-109.7 L 320.3,-99.4 L 323.9,-87.4 L 322.7,-74.2 L 316.5,-60.4 L 305.4,-46.5 L 289.6,-33.1 L 269.4,-20.6 L 245.3,-9.6 L 217.7,-0.4 L 187.3,6.7 L 154.5,11.3 L 120.3,13.4 L 85.3,12.7 L 81.9,15.4 L 115.3,26.1 L 147.1,39.2 L 176.7,54.2 L 203.4,70.8 L 226.7,88.5 L 246.1,106.9 L 261.4,125.4 L 272.2,143.3 L 278.5,160.2 L 280.2,175.4 L 277.4,188.4 L 270.3,198.8 L 259.2,206.0 L 244.6,209.8 L 226.8,209.7 L 206.5,205.8 L 184.1,197.8 L 160.4,185.8 L 136.0,170.0 L 111.5,150.6 L 87.5,127.9 L 64.6,102.4 L 43.2,74.6 L 39.1,73.6 L 51.5,106.4 L 61.1,139.4 L 67.8,171.9 L 71.5,203.1 L 72.1,232.4 L 69.9,259.1 L 65.0,282.5 L 57.7,302.2 L 48.4,317.6 L 37.6,328.4 L 25.6,334.3 L 13.1,335.3 L 0.5,331.1 L -11.5,322.0 L -22.6,308.1 L -32.2,289.7 L -39.8,267.3 L -45.2,241.3 L -48.1,212.4 L -48.2,181.1 L -45.4,148.2 L -39.8,114.3 L -31.4,80.3 L -33.2,76.4 L -51.1,106.6 L -70.9,134.7 L -92.1,160.2 L -114.3,182.5 L -136.8,201.3 L -159.0,216.2 L -180.4,226.9 L -200.3,233.5 L -218.1,235.9 L -233.3,234.1 L -245.4,228.5 L -253.9,219.3 L -258.5,206.9 L -258.9,191.8 L -254.9,174.4 L -246.6,155.5 L -233.8,135.5 L -216.9,115.1 L -196.0,94.8 L -171.6,75.2 L -144.2,56.9 L -114.2,40.2 L -82.3,25.5 L -80.5,21.7 L -115.2,26.5 L -149.5,28.5 L -182.7,27.8 L -213.9,24.5 L -242.6,18.6 L -268.1,10.5 L -289.9,0.5 L -307.4,-11.0 L -320.4,-23.5 L -328.5,-36.5 L -331.7,-49.4 L -329.8,-61.8 L -322.9,-73.1 L -311.4,-82.9 L -295.3,-90.6 L -275.3,-95.8 L -251.7,-98.3 L -225.2,-97.8 L -196.3,-94.1 L -165.8,-87.3 L -134.3,-77.3 L -102.6,-64.2 L -71.3,-48.4 L -67.1,-49.4 L -92.6,-73.6 L -115.6,-99.1 L -135.7,-125.5 L -152.5,-152.0 L -165.8,-178.1 L -175.4,-203.1 L -181.1,-226.4 L -183.1,-247.2 L -181.4,-265.1 L -176.3,-279.6 L -168.1,-290.1 Z"/>
      <path d="M 32.1,-310.0 L 41.3,-292.0 L 48.5,-270.0 L 53.4,-244.4 L 55.7,-215.9 L 55.2,-185.0 L 51.8,-152.4 L 45.4,-118.9 L 36.2,-85.1 L 32.8,-69.7 L 51.4,-99.5 L 71.9,-127.3 L 93.9,-152.5 L 116.7,-174.6 L 139.9,-193.2 L 162.8,-208.0 L 184.8,-218.7 L 205.2,-225.3 L 223.6,-227.7 L 239.3,-226.1 L 251.8,-220.7 L 260.6,-211.8 L 265.5,-199.7 L 266.1,-185.0 L 262.3,-168.2 L 254.1,-149.8 L 241.4,-130.4 L 224.4,-110.6 L 203.5,-91.0 L 179.0,-72.2 L 151.4,-54.5 L 121.2,-38.6 L 89.2,-24.8 L 74.9,-17.8 L 109.8,-21.8 L 144.4,-23.1 L 177.7,-21.7 L 209.3,-17.6 L 238.3,-11.1 L 264.1,-2.4 L 286.2,8.1 L 304.1,20.0 L 317.4,32.8 L 326.0,46.1 L 329.5,59.2 L 328.1,71.7 L 321.7,83.1 L 310.6,92.7 L 295.1,100.2 L 275.5,105.2 L 252.4,107.4 L 226.4,106.5 L 198.1,102.4 L 168.0,95.0 L 137.0,84.4 L 105.8,70.7 L 75.0,54.3 L 60.6,47.5 L 85.5,72.3 L 108.1,98.5 L 127.8,125.5 L 144.2,152.6 L 157.2,179.4 L 166.5,205.0 L 172.1,228.8 L 174.0,250.2 L 172.2,268.7 L 167.2,283.6 L 159.1,294.6 L 148.5,301.2 L 135.6,303.3 L 121.2,300.6 L 105.6,293.2 L 89.5,281.0 L 73.4,264.3 L 57.9,243.4 L 43.4,218.7 L 30.5,190.6 L 19.5,159.8 L 10.7,126.8 L 4.3,92.4 L 0.7,77.0 L -3.2,111.9 L -9.6,145.9 L -18.4,178.1 L -29.4,207.9 L -42.2,234.7 L -56.4,258.0 L -71.6,277.2 L -87.2,292.0 L -102.6,302.2 L -117.5,307.5 L -131.1,308.1 L -142.9,303.9 L -152.6,295.1 L -159.5,282.2 L -163.4,265.4 L -163.9,245.2 L -160.9,222.2 L -154.2,197.0 L -143.9,170.3 L -130.0,142.7 L -112.8,114.8 L -92.5,87.4 L -69.6,61.0 L -59.8,48.6 L -89.5,67.3 L -120.0,83.5 L -150.7,96.6 L -180.9,106.7 L -209.8,113.4 L -236.9,116.7 L -261.3,116.9 L -282.6,113.9 L -300.2,108.1 L -313.7,99.9 L -322.6,89.6 L -326.7,77.7 L -325.9,64.7 L -320.1,51.2 L -309.3,37.7 L -293.9,24.7 L -274.0,12.8 L -250.2,2.3 L -222.9,-6.3 L -192.6,-12.7 L -160.1,-16.6 L -126.0,-17.8 L -91.1,-16.4 L -75.2,-16.5 L -108.4,-28.0 L -140.1,-41.8 L -169.5,-57.6 L -196.2,-74.9 L -219.5,-93.4 L -239.0,-112.4 L -254.3,-131.5 L -265.3,-150.0 L -271.8,-167.3 L -273.7,-183.0 L -271.2,-196.3 L -264.5,-207.0 L -253.8,-214.4 L -239.6,-218.3 L -222.4,-218.3 L -202.6,-214.4 L -180.8,-206.3 L -157.8,-194.2 L -134.0,-178.2 L -110.2,-158.5 L -86.9,-135.5 L -64.6,-109.6 L -44.0,-81.4 L -34.0,-69.1 L -45.7,-102.2 L -54.7,-135.6 L -60.7,-168.5 L -63.7,-200.1 L -63.8,-229.8 L -61.1,-256.9 L -55.8,-280.8 L -48.2,-300.9 L -38.6,-316.8 L -27.6,-328.0 L -15.6,-334.4 L -3.1,-335.8 L 9.4,-332.1 L 21.3,-323.4 L 32.1,-310.0 Z"/>
      <path d="M 152.3,-169.7 L 138.1,-142.7 L 120.4,-115.5 L 99.7,-88.7 L 76.2,-62.9 L 56.2,-42.9 L 86.4,-61.0 L 117.4,-76.5 L 148.6,-89.1 L 179.3,-98.6 L 208.7,-104.8 L 236.3,-107.8 L 261.3,-107.6 L 283.1,-104.4 L 301.2,-98.4 L 315.1,-90.1 L 324.5,-79.8 L 329.0,-67.9 L 328.6,-55.1 L 323.2,-41.9 L 312.9,-28.7 L 297.8,-16.1 L 278.3,-4.6 L 254.7,5.3 L 227.7,13.3 L 197.7,19.0 L 165.4,22.1 L 131.5,22.6 L 96.7,20.4 L 68.6,17.2 L 101.5,29.5 L 133.0,44.1 L 162.3,60.6 L 188.9,78.7 L 212.1,97.8 L 231.6,117.5 L 247.0,137.2 L 258.1,156.3 L 264.7,174.1 L 266.9,190.2 L 264.7,204.0 L 258.3,214.9 L 248.0,222.6 L 234.3,226.6 L 217.5,226.7 L 198.3,222.8 L 177.1,214.7 L 154.7,202.5 L 131.6,186.3 L 108.4,166.4 L 85.8,143.1 L 64.3,116.9 L 44.4,88.3 L 29.3,64.3 L 40.3,97.8 L 48.5,131.5 L 53.8,164.7 L 56.2,196.7 L 55.7,226.8 L 52.5,254.3 L 46.7,278.7 L 38.8,299.2 L 28.9,315.5 L 17.7,327.2 L 5.5,334.1 L -7.0,335.9 L -19.4,332.7 L -31.1,324.4 L -41.7,311.4 L -50.6,293.9 L -57.4,272.3 L -61.9,247.2 L -63.6,219.0 L -62.5,188.5 L -58.4,156.3 L -51.3,123.2 L -41.4,89.8 L -32.0,63.0 L -51.3,92.4 L -72.6,119.9 L -95.2,144.8 L -118.7,166.6 L -142.6,185.0 L -166.1,199.6 L -188.7,210.3 L -209.8,216.8 L -228.7,219.3 L -244.8,217.9 L -257.7,212.6 L -267.0,204.0 L -272.2,192.3 L -273.0,178.0 L -269.5,161.6 L -261.3,143.7 L -248.7,124.9 L -231.8,105.8 L -210.9,86.8 L -186.3,68.7 L -158.6,51.8 L -128.3,36.7 L -96.0,23.6 L -69.2,14.3 L -104.3,17.5 L -139.0,18.0 L -172.5,15.8 L -204.3,11.0 L -233.5,3.9 L -259.7,-5.4 L -282.1,-16.4 L -300.3,-28.8 L -314.0,-42.0 L -323.0,-55.6 L -326.9,-68.9 L -325.9,-81.6 L -320.0,-92.9 L -309.4,-102.5 L -294.3,-109.9 L -275.3,-114.7 L -252.7,-116.6 L -227.2,-115.3 L -199.4,-110.7 L -169.9,-102.8 L -139.4,-91.7 L -108.6,-77.4 L -78.3,-60.3 L -54.3,-45.2 L -78.7,-70.6 L -100.7,-97.4 L -119.9,-125.0 L -136.0,-152.8 L -148.6,-180.2 L -157.7,-206.4 L -163.0,-230.8 L -164.7,-252.8 L -163.0,-271.7 L -157.9,-287.2 L -150.0,-298.6 L -139.5,-305.7 L -126.9,-308.1 L -112.7,-305.8 L -97.6,-298.7 L -82.0,-286.8 L -66.4,-270.3 L -51.5,-249.5 L -37.7,-224.9 L -25.5,-196.9 L -15.2,-166.2 L -7.2,-133.2 L -1.6,-98.8 L 1.5,-70.7 L 6.1,-105.5 L 13.4,-139.5 L 23.0,-171.7 L 34.7,-201.6 L 48.2,-228.5 L 63.0,-251.9 L 78.8,-271.3 L 94.9,-286.4 L 110.8,-296.8 L 126.0,-302.5 L 140.0,-303.4 L 152.0,-299.6 L 161.8,-291.3 L 168.8,-278.8 L 172.7,-262.5 L 173.1,-242.9 L 169.9,-220.5 L 163.0,-195.9 L 152.3,-169.7 Z"/>
      <path d="M 102.8,-22.0 L 69.0,-12.1 L 98.5,-13.5 L 133.3,-13.2 L 167.1,-10.3 L 199.0,-4.8 L 228.5,3.0 L 254.9,12.9 L 277.6,24.5 L 296.2,37.4 L 310.3,51.0 L 319.6,64.9 L 323.9,78.5 L 323.3,91.3 L 317.9,102.7 L 307.7,112.3 L 293.2,119.6 L 274.6,124.2 L 252.6,125.8 L 227.6,124.2 L 200.3,119.2 L 171.3,110.9 L 141.4,99.2 L 111.2,84.4 L 81.3,66.6 L 52.5,46.4 L 72.0,68.6 L 93.5,96.0 L 112.2,124.2 L 127.9,152.6 L 140.1,180.6 L 148.8,207.4 L 153.9,232.3 L 155.5,254.9 L 153.6,274.4 L 148.5,290.3 L 140.6,302.2 L 130.2,309.7 L 117.9,312.6 L 104.1,310.6 L 89.3,303.8 L 74.1,292.2 L 59.1,275.9 L 44.8,255.4 L 31.7,230.9 L 20.1,203.1 L 10.6,172.4 L 3.4,139.5 L -1.4,105.1 L -3.6,70.0 L -8.7,99.0 L -16.8,132.9 L -27.2,165.2 L -39.6,195.1 L -53.8,222.1 L -69.3,245.6 L -85.7,265.2 L -102.3,280.4 L -118.8,291.1 L -134.4,297.1 L -148.6,298.4 L -160.9,294.9 L -170.9,287.1 L -178.0,275.0 L -181.8,259.2 L -182.2,240.1 L -178.9,218.3 L -171.7,194.3 L -160.8,168.8 L -146.2,142.4 L -128.2,115.8 L -107.0,89.6 L -83.1,64.4 L -56.9,40.9 L -82.9,54.9 L -114.4,69.8 L -146.1,81.8 L -177.3,90.7 L -207.2,96.4 L -235.3,98.9 L -260.8,98.4 L -283.1,94.8 L -301.7,88.7 L -316.1,80.2 L -325.9,69.8 L -330.9,58.1 L -331.0,45.4 L -326.0,32.3 L -316.0,19.5 L -301.3,7.3 L -282.2,-3.8 L -259.0,-13.1 L -232.2,-20.5 L -202.5,-25.5 L -170.4,-28.0 L -136.8,-27.8 L -102.2,-24.8 L -67.4,-19.0 L -94.6,-30.6 L -125.9,-45.9 L -155.0,-63.2 L -181.4,-82.0 L -204.6,-101.9 L -224.0,-122.3 L -239.5,-142.5 L -250.6,-162.2 L -257.4,-180.6 L -259.8,-197.1 L -257.8,-211.3 L -251.7,-222.5 L -241.8,-230.5 L -228.5,-234.7 L -212.3,-234.9 L -193.5,-231.1 L -173.0,-222.9 L -151.2,-210.7 L -128.7,-194.3 L -106.3,-174.2 L -84.4,-150.7 L -63.6,-124.2 L -44.4,-95.3 L -27.2,-64.6 L -35.1,-93.0 L -42.6,-127.0 L -47.2,-160.6 L -49.0,-193.0 L -47.9,-223.5 L -44.1,-251.4 L -37.9,-276.1 L -29.5,-297.1 L -19.3,-313.8 L -7.9,-326.0 L 4.4,-333.3 L 17.0,-335.6 L 29.4,-332.8 L 41.0,-325.0 L 51.4,-312.4 L 60.0,-295.4 L 66.4,-274.3 L 70.4,-249.5 L 71.7,-221.8 L 70.0,-191.7 L 65.2,-159.9 L 57.5,-127.1 L 46.9,-94.1 L 33.6,-61.5 L 50.9,-85.4 L 72.8,-112.5 L 96.1,-137.0 L 120.4,-158.6 L 144.9,-176.8 L 169.0,-191.2 L 192.3,-201.8 L 213.9,-208.3 L 233.3,-210.8 L 250.0,-209.4 L 263.3,-204.3 L 273.0,-195.9 L 278.5,-184.5 L 279.7,-170.6 L 276.3,-154.6 L 268.3,-137.3 L 255.9,-119.0 L 239.0,-100.5 L 218.1,-82.3 L 193.5,-64.8 L 165.7,-48.7 L 135.3,-34.3 L 102.8,-22.0 Z"/>
      <path d="M 147.6,65.4 L 173.9,85.0 L 196.9,105.6 L 216.3,126.6 L 231.8,147.5 L 243.0,167.7 L 249.8,186.7 L 252.4,203.7 L 250.6,218.2 L 244.9,229.9 L 235.3,238.1 L 222.4,242.5 L 206.6,242.9 L 188.4,239.1 L 168.5,231.1 L 147.3,218.7 L 125.5,202.3 L 103.7,182.0 L 82.5,158.3 L 62.4,131.6 L 44.0,102.4 L 27.5,71.3 L 30.2,88.1 L 37.0,122.4 L 40.9,156.2 L 42.0,188.9 L 40.3,219.8 L 35.9,248.1 L 29.2,273.2 L 20.3,294.5 L 9.8,311.7 L -1.9,324.3 L -14.4,332.0 L -27.1,334.8 L -39.4,332.4 L -50.9,325.1 L -61.1,313.0 L -69.5,296.4 L -75.6,275.8 L -79.2,251.5 L -79.9,224.2 L -77.7,194.6 L -72.3,163.2 L -64.0,130.8 L -52.6,98.2 L -38.6,66.0 L -50.0,78.6 L -72.6,105.2 L -96.7,129.4 L -121.6,150.6 L -146.7,168.5 L -171.5,182.7 L -195.4,193.1 L -217.6,199.6 L -237.6,202.0 L -254.7,200.7 L -268.5,195.8 L -278.6,187.6 L -284.5,176.4 L -285.9,162.9 L -282.8,147.4 L -275.1,130.5 L -262.7,112.8 L -246.0,94.9 L -225.1,77.3 L -200.6,60.6 L -172.7,45.2 L -142.2,31.6 L -109.6,20.1 L -75.6,10.9 L -92.6,9.9 L -127.5,8.8 L -161.4,5.1 L -193.5,-1.1 L -223.2,-9.7 L -249.8,-20.2 L -272.8,-32.4 L -291.7,-45.7 L -306.1,-59.8 L -315.7,-74.0 L -320.5,-87.9 L -320.3,-100.9 L -315.3,-112.4 L -305.6,-122.0 L -291.6,-129.2 L -273.5,-133.7 L -252.0,-135.1 L -227.6,-133.2 L -200.8,-127.8 L -172.4,-119.0 L -143.0,-106.8 L -113.3,-91.5 L -84.0,-73.2 L -55.7,-52.3 L -65.5,-66.2 L -86.4,-94.2 L -104.6,-123.0 L -119.8,-152.0 L -131.6,-180.5 L -140.0,-207.9 L -144.8,-233.5 L -146.1,-256.5 L -144.1,-276.6 L -139.0,-293.0 L -131.1,-305.4 L -120.9,-313.3 L -108.7,-316.6 L -95.2,-315.0 L -80.7,-308.5 L -66.0,-297.2 L -51.5,-281.3 L -37.8,-261.0 L -25.3,-236.7 L -14.4,-209.0 L -5.6,-178.4 L 0.8,-145.6 L 4.8,-111.3 L 6.2,-76.2 L 11.0,-92.5 L 19.8,-126.3 L 30.9,-158.5 L 44.2,-188.4 L 59.1,-215.5 L 75.3,-239.1 L 92.2,-258.8 L 109.5,-274.2 L 126.4,-285.1 L 142.4,-291.4 L 157.0,-292.9 L 169.6,-289.9 L 179.7,-282.4 L 187.0,-270.8 L 190.9,-255.5 L 191.2,-236.9 L 187.8,-215.6 L 180.5,-192.2 L 169.3,-167.3 L 154.4,-141.6 L 136.0,-115.7 L 114.4,-90.1 L 90.0,-65.6 L 63.4,-42.7 L 79.1,-49.1 L 111.1,-63.3 L 143.2,-74.6 L 174.9,-83.0 L 205.3,-88.2 L 233.8,-90.2 L 259.8,-89.2 L 282.6,-85.4 L 301.7,-79.0 L 316.6,-70.3 L 326.9,-59.9 L 332.4,-48.1 L 332.9,-35.5 L 328.3,-22.7 L 318.8,-10.1 L 304.5,1.8 L 285.7,12.4 L 262.8,21.2 L 236.4,28.0 L 207.0,32.4 L 175.2,34.2 L 141.8,33.2 L 107.4,29.5 L 72.9,22.9 L 87.7,31.3 L 118.7,47.4 L 147.6,65.4 Z"/>
      <path d="M 135.7,234.1 L 136.8,257.8 L 134.6,278.3 L 129.4,295.3 L 121.5,308.1 L 111.3,316.5 L 99.4,320.2 L 86.0,319.0 L 72.0,312.9 L 57.6,301.9 L 43.6,286.3 L 30.4,266.2 L 18.6,242.2 L 8.4,214.7 L 0.3,184.3 L -5.4,151.6 L -8.6,117.3 L -9.1,82.2 L -12.8,85.9 L -22.4,119.5 L -34.4,151.7 L -48.3,181.6 L -64.0,208.6 L -80.9,232.3 L -98.5,252.1 L -116.3,267.7 L -133.7,278.8 L -150.2,285.3 L -165.1,287.1 L -178.1,284.4 L -188.4,277.3 L -195.8,266.2 L -199.8,251.4 L -200.1,233.3 L -196.6,212.6 L -189.2,189.8 L -177.8,165.5 L -162.6,140.4 L -143.9,115.1 L -121.9,90.3 L -97.1,66.4 L -70.0,44.1 L -75.1,43.5 L -107.4,57.0 L -140.0,67.7 L -172.1,75.4 L -203.0,80.1 L -232.0,81.6 L -258.5,80.2 L -281.8,76.0 L -301.3,69.3 L -316.7,60.5 L -327.4,49.9 L -333.4,38.1 L -334.3,25.6 L -330.2,12.9 L -321.1,0.5 L -307.2,-11.0 L -288.8,-21.2 L -266.3,-29.6 L -240.2,-35.8 L -211.2,-39.6 L -179.7,-40.7 L -146.6,-39.0 L -112.5,-34.5 L -78.2,-27.2 L -80.9,-31.6 L -111.6,-48.5 L -140.2,-67.2 L -166.3,-87.5 L -189.2,-108.8 L -208.5,-130.5 L -223.9,-152.1 L -235.1,-172.9 L -242.0,-192.4 L -244.7,-209.9 L -243.2,-224.9 L -237.7,-236.9 L -228.5,-245.4 L -215.9,-250.1 L -200.6,-250.7 L -182.9,-247.0 L -163.5,-239.0 L -142.9,-226.6 L -121.8,-210.2 L -100.7,-189.8 L -80.2,-165.9 L -60.9,-138.9 L -43.2,-109.4 L -27.5,-78.1 L -25.7,-82.9 L -31.7,-117.4 L -34.9,-151.6 L -35.2,-184.6 L -32.9,-215.7 L -27.9,-244.4 L -20.7,-269.8 L -11.4,-291.6 L -0.5,-309.2 L 11.5,-322.2 L 24.2,-330.3 L 37.0,-333.5 L 49.4,-331.6 L 60.9,-324.8 L 70.9,-313.1 L 79.1,-297.0 L 84.9,-276.8 L 88.1,-253.1 L 88.4,-226.3 L 85.6,-197.1 L 79.7,-166.1 L 70.7,-134.2 L 58.7,-102.0 L 43.9,-70.1 L 48.8,-71.8 L 72.1,-98.0 L 96.8,-121.8 L 122.3,-142.6 L 148.2,-160.2 L 173.6,-174.2 L 198.1,-184.4 L 220.9,-190.7 L 241.4,-193.2 L 259.1,-191.9 L 273.4,-187.0 L 283.8,-179.0 L 290.1,-168.1 L 291.9,-154.9 L 289.0,-139.8 L 281.5,-123.4 L 269.4,-106.2 L 252.8,-88.9 L 232.0,-72.0 L 207.4,-55.9 L 179.6,-41.3 L 149.0,-28.4 L 116.3,-17.7 L 82.2,-9.4 L 86.6,-6.6 L 121.5,-4.7 L 155.5,-0.3 L 187.8,6.7 L 217.6,15.9 L 244.5,27.1 L 267.7,39.9 L 286.8,53.8 L 301.5,68.3 L 311.5,82.9 L 316.7,97.1 L 316.9,110.3 L 312.3,122.0 L 303.1,131.6 L 289.5,138.8 L 272.0,143.2 L 251.0,144.4 L 227.1,142.2 L 200.9,136.5 L 173.1,127.3 L 144.3,114.6 L 115.1,98.7 L 86.4,79.9 L 58.6,58.4 L 59.1,63.5 L 79.5,92.1 L 97.2,121.4 L 111.8,151.0 L 123.2,180.1 L 131.2,208.0 L 135.7,234.1 Z"/>
      <path d="M -33.9,328.2 L -46.9,331.8 L -59.4,330.4 L -70.8,324.0 L -80.8,312.8 L -88.7,297.2 L -94.3,277.5 L -97.1,254.2 L -97.0,227.9 L -93.7,199.2 L -87.2,168.7 L -77.6,137.3 L -64.9,105.5 L -49.5,74.1 L -47.2,65.2 L -71.1,90.9 L -96.5,114.2 L -122.7,134.7 L -149.2,151.9 L -175.3,165.6 L -200.3,175.6 L -223.7,181.8 L -244.8,184.2 L -263.0,182.8 L -277.8,178.1 L -288.7,170.2 L -295.3,159.6 L -297.5,146.6 L -294.9,131.9 L -287.7,115.9 L -275.7,99.3 L -259.3,82.6 L -238.6,66.3 L -214.1,50.9 L -186.3,37.0 L -155.7,24.9 L -123.0,15.0 L -88.8,7.5 L -80.4,3.7 L -115.4,1.1 L -149.4,-4.2 L -181.8,-12.0 L -211.8,-21.9 L -238.8,-33.8 L -262.2,-47.1 L -281.6,-61.6 L -296.6,-76.6 L -306.9,-91.6 L -312.4,-106.1 L -313.0,-119.6 L -308.9,-131.4 L -300.1,-141.2 L -287.0,-148.4 L -270.0,-152.6 L -249.6,-153.6 L -226.2,-151.2 L -200.6,-145.2 L -173.3,-135.7 L -145.1,-122.6 L -116.6,-106.2 L -88.4,-86.8 L -61.2,-64.7 L -53.0,-60.5 L -72.8,-89.6 L -89.9,-119.5 L -104.0,-149.6 L -114.9,-179.3 L -122.5,-207.7 L -126.6,-234.4 L -127.4,-258.6 L -125.1,-279.7 L -119.7,-297.1 L -111.8,-310.4 L -101.7,-319.3 L -89.8,-323.4 L -76.7,-322.6 L -63.0,-316.9 L -49.0,-306.3 L -35.5,-290.9 L -22.8,-271.2 L -11.5,-247.4 L -2.0,-220.1 L 5.4,-189.9 L 10.3,-157.3 L 12.7,-123.2 L 12.5,-88.2 L 14.2,-79.2 L 24.7,-112.7 L 37.4,-144.8 L 52.1,-174.6 L 68.5,-201.6 L 86.1,-225.3 L 104.3,-245.2 L 122.7,-260.9 L 140.7,-272.1 L 157.6,-278.9 L 173.0,-281.0 L 186.2,-278.6 L 196.9,-271.9 L 204.4,-261.2 L 208.5,-246.8 L 208.9,-229.3 L 205.3,-209.1 L 197.8,-186.9 L 186.2,-163.2 L 170.8,-138.8 L 151.8,-114.2 L 129.5,-90.0 L 104.3,-66.9 L 76.7,-45.2 L 70.8,-38.3 L 103.5,-51.0 L 136.5,-61.0 L 169.0,-68.1 L 200.3,-72.2 L 229.8,-73.2 L 256.7,-71.3 L 280.5,-66.7 L 300.5,-59.7 L 316.3,-50.6 L 327.5,-39.9 L 333.9,-28.1 L 335.3,-15.6 L 331.6,-3.0 L 323.0,9.1 L 309.5,20.4 L 291.5,30.2 L 269.4,38.1 L 243.7,43.8 L 215.0,47.0 L 183.9,47.5 L 151.1,45.1 L 117.3,39.8 L 83.2,31.8 L 74.1,31.5 L 104.4,49.1 L 132.8,68.7 L 158.6,89.7 L 181.3,111.6 L 200.5,134.0 L 215.8,156.2 L 227.0,177.7 L 234.0,197.7 L 236.8,215.7 L 235.4,231.2 L 230.2,243.6 L 221.3,252.4 L 209.1,257.4 L 194.2,258.2 L 177.0,254.7 L 158.2,246.7 L 138.2,234.4 L 117.7,217.9 L 97.3,197.4 L 77.5,173.4 L 58.9,146.2 L 42.0,116.5 L 27.0,84.9 L 21.5,77.5 L 26.7,112.3 L 29.1,146.6 L 28.8,179.9 L 25.8,211.4 L 20.2,240.3 L 12.4,266.1 L 2.6,288.3 L -8.7,306.2 L -21.0,319.6 L -33.9,328.2 Z"/>
    </g>
    <circle cx="68.9" cy="-165.8" r="1.1" fill="#3498db" opacity="0.75"/>
    <circle cx="-97.1" cy="41.6" r="1.6" fill="#3498db" opacity="0.75"/>
    <circle cx="-178.7" cy="-183.0" r="1.7" fill="#3498db" opacity="0.75"/>
    <circle cx="-63.8" cy="-252.9" r="1.6" fill="#3498db" opacity="0.75"/>
    <circle cx="75.5" cy="129.2" r="1.6" fill="#3498db" opacity="0.75"/>
    <circle cx="261.4" cy="-32.6" r="1.5" fill="#3498db" opacity="0.75"/>
    <circle cx="-8.4" cy="-240.7" r="1.4" fill="#3498db" opacity="0.75"/>
    <circle cx="-247.5" cy="158.9" r="1.0" fill="#3498db" opacity="0.75"/>
    <circle cx="35.3" cy="127.3" r="1.6" fill="#3498db" opacity="0.75"/>
    <circle cx="-136.8" cy="-229.6" r="0.7" fill="#3498db" opacity="0.75"/>
    <circle cx="-121.4" cy="79.5" r="1.4" fill="#3498db" opacity="0.75"/>
    <circle cx="117.5" cy="22.8" r="1.5" fill="#3498db" opacity="0.75"/>
    <circle cx="221.1" cy="-16.8" r="0.9" fill="#3498db" opacity="0.75"/>
    <circle cx="176.2" cy="-81.6" r="1.1" fill="#3498db" opacity="0.75"/>
    <circle cx="-59.3" cy="-117.6" r="1.2" fill="#3498db" opacity="0.75"/>
    <circle cx="208.3" cy="71.3" r="0.8" fill="#3498db" opacity="0.75"/>
    <circle cx="-0.8" cy="191.7" r="0.8" fill="#3498db" opacity="0.75"/>
    <circle cx="-114.1" cy="-278.4" r="1.1" fill="#3498db" opacity="0.75"/>
    <circle cx="-243.7" cy="-35.2" r="1.3" fill="#3498db" opacity="0.75"/>
    <circle cx="-105.7" cy="76.5" r="1.4" fill="#3498db" opacity="0.75"/>
    <circle cx="-109.6" cy="70.9" r="1.5" fill="#3498db" opacity="0.75"/>
    <circle cx="-74.0" cy="102.5" r="1.2" fill="#3498db" opacity="0.75"/>
    <circle cx="108.6" cy="-30.1" r="1.2" fill="#3498db" opacity="0.75"/>
    <circle cx="-2.7" cy="173.2" r="1.7" fill="#3498db" opacity="0.75"/>
    <circle cx="-112.1" cy="-61.6" r="0.7" fill="#3498db" opacity="0.75"/>
    <circle cx="-142.7" cy="-170.6" r="0.8" fill="#3498db" opacity="0.75"/>
    <circle cx="93.3" cy="123.3" r="1.7" fill="#3498db" opacity="0.75"/>
    <circle cx="173.4" cy="-113.6" r="1.3" fill="#3498db" opacity="0.75"/>
    <circle cx="71.0" cy="-113.3" r="1.6" fill="#3498db" opacity="0.75"/>
    <circle cx="-73.9" cy="88.8" r="1.4" fill="#3498db" opacity="0.75"/>
    <circle cx="-152.6" cy="-228.9" r="0.9" fill="#3498db" opacity="0.75"/>
    <circle cx="-73.5" cy="-73.7" r="1.3" fill="#3498db" opacity="0.75"/>
    <circle cx="-34.3" cy="142.7" r="0.6" fill="#3498db" opacity="0.75"/>
    <circle cx="60.8" cy="221.2" r="1.5" fill="#3498db" opacity="0.75"/>
    <circle cx="-92.1" cy="128.2" r="1.4" fill="#3498db" opacity="0.75"/>
    <circle cx="297.5" cy="-11.8" r="0.9" fill="#3498db" opacity="0.75"/>
    <circle cx="297.6" cy="21.2" r="1.7" fill="#3498db" opacity="0.75"/>
    <circle cx="-222.1" cy="-68.3" r="1.6" fill="#3498db" opacity="0.75"/>
    <circle cx="-92.5" cy="135.1" r="1.6" fill="#3498db" opacity="0.75"/>
    <circle cx="96.2" cy="-80.8" r="0.7" fill="#3498db" opacity="0.75"/>
    <circle cx="-223.1" cy="-29.8" r="1.0" fill="#3498db" opacity="0.75"/>
    <circle cx="-206.4" cy="183.4" r="1.0" fill="#3498db" opacity="0.75"/>
    <circle cx="84.8" cy="-64.4" r="0.7" fill="#3498db" opacity="0.75"/>
    <circle cx="234.0" cy="14.4" r="1.5" fill="#3498db" opacity="0.75"/>
    <circle cx="51.9" cy="169.8" r="1.0" fill="#3498db" opacity="0.75"/>
    <circle cx="-12.8" cy="137.7" r="1.5" fill="#3498db" opacity="0.75"/>
    <circle cx="-123.4" cy="175.6" r="1.6" fill="#3498db" opacity="0.75"/>
    <circle cx="98.9" cy="208.6" r="1.3" fill="#3498db" opacity="0.75"/>
    <circle cx="-242.3" cy="-124.8" r="1.4" fill="#3498db" opacity="0.75"/>
    <circle cx="90.0" cy="86.9" r="1.3" fill="#3498db" opacity="0.75"/>
    <circle cx="106.1" cy="71.0" r="1.7" fill="#3498db" opacity="0.75"/>
    <circle cx="-160.5" cy="-165.1" r="1.3" fill="#3498db" opacity="0.75"/>
    <circle cx="-31.8" cy="277.7" r="1.5" fill="#3498db" opacity="0.75"/>
    <circle cx="-250.0" cy="9.8" r="0.8" fill="#3498db" opacity="0.75"/>
    <circle cx="-98.1" cy="-150.5" r="1.0" fill="#3498db" opacity="0.75"/>
    <circle cx="145.2" cy="-88.6" r="1.0" fill="#3498db" opacity="0.75"/>
    <circle cx="-1.7" cy="-118.0" r="0.6" fill="#3498db" opacity="0.75"/>
    <circle cx="7.9" cy="216.4" r="0.9" fill="#3498db" opacity="0.75"/>
    <circle cx="-18.8" cy="192.2" r="1.1" fill="#3498db" opacity="0.75"/>
    <circle cx="-2.7" cy="-258.1" r="1.5" fill="#3498db" opacity="0.75"/>
    <circle cx="0" cy="0" r="27" fill="#3498db" opacity="0.8"/>
  </g>
</svg>
