<svg xmlns="http://www.w3.org/2000/svg" width="800" height="800" viewBox="0 0 800 800">
  <rect width="100%" height="100%" fill="#0a1628"/>
  <g transform="translate(400.0,400.0)">
    <g fill="none" stroke="#3498db" stroke-width="1.5" opacity="1.00">
      <path d="M 11.2,0.5 L 20.4,5.6 L 27.0,14.5 L 29.5,25.7 L 27.2,37.4 L 20.3,47.4 L 9.8,54.0 L -2.5,55.9 L -14.6,52.9 L -24.4,45.4 L -30.4,34.8 L -31.6,23.0 L -28.2,12.1 L -20.8,3.8 L -11.2,-0.5 L -20.4,-5.6 L -27.0,-14.5 L -29.5,-25.7 L -27.2,-37.4 L -20.3,-47.4 L -9.8,-54.0 L 2.5,-55.9 L 14.6,-52.9 L 24.4,-45.4 L 30.4,-34.8 L 31.6,-23.0 L 28.2,-12.1 L 20.8,-3.8 L 11.2,0.5 Z"/>
      <path d="M 22.1,24.1 L 20.2,35.5 L 13.7,45.6 L 3.6,52.4 L -8.6,54.7 L -20.8,51.9 L -30.9,44.7 L -37.3,34.1 L -38.9,22.1 L -35.7,10.8 L -28.5,1.9 L -18.7,-2.9 L -12.5,-5.0 L -19.2,-13.3 L -22.1,-24.1 L -20.2,-35.5 L -13.7,-45.6 L -3.6,-52.4 L 8.6,-54.7 L 20.8,-51.9 L 30.9,-44.7 L 37.3,-34.1 L 38.9,-22.1 L 35.7,-10.8 L 28.5,-1.9 L 18.7,2.9 L 12.5,5.0 L 19.2,13.3 L 22.1,24.1 Z"/>
      <path d="M -2.2,48.9 L -14.1,51.4 L -26.3,49.0 L -36.7,42.0 L -43.4,31.6 L -45.4,19.4 L -42.5,7.7 L -35.4,-1.6 L -25.5,-7.0 L -14.7,-7.9 L -11.9,-10.4 L -15.1,-20.7 L -13.7,-31.9 L -7.6,-41.9 L 2.2,-48.9 L 14.1,-51.4 L 26.3,-49.0 L 36.7,-42.0 L 43.4,-31.6 L 45.4,-19.4 L 42.5,-7.7 L 35.4,1.6 L 25.5,7.0 L 14.7,7.9 L 11.9,10.4 L 15.1,20.7 L 13.7,31.9 L 7.6,41.9 L -2.2,48.9 Z"/>
      <path d="M -41.2,37.7 L -48.2,27.4 L -50.6,15.2 L -48.0,3.3 L -41.0,-6.5 L -31.1,-12.4 L -19.9,-13.8 L -9.7,-10.6 L -8.9,-15.7 L -8.0,-26.6 L -2.5,-36.5 L 6.9,-43.6 L 18.6,-46.5 L 30.7,-44.5 L 41.2,-37.7 L 48.2,-27.4 L 50.6,-15.2 L 48.0,-3.3 L 41.0,6.5 L 31.1,12.4 L 19.9,13.8 L 9.7,10.6 L 8.9,15.7 L 8.0,26.6 L 2.5,36.5 L -6.9,43.6 L -18.6,46.5 L -30.7,44.5 L -41.2,37.7 Z"/>
      <path d="M -51.9,-2.3 L -45.1,-12.4 L -35.1,-18.8 L -23.7,-20.7 L -13.0,-17.8 L -4.8,-11.1 L -3.6,-20.0 L 1.3,-29.8 L 10.2,-37.1 L 21.6,-40.2 L 33.6,-38.6 L 44.2,-32.2 L 51.5,-22.1 L 54.2,-9.9 L 51.9,2.3 L 45.1,12.4 L 35.1,18.8 L 23.7,20.7 L 13.0,17.8 L 4.8,11.1 L 3.6,20.0 L -1.3,29.8 L -10.2,37.1 L -21.6,40.2 L -33.6,38.6 L -44.2,32.2 L -51.5,22.1 L -54.2,9.9 L -51.9,-2.3 Z"/>
      <path d="M -25.7,-28.0 L -14.5,-25.5 L -5.7,-18.9 L -0.9,-12.6 L 3.5,-22.3 L 11.9,-29.6 L 22.9,-33.1 L 34.7,-31.8 L 45.3,-25.8 L 52.8,-15.9 L 55.8,-3.8 L 53.9,8.5 L 47.3,18.9 L 37.3,25.8 L 25.7,28.0 L 14.5,25.5 L 5.7,18.9 L 0.9,12.6 L -3.5,22.3 L -11.9,29.6 L -22.9,33.1 L -34.7,31.8 L -45.3,25.8 L -52.8,15.9 L -55.8,3.8 L -53.9,-8.5 L -47.3,-18.9 L -37.3,-25.8 L -25.7,-28.0 Z"/>
      <path d="M 0.8,-17.5 L 4.0,-14.4 L 11.7,-21.8 L 22.3,-25.6 L 33.9,-24.7 L 44.5,-19.1 L 52.2,-9.5 L 55.5,2.4 L 53.8,14.8 L 47.5,25.5 L 37.5,32.7 L 25.8,35.4 L 14.2,33.2 L 4.9,26.8 L -0.8,17.5 L -4.0,14.4 L -11.7,21.8 L -22.3,25.6 L -33.9,24.7 L -44.5,19.1 L -52.2,9.5 L -55.5,-2.4 L -53.8,-14.8 L -47.5,-25.5 L -37.5,-32.7 L -25.8,-35.4 L -14.2,-33.2 L -4.9,-26.8 L 0.8,-17.5 Z"/>
      <path d="M 19.9,-18.2 L 31.2,-17.7 L 41.7,-12.6 L 49.5,-3.4 L 53.1,8.4 L 51.8,20.7 L 45.7,31.6 L 35.9,39.2 L 24.0,42.3 L 12.2,40.4 L 2.3,34.1 L -3.9,24.8 L -5.7,14.2 L -9.8,14.1 L -19.9,18.2 L -31.2,17.7 L -41.7,12.6 L -49.5,3.4 L -53.1,-8.4 L -51.8,-20.7 L -45.7,-31.6 L -35.9,-39.2 L -24.0,-42.3 L -12.2,-40.4 L -2.3,-34.1 L 3.9,-24.8 L 5.7,-14.2 L 9.8,-14.1 L 19.9,-18.2 Z"/>
    </g>
    <circle cx="17.7" cy="0.6" r="2.7" fill="#3498db" opacity="1.00"/>
    <circle cx="-16.3" cy="36.1" r="2.1" fill="#3498db" opacity="1.00"/>
    <circle cx="18.0" cy="6.2" r="1.6" fill="#3498db" opacity="1.00"/>
    <circle cx="16.0" cy="-7.1" r="1.2" fill="#3498db" opacity="1.00"/>
    <circle cx="-34.0" cy="19.5" r="1.4" fill="#3498db" opacity="1.00"/>
    <circle cx="-5.6" cy="20.7" r="2.3" fill="#3498db" opacity="1.00"/>
    <circle cx="26.5" cy="-38.8" r="1.4" fill="#3498db" opacity="1.00"/>
    <circle cx="16.5" cy="-6.2" r="1.3" fill="#3498db" opacity="1.00"/>
    <g fill="none" stroke="#2ecc71" stroke-width="1.4" opacity="0.95">
      <path d="M 17.7,13.8 L 26.7,26.2 L 32.9,40.3 L 35.6,55.3 L 34.7,70.1 L 30.4,83.9 L 22.9,95.6 L 12.9,104.4 L 1.2,109.7 L -11.3,111.3 L -23.6,108.9 L -34.7,102.8 L -43.7,93.4 L -49.9,81.4 L -52.7,67.6 L -51.9,53.1 L -47.5,38.7 L -39.7,25.5 L -29.1,14.4 L -25.8,9.3 L -41.2,9.9 L -56.3,7.0 L -70.1,0.8 L -81.7,-8.3 L -90.4,-19.6 L -95.5,-32.3 L -96.9,-45.4 L -94.4,-57.9 L -88.3,-68.9 L -79.1,-77.5 L -67.6,-82.9 L -54.6,-84.8 L -41.0,-82.9 L -27.9,-77.2 L -16.3,-68.1 L -7.0,-56.3 L -0.5,-42.3 L 2.8,-27.3 L 6.9,-31.7 L 15.1,-44.7 L 26.0,-55.5 L 38.8,-63.3 L 52.7,-67.6 L 66.8,-68.2 L 79.9,-65.2 L 91.2,-58.7 L 99.9,-49.4 L 105.2,-38.1 L 106.7,-25.6 L 104.4,-12.9 L 98.3,-1.1 L 88.8,9.0 L 76.5,16.6 L 62.3,21.0 L 47.1,22.1 L 31.9,19.6 L 17.7,13.8 Z"/>
      <path d="M 8.0,64.9 L 0.8,77.9 L -9.0,88.5 L -20.8,95.8 L -33.6,99.5 L -46.5,99.3 L -58.5,95.3 L -68.6,87.9 L -76.0,77.6 L -80.1,65.3 L -80.5,51.8 L -77.1,38.2 L -70.2,25.4 L -60.0,14.4 L -47.3,5.8 L -32.9,0.4 L -26.8,-2.7 L -41.0,-8.9 L -53.3,-18.0 L -63.1,-29.6 L -69.7,-42.8 L -72.7,-56.7 L -71.9,-70.4 L -67.5,-82.8 L -59.9,-93.1 L -49.7,-100.4 L -37.7,-104.2 L -25.0,-104.2 L -12.4,-100.3 L -1.0,-92.7 L 8.3,-82.0 L 14.9,-68.8 L 18.3,-54.1 L 18.1,-38.7 L 14.6,-23.7 L 19.7,-25.2 L 32.7,-33.4 L 47.2,-38.5 L 62.1,-40.0 L 76.6,-37.9 L 89.5,-32.4 L 100.1,-24.0 L 107.6,-13.3 L 111.4,-1.2 L 111.3,11.3 L 107.4,23.3 L 99.8,33.7 L 89.2,41.8 L 76.3,46.8 L 62.0,48.3 L 47.3,46.3 L 33.1,40.6 L 20.5,31.8 L 10.1,20.5 L 12.6,34.8 L 12.0,50.2 L 8.0,64.9 Z"/>
      <path d="M -60.1,77.1 L -73.3,74.9 L -84.9,69.2 L -94.0,60.5 L -100.0,49.5 L -102.2,37.0 L -100.7,24.1 L -95.3,11.8 L -86.4,0.9 L -74.6,-7.6 L -60.7,-13.2 L -45.5,-15.4 L -30.2,-14.1 L -22.6,-13.9 L -32.7,-25.5 L -39.9,-39.1 L -43.8,-53.7 L -44.1,-68.5 L -40.8,-82.4 L -34.2,-94.4 L -24.9,-103.7 L -13.6,-109.7 L -1.2,-112.0 L 11.2,-110.3 L 22.7,-104.8 L 32.4,-95.9 L 39.4,-84.2 L 43.3,-70.5 L 43.6,-55.8 L 40.2,-41.1 L 33.5,-27.3 L 23.8,-15.3 L 28.3,-14.0 L 43.6,-15.8 L 58.8,-14.1 L 73.0,-9.0 L 85.1,-0.9 L 94.5,9.6 L 100.4,21.8 L 102.6,34.7 L 100.8,47.2 L 95.4,58.5 L 86.7,67.6 L 75.4,73.8 L 62.4,76.5 L 48.6,75.5 L 35.0,70.8 L 22.6,62.5 L 12.3,51.4 L 4.7,38.0 L 0.3,23.3 L -3.7,36.4 L -10.8,50.0 L -20.8,61.6 L -32.9,70.3 L -46.3,75.5 L -60.1,77.1 Z"/>
      <path d="M -110.9,13.7 L -111.6,1.2 L -108.3,-11.0 L -101.3,-22.0 L -91.2,-30.8 L -78.5,-36.8 L -64.2,-39.4 L -49.2,-38.4 L -34.6,-33.9 L -21.3,-26.2 L -14.1,-22.0 L -18.2,-36.8 L -18.9,-52.2 L -16.1,-67.1 L -9.9,-80.5 L -1.0,-91.6 L 10.1,-99.7 L 22.6,-104.1 L 35.4,-104.7 L 47.5,-101.4 L 58.0,-94.6 L 66.1,-84.7 L 71.0,-72.5 L 72.3,-58.9 L 69.9,-45.0 L 63.8,-31.6 L 54.4,-19.7 L 42.4,-10.2 L 28.5,-3.5 L 31.1,-0.3 L 45.7,4.7 L 58.7,12.7 L 69.3,23.4 L 76.8,36.0 L 80.7,49.5 L 80.9,63.1 L 77.3,75.6 L 70.3,86.3 L 60.6,94.1 L 48.8,98.6 L 36.0,99.4 L 23.1,96.2 L 11.0,89.4 L 0.9,79.3 L -6.8,66.5 L -11.3,52.0 L -12.4,36.7 L -10.1,21.5 L -18.9,30.8 L -31.2,40.0 L -45.2,46.2 L -59.9,48.8 L -74.3,47.8 L -87.4,43.3 L -98.4,35.6 L -106.4,25.5 L -110.9,13.7 Z"/>
      <path d="M -81.9,-63.9 L -68.9,-67.5 L -55.0,-67.4 L -40.9,-63.6 L -27.9,-56.3 L -16.6,-46.0 L -8.0,-33.2 L -3.1,-25.5 L -0.4,-40.6 L 5.6,-54.8 L 14.5,-67.0 L 25.9,-76.5 L 38.7,-82.7 L 52.3,-85.2 L 65.4,-83.9 L 77.2,-78.9 L 86.8,-70.8 L 93.4,-60.1 L 96.4,-47.7 L 95.6,-34.6 L 91.0,-21.8 L 82.8,-10.2 L 71.5,-0.8 L 58.0,5.9 L 43.0,9.3 L 27.6,9.3 L 27.8,13.0 L 38.8,23.8 L 47.1,36.7 L 52.0,50.9 L 53.4,65.5 L 51.1,79.4 L 45.4,91.7 L 36.8,101.5 L 25.9,108.2 L 13.7,111.1 L 1.2,110.1 L -10.7,105.3 L -21.0,96.9 L -28.9,85.6 L -33.8,72.1 L -35.2,57.3 L -33.0,42.3 L -27.4,28.0 L -18.7,15.3 L -30.0,19.3 L -45.1,22.3 L -60.4,21.9 L -74.8,17.9 L -87.4,10.8 L -97.3,1.0 L -104.0,-10.6 L -106.9,-23.2 L -105.9,-35.8 L -101.1,-47.3 L -92.9,-57.0 L -81.9,-63.9 Z"/>
      <path d="M -9.3,-75.4 L -0.7,-63.2 L 5.0,-49.1 L 7.3,-33.8 L 8.1,-23.9 L 17.0,-36.4 L 28.6,-46.6 L 41.9,-53.8 L 56.3,-57.5 L 70.6,-57.5 L 83.9,-54.0 L 95.2,-47.1 L 103.8,-37.6 L 108.9,-26.1 L 110.2,-13.6 L 107.7,-1.2 L 101.3,10.3 L 91.7,19.9 L 79.3,26.8 L 65.1,30.5 L 50.0,30.7 L 35.1,27.4 L 21.2,20.7 L 19.1,23.4 L 24.4,37.9 L 26.3,53.1 L 24.7,68.1 L 19.6,81.9 L 11.6,93.5 L 1.1,102.1 L -10.9,107.3 L -23.6,108.6 L -35.8,106.1 L -46.8,99.8 L -55.4,90.3 L -61.1,78.4 L -63.4,64.8 L -62.0,50.5 L -56.9,36.6 L -48.4,24.0 L -37.2,13.5 L -23.9,5.7 L -35.0,4.3 L -49.9,0.5 L -63.5,-6.5 L -74.8,-16.2 L -83.1,-28.1 L -87.9,-41.2 L -88.9,-54.5 L -86.1,-67.2 L -79.8,-78.1 L -70.6,-86.5 L -59.0,-91.7 L -46.2,-93.3 L -32.9,-90.9 L -20.3,-84.9 L -9.3,-75.4 Z"/>
      <path d="M 21.6,-27.6 L 17.3,-17.7 L 30.8,-25.1 L 45.6,-29.3 L 60.8,-30.1 L 75.3,-27.3 L 88.3,-21.2 L 98.8,-12.2 L 106.1,-1.1 L 109.7,11.2 L 109.4,23.7 L 105.3,35.6 L 97.6,45.7 L 87.0,53.4 L 74.2,57.9 L 60.1,58.8 L 45.7,56.0 L 32.0,49.7 L 19.9,40.2 L 10.2,28.3 L 6.9,29.0 L 5.5,44.3 L 0.6,58.9 L -7.3,71.7 L -17.8,82.0 L -30.1,89.0 L -43.2,92.3 L -56.3,91.8 L -68.3,87.6 L -78.3,80.0 L -85.5,69.7 L -89.3,57.4 L -89.3,44.2 L -85.5,31.0 L -78.1,18.7 L -67.5,8.3 L -54.5,0.6 L -39.8,-4.1 L -24.5,-5.3 L -33.0,-11.1 L -44.8,-21.0 L -54.1,-33.2 L -60.1,-46.9 L -62.5,-61.2 L -61.2,-75.1 L -56.3,-87.6 L -48.4,-97.8 L -38.0,-105.0 L -26.0,-108.6 L -13.4,-108.4 L -1.1,-104.2 L 9.8,-96.5 L 18.6,-85.6 L 24.4,-72.4 L 27.0,-57.6 L 26.0,-42.4 L 21.6,-27.6 Z"/>
      <path d="M 53.4,-6.6 L 67.4,-0.7 L 79.4,8.1 L 88.4,19.2 L 94.1,31.8 L 95.9,44.9 L 93.9,57.6 L 88.3,68.9 L 79.5,77.8 L 68.2,83.7 L 55.3,86.0 L 41.8,84.5 L 28.7,79.3 L 16.9,70.6 L 7.3,59.1 L 0.5,45.3 L -3.1,30.3 L -6.2,28.7 L -14.2,41.9 L -24.8,53.0 L -37.5,61.1 L -51.4,65.9 L -65.5,66.9 L -78.9,64.3 L -90.5,58.2 L -99.5,49.3 L -105.3,38.1 L -107.3,25.7 L -105.5,13.0 L -99.9,1.1 L -90.7,-9.2 L -78.8,-17.1 L -64.8,-21.9 L -49.7,-23.3 L -34.5,-21.1 L -20.1,-15.7 L -24.6,-24.0 L -31.0,-38.0 L -34.1,-53.0 L -33.6,-68.0 L -29.7,-81.9 L -22.5,-93.9 L -12.7,-103.2 L -1.2,-109.0 L 11.3,-111.1 L 23.7,-109.2 L 35.0,-103.5 L 44.3,-94.6 L 50.8,-82.9 L 54.1,-69.3 L 53.7,-54.8 L 49.6,-40.5 L 42.2,-27.1 L 31.8,-15.7 L 22.9,-8.3 L 38.2,-9.2 L 53.4,-6.6 Z"/>
    </g>
    <circle cx="-28.7" cy="-83.0" r="1.2" fill="#2ecc71" opacity="0.95"/>
    <circle cx="13.4" cy="63.0" r="2.4" fill="#2ecc71" opacity="0.95"/>
    <circle cx="-28.6" cy="28.2" r="1.7" fill="#2ecc71" opacity="0.95"/>
    <circle cx="-35.6" cy="2.6" r="2.1" fill="#2ecc71" opacity="0.95"/>
    <circle cx="-80.9" cy="41.5" r="2.4" fill="#2ecc71" opacity="0.95"/>
    <circle cx="-81.8" cy="-15.9" r="2.0" fill="#2ecc71" opacity="0.95"/>
    <circle cx="66.0" cy="19.8" r="2.4" fill="#2ecc71" opacity="0.95"/>
    <circle cx="-8.0" cy="-51.0" r="1.0" fill="#2ecc71" opacity="0.95"/>
    <circle cx="-8.8" cy="66.7" r="1.4" fill="#2ecc71" opacity="0.95"/>
    <circle cx="-45.0" cy="-46.1" r="1.6" fill="#2ecc71" opacity="0.95"/>
    <circle cx="8.9" cy="-99.8" r="1.0" fill="#2ecc71" opacity="0.95"/>
    <circle cx="37.7" cy="-21.9" r="2.2" fill="#2ecc71" opacity="0.95"/>
    <circle cx="-36.5" cy="-5.4" r="2.6" fill="#2ecc71" opacity="0.95"/>
    <circle cx="-51.7" cy="34.1" r="1.2" fill="#2ecc71" opacity="0.95"/>
    <circle cx="22.8" cy="48.9" r="1.5" fill="#2ecc71" opacity="0.95"/>
    <circle cx="-42.0" cy="3.3" r="1.0" fill="#2ecc71" opacity="0.95"/>
    <g fill="none" stroke="#1abc9c" stroke-width="1.2" opacity="0.90">
      <path d="M -21.5,25.8 L -37.3,38.6 L -54.7,48.7 L -73.0,55.8 L -91.6,59.7 L -109.5,60.3 L -126.2,57.6 L -140.7,51.9 L -152.6,43.7 L -161.2,33.3 L -166.2,21.6 L -167.4,9.1 L -164.6,-3.4 L -158.0,-15.1 L -147.8,-25.4 L -134.5,-33.6 L -118.7,-39.3 L -100.9,-42.0 L -82.0,-41.6 L -62.6,-37.9 L -43.7,-31.1 L -25.8,-21.5 L -38.6,-37.3 L -48.7,-54.7 L -55.8,-73.0 L -59.7,-91.6 L -60.3,-109.5 L -57.6,-126.2 L -51.9,-140.7 L -43.7,-152.6 L -33.3,-161.2 L -21.6,-166.2 L -9.1,-167.4 L 3.4,-164.6 L 15.1,-158.0 L 25.4,-147.8 L 33.6,-134.5 L 39.3,-118.7 L 42.0,-100.9 L 41.6,-82.0 L 37.9,-62.6 L 31.1,-43.7 L 21.5,-25.8 L 37.3,-38.6 L 54.7,-48.7 L 73.0,-55.8 L 91.6,-59.7 L 109.5,-60.3 L 126.2,-57.6 L 140.7,-51.9 L 152.6,-43.7 L 161.2,-33.3 L 166.2,-21.6 L 167.4,-9.1 L 164.6,3.4 L 158.0,15.1 L 147.8,25.4 L 134.5,33.6 L 118.7,39.3 L 100.9,42.0 L 82.0,41.6 L 62.6,37.9 L 43.7,31.1 L 25.8,21.5 L 38.6,37.3 L 48.7,54.7 L 55.8,73.0 L 59.7,91.6 L 60.3,109.5 L 57.6,126.2 L 51.9,140.7 L 43.7,152.6 L 33.3,161.2 L 21.6,166.2 L 9.1,167.4 L -3.4,164.6 L -15.1,158.0 L -25.4,147.8 L -33.6,134.5 L -39.3,118.7 L -42.0,100.9 L -41.6,82.0 L -37.9,62.6 L -31.1,43.7 L -21.5,25.8 Z"/>
      <path d="M -97.6,9.0 L -114.9,1.9 L -129.7,-7.5 L -141.6,-18.9 L -150.0,-31.6 L -154.7,-44.9 L -155.5,-58.0 L -152.5,-70.3 L -146.0,-81.0 L -136.1,-89.5 L -123.6,-95.2 L -109.0,-97.8 L -93.0,-96.9 L -76.3,-92.4 L -59.8,-84.5 L -44.1,-73.4 L -29.9,-59.5 L -17.8,-43.3 L -12.6,-38.5 L -14.4,-58.7 L -13.2,-78.6 L -9.0,-97.6 L -1.9,-114.9 L 7.5,-129.7 L 18.9,-141.6 L 31.6,-150.0 L 44.9,-154.7 L 58.0,-155.5 L 70.3,-152.5 L 81.0,-146.0 L 89.5,-136.1 L 95.2,-123.6 L 97.8,-109.0 L 96.9,-93.0 L 92.4,-76.3 L 84.5,-59.8 L 73.4,-44.1 L 59.5,-29.9 L 43.3,-17.8 L 38.5,-12.6 L 58.7,-14.4 L 78.6,-13.2 L 97.6,-9.0 L 114.9,-1.9 L 129.7,7.5 L 141.6,18.9 L 150.0,31.6 L 154.7,44.9 L 155.5,58.0 L 152.5,70.3 L 146.0,81.0 L 136.1,89.5 L 123.6,95.2 L 109.0,97.8 L 93.0,96.9 L 76.3,92.4 L 59.8,84.5 L 44.1,73.4 L 29.9,59.5 L 17.8,43.3 L 12.6,38.5 L 14.4,58.7 L 13.2,78.6 L 9.0,97.6 L 1.9,114.9 L -7.5,129.7 L -18.9,141.6 L -31.6,150.0 L -44.9,154.7 L -58.0,155.5 L -70.3,152.5 L -81.0,146.0 L -89.5,136.1 L -95.2,123.6 L -97.8,109.0 L -96.9,93.0 L -92.4,76.3 L -84.5,59.8 L -73.4,44.1 L -59.5,29.9 L -43.3,17.8 L -38.5,12.6 L -58.7,14.4 L -78.6,13.2 L -97.6,9.0 Z"/>
      <path d="M -112.8,-93.8 L -112.3,-108.6 L -108.4,-121.8 L -101.4,-132.7 L -91.7,-140.7 L -80.0,-145.3 L -66.8,-146.4 L -53.0,-143.6 L -39.2,-137.0 L -26.2,-126.9 L -14.7,-113.5 L -5.3,-97.4 L 1.6,-79.2 L 5.7,-59.6 L 6.8,-39.4 L 11.5,-45.9 L 21.1,-63.7 L 33.1,-79.5 L 47.0,-92.7 L 62.3,-102.9 L 78.1,-109.6 L 93.8,-112.8 L 108.6,-112.3 L 121.8,-108.4 L 132.7,-101.4 L 140.7,-91.7 L 145.3,-80.0 L 146.4,-66.8 L 143.6,-53.0 L 137.0,-39.2 L 126.9,-26.2 L 113.5,-14.7 L 97.4,-5.3 L 79.2,1.6 L 59.6,5.7 L 39.4,6.8 L 45.9,11.5 L 63.7,21.1 L 79.5,33.1 L 92.7,47.0 L 102.9,62.3 L 109.6,78.1 L 112.8,93.8 L 112.3,108.6 L 108.4,121.8 L 101.4,132.7 L 91.7,140.7 L 80.0,145.3 L 66.8,146.4 L 53.0,143.6 L 39.2,137.0 L 26.2,126.9 L 14.7,113.5 L 5.3,97.4 L -1.6,79.2 L -5.7,59.6 L -6.8,39.4 L -11.5,45.9 L -21.1,63.7 L -33.1,79.5 L -47.0,92.7 L -62.3,102.9 L -78.1,109.6 L -93.8,112.8 L -108.6,112.3 L -121.8,108.4 L -132.7,101.4 L -140.7,91.7 L -145.3,80.0 L -146.4,66.8 L -143.6,53.0 L -137.0,39.2 L -126.9,26.2 L -113.5,14.7 L -97.4,5.3 L -79.2,-1.6 L -59.6,-5.7 L -39.4,-6.8 L -45.9,-11.5 L -63.7,-21.1 L -79.5,-33.1 L -92.7,-47.0 L -102.9,-62.3 L -109.6,-78.1 L -112.8,-93.8 Z"/>
      <path d="M -15.3,-167.0 L -2.8,-167.6 L 9.5,-164.2 L 21.0,-157.1 L 30.9,-146.5 L 38.5,-132.9 L 43.6,-116.8 L 45.6,-98.9 L 44.4,-79.9 L 39.9,-60.7 L 32.4,-42.1 L 22.8,-25.4 L 39.1,-37.5 L 56.9,-46.9 L 75.5,-53.3 L 94.1,-56.5 L 112.1,-56.3 L 128.5,-53.0 L 142.8,-46.7 L 154.3,-38.0 L 162.5,-27.3 L 167.0,-15.3 L 167.6,-2.8 L 164.2,9.5 L 157.1,21.0 L 146.5,30.9 L 132.9,38.5 L 116.8,43.6 L 98.9,45.6 L 79.9,44.4 L 60.7,39.9 L 42.1,32.4 L 25.4,22.8 L 37.5,39.1 L 46.9,56.9 L 53.3,75.5 L 56.5,94.1 L 56.3,112.1 L 53.0,128.5 L 46.7,142.8 L 38.0,154.3 L 27.3,162.5 L 15.3,167.0 L 2.8,167.6 L -9.5,164.2 L -21.0,157.1 L -30.9,146.5 L -38.5,132.9 L -43.6,116.8 L -45.6,98.9 L -44.4,79.9 L -39.9,60.7 L -32.4,42.1 L -22.8,25.4 L -39.1,37.5 L -56.9,46.9 L -75.5,53.3 L -94.1,56.5 L -112.1,56.3 L -128.5,53.0 L -142.8,46.7 L -154.3,38.0 L -162.5,27.3 L -167.0,15.3 L -167.6,2.8 L -164.2,-9.5 L -157.1,-21.0 L -146.5,-30.9 L -132.9,-38.5 L -116.8,-43.6 L -98.9,-45.6 L -79.9,-44.4 L -60.7,-39.9 L -42.1,-32.4 L -25.4,-22.8 L -37.5,-39.1 L -46.9,-56.9 L -53.3,-75.5 L -56.5,-94.1 L -56.3,-112.1 L -53.0,-128.5 L -46.7,-142.8 L -38.0,-154.3 L -27.3,-162.5 L -15.3,-167.0 Z"/>
      <path d="M 99.6,-119.8 L 101.6,-105.0 L 100.0,-89.0 L 94.9,-72.5 L 86.3,-56.3 L 74.6,-41.0 L 60.1,-27.4 L 43.4,-16.0 L 39.4,-11.3 L 59.7,-12.3 L 79.6,-10.3 L 98.4,-5.3 L 115.3,2.4 L 129.7,12.4 L 141.1,24.2 L 148.9,37.2 L 153.1,50.7 L 153.3,63.8 L 149.8,76.0 L 142.8,86.4 L 132.6,94.4 L 119.8,99.6 L 105.0,101.6 L 89.0,100.0 L 72.5,94.9 L 56.3,86.3 L 41.0,74.6 L 27.4,60.1 L 16.0,43.4 L 11.3,39.4 L 12.3,59.7 L 10.3,79.6 L 5.3,98.4 L -2.4,115.3 L -12.4,129.7 L -24.2,141.1 L -37.2,148.9 L -50.7,153.1 L -63.8,153.3 L -76.0,149.8 L -86.4,142.8 L -94.4,132.6 L -99.6,119.8 L -101.6,105.0 L -100.0,89.0 L -94.9,72.5 L -86.3,56.3 L -74.6,41.0 L -60.1,27.4 L -43.4,16.0 L -39.4,11.3 L -59.7,12.3 L -79.6,10.3 L -98.4,5.3 L -115.3,-2.4 L -129.7,-12.4 L -141.1,-24.2 L -148.9,-37.2 L -153.1,-50.7 L -153.3,-63.8 L -149.8,-76.0 L -142.8,-86.4 L -132.6,-94.4 L -119.8,-99.6 L -105.0,-101.6 L -89.0,-100.0 L -72.5,-94.9 L -56.3,-86.3 L -41.0,-74.6 L -27.4,-60.1 L -16.0,-43.4 L -11.3,-39.4 L -12.3,-59.7 L -10.3,-79.6 L -5.3,-98.4 L 2.4,-115.3 L 12.4,-129.7 L 24.2,-141.1 L 37.2,-148.9 L 50.7,-153.1 L 63.8,-153.3 L 76.0,-149.8 L 86.4,-142.8 L 94.4,-132.6 L 99.6,-119.8 Z"/>
      <path d="M 113.6,-10.4 L 97.1,-1.6 L 78.6,4.6 L 58.8,7.9 L 38.6,8.1 L 46.0,13.3 L 63.4,23.6 L 78.7,36.3 L 91.3,50.7 L 100.8,66.3 L 106.9,82.4 L 109.4,98.1 L 108.3,112.9 L 103.9,125.9 L 96.4,136.4 L 86.4,144.0 L 74.4,148.1 L 61.2,148.6 L 47.5,145.2 L 34.0,138.1 L 21.4,127.4 L 10.4,113.6 L 1.6,97.1 L -4.6,78.6 L -7.9,58.8 L -8.1,38.6 L -13.3,46.0 L -23.6,63.4 L -36.3,78.7 L -50.7,91.3 L -66.3,100.8 L -82.4,106.9 L -98.1,109.4 L -112.9,108.3 L -125.9,103.9 L -136.4,96.4 L -144.0,86.4 L -148.1,74.4 L -148.6,61.2 L -145.2,47.5 L -138.1,34.0 L -127.4,21.4 L -113.6,10.4 L -97.1,1.6 L -78.6,-4.6 L -58.8,-7.9 L -38.6,-8.1 L -46.0,-13.3 L -63.4,-23.6 L -78.7,-36.3 L -91.3,-50.7 L -100.8,-66.3 L -106.9,-82.4 L -109.4,-98.1 L -108.3,-112.9 L -103.9,-125.9 L -96.4,-136.4 L -86.4,-144.0 L -74.4,-148.1 L -61.2,-148.6 L -47.5,-145.2 L -34.0,-138.1 L -21.4,-127.4 L -10.4,-113.6 L -1.6,-97.1 L 4.6,-78.6 L 7.9,-58.8 L 8.1,-38.6 L 13.3,-46.0 L 23.6,-63.4 L 36.3,-78.7 L 50.7,-91.3 L 66.3,-100.8 L 82.4,-106.9 L 98.1,-109.4 L 112.9,-108.3 L 125.9,-103.9 L 136.4,-96.4 L 144.0,-86.4 L 148.1,-74.4 L 148.6,-61.2 L 145.2,-47.5 L 138.1,-34.0 L 127.4,-21.4 L 113.6,-10.4 Z"/>
      <path d="M 40.4,33.6 L 24.9,24.1 L 36.4,40.8 L 45.1,59.0 L 50.7,77.8 L 53.1,96.5 L 52.2,114.4 L 48.2,130.7 L 41.4,144.7 L 32.2,155.8 L 21.2,163.5 L 9.1,167.5 L -3.4,167.5 L -15.6,163.6 L -26.8,156.0 L -36.2,145.0 L -43.4,131.0 L -47.7,114.7 L -49.0,96.7 L -47.1,77.8 L -41.9,58.8 L -33.6,40.4 L -24.1,24.9 L -40.8,36.4 L -59.0,45.1 L -77.8,50.7 L -96.5,53.1 L -114.4,52.2 L -130.7,48.2 L -144.7,41.4 L -155.8,32.2 L -163.5,21.2 L -167.5,9.1 L -167.5,-3.4 L -163.6,-15.6 L -156.0,-26.8 L -145.0,-36.2 L -131.0,-43.4 L -114.7,-47.7 L -96.7,-49.0 L -77.8,-47.1 L -58.8,-41.9 L -40.4,-33.6 L -24.9,-24.1 L -36.4,-40.8 L -45.1,-59.0 L -50.7,-77.8 L -53.1,-96.5 L -52.2,-114.4 L -48.2,-130.7 L -41.4,-144.7 L -32.2,-155.8 L -21.2,-163.5 L -9.1,-167.5 L 3.4,-167.5 L 15.6,-163.6 L 26.8,-156.0 L 36.2,-145.0 L 43.4,-131.0 L 47.7,-114.7 L 49.0,-96.7 L 47.1,-77.8 L 41.9,-58.8 L 33.6,-40.4 L 24.1,-24.9 L 40.8,-36.4 L 59.0,-45.1 L 77.8,-50.7 L 96.5,-53.1 L 114.4,-52.2 L 130.7,-48.2 L 144.7,-41.4 L 155.8,-32.2 L 163.5,-21.2 L 167.5,-9.1 L 167.5,3.4 L 163.6,15.6 L 156.0,26.8 L 145.0,36.2 L 131.0,43.4 L 114.7,47.7 L 96.7,49.0 L 77.8,47.1 L 58.8,41.9 L 40.4,33.6 Z"/>
      <path d="M 7.4,80.4 L 1.7,99.0 L -6.7,115.6 L -17.3,129.5 L -29.6,140.4 L -42.8,147.7 L -56.4,151.2 L -69.6,150.9 L -81.5,146.9 L -91.6,139.4 L -99.2,128.8 L -103.9,115.8 L -105.2,101.0 L -103.0,85.0 L -97.2,68.7 L -88.0,52.8 L -75.6,38.0 L -60.6,25.0 L -43.5,14.2 L -40.3,9.9 L -60.6,10.2 L -80.4,7.4 L -99.0,1.7 L -115.6,-6.7 L -129.5,-17.3 L -140.4,-29.6 L -147.7,-42.8 L -151.2,-56.4 L -150.9,-69.6 L -146.9,-81.5 L -139.4,-91.6 L -128.8,-99.2 L -115.8,-103.9 L -101.0,-105.2 L -85.0,-103.0 L -68.7,-97.2 L -52.8,-88.0 L -38.0,-75.6 L -25.0,-60.6 L -14.2,-43.5 L -9.9,-40.3 L -10.2,-60.6 L -7.4,-80.4 L -1.7,-99.0 L 6.7,-115.6 L 17.3,-129.5 L 29.6,-140.4 L 42.8,-147.7 L 56.4,-151.2 L 69.6,-150.9 L 81.5,-146.9 L 91.6,-139.4 L 99.2,-128.8 L 103.9,-115.8 L 105.2,-101.0 L 103.0,-85.0 L 97.2,-68.7 L 88.0,-52.8 L 75.6,-38.0 L 60.6,-25.0 L 43.5,-14.2 L 40.3,-9.9 L 60.6,-10.2 L 80.4,-7.4 L 99.0,-1.7 L 115.6,6.7 L 129.5,17.3 L 140.4,29.6 L 147.7,42.8 L 151.2,56.4 L 150.9,69.6 L 146.9,81.5 L 139.4,91.6 L 128.8,99.2 L 115.8,103.9 L 101.0,105.2 L 85.0,103.0 L 68.7,97.2 L 52.8,88.0 L 38.0,75.6 L 25.0,60.6 L 14.2,43.5 L 9.9,40.3 L 10.2,60.6 L 7.4,80.4 Z"/>
    </g>
    <circle cx="90.1" cy="-38.2" r="2.1" fill="#1abc9c" opacity="0.90"/>
    <circle cx="58.8" cy="31.9" r="2.5" fill="#1abc9c" opacity="0.90"/>
    <circle cx="-61.0" cy="-79.0" r="2.5" fill="#1abc9c" opacity="0.90"/>
    <circle cx="-106.8" cy="24.0" r="2.4" fill="#1abc9c" opacity="0.90"/>
    <circle cx="-84.3" cy="-66.1" r="1.6" fill="#1abc9c" opacity="0.90"/>
    <circle cx="-138.8" cy="-10.8" r="1.1" fill="#1abc9c" opacity="0.90"/>
    <circle cx="3.0" cy="103.6" r="1.5" fill="#1abc9c" opacity="0.90"/>
    <circle cx="104.0" cy="22.4" r="2.0" fill="#1abc9c" opacity="0.90"/>
    <circle cx="6.6" cy="68.2" r="2.0" fill="#1abc9c" opacity="0.90"/>
    <circle cx="-93.5" cy="40.7" r="1.6" fill="#1abc9c" opacity="0.90"/>
    <circle cx="-36.0" cy="93.6" r="2.3" fill="#1abc9c" opacity="0.90"/>
    <circle cx="-147.5" cy="18.4" r="0.9" fill="#1abc9c" opacity="0.90"/>
    <circle cx="-44.7" cy="-65.9" r="1.8" fill="#1abc9c" opacity="0.90"/>
    <circle cx="63.3" cy="22.0" r="1.6" fill="#1abc9c" opacity="0.90"/>
    <circle cx="40.9" cy="74.6" r="0.9" fill="#1abc9c" opacity="0.90"/>
    <circle cx="-26.4" cy="-115.8" r="1.4" fill="#1abc9c" opacity="0.90"/>
    <circle cx="101.8" cy="-93.6" r="1.2" fill="#1abc9c" opacity="0.90"/>
    <circle cx="3.4" cy="76.2" r="2.2" fill="#1abc9c" opacity="0.90"/>
    <circle cx="-45.1" cy="-62.1" r="2.5" fill="#1abc9c" opacity="0.90"/>
    <circle cx="127.3" cy="1.8" r="1.2" fill="#1abc9c" opacity="0.90"/>
    <circle cx="36.9" cy="48.3" r="2.2" fill="#1abc9c" opacity="0.90"/>
    <circle cx="81.1" cy="-84.6" r="1.6" fill="#1abc9c" opacity="0.90"/>
    <circle cx="19.3" cy="-103.1" r="2.1" fill="#1abc9c" opacity="0.90"/>
    <circle cx="-105.5" cy="66.7" r="1.6" fill="#1abc9c" opacity="0.90"/>
    <g fill="none" stroke="#2980b9" stroke-width="1.1" opacity="0.85">
      <path d="M 41.1,17.8 L 62.4,31.3 L 81.9,47.0 L 98.9,64.4 L 112.9,83.0 L 123.7,102.1 L 131.1,121.1 L 134.8,139.3 L 134.9,156.0 L 131.6,170.7 L 125.2,182.7 L 116.0,191.5 L 104.6,196.8 L 91.5,198.2 L 77.3,195.6 L 62.7,189.0 L 48.2,178.5 L 34.7,164.3 L 22.5,146.8 L 12.1,126.5 L 4.1,103.9 L -1.3,79.7 L -4.0,54.7 L -7.7,59.4 L -15.6,83.2 L -25.9,105.6 L -38.5,125.7 L -52.8,143.1 L -68.2,157.4 L -84.3,168.0 L -100.4,174.8 L -115.9,177.8 L -130.0,176.9 L -142.1,172.3 L -151.8,164.3 L -158.5,153.4 L -161.9,139.9 L -161.6,124.5 L -157.5,107.9 L -149.7,90.7 L -138.2,73.4 L -123.4,56.9 L -105.4,41.7 L -85.0,28.2 L -62.6,16.9 L -48.8,10.3 L -74.0,11.3 L -98.8,9.5 L -122.5,4.9 L -144.3,-2.4 L -163.8,-11.9 L -180.2,-23.3 L -193.2,-36.1 L -202.4,-49.7 L -207.5,-63.5 L -208.5,-76.9 L -205.5,-89.1 L -198.6,-99.7 L -188.2,-108.1 L -174.6,-113.8 L -158.4,-116.4 L -140.2,-115.6 L -120.6,-111.4 L -100.4,-103.7 L -80.1,-92.7 L -60.6,-78.6 L -42.3,-61.7 L -25.8,-42.6 L -30.4,-57.3 L -37.5,-81.3 L -41.7,-105.4 L -42.7,-128.9 L -40.8,-151.1 L -36.1,-171.2 L -28.9,-188.8 L -19.5,-203.1 L -8.5,-213.8 L 3.6,-220.5 L 16.2,-223.1 L 28.7,-221.5 L 40.3,-215.8 L 50.6,-206.1 L 59.0,-192.8 L 65.0,-176.4 L 68.2,-157.4 L 68.5,-136.3 L 65.5,-114.0 L 59.3,-91.1 L 50.1,-68.2 L 38.1,-46.2 L 37.2,-40.3 L 57.3,-55.5 L 78.7,-68.0 L 100.6,-77.6 L 122.5,-83.9 L 143.6,-87.0 L 163.3,-86.8 L 180.8,-83.4 L 195.6,-77.3 L 207.2,-68.7 L 215.2,-58.2 L 219.1,-46.2 L 218.9,-33.5 L 214.6,-20.6 L 206.1,-8.2 L 193.8,3.2 L 177.9,12.9 L 159.1,20.6 L 137.8,25.8 L 114.6,28.2 L 90.3,27.6 L 65.5,24.2 L 41.1,17.8 Z"/>
      <path d="M 48.0,121.6 L 47.8,144.1 L 44.6,165.0 L 38.7,183.4 L 30.4,198.9 L 20.2,210.9 L 8.7,219.1 L -3.7,223.3 L -16.2,223.2 L -28.3,218.9 L -39.4,210.6 L -48.8,198.5 L -56.0,183.1 L -60.7,164.8 L -62.6,144.2 L -61.3,122.1 L -56.9,99.0 L -49.4,75.7 L -38.9,53.0 L -31.1,37.8 L -50.2,54.3 L -70.7,68.4 L -92.1,79.6 L -113.8,87.7 L -134.9,92.4 L -155.0,93.8 L -173.1,92.0 L -188.9,87.1 L -201.6,79.6 L -210.8,69.9 L -216.2,58.4 L -217.6,45.9 L -214.7,32.8 L -207.8,19.9 L -196.8,7.8 L -182.3,-3.0 L -164.4,-12.0 L -143.9,-18.6 L -121.2,-22.7 L -97.2,-23.9 L -72.4,-22.1 L -47.6,-17.5 L -58.7,-25.5 L -79.3,-39.8 L -97.6,-56.1 L -113.2,-73.8 L -125.6,-92.3 L -134.5,-111.0 L -139.9,-129.2 L -141.6,-146.3 L -139.7,-161.6 L -134.5,-174.5 L -126.4,-184.5 L -115.7,-191.1 L -103.1,-194.0 L -89.0,-193.0 L -74.2,-187.9 L -59.3,-178.9 L -44.9,-166.2 L -31.6,-150.0 L -20.0,-130.7 L -10.5,-109.0 L -3.4,-85.5 L 1.0,-60.7 L 3.9,-53.8 L 10.1,-78.2 L 19.0,-101.4 L 30.1,-122.6 L 43.3,-141.3 L 57.8,-157.0 L 73.4,-169.1 L 89.2,-177.6 L 104.6,-182.1 L 119.1,-182.7 L 131.9,-179.5 L 142.5,-172.8 L 150.4,-162.8 L 155.1,-150.1 L 156.3,-135.1 L 153.9,-118.6 L 147.7,-101.2 L 137.8,-83.4 L 124.4,-66.1 L 107.9,-49.8 L 88.6,-35.0 L 67.1,-22.3 L 44.1,-11.9 L 67.5,-14.2 L 92.5,-14.1 L 116.7,-11.2 L 139.3,-5.5 L 159.7,2.6 L 177.4,12.9 L 191.7,24.8 L 202.4,37.8 L 209.1,51.4 L 211.6,64.8 L 210.1,77.4 L 204.6,88.7 L 195.3,98.1 L 182.7,104.9 L 167.2,109.0 L 149.5,109.8 L 130.0,107.2 L 109.6,101.3 L 88.9,91.9 L 68.5,79.3 L 49.2,63.9 L 31.5,46.0 L 30.6,50.5 L 39.3,74.0 L 45.2,98.0 L 48.0,121.6 Z"/>
      <path d="M -77.8,179.4 L -93.2,185.6 L -107.8,187.7 L -121.2,186.0 L -132.6,180.5 L -141.6,171.6 L -147.6,159.7 L -150.3,145.4 L -149.4,129.1 L -144.8,111.6 L -136.5,93.5 L -124.7,75.5 L -109.6,58.2 L -91.6,42.3 L -71.2,28.1 L -49.0,16.2 L -60.9,16.5 L -86.0,18.1 L -110.5,16.9 L -133.7,12.8 L -155.0,6.1 L -173.8,-2.9 L -189.4,-13.8 L -201.5,-26.1 L -209.7,-39.2 L -213.8,-52.5 L -213.8,-65.4 L -209.7,-77.3 L -201.7,-87.5 L -190.2,-95.5 L -175.6,-100.9 L -158.4,-103.2 L -139.2,-102.3 L -118.8,-98.0 L -97.7,-90.3 L -76.7,-79.3 L -56.5,-65.4 L -37.6,-48.8 L -30.0,-43.8 L -40.4,-66.8 L -48.0,-90.4 L -52.6,-113.9 L -54.0,-136.8 L -52.4,-158.2 L -48.0,-177.4 L -40.9,-194.0 L -31.7,-207.3 L -20.8,-216.9 L -8.8,-222.5 L 3.7,-223.9 L 16.1,-221.2 L 27.7,-214.3 L 38.0,-203.5 L 46.5,-189.1 L 52.6,-171.7 L 55.9,-151.8 L 56.3,-129.9 L 53.7,-106.9 L 47.9,-83.3 L 39.1,-60.0 L 27.6,-37.5 L 43.3,-52.5 L 62.9,-68.1 L 83.6,-80.9 L 104.9,-90.7 L 126.0,-97.1 L 146.2,-100.2 L 164.9,-99.9 L 181.5,-96.4 L 195.2,-90.1 L 205.7,-81.3 L 212.5,-70.4 L 215.3,-58.2 L 214.0,-45.1 L 208.6,-31.9 L 199.1,-19.1 L 185.8,-7.4 L 169.2,2.8 L 149.5,10.9 L 127.5,16.5 L 103.8,19.4 L 79.1,19.4 L 54.1,16.6 L 54.5,20.1 L 76.1,33.0 L 95.7,48.0 L 112.7,64.7 L 126.6,82.5 L 137.2,100.8 L 144.2,118.9 L 147.5,136.2 L 147.1,152.1 L 143.3,165.8 L 136.3,176.8 L 126.5,184.6 L 114.4,188.9 L 100.7,189.4 L 85.8,186.0 L 70.5,178.5 L 55.4,167.3 L 41.2,152.4 L 28.3,134.4 L 17.4,113.7 L 8.7,90.8 L 2.6,66.6 L -0.8,48.1 L -5.3,72.9 L -12.5,96.7 L -22.2,118.9 L -34.1,138.8 L -47.7,155.8 L -62.4,169.4 L -77.8,179.4 Z"/>
      <path d="M -207.9,82.1 L -212.2,70.3 L -212.5,57.4 L -208.5,44.0 L -200.6,30.7 L -188.7,18.1 L -173.2,6.9 L -154.6,-2.6 L -133.4,-9.7 L -110.2,-14.3 L -85.8,-16.0 L -60.7,-14.9 L -49.9,-15.3 L -72.4,-26.7 L -93.1,-40.4 L -111.4,-56.0 L -126.9,-72.9 L -139.1,-90.6 L -147.7,-108.5 L -152.6,-125.9 L -153.8,-142.0 L -151.3,-156.4 L -145.5,-168.4 L -136.7,-177.4 L -125.4,-183.1 L -112.0,-185.0 L -97.3,-183.1 L -81.8,-177.3 L -66.2,-167.6 L -51.1,-154.2 L -37.1,-137.4 L -24.8,-117.8 L -14.7,-95.8 L -6.9,-72.1 L -1.9,-47.4 L 1.1,-67.2 L 6.7,-91.6 L 14.8,-114.6 L 25.3,-135.6 L 37.8,-153.8 L 51.7,-168.9 L 66.5,-180.5 L 81.6,-188.2 L 96.3,-191.9 L 110.1,-191.6 L 122.2,-187.5 L 132.1,-179.8 L 139.3,-168.9 L 143.4,-155.2 L 144.1,-139.4 L 141.1,-122.0 L 134.5,-103.7 L 124.3,-85.1 L 110.7,-67.0 L 94.0,-50.0 L 74.8,-34.5 L 53.5,-21.1 L 54.3,-18.0 L 79.3,-21.4 L 104.0,-21.9 L 127.7,-19.5 L 149.8,-14.4 L 169.5,-6.7 L 186.4,3.1 L 199.8,14.5 L 209.5,27.1 L 215.2,40.2 L 216.7,53.2 L 214.0,65.5 L 207.4,76.4 L 197.1,85.5 L 183.4,92.1 L 166.9,95.9 L 148.1,96.5 L 127.8,93.9 L 106.5,87.9 L 85.1,78.6 L 64.0,66.2 L 44.1,51.1 L 28.8,37.4 L 40.8,59.6 L 50.1,82.7 L 56.4,106.1 L 59.6,129.1 L 59.6,150.9 L 56.6,170.9 L 50.9,188.4 L 42.8,202.8 L 32.7,213.8 L 21.2,220.8 L 8.9,223.8 L -3.7,222.6 L -15.8,217.1 L -26.9,207.7 L -36.4,194.5 L -43.8,178.1 L -48.6,158.9 L -50.7,137.5 L -49.7,114.6 L -45.6,90.9 L -38.6,67.1 L -28.6,44.0 L -36.9,50.2 L -55.4,67.1 L -75.3,81.5 L -96.0,92.9 L -116.9,101.0 L -137.2,105.7 L -156.3,107.0 L -173.5,105.0 L -188.1,100.0 L -199.8,92.2 L -207.9,82.1 Z"/>
      <path d="M -190.6,-82.7 L -174.9,-87.8 L -156.7,-90.0 L -136.6,-89.0 L -115.3,-84.7 L -93.5,-77.1 L -71.8,-66.3 L -51.0,-52.7 L -31.6,-36.5 L -40.5,-52.6 L -51.4,-75.1 L -59.5,-98.2 L -64.4,-121.1 L -66.1,-143.2 L -64.7,-163.7 L -60.4,-182.1 L -53.4,-197.6 L -44.3,-209.8 L -33.4,-218.3 L -21.4,-222.8 L -8.8,-223.1 L 3.6,-219.1 L 15.4,-211.1 L 25.8,-199.2 L 34.4,-183.9 L 40.7,-165.5 L 44.3,-144.7 L 45.0,-122.1 L 42.7,-98.4 L 37.3,-74.4 L 29.1,-50.6 L 30.8,-47.2 L 48.1,-65.5 L 67.1,-81.3 L 87.1,-94.3 L 107.6,-104.1 L 127.9,-110.5 L 147.2,-113.5 L 164.9,-113.0 L 180.4,-109.3 L 193.1,-102.6 L 202.5,-93.4 L 208.2,-82.2 L 210.0,-69.6 L 207.6,-56.1 L 201.2,-42.4 L 190.7,-29.2 L 176.6,-16.9 L 159.1,-6.3 L 138.8,2.3 L 116.3,8.5 L 92.2,11.9 L 67.2,12.6 L 45.0,11.1 L 68.2,20.9 L 89.9,33.2 L 109.5,47.5 L 126.4,63.5 L 140.1,80.5 L 150.3,98.0 L 156.9,115.2 L 159.6,131.7 L 158.7,146.6 L 154.2,159.3 L 146.5,169.4 L 136.0,176.4 L 123.2,179.8 L 108.7,179.4 L 93.1,175.2 L 77.1,167.0 L 61.3,155.1 L 46.3,139.8 L 32.8,121.3 L 21.2,100.3 L 11.8,77.4 L 5.1,53.1 L 2.4,61.3 L -1.4,86.1 L -8.0,109.8 L -17.0,131.7 L -28.3,151.1 L -41.2,167.6 L -55.3,180.6 L -70.0,189.9 L -84.7,195.2 L -98.6,196.5 L -111.3,193.8 L -122.1,187.4 L -130.4,177.5 L -135.8,164.7 L -138.0,149.3 L -136.6,132.2 L -131.6,113.8 L -123.0,94.8 L -111.0,76.0 L -95.8,58.0 L -77.8,41.3 L -57.5,26.5 L -47.8,18.9 L -72.4,24.0 L -97.2,26.3 L -121.2,25.6 L -143.9,22.0 L -164.6,15.8 L -182.5,7.2 L -197.3,-3.3 L -208.4,-15.2 L -215.6,-27.9 L -218.7,-40.9 L -217.5,-53.4 L -212.3,-65.0 L -203.2,-74.9 L -190.6,-82.7 Z"/>
      <path d="M -55.9,-141.4 L -41.2,-124.3 L -28.2,-104.4 L -17.3,-82.2 L -9.0,-58.5 L -5.3,-55.2 L -3.2,-80.3 L 1.7,-104.6 L 9.3,-127.3 L 19.1,-147.8 L 30.9,-165.5 L 44.2,-179.9 L 58.4,-190.7 L 72.8,-197.6 L 86.9,-200.4 L 100.0,-199.2 L 111.5,-194.2 L 120.8,-185.5 L 127.5,-173.5 L 131.1,-158.9 L 131.3,-142.1 L 127.9,-123.8 L 121.0,-104.6 L 110.6,-85.2 L 96.9,-66.4 L 80.2,-48.6 L 61.1,-32.5 L 41.3,-19.0 L 65.6,-25.9 L 90.2,-29.9 L 114.5,-30.9 L 137.7,-29.0 L 159.1,-24.3 L 178.0,-17.1 L 194.0,-7.7 L 206.5,3.4 L 215.2,15.7 L 219.7,28.4 L 220.1,41.2 L 216.4,53.2 L 208.6,63.8 L 197.2,72.7 L 182.4,79.1 L 164.9,82.8 L 145.2,83.4 L 124.0,80.8 L 101.9,74.9 L 79.8,65.8 L 58.1,53.7 L 37.7,39.0 L 39.6,45.8 L 52.1,67.6 L 61.8,90.2 L 68.4,112.9 L 71.8,135.2 L 72.0,156.1 L 69.2,175.2 L 63.5,191.7 L 55.4,205.1 L 45.3,214.9 L 33.8,220.8 L 21.4,222.7 L 8.7,220.3 L -3.5,213.7 L -14.8,203.2 L -24.5,189.0 L -32.1,171.6 L -37.2,151.5 L -39.6,129.4 L -39.0,105.8 L -35.4,81.6 L -28.8,57.4 L -25.1,43.8 L -41.2,63.2 L -59.1,80.4 L -78.3,95.0 L -98.3,106.4 L -118.4,114.5 L -137.8,119.1 L -155.9,120.2 L -172.1,117.9 L -185.8,112.5 L -196.3,104.3 L -203.4,93.8 L -206.6,81.6 L -205.8,68.2 L -200.9,54.3 L -192.0,40.5 L -179.2,27.4 L -163.0,15.6 L -143.7,5.7 L -122.0,-2.0 L -98.4,-7.2 L -73.6,-9.5 L -48.4,-9.0 L -63.6,-15.6 L -86.2,-26.4 L -106.9,-39.4 L -125.1,-54.3 L -140.3,-70.5 L -152.1,-87.4 L -160.3,-104.4 L -164.6,-121.0 L -165.2,-136.3 L -162.1,-149.7 L -155.6,-160.8 L -146.0,-168.9 L -133.9,-173.7 L -119.8,-174.9 L -104.3,-172.2 L -88.0,-165.7 L -71.7,-155.3 L -55.9,-141.4 Z"/>
      <path d="M 27.9,-64.3 L 20.2,-40.3 L 34.7,-60.4 L 51.4,-78.9 L 69.7,-94.9 L 89.0,-108.0 L 108.7,-117.7 L 128.1,-123.9 L 146.5,-126.6 L 163.3,-125.9 L 177.8,-121.8 L 189.4,-114.7 L 197.7,-105.1 L 202.4,-93.4 L 203.1,-80.2 L 199.8,-66.2 L 192.4,-52.0 L 181.1,-38.2 L 166.2,-25.4 L 148.0,-14.2 L 127.2,-5.0 L 104.2,1.7 L 79.8,5.8 L 54.6,7.1 L 58.6,11.0 L 82.0,20.1 L 103.7,31.7 L 123.2,45.4 L 139.8,60.6 L 153.1,76.9 L 162.9,93.6 L 168.8,110.0 L 171.0,125.6 L 169.3,139.6 L 164.1,151.6 L 155.6,160.8 L 144.3,166.9 L 130.7,169.5 L 115.4,168.4 L 99.0,163.5 L 82.2,154.7 L 65.7,142.3 L 50.0,126.5 L 35.7,107.8 L 23.4,86.7 L 13.4,63.7 L 7.5,49.0 L 7.1,74.2 L 3.9,98.9 L -2.0,122.3 L -10.5,143.8 L -21.1,162.7 L -33.4,178.5 L -46.9,190.7 L -61.0,199.2 L -75.0,203.5 L -88.4,203.9 L -100.5,200.2 L -110.7,192.7 L -118.5,181.9 L -123.4,168.0 L -125.1,151.7 L -123.4,133.6 L -118.1,114.3 L -109.4,94.5 L -97.2,74.9 L -82.0,56.2 L -64.2,38.9 L -44.2,23.5 L -58.7,27.1 L -83.1,32.8 L -107.4,35.6 L -130.9,35.4 L -153.0,32.3 L -172.8,26.4 L -189.9,18.2 L -203.7,8.1 L -213.8,-3.5 L -219.9,-16.0 L -221.9,-28.7 L -219.6,-41.0 L -213.2,-52.4 L -203.0,-62.1 L -189.3,-69.8 L -172.6,-74.9 L -153.4,-77.0 L -132.5,-76.1 L -110.3,-71.9 L -87.8,-64.5 L -65.5,-54.0 L -44.1,-40.8 L -38.0,-39.2 L -52.0,-60.2 L -63.3,-82.2 L -71.7,-104.6 L -76.8,-126.9 L -78.7,-148.1 L -77.4,-167.8 L -73.1,-185.1 L -66.2,-199.6 L -57.0,-210.7 L -46.0,-218.0 L -33.9,-221.4 L -21.2,-220.5 L -8.5,-215.4 L 3.4,-206.3 L 14.1,-193.4 L 22.9,-177.1 L 29.5,-157.9 L 33.5,-136.3 L 34.6,-113.0 L 32.7,-88.8 L 27.9,-64.3 Z"/>
      <path d="M 100.1,-39.6 L 123.9,-41.1 L 146.4,-39.6 L 167.0,-35.2 L 185.2,-28.3 L 200.2,-19.2 L 211.6,-8.4 L 219.2,3.6 L 222.7,16.2 L 221.9,28.7 L 217.0,40.6 L 208.1,51.1 L 195.6,59.9 L 179.8,66.3 L 161.3,69.9 L 140.7,70.6 L 118.6,68.1 L 95.9,62.5 L 73.0,53.7 L 50.9,42.0 L 35.8,33.1 L 51.3,53.0 L 64.2,74.3 L 74.2,96.3 L 81.1,118.3 L 84.6,139.7 L 84.9,159.8 L 82.1,177.9 L 76.4,193.4 L 68.2,205.7 L 57.9,214.4 L 46.2,219.2 L 33.6,219.8 L 20.8,216.3 L 8.3,208.7 L -3.3,197.1 L -13.2,182.0 L -21.2,163.7 L -26.7,142.8 L -29.5,120.0 L -29.3,95.9 L -26.3,71.2 L -20.3,46.7 L -28.6,57.0 L -44.1,76.7 L -61.3,94.1 L -79.9,108.7 L -99.0,120.1 L -118.2,128.0 L -136.8,132.3 L -154.0,133.1 L -169.2,130.4 L -181.8,124.5 L -191.3,115.8 L -197.3,104.8 L -199.5,92.1 L -197.7,78.1 L -191.9,63.6 L -182.1,49.2 L -168.6,35.6 L -151.7,23.2 L -131.9,12.7 L -109.7,4.3 L -85.8,-1.4 L -60.8,-4.4 L -53.3,-6.9 L -77.3,-14.5 L -100.0,-24.6 L -120.5,-36.9 L -138.5,-51.0 L -153.3,-66.5 L -164.6,-82.7 L -172.2,-98.9 L -175.9,-114.6 L -175.7,-129.1 L -171.8,-141.7 L -164.5,-152.0 L -154.1,-159.3 L -141.2,-163.3 L -126.2,-163.7 L -109.9,-160.4 L -92.8,-153.3 L -75.7,-142.4 L -59.1,-128.1 L -43.7,-110.7 L -30.0,-90.6 L -18.5,-68.5 L -9.5,-44.9 L -10.4,-68.0 L -8.9,-92.9 L -4.6,-116.9 L 2.3,-139.2 L 11.6,-159.1 L 22.8,-176.2 L 35.5,-189.9 L 49.1,-199.8 L 63.0,-205.8 L 76.5,-207.6 L 89.1,-205.4 L 100.1,-199.3 L 108.9,-189.5 L 115.1,-176.6 L 118.2,-160.9 L 118.1,-143.2 L 114.5,-123.9 L 107.4,-103.9 L 96.9,-83.7 L 83.2,-64.1 L 66.7,-45.7 L 47.9,-29.0 L 51.9,-27.6 L 75.9,-35.0 L 100.1,-39.6 Z"/>
    </g>
    <circle cx="-182.9" cy="35.9" r="2.2" fill="#2980b9" opacity="0.85"/>
    <circle cx="-4.3" cy="-108.8" r="1.4" fill="#2980b9" opacity="0.85"/>
    <circle cx="-13.2" cy="-72.9" r="1.6" fill="#2980b9" opacity="0.85"/>
    <circle cx="45.0" cy="-140.6" r="1.5" fill="#2980b9" opacity="0.85"/>
    <circle cx="75.3" cy="68.5" r="1.0" fill="#2980b9" opacity="0.85"/>
    <circle cx="-38.3" cy="191.2" r="1.5" fill="#2980b9" opacity="0.85"/>
    <circle cx="112.4" cy="130.2" r="2.1" fill="#2980b9" opacity="0.85"/>
    <circle cx="-86.4" cy="108.7" r="0.8" fill="#2980b9" opacity="0.85"/>
    <circle cx="151.4" cy="-100.0" r="1.9" fill="#2980b9" opacity="0.85"/>
    <circle cx="65.3" cy="-169.6" r="1.3" fill="#2980b9" opacity="0.85"/>
    <circle cx="98.7" cy="99.4" r="2.2" fill="#2980b9" opacity="0.85"/>
    <circle cx="-98.6" cy="-47.7" r="1.7" fill="#2980b9" opacity="0.85"/>
    <circle cx="-15.7" cy="-113.5" r="1.0" fill="#2980b9" opacity="0.85"/>
    <circle cx="-108.2" cy="71.7" r="1.6" fill="#2980b9" opacity="0.85"/>
    <circle cx="131.1" cy="-135.7" r="1.0" fill="#2980b9" opacity="0.85"/>
    <circle cx="144.9" cy="-104.4" r="1.5" fill="#2980b9" opacity="0.85"/>
    <circle cx="89.1" cy="-100.5" r="2.0" fill="#2980b9" opacity="0.85"/>
    <circle cx="-48.0" cy="-63.7" r="2.0" fill="#2980b9" opacity="0.85"/>
    <circle cx="-41.2" cy="73.3" r="1.7" fill="#2980b9" opacity="0.85"/>
    <circle cx="19.9" cy="135.3" r="1.7" fill="#2980b9" opacity="0.85"/>
    <circle cx="50.9" cy="176.4" r="1.2" fill="#2980b9" opacity="0.85"/>
    <circle cx="-140.1" cy="73.5" r="1.8" fill="#2980b9" opacity="0.85"/>
    <circle cx="-41.5" cy="-83.8" r="2.1" fill="#2980b9" opacity="0.85"/>
    <circle cx="-153.6" cy="54.4" r="0.8" fill="#2980b9" opacity="0.85"/>
    <circle cx="65.0" cy="144.8" r="1.0" fill="#2980b9" opacity="0.85"/>
    <circle cx="-91.6" cy="-122.6" r="1.2" fill="#2980b9" opacity="0.85"/>
    <circle cx="130.9" cy="86.4" r="1.0" fill="#2980b9" opacity="0.85"/>
    <circle cx="-36.9" cy="-74.0" r="1.3" fill="#2980b9" opacity="0.85"/>
    <circle cx="56.6" cy="-142.7" r="1.7" fill="#2980b9" opacity="0.85"/>
    <circle cx="-81.9" cy="31.2" r="1.2" fill="#2980b9" opacity="0.85"/>
    <circle cx="92.6" cy="-84.5" r="2.1" fill="#2980b9" opacity="0.85"/>
    <circle cx="-129.9" cy="84.0" r="1.0" fill="#2980b9" opacity="0.85"/>
    <g fill="none" stroke="#16a085" stroke-width="1.0" opacity="0.80">
      <path d="M 28.8,48.0 L 41.0,75.7 L 50.4,104.0 L 57.0,132.3 L 60.5,159.8 L 61.0,185.9 L 58.5,209.9 L 53.4,231.1 L 45.9,249.1 L 36.4,263.2 L 25.3,273.2 L 13.3,278.8 L 0.7,279.8 L -11.7,276.2 L -23.4,268.0 L -33.9,255.6 L -42.7,239.2 L -49.4,219.2 L -53.6,196.2 L -55.0,170.8 L -53.4,143.6 L -48.9,115.3 L -41.4,86.6 L -31.1,58.2 L -38.8,65.4 L -58.1,88.5 L -78.9,109.2 L -100.8,127.0 L -123.1,141.6 L -145.3,152.7 L -166.6,160.2 L -186.6,163.9 L -204.4,163.9 L -219.6,160.4 L -231.6,153.7 L -240.0,144.2 L -244.4,132.4 L -244.7,118.6 L -240.6,103.6 L -232.2,87.9 L -219.6,72.0 L -203.1,56.6 L -182.8,42.2 L -159.5,29.4 L -133.4,18.4 L -105.4,9.8 L -76.0,3.6 L -66.0,0.2 L -95.9,-4.1 L -124.7,-10.9 L -151.9,-20.2 L -176.6,-31.6 L -198.4,-44.7 L -216.7,-59.2 L -231.3,-74.5 L -241.6,-90.0 L -247.7,-105.1 L -249.3,-119.3 L -246.7,-131.9 L -240.0,-142.5 L -229.4,-150.6 L -215.4,-155.6 L -198.4,-157.4 L -179.1,-155.6 L -157.9,-150.2 L -135.6,-141.1 L -112.8,-128.4 L -90.1,-112.4 L -68.2,-93.3 L -47.6,-71.7 L -28.8,-48.0 L -41.0,-75.7 L -50.4,-104.0 L -57.0,-132.3 L -60.5,-159.8 L -61.0,-185.9 L -58.5,-209.9 L -53.4,-231.1 L -45.9,-249.1 L -36.4,-263.2 L -25.3,-273.2 L -13.3,-278.8 L -0.7,-279.8 L 11.7,-276.2 L 23.4,-268.0 L 33.9,-255.6 L 42.7,-239.2 L 49.4,-219.2 L 53.6,-196.2 L 55.0,-170.8 L 53.4,-143.6 L 48.9,-115.3 L 41.4,-86.6 L 31.1,-58.2 L 38.8,-65.4 L 58.1,-88.5 L 78.9,-109.2 L 100.8,-127.0 L 123.1,-141.6 L 145.3,-152.7 L 166.6,-160.2 L 186.6,-163.9 L 204.4,-163.9 L 219.6,-160.4 L 231.6,-153.7 L 240.0,-144.2 L 244.4,-132.4 L 244.7,-118.6 L 240.6,-103.6 L 232.2,-87.9 L 219.6,-72.0 L 203.1,-56.6 L 182.8,-42.2 L 159.5,-29.4 L 133.4,-18.4 L 105.4,-9.8 L 76.0,-3.6 L 66.0,-0.2 L 95.9,4.1 L 124.7,10.9 L 151.9,20.2 L 176.6,31.6 L 198.4,44.7 L 216.7,59.2 L 231.3,74.5 L 241.6,90.0 L 247.7,105.1 L 249.3,119.3 L 246.7,131.9 L 240.0,142.5 L 229.4,150.6 L 215.4,155.6 L 198.4,157.4 L 179.1,155.6 L 157.9,150.2 L 135.6,141.1 L 112.8,128.4 L 90.1,112.4 L 68.2,93.3 L 47.6,71.7 L 28.8,48.0 Z"/>
      <path d="M -39.5,158.5 L -53.8,181.0 L -69.4,200.1 L -85.8,215.6 L -102.4,227.0 L -118.6,234.2 L -133.8,237.2 L -147.4,235.9 L -158.8,230.6 L -167.7,221.4 L -173.5,208.9 L -175.9,193.4 L -174.6,175.5 L -169.5,155.8 L -160.7,134.9 L -148.1,113.4 L -132.0,92.0 L -112.7,71.3 L -90.7,51.8 L -66.4,34.1 L -61.4,28.1 L -90.3,36.5 L -119.4,42.1 L -147.8,44.8 L -175.0,44.6 L -200.2,41.5 L -222.7,35.9 L -242.1,27.9 L -257.8,18.1 L -269.4,6.8 L -276.6,-5.5 L -279.2,-18.1 L -277.3,-30.5 L -270.8,-42.2 L -260.0,-52.5 L -245.1,-61.1 L -226.6,-67.4 L -204.9,-71.1 L -180.8,-72.0 L -154.7,-69.8 L -127.3,-64.5 L -99.5,-56.1 L -71.8,-44.9 L -47.3,-32.6 L -69.7,-52.8 L -90.0,-74.7 L -107.5,-97.8 L -122.0,-121.4 L -133.1,-144.9 L -140.7,-167.7 L -144.7,-189.0 L -145.2,-208.3 L -142.2,-225.0 L -136.2,-238.6 L -127.4,-248.5 L -116.3,-254.4 L -103.5,-256.0 L -89.4,-253.3 L -74.6,-246.1 L -59.8,-234.7 L -45.5,-219.1 L -32.2,-199.7 L -20.4,-177.0 L -10.6,-151.5 L -3.1,-123.8 L 1.9,-94.6 L 4.2,-64.5 L 8.5,-77.0 L 16.5,-105.9 L 26.9,-133.3 L 39.5,-158.5 L 53.8,-181.0 L 69.4,-200.1 L 85.8,-215.6 L 102.4,-227.0 L 118.6,-234.2 L 133.8,-237.2 L 147.4,-235.9 L 158.8,-230.6 L 167.7,-221.4 L 173.5,-208.9 L 175.9,-193.4 L 174.6,-175.5 L 169.5,-155.8 L 160.7,-134.9 L 148.1,-113.4 L 132.0,-92.0 L 112.7,-71.3 L 90.7,-51.8 L 66.4,-34.1 L 61.4,-28.1 L 90.3,-36.5 L 119.4,-42.1 L 147.8,-44.8 L 175.0,-44.6 L 200.2,-41.5 L 222.7,-35.9 L 242.1,-27.9 L 257.8,-18.1 L 269.4,-6.8 L 276.6,5.5 L 279.2,18.1 L 277.3,30.5 L 270.8,42.2 L 260.0,52.5 L 245.1,61.1 L 226.6,67.4 L 204.9,71.1 L 180.8,72.0 L 154.7,69.8 L 127.3,64.5 L 99.5,56.1 L 71.8,44.9 L 47.3,32.6 L 69.7,52.8 L 90.0,74.7 L 107.5,97.8 L 122.0,121.4 L 133.1,144.9 L 140.7,167.7 L 144.7,189.0 L 145.2,208.3 L 142.2,225.0 L 136.2,238.6 L 127.4,248.5 L 116.3,254.4 L 103.5,256.0 L 89.4,253.3 L 74.6,246.1 L 59.8,234.7 L 45.5,219.1 L 32.2,199.7 L 20.4,177.0 L 10.6,151.5 L 3.1,123.8 L -1.9,94.6 L -4.2,64.5 L -8.5,77.0 L -16.5,105.9 L -26.9,133.3 L -39.5,158.5 Z"/>
      <path d="M -209.6,126.0 L -227.8,123.3 L -242.9,117.7 L -254.3,109.5 L -261.8,99.0 L -265.0,86.9 L -263.7,73.5 L -257.9,59.6 L -247.7,45.6 L -233.3,32.2 L -215.0,19.9 L -193.2,9.2 L -168.4,0.4 L -141.3,-6.0 L -112.4,-9.8 L -82.5,-11.0 L -57.9,-10.4 L -86.7,-19.5 L -114.1,-31.2 L -139.6,-44.9 L -162.4,-60.5 L -182.1,-77.3 L -198.3,-94.9 L -210.6,-112.6 L -218.9,-130.0 L -223.0,-146.3 L -222.9,-161.1 L -218.9,-173.6 L -211.1,-183.4 L -199.9,-190.1 L -185.8,-193.3 L -169.3,-192.8 L -151.0,-188.3 L -131.4,-179.9 L -111.3,-167.7 L -91.2,-151.7 L -71.7,-132.5 L -53.5,-110.2 L -36.9,-85.6 L -22.4,-59.1 L -24.6,-75.0 L -29.2,-104.6 L -30.9,-133.8 L -29.8,-161.9 L -26.0,-188.2 L -19.6,-211.9 L -11.1,-232.6 L -0.7,-249.7 L 11.1,-262.8 L 23.7,-271.6 L 36.6,-275.9 L 49.3,-275.6 L 61.1,-270.8 L 71.4,-261.6 L 80.0,-248.3 L 86.1,-231.3 L 89.6,-211.1 L 90.1,-188.3 L 87.4,-163.5 L 81.5,-137.3 L 72.5,-110.4 L 60.4,-83.6 L 45.5,-57.4 L 45.2,-52.0 L 68.1,-71.6 L 92.2,-88.6 L 117.0,-102.8 L 141.8,-113.7 L 165.9,-121.2 L 188.7,-125.3 L 209.6,-126.0 L 227.8,-123.3 L 242.9,-117.7 L 254.3,-109.5 L 261.8,-99.0 L 265.0,-86.9 L 263.7,-73.5 L 257.9,-59.6 L 247.7,-45.6 L 233.3,-32.2 L 215.0,-19.9 L 193.2,-9.2 L 168.4,-0.4 L 141.3,6.0 L 112.4,9.8 L 82.5,11.0 L 57.9,10.4 L 86.7,19.5 L 114.1,31.2 L 139.6,44.9 L 162.4,60.5 L 182.1,77.3 L 198.3,94.9 L 210.6,112.6 L 218.9,130.0 L 223.0,146.3 L 222.9,161.1 L 218.9,173.6 L 211.1,183.4 L 199.9,190.1 L 185.8,193.3 L 169.3,192.8 L 151.0,188.3 L 131.4,179.9 L 111.3,167.7 L 91.2,151.7 L 71.7,132.5 L 53.5,110.2 L 36.9,85.6 L 22.4,59.1 L 24.6,75.0 L 29.2,104.6 L 30.9,133.8 L 29.8,161.9 L 26.0,188.2 L 19.6,211.9 L 11.1,232.6 L 0.7,249.7 L -11.1,262.8 L -23.7,271.6 L -36.6,275.9 L -49.3,275.6 L -61.1,270.8 L -71.4,261.6 L -80.0,248.3 L -86.1,231.3 L -89.6,211.1 L -90.1,188.3 L -87.4,163.5 L -81.5,137.3 L -72.5,110.4 L -60.4,83.6 L -45.5,57.4 L -45.2,52.0 L -68.1,71.6 L -92.2,88.6 L -117.0,102.8 L -141.8,113.7 L -165.9,121.2 L -188.7,125.3 L -209.6,126.0 Z"/>
      <path d="M -271.1,-67.6 L -267.9,-79.7 L -260.4,-90.3 L -248.7,-99.0 L -233.3,-105.2 L -214.6,-108.7 L -193.3,-109.0 L -169.8,-106.0 L -144.8,-99.8 L -119.1,-90.2 L -93.2,-77.4 L -67.9,-61.8 L -43.8,-43.6 L -54.3,-59.1 L -70.7,-84.2 L -84.3,-110.1 L -94.8,-136.1 L -102.1,-161.5 L -106.0,-185.7 L -106.7,-208.0 L -104.2,-227.7 L -98.8,-244.4 L -90.9,-257.5 L -80.8,-266.5 L -69.1,-271.3 L -56.4,-271.6 L -43.1,-267.3 L -29.8,-258.6 L -17.2,-245.5 L -5.7,-228.4 L 4.1,-207.7 L 11.9,-183.8 L 17.3,-157.4 L 20.1,-129.2 L 20.1,-99.7 L 17.4,-69.7 L 20.0,-67.4 L 32.8,-94.6 L 47.8,-120.1 L 64.6,-143.1 L 82.6,-163.2 L 101.5,-179.9 L 120.5,-192.9 L 139.1,-202.0 L 156.7,-207.0 L 172.7,-208.0 L 186.4,-205.0 L 197.4,-198.5 L 205.2,-188.6 L 209.4,-175.8 L 209.8,-160.6 L 206.1,-143.6 L 198.4,-125.4 L 186.7,-106.6 L 171.1,-87.8 L 152.1,-69.6 L 129.9,-52.5 L 105.1,-37.1 L 78.3,-23.7 L 58.4,-14.9 L 88.4,-18.3 L 118.2,-19.0 L 147.0,-16.9 L 174.1,-12.2 L 198.9,-5.0 L 220.8,4.4 L 239.2,15.5 L 253.7,27.9 L 264.0,41.1 L 269.8,54.5 L 271.1,67.6 L 267.9,79.7 L 260.4,90.3 L 248.7,99.0 L 233.3,105.2 L 214.6,108.7 L 193.3,109.0 L 169.8,106.0 L 144.8,99.8 L 119.1,90.2 L 93.2,77.4 L 67.9,61.8 L 43.8,43.6 L 54.3,59.1 L 70.7,84.2 L 84.3,110.1 L 94.8,136.1 L 102.1,161.5 L 106.0,185.7 L 106.7,208.0 L 104.2,227.7 L 98.8,244.4 L 90.9,257.5 L 80.8,266.5 L 69.1,271.3 L 56.4,271.6 L 43.1,267.3 L 29.8,258.6 L 17.2,245.5 L 5.7,228.4 L -4.1,207.7 L -11.9,183.8 L -17.3,157.4 L -20.1,129.2 L -20.1,99.7 L -17.4,69.7 L -20.0,67.4 L -32.8,94.6 L -47.8,120.1 L -64.6,143.1 L -82.6,163.2 L -101.5,179.9 L -120.5,192.9 L -139.1,202.0 L -156.7,207.0 L -172.7,208.0 L -186.4,205.0 L -197.4,198.5 L -205.2,188.6 L -209.4,175.8 L -209.8,160.6 L -206.1,143.6 L -198.4,125.4 L -186.7,106.6 L -171.1,87.8 L -152.1,69.6 L -129.9,52.5 L -105.1,37.1 L -78.3,23.7 L -58.4,14.9 L -88.4,18.3 L -118.2,19.0 L -147.0,16.9 L -174.1,12.2 L -198.9,5.0 L -220.8,-4.4 L -239.2,-15.5 L -253.7,-27.9 L -264.0,-41.1 L -269.8,-54.5 L -271.1,-67.6 Z"/>
      <path d="M -133.8,-222.6 L -116.8,-215.7 L -99.3,-204.7 L -81.7,-189.8 L -64.8,-171.2 L -48.9,-149.3 L -34.7,-124.6 L -22.6,-97.7 L -12.8,-69.3 L -9.8,-71.0 L -9.4,-101.1 L -6.2,-130.4 L -0.4,-158.3 L 7.8,-183.9 L 18.1,-206.8 L 30.1,-226.4 L 43.3,-242.2 L 57.2,-253.8 L 71.3,-261.2 L 85.0,-264.0 L 97.7,-262.4 L 108.8,-256.4 L 117.8,-246.3 L 124.3,-232.5 L 127.9,-215.4 L 128.3,-195.5 L 125.3,-173.4 L 118.8,-149.8 L 108.9,-125.3 L 95.7,-100.6 L 79.4,-76.3 L 60.4,-53.1 L 48.1,-38.6 L 74.0,-54.1 L 100.8,-66.9 L 127.9,-76.9 L 154.5,-83.7 L 180.0,-87.3 L 203.7,-87.7 L 224.9,-85.1 L 243.1,-79.7 L 257.8,-71.9 L 268.5,-62.0 L 274.9,-50.6 L 276.8,-38.2 L 274.1,-25.4 L 266.9,-12.7 L 255.3,-0.7 L 239.6,10.1 L 220.1,19.2 L 197.3,26.2 L 171.9,30.7 L 144.4,32.6 L 115.6,31.6 L 86.1,27.7 L 56.6,21.1 L 75.2,31.9 L 100.4,48.0 L 123.4,66.0 L 143.7,85.3 L 160.7,105.5 L 174.1,125.8 L 183.8,145.8 L 189.6,164.7 L 191.4,182.0 L 189.4,197.1 L 183.9,209.4 L 175.1,218.4 L 163.5,223.8 L 149.5,225.2 L 133.8,222.6 L 116.8,215.7 L 99.3,204.7 L 81.7,189.8 L 64.8,171.2 L 48.9,149.3 L 34.7,124.6 L 22.6,97.7 L 12.8,69.3 L 9.8,71.0 L 9.4,101.1 L 6.2,130.4 L 0.4,158.3 L -7.8,183.9 L -18.1,206.8 L -30.1,226.4 L -43.3,242.2 L -57.2,253.8 L -71.3,261.2 L -85.0,264.0 L -97.7,262.4 L -108.8,256.4 L -117.8,246.3 L -124.3,232.5 L -127.9,215.4 L -128.3,195.5 L -125.3,173.4 L -118.8,149.8 L -108.9,125.3 L -95.7,100.6 L -79.4,76.3 L -60.4,53.1 L -48.1,38.6 L -74.0,54.1 L -100.8,66.9 L -127.9,76.9 L -154.5,83.7 L -180.0,87.3 L -203.7,87.7 L -224.9,85.1 L -243.1,79.7 L -257.8,71.9 L -268.5,62.0 L -274.9,50.6 L -276.8,38.2 L -274.1,25.4 L -266.9,12.7 L -255.3,0.7 L -239.6,-10.1 L -220.1,-19.2 L -197.3,-26.2 L -171.9,-30.7 L -144.4,-32.6 L -115.6,-31.6 L -86.1,-27.7 L -56.6,-21.1 L -75.2,-31.9 L -100.4,-48.0 L -123.4,-66.0 L -143.7,-85.3 L -160.7,-105.5 L -174.1,-125.8 L -183.8,-145.8 L -189.6,-164.7 L -191.4,-182.0 L -189.4,-197.1 L -183.9,-209.4 L -175.1,-218.4 L -163.5,-223.8 L -149.5,-225.2 L -133.8,-222.6 Z"/>
      <path d="M 46.0,-184.4 L 47.0,-157.9 L 45.1,-129.9 L 40.2,-101.0 L 32.5,-72.0 L 28.5,-56.3 L 45.7,-81.1 L 64.8,-103.8 L 85.4,-123.9 L 106.8,-141.0 L 128.5,-154.7 L 149.8,-164.8 L 170.2,-171.1 L 188.9,-173.6 L 205.4,-172.4 L 219.0,-167.7 L 229.4,-159.8 L 236.1,-149.2 L 238.8,-136.4 L 237.3,-121.7 L 231.6,-105.9 L 221.5,-89.5 L 207.4,-73.2 L 189.5,-57.4 L 168.1,-42.8 L 143.7,-29.8 L 116.9,-18.8 L 88.4,-10.2 L 58.8,-4.1 L 83.1,-2.1 L 112.7,2.2 L 141.0,9.1 L 167.3,18.4 L 191.0,29.7 L 211.6,42.7 L 228.5,56.9 L 241.4,71.8 L 250.0,86.8 L 254.3,101.2 L 254.2,114.6 L 249.7,126.4 L 241.2,136.0 L 228.9,143.0 L 213.4,147.0 L 195.0,147.6 L 174.4,144.8 L 152.1,138.3 L 128.9,128.3 L 105.5,114.8 L 82.3,98.1 L 60.1,78.5 L 39.5,56.6 L 39.1,61.8 L 51.0,89.4 L 60.2,117.4 L 66.4,145.1 L 69.4,171.7 L 69.4,196.7 L 66.5,219.4 L 60.9,239.1 L 53.0,255.3 L 43.1,267.7 L 31.8,275.7 L 19.6,279.3 L 7.0,278.3 L -5.4,272.6 L -17.0,262.6 L -27.3,248.3 L -35.8,230.2 L -42.2,208.7 L -46.0,184.4 L -47.0,157.9 L -45.1,129.9 L -40.2,101.0 L -32.5,72.0 L -28.5,56.3 L -45.7,81.1 L -64.8,103.8 L -85.4,123.9 L -106.8,141.0 L -128.5,154.7 L -149.8,164.8 L -170.2,171.1 L -188.9,173.6 L -205.4,172.4 L -219.0,167.7 L -229.4,159.8 L -236.1,149.2 L -238.8,136.4 L -237.3,121.7 L -231.6,105.9 L -221.5,89.5 L -207.4,73.2 L -189.5,57.4 L -168.1,42.8 L -143.7,29.8 L -116.9,18.8 L -88.4,10.2 L -58.8,4.1 L -83.1,2.1 L -112.7,-2.2 L -141.0,-9.1 L -167.3,-18.4 L -191.0,-29.7 L -211.6,-42.7 L -228.5,-56.9 L -241.4,-71.8 L -250.0,-86.8 L -254.3,-101.2 L -254.2,-114.6 L -249.7,-126.4 L -241.2,-136.0 L -228.9,-143.0 L -213.4,-147.0 L -195.0,-147.6 L -174.4,-144.8 L -152.1,-138.3 L -128.9,-128.3 L -105.5,-114.8 L -82.3,-98.1 L -60.1,-78.5 L -39.5,-56.6 L -39.1,-61.8 L -51.0,-89.4 L -60.2,-117.4 L -66.4,-145.1 L -69.4,-171.7 L -69.4,-196.7 L -66.5,-219.4 L -60.9,-239.1 L -53.0,-255.3 L -43.1,-267.7 L -31.8,-275.7 L -19.6,-279.3 L -7.0,-278.3 L 5.4,-272.6 L 17.0,-262.6 L 27.3,-248.3 L 35.8,-230.2 L 42.2,-208.7 L 46.0,-184.4 Z"/>
      <path d="M 75.1,-45.1 L 50.6,-27.4 L 76.1,-36.9 L 104.8,-45.1 L 133.4,-50.5 L 161.1,-52.8 L 187.3,-52.2 L 211.3,-48.8 L 232.4,-42.8 L 250.1,-34.6 L 264.0,-24.5 L 273.7,-13.0 L 279.0,-0.7 L 279.6,11.8 L 275.6,24.1 L 267.2,35.5 L 254.5,45.5 L 237.8,53.6 L 217.7,59.5 L 194.7,62.7 L 169.3,63.0 L 142.3,60.4 L 114.3,54.7 L 86.0,46.0 L 58.1,34.5 L 62.3,40.9 L 84.6,61.1 L 104.4,82.8 L 121.4,105.5 L 135.1,128.5 L 145.3,151.2 L 151.9,172.9 L 154.8,193.1 L 154.2,211.0 L 150.2,226.2 L 143.1,238.1 L 133.3,246.2 L 121.4,250.3 L 107.7,250.1 L 92.9,245.6 L 77.6,236.7 L 62.3,223.6 L 47.7,206.5 L 34.2,185.8 L 22.4,162.0 L 12.6,135.6 L 5.1,107.2 L 0.2,77.6 L -2.7,64.4 L -8.2,94.1 L -16.3,122.7 L -26.7,149.4 L -39.2,173.7 L -53.3,195.1 L -68.6,212.9 L -84.5,226.9 L -100.4,236.7 L -115.9,242.3 L -130.2,243.5 L -142.8,240.5 L -153.2,233.4 L -160.9,222.7 L -165.5,208.6 L -166.6,191.7 L -164.1,172.6 L -157.9,151.7 L -147.9,129.9 L -134.4,107.7 L -117.5,85.8 L -97.6,64.8 L -75.1,45.1 L -50.6,27.4 L -76.1,36.9 L -104.8,45.1 L -133.4,50.5 L -161.1,52.8 L -187.3,52.2 L -211.3,48.8 L -232.4,42.8 L -250.1,34.6 L -264.0,24.5 L -273.7,13.0 L -279.0,0.7 L -279.6,-11.8 L -275.6,-24.1 L -267.2,-35.5 L -254.5,-45.5 L -237.8,-53.6 L -217.7,-59.5 L -194.7,-62.7 L -169.3,-63.0 L -142.3,-60.4 L -114.3,-54.7 L -86.0,-46.0 L -58.1,-34.5 L -62.3,-40.9 L -84.6,-61.1 L -104.4,-82.8 L -121.4,-105.5 L -135.1,-128.5 L -145.3,-151.2 L -151.9,-172.9 L -154.8,-193.1 L -154.2,-211.0 L -150.2,-226.2 L -143.1,-238.1 L -133.3,-246.2 L -121.4,-250.3 L -107.7,-250.1 L -92.9,-245.6 L -77.6,-236.7 L -62.3,-223.6 L -47.7,-206.5 L -34.2,-185.8 L -22.4,-162.0 L -12.6,-135.6 L -5.1,-107.2 L -0.2,-77.6 L 2.7,-64.4 L 8.2,-94.1 L 16.3,-122.7 L 26.7,-149.4 L 39.2,-173.7 L 53.3,-195.1 L 68.6,-212.9 L 84.5,-226.9 L 100.4,-236.7 L 115.9,-242.3 L 130.2,-243.5 L 142.8,-240.5 L 153.2,-233.4 L 160.9,-222.7 L 165.5,-208.6 L 166.6,-191.7 L 164.1,-172.6 L 157.9,-151.7 L 147.9,-129.9 L 134.4,-107.7 L 117.5,-85.8 L 97.6,-64.8 L 75.1,-45.1 Z"/>
      <path d="M 130.6,32.5 L 155.3,46.2 L 177.2,61.5 L 195.8,77.9 L 210.6,95.0 L 221.5,112.1 L 228.1,128.7 L 230.6,144.0 L 228.9,157.7 L 223.2,169.0 L 213.9,177.6 L 201.2,183.0 L 185.8,184.8 L 168.0,182.9 L 148.6,177.1 L 128.2,167.5 L 107.3,154.1 L 86.7,137.2 L 66.9,117.1 L 48.4,94.3 L 31.7,69.3 L 24.7,61.1 L 31.9,90.4 L 36.3,119.7 L 37.8,148.3 L 36.4,175.5 L 32.3,200.7 L 25.7,223.1 L 17.0,242.3 L 6.5,257.7 L -5.3,268.9 L -17.9,275.8 L -30.6,278.1 L -42.9,275.8 L -54.3,269.0 L -64.3,257.9 L -72.2,242.8 L -77.8,224.2 L -80.6,202.5 L -80.5,178.5 L -77.2,152.6 L -70.8,125.6 L -61.3,98.2 L -48.9,71.0 L -33.9,44.8 L -54.9,66.1 L -77.7,85.4 L -101.5,102.0 L -125.7,115.5 L -149.8,125.7 L -172.9,132.4 L -194.6,135.6 L -214.0,135.3 L -230.7,131.7 L -244.1,125.2 L -253.8,116.1 L -259.4,104.8 L -260.7,92.0 L -257.5,78.1 L -249.9,63.7 L -238.0,49.4 L -221.9,35.7 L -202.1,23.3 L -179.1,12.5 L -153.3,3.8 L -125.3,-2.5 L -95.9,-6.2 L -65.8,-7.2 L -75.0,-11.7 L -103.6,-20.9 L -130.6,-32.5 L -155.3,-46.2 L -177.2,-61.5 L -195.8,-77.9 L -210.6,-95.0 L -221.5,-112.1 L -228.1,-128.7 L -230.6,-144.0 L -228.9,-157.7 L -223.2,-169.0 L -213.9,-177.6 L -201.2,-183.0 L -185.8,-184.8 L -168.0,-182.9 L -148.6,-177.1 L -128.2,-167.5 L -107.3,-154.1 L -86.7,-137.2 L -66.9,-117.1 L -48.4,-94.3 L -31.7,-69.3 L -24.7,-61.1 L -31.9,-90.4 L -36.3,-119.7 L -37.8,-148.3 L -36.4,-175.5 L -32.3,-200.7 L -25.7,-223.1 L -17.0,-242.3 L -6.5,-257.7 L 5.3,-268.9 L 17.9,-275.8 L 30.6,-278.1 L 42.9,-275.8 L 54.3,-269.0 L 64.3,-257.9 L 72.2,-242.8 L 77.8,-224.2 L 80.6,-202.5 L 80.5,-178.5 L 77.2,-152.6 L 70.8,-125.6 L 61.3,-98.2 L 48.9,-71.0 L 33.9,-44.8 L 54.9,-66.1 L 77.7,-85.4 L 101.5,-102.0 L 125.7,-115.5 L 149.8,-125.7 L 172.9,-132.4 L 194.6,-135.6 L 214.0,-135.3 L 230.7,-131.7 L 244.1,-125.2 L 253.8,-116.1 L 259.4,-104.8 L 260.7,-92.0 L 257.5,-78.1 L 249.9,-63.7 L 238.0,-49.4 L 221.9,-35.7 L 202.1,-23.3 L 179.1,-12.5 L 153.3,-3.8 L 125.3,2.5 L 95.9,6.2 L 65.8,7.2 L 75.0,11.7 L 103.6,20.9 L 130.6,32.5 Z"/>
    </g>
    <circle cx="-117.1" cy="-147.3" r="0.7" fill="#16a085" opacity="0.80"/>
    <circle cx="98.4" cy="-12.7" r="1.2" fill="#16a085" opacity="0.80"/>
    <circle cx="128.7" cy="-83.9" r="0.8" fill="#16a085" opacity="0.80"/>
    <circle cx="-69.2" cy="56.9" r="0.7" fill="#16a085" opacity="0.80"/>
    <circle cx="143.9" cy="-176.5" r="1.9" fill="#16a085" opacity="0.80"/>
    <circle cx="-91.7" cy="-93.2" r="1.1" fill="#16a085" opacity="0.80"/>
    <circle cx="35.8" cy="124.8" r="0.8" fill="#16a085" opacity="0.80"/>
    <circle cx="-97.5" cy="221.5" r="0.9" fill="#16a085" opacity="0.80"/>
    <circle cx="228.2" cy="84.6" r="0.9" fill="#16a085" opacity="0.80"/>
    <circle cx="110.6" cy="-185.3" r="1.5" fill="#16a085" opacity="0.80"/>
    <circle cx="-20.7" cy="160.8" r="1.7" fill="#16a085" opacity="0.80"/>
    <circle cx="-93.3" cy="160.5" r="2.0" fill="#16a085" opacity="0.80"/>
    <circle cx="220.3" cy="47.5" r="1.4" fill="#16a085" opacity="0.80"/>
    <circle cx="-63.5" cy="193.2" r="1.1" fill="#16a085" opacity="0.80"/>
    <circle cx="25.8" cy="221.4" r="1.7" fill="#16a085" opacity="0.80"/>
    <circle cx="-120.0" cy="161.4" r="1.4" fill="#16a085" opacity="0.80"/>
    <circle cx="213.4" cy="104.4" r="1.2" fill="#16a085" opacity="0.80"/>
    <circle cx="-115.9" cy="-1.9" r="1.5" fill="#16a085" opacity="0.80"/>
    <circle cx="101.6" cy="-155.3" r="1.2" fill="#16a085" opacity="0.80"/>
    <circle cx="-161.8" cy="29.4" r="1.2" fill="#16a085" opacity="0.80"/>
    <circle cx="-173.0" cy="-72.3" r="0.8" fill="#16a085" opacity="0.80"/>
    <circle cx="17.5" cy="-112.0" r="1.7" fill="#16a085" opacity="0.80"/>
    <circle cx="-27.8" cy="-130.9" r="1.6" fill="#16a085" opacity="0.80"/>
    <circle cx="-124.3" cy="-107.4" r="1.5" fill="#16a085" opacity="0.80"/>
    <circle cx="79.4" cy="35.3" r="1.8" fill="#16a085" opacity="0.80"/>
    <circle cx="-39.0" cy="76.9" r="1.7" fill="#16a085" opacity="0.80"/>
    <circle cx="-24.6" cy="-99.5" r="1.5" fill="#16a085" opacity="0.80"/>
    <circle cx="-116.3" cy="-94.7" r="1.3" fill="#16a085" opacity="0.80"/>
    <circle cx="159.5" cy="22.6" r="1.2" fill="#16a085" opacity="0.80"/>
    <circle cx="20.3" cy="-89.4" r="1.8" fill="#16a085" opacity="0.80"/>
    <circle cx="-0.4" cy="-179.0" r="1.1" fill="#16a085" opacity="0.80"/>
    <circle cx="-118.0" cy="-32.5" r="1.0" fill="#16a085" opacity="0.80"/>
    <circle cx="-190.5" cy="126.0" r="1.3" fill="#16a085" opacity="0.80"/>
    <circle cx="-83.5" cy="157.6" r="0.8" fill="#16a085" opacity="0.80"/>
    <circle cx="175.1" cy="-175.3" r="1.2" fill="#16a085" opacity="0.80"/>
    <circle cx="-10.7" cy="-136.1" r="1.3" fill="#16a085" opacity="0.80"/>
    <circle cx="-8.8" cy="-168.3" r="0.8" fill="#16a085" opacity="0.80"/>
    <circle cx="33.1" cy="-237.2" r="2.0" fill="#16a085" opacity="0.80"/>
    <circle cx="-146.8" cy="168.9" r="1.3" fill="#16a085" opacity="0.80"/>
    <circle cx="-202.5" cy="-72.4" r="1.7" fill="#16a085" opacity="0.80"/>
    <g fill="none" stroke="#3498db" stroke-width="0.8" opacity="0.75">
      <path d="M 15.5,65.4 L 19.8,100.4 L 21.4,135.1 L 20.3,168.8 L 16.6,200.9 L 10.4,230.6 L 2.0,257.3 L -8.3,280.3 L -20.1,299.3 L -32.9,313.8 L -46.2,323.6 L -59.5,328.4 L -72.2,328.1 L -83.9,323.0 L -93.9,313.1 L -101.9,298.6 L -107.4,280.1 L -110.2,257.9 L -109.8,232.6 L -106.3,204.9 L -99.5,175.4 L -89.4,144.7 L -76.2,113.6 L -60.1,82.8 L -41.5,52.9 L -66.1,78.0 L -92.3,101.0 L -119.3,121.2 L -146.7,138.3 L -173.8,151.9 L -199.9,161.9 L -224.4,168.3 L -246.6,170.9 L -265.9,169.9 L -281.8,165.6 L -293.8,158.2 L -301.6,148.1 L -304.8,135.8 L -303.3,121.7 L -297.0,106.5 L -286.0,90.6 L -270.3,74.7 L -250.4,59.2 L -226.5,44.7 L -199.1,31.6 L -168.8,20.3 L -136.3,11.3 L -102.2,4.6 L -67.2,0.5 L -102.2,-3.0 L -136.5,-9.2 L -169.1,-17.7 L -199.6,-28.5 L -227.1,-41.2 L -251.3,-55.3 L -271.4,-70.5 L -287.3,-86.2 L -298.6,-101.9 L -305.2,-117.1 L -306.9,-131.1 L -303.8,-143.5 L -296.2,-153.7 L -284.3,-161.2 L -268.5,-165.8 L -249.2,-167.1 L -226.9,-164.8 L -202.4,-158.9 L -176.1,-149.2 L -148.8,-136.0 L -121.2,-119.3 L -93.8,-99.5 L -67.3,-77.0 L -42.3,-52.2 L -61.4,-81.8 L -77.9,-112.4 L -91.6,-143.3 L -102.1,-173.8 L -109.4,-203.2 L -113.4,-230.9 L -114.1,-256.2 L -111.7,-278.4 L -106.5,-297.0 L -98.7,-311.6 L -88.8,-321.7 L -77.3,-327.0 L -64.6,-327.4 L -51.2,-322.8 L -37.7,-313.3 L -24.7,-299.0 L -12.6,-280.2 L -2.0,-257.3 L 6.9,-230.7 L 13.5,-201.1 L 17.7,-169.1 L 19.3,-135.4 L 18.2,-100.6 L 14.4,-65.6 L 25.7,-99.0 L 39.3,-131.0 L 54.9,-160.9 L 72.2,-188.2 L 90.7,-212.3 L 109.8,-232.6 L 129.1,-249.0 L 148.0,-260.9 L 165.8,-268.5 L 182.0,-271.5 L 196.1,-270.0 L 207.5,-264.3 L 215.7,-254.6 L 220.5,-241.3 L 221.4,-224.8 L 218.3,-205.7 L 211.2,-184.6 L 199.9,-161.9 L 184.7,-138.5 L 165.7,-114.8 L 143.3,-91.6 L 117.9,-69.3 L 90.1,-48.5 L 60.3,-29.6 L 93.4,-41.6 L 126.9,-50.9 L 160.1,-57.4 L 192.2,-60.9 L 222.5,-61.5 L 250.4,-59.2 L 275.2,-54.3 L 296.3,-47.0 L 313.3,-37.7 L 325.7,-26.9 L 333.4,-15.0 L 336.0,-2.6 L 333.6,9.9 L 326.1,21.9 L 313.8,32.9 L 297.0,42.4 L 276.0,50.0 L 251.3,55.3 L 223.4,58.0 L 193.1,57.9 L 160.9,54.9 L 127.7,49.0 L 94.1,40.2 L 60.8,28.7 L 90.8,47.1 L 119.0,67.5 L 144.7,89.4 L 167.4,112.3 L 186.8,135.6 L 202.4,158.9 L 214.0,181.3 L 221.5,202.3 L 224.8,221.4 L 224.1,237.9 L 219.6,251.3 L 211.5,261.1 L 200.2,267.0 L 186.2,268.6 L 169.9,265.9 L 152.0,258.6 L 133.0,246.9 L 113.4,230.9 L 93.9,210.9 L 75.1,187.1 L 57.4,160.1 L 41.3,130.4 L 27.2,98.6 L 15.5,65.4 Z"/>
      <path d="M -103.0,166.8 L -125.7,187.5 L -148.5,204.5 L -170.7,217.5 L -191.8,226.4 L -211.1,231.1 L -228.1,231.7 L -242.2,228.2 L -252.9,221.1 L -259.9,210.5 L -262.7,197.0 L -261.3,181.1 L -255.4,163.2 L -245.1,144.0 L -230.4,124.1 L -211.7,104.0 L -189.1,84.3 L -163.2,65.5 L -134.5,48.2 L -103.5,32.8 L -70.9,19.6 L -93.4,22.1 L -128.2,25.3 L -162.1,25.7 L -194.7,23.5 L -225.0,18.6 L -252.5,11.4 L -276.5,2.1 L -296.6,-8.8 L -312.3,-21.0 L -323.4,-33.9 L -329.5,-47.1 L -330.5,-59.9 L -326.6,-71.9 L -317.9,-82.6 L -304.5,-91.4 L -286.8,-97.9 L -265.4,-101.8 L -240.7,-102.8 L -213.2,-100.7 L -183.8,-95.3 L -153.0,-86.8 L -121.6,-75.1 L -90.2,-60.5 L -59.5,-43.2 L -75.5,-59.3 L -99.7,-84.4 L -121.2,-110.7 L -139.7,-137.6 L -154.8,-164.3 L -166.3,-190.3 L -174.1,-214.9 L -178.0,-237.4 L -178.3,-257.3 L -175.1,-274.0 L -168.6,-286.9 L -159.2,-295.8 L -147.4,-300.2 L -133.6,-300.0 L -118.4,-295.0 L -102.3,-285.3 L -85.9,-271.0 L -69.7,-252.3 L -54.2,-229.5 L -40.1,-203.1 L -27.6,-173.7 L -17.1,-141.9 L -8.9,-108.2 L -3.3,-73.5 L -0.7,-96.0 L 3.9,-130.6 L 11.0,-163.8 L 20.5,-195.0 L 31.9,-223.5 L 45.1,-248.7 L 59.5,-270.1 L 74.6,-287.2 L 90.0,-299.8 L 105.0,-307.7 L 119.2,-310.7 L 132.0,-308.9 L 142.8,-302.4 L 151.2,-291.5 L 156.8,-276.5 L 159.3,-257.9 L 158.3,-236.1 L 153.8,-211.8 L 145.6,-185.5 L 133.8,-158.0 L 118.6,-129.9 L 100.2,-101.8 L 79.0,-74.5 L 55.4,-48.4 L 74.6,-60.4 L 104.5,-78.4 L 134.9,-93.5 L 165.2,-105.6 L 194.6,-114.4 L 222.5,-119.8 L 248.2,-121.9 L 271.1,-120.8 L 290.5,-116.6 L 306.0,-109.7 L 317.2,-100.5 L 323.8,-89.4 L 325.5,-76.9 L 322.2,-63.5 L 314.0,-49.8 L 300.9,-36.3 L 283.3,-23.4 L 261.4,-11.8 L 235.8,-1.8 L 207.0,6.1 L 175.5,11.8 L 142.1,14.9 L 107.5,15.4 L 72.4,13.1 L 93.7,20.6 L 126.4,32.8 L 157.3,47.2 L 185.6,63.3 L 210.8,80.9 L 232.4,99.3 L 250.1,118.1 L 263.4,136.6 L 272.3,154.4 L 276.6,170.9 L 276.4,185.3 L 271.8,197.4 L 263.1,206.5 L 250.6,212.3 L 234.7,214.4 L 216.0,212.7 L 194.9,206.9 L 172.2,197.0 L 148.4,183.2 L 124.2,165.6 L 100.2,144.6 L 76.9,120.4 L 55.0,93.6 L 34.9,64.8 L 42.3,86.2 L 53.2,119.3 L 61.2,152.4 L 66.2,184.6 L 68.2,215.2 L 67.3,243.6 L 63.6,269.1 L 57.4,291.1 L 49.0,309.2 L 38.9,322.8 L 27.4,331.7 L 15.1,335.6 L 2.6,334.4 L -9.8,328.3 L -21.3,317.2 L -31.6,301.4 L -40.2,281.4 L -46.7,257.5 L -50.7,230.3 L -52.0,200.4 L -50.6,168.5 L -46.1,135.2 L -38.9,101.4 L -28.9,67.6 L -41.0,86.8 L -60.1,116.0 L -81.0,142.8 L -103.0,166.8 Z"/>
      <path d="M -285.5,67.5 L -304.5,60.1 L -319.3,50.6 L -329.4,39.7 L -334.6,27.7 L -334.7,15.1 L -329.8,2.5 L -320.0,-9.5 L -305.4,-20.5 L -286.4,-30.0 L -263.4,-37.6 L -236.9,-42.9 L -207.5,-45.7 L -175.8,-45.7 L -142.7,-42.8 L -108.7,-37.1 L -74.6,-28.6 L -82.5,-35.2 L -112.5,-53.1 L -140.5,-72.9 L -165.7,-94.0 L -187.7,-115.9 L -206.1,-138.2 L -220.5,-160.1 L -230.8,-181.2 L -236.8,-200.7 L -238.7,-218.0 L -236.4,-232.8 L -230.2,-244.3 L -220.5,-252.3 L -207.6,-256.3 L -192.1,-256.1 L -174.4,-251.6 L -155.1,-242.6 L -134.8,-229.4 L -114.1,-211.9 L -93.6,-190.7 L -73.9,-165.9 L -55.5,-138.2 L -38.8,-108.1 L -24.1,-76.1 L -23.9,-86.4 L -28.6,-121.1 L -30.6,-155.2 L -29.8,-188.1 L -26.4,-219.0 L -20.4,-247.2 L -12.3,-272.2 L -2.3,-293.4 L 9.2,-310.3 L 21.7,-322.5 L 34.6,-329.9 L 47.5,-332.3 L 59.8,-329.7 L 70.9,-322.1 L 80.5,-309.8 L 88.0,-293.2 L 93.0,-272.5 L 95.3,-248.4 L 94.6,-221.4 L 90.7,-192.1 L 83.6,-161.3 L 73.5,-129.6 L 60.3,-97.7 L 44.5,-66.3 L 52.7,-72.6 L 76.8,-97.9 L 102.3,-120.7 L 128.5,-140.6 L 154.8,-157.2 L 180.6,-170.1 L 205.2,-179.3 L 228.0,-184.7 L 248.3,-186.2 L 265.7,-184.2 L 279.5,-178.7 L 289.4,-170.1 L 295.0,-158.8 L 296.1,-145.4 L 292.4,-130.3 L 284.0,-114.0 L 271.0,-97.2 L 253.6,-80.4 L 232.0,-64.1 L 206.7,-48.9 L 178.2,-35.1 L 147.1,-23.3 L 114.0,-13.7 L 79.6,-6.6 L 89.6,-4.0 L 124.4,-1.0 L 158.2,4.7 L 190.0,12.8 L 219.4,23.0 L 245.6,35.1 L 268.1,48.6 L 286.5,63.1 L 300.4,78.0 L 309.6,92.9 L 314.0,107.2 L 313.4,120.2 L 308.1,131.6 L 298.3,140.8 L 284.2,147.4 L 266.2,151.0 L 245.0,151.3 L 220.9,148.2 L 194.8,141.4 L 167.1,131.2 L 138.6,117.4 L 110.0,100.5 L 81.8,80.6 L 54.8,58.1 L 59.0,67.5 L 78.3,96.7 L 94.9,126.6 L 108.5,156.5 L 118.8,185.9 L 125.7,213.9 L 129.2,239.9 L 129.3,263.3 L 126.3,283.5 L 120.4,300.0 L 112.0,312.3 L 101.4,320.0 L 89.2,323.0 L 75.9,321.0 L 61.9,314.1 L 47.9,302.3 L 34.4,285.9 L 21.9,265.1 L 10.9,240.5 L 1.6,212.4 L -5.4,181.6 L -10.0,148.6 L -12.0,114.2 L -11.3,79.1 L -16.0,88.2 L -26.8,121.5 L -39.8,153.2 L -54.7,182.4 L -71.3,208.8 L -88.9,231.6 L -107.0,250.6 L -125.3,265.3 L -142.9,275.5 L -159.5,281.2 L -174.3,282.2 L -187.0,278.8 L -196.9,271.1 L -203.7,259.5 L -206.9,244.2 L -206.4,226.0 L -202.0,205.2 L -193.6,182.4 L -181.2,158.4 L -165.1,133.7 L -145.3,109.0 L -122.4,84.8 L -96.7,61.8 L -68.9,40.5 L -79.0,42.5 L -111.7,54.9 L -144.5,64.4 L -176.8,70.9 L -207.6,74.5 L -236.5,74.9 L -262.7,72.6 L -285.5,67.5 Z"/>
      <path d="M -285.3,-176.2 L -278.7,-186.9 L -267.9,-194.6 L -253.4,-198.9 L -235.7,-199.7 L -215.2,-196.6 L -192.6,-189.6 L -168.4,-178.7 L -143.3,-163.9 L -118.0,-145.6 L -93.0,-124.0 L -69.0,-99.5 L -46.4,-72.6 L -42.2,-71.9 L -56.0,-104.1 L -67.1,-136.7 L -75.2,-168.8 L -80.2,-199.8 L -82.1,-229.1 L -81.1,-255.8 L -77.2,-279.4 L -70.8,-299.4 L -62.2,-315.2 L -51.8,-326.5 L -40.1,-332.9 L -27.6,-334.4 L -14.9,-330.8 L -2.5,-322.2 L 9.2,-308.8 L 19.5,-290.8 L 28.2,-268.8 L 34.7,-243.0 L 38.8,-214.2 L 40.3,-183.0 L 39.0,-150.0 L 34.8,-115.9 L 27.8,-81.6 L 29.9,-77.8 L 46.4,-108.7 L 65.0,-137.7 L 85.1,-164.0 L 106.2,-187.3 L 127.9,-207.0 L 149.5,-222.9 L 170.3,-234.6 L 190.0,-242.0 L 207.7,-245.1 L 223.0,-244.0 L 235.3,-238.9 L 244.2,-230.1 L 249.3,-217.9 L 250.3,-202.8 L 247.1,-185.3 L 239.6,-166.1 L 227.7,-145.5 L 211.7,-124.4 L 191.7,-103.2 L 168.2,-82.6 L 141.6,-63.1 L 112.3,-45.1 L 81.2,-29.1 L 79.5,-25.2 L 114.0,-31.5 L 148.2,-35.0 L 181.3,-35.8 L 212.7,-33.7 L 241.6,-29.1 L 267.4,-22.1 L 289.6,-13.1 L 307.6,-2.4 L 321.1,9.5 L 329.8,22.2 L 333.5,35.0 L 332.1,47.5 L 325.8,59.1 L 314.7,69.3 L 299.0,77.7 L 279.2,83.8 L 255.8,87.3 L 229.2,87.9 L 200.2,85.5 L 169.4,80.0 L 137.6,71.4 L 105.3,59.7 L 73.4,45.3 L 69.2,46.4 L 95.7,69.5 L 119.8,94.0 L 141.0,119.5 L 159.0,145.2 L 173.4,170.7 L 184.0,195.3 L 190.8,218.3 L 193.7,239.0 L 192.8,257.0 L 188.3,271.7 L 180.6,282.5 L 170.0,289.3 L 157.0,291.5 L 142.0,289.2 L 125.7,282.2 L 108.6,270.5 L 91.2,254.4 L 74.2,234.0 L 58.0,209.9 L 43.1,182.4 L 30.0,152.0 L 19.0,119.6 L 10.3,85.6 L 6.9,83.1 L 5.3,118.1 L 1.2,152.2 L -5.5,184.7 L -14.4,214.9 L -25.4,242.0 L -38.0,265.6 L -51.7,285.2 L -66.1,300.4 L -80.8,311.0 L -95.0,316.6 L -108.3,317.4 L -120.2,313.3 L -130.1,304.5 L -137.6,291.4 L -142.2,274.2 L -143.8,253.6 L -142.0,229.9 L -136.7,203.9 L -127.9,176.2 L -115.7,147.4 L -100.2,118.2 L -81.6,89.4 L -60.5,61.4 L -60.7,57.2 L -89.0,77.8 L -118.3,95.8 L -147.8,110.9 L -177.0,122.7 L -205.0,131.1 L -231.4,136.0 L -255.3,137.4 L -276.1,135.6 L -293.5,130.7 L -306.8,123.1 L -315.6,113.2 L -319.8,101.4 L -319.2,88.2 L -313.6,74.1 L -303.1,59.8 L -287.9,45.7 L -268.3,32.3 L -244.7,20.2 L -217.5,9.8 L -187.4,1.4 L -154.9,-4.6 L -120.8,-8.1 L -85.7,-9.0 L -82.5,-11.8 L -116.3,-21.1 L -148.7,-32.7 L -178.9,-46.5 L -206.3,-61.9 L -230.3,-78.6 L -250.5,-96.1 L -266.6,-113.9 L -278.2,-131.3 L -285.2,-147.9 L -287.5,-163.1 L -285.3,-176.2 Z"/>
      <path d="M -71.7,-303.3 L -57.1,-289.4 L -43.0,-271.0 L -29.9,-248.4 L -18.4,-222.2 L -8.7,-192.8 L -1.2,-160.9 L 3.8,-127.2 L 6.2,-92.3 L 8.0,-76.6 L 15.8,-110.9 L 26.1,-143.9 L 38.5,-174.9 L 52.8,-203.3 L 68.5,-228.4 L 85.3,-249.9 L 102.5,-267.3 L 119.7,-280.2 L 136.2,-288.6 L 151.6,-292.2 L 165.2,-291.2 L 176.5,-285.7 L 185.0,-275.9 L 190.5,-262.3 L 192.4,-245.1 L 190.7,-225.0 L 185.0,-202.5 L 175.6,-178.3 L 162.3,-152.9 L 145.3,-127.0 L 125.0,-101.3 L 101.8,-76.3 L 76.1,-52.7 L 64.9,-41.5 L 96.6,-56.7 L 128.7,-69.3 L 160.7,-78.9 L 191.8,-85.5 L 221.3,-88.8 L 248.6,-89.1 L 272.9,-86.5 L 293.7,-81.1 L 310.6,-73.4 L 323.0,-63.7 L 330.7,-52.4 L 333.4,-40.2 L 331.1,-27.4 L 323.8,-14.6 L 311.6,-2.4 L 294.8,8.8 L 273.7,18.4 L 248.8,26.1 L 220.7,31.5 L 189.9,34.4 L 157.2,34.6 L 123.2,32.0 L 88.6,26.6 L 72.9,24.9 L 104.6,40.1 L 134.4,57.4 L 161.9,76.4 L 186.4,96.7 L 207.5,117.7 L 224.7,138.8 L 237.8,159.4 L 246.6,179.1 L 251.0,197.0 L 251.2,212.8 L 247.2,225.8 L 239.3,235.6 L 227.9,241.8 L 213.3,244.0 L 196.2,242.1 L 177.0,235.9 L 156.3,225.5 L 134.7,210.8 L 113.0,192.2 L 91.5,169.9 L 70.9,144.5 L 51.8,116.2 L 34.5,85.9 L 26.0,72.5 L 33.8,106.8 L 38.9,140.9 L 41.2,174.3 L 40.6,206.0 L 37.4,235.6 L 31.6,262.2 L 23.6,285.3 L 13.7,304.4 L 2.5,319.1 L -9.8,329.1 L -22.4,334.0 L -35.0,334.0 L -47.0,328.9 L -57.8,318.9 L -67.0,304.3 L -74.1,285.5 L -78.8,262.8 L -80.8,236.8 L -79.9,208.2 L -75.8,177.5 L -68.7,145.5 L -58.6,113.0 L -45.6,80.5 L -40.5,65.5 L -62.4,93.0 L -85.9,118.3 L -110.6,140.9 L -135.8,160.2 L -160.9,176.1 L -185.3,188.2 L -208.4,196.3 L -229.4,200.5 L -248.0,200.9 L -263.4,197.5 L -275.2,190.7 L -283.0,180.9 L -286.4,168.3 L -285.4,153.7 L -279.7,137.4 L -269.4,120.0 L -254.6,102.2 L -235.5,84.5 L -212.5,67.4 L -186.0,51.4 L -156.6,37.0 L -124.8,24.6 L -91.4,14.5 L -76.5,9.2 L -111.6,9.2 L -146.1,6.6 L -179.1,1.4 L -209.9,-6.2 L -238.0,-16.0 L -262.6,-27.5 L -283.4,-40.5 L -299.9,-54.3 L -311.7,-68.6 L -318.6,-82.8 L -320.7,-96.2 L -317.8,-108.5 L -310.2,-119.0 L -298.1,-127.3 L -281.8,-133.0 L -261.8,-135.8 L -238.6,-135.3 L -212.9,-131.5 L -185.2,-124.2 L -156.2,-113.4 L -126.6,-99.4 L -97.1,-82.3 L -68.3,-62.4 L -54.9,-54.0 L -76.8,-81.5 L -96.2,-110.1 L -112.7,-139.1 L -126.0,-168.0 L -135.9,-196.0 L -142.2,-222.5 L -145.0,-246.8 L -144.5,-268.3 L -140.7,-286.4 L -134.0,-300.7 L -124.7,-310.7 L -113.4,-316.1 L -100.4,-316.7 L -86.3,-312.4 L -71.7,-303.3 Z"/>
      <path d="M 119.8,-194.0 L 110.6,-164.9 L 98.0,-135.0 L 82.4,-104.9 L 63.9,-75.4 L 47.7,-52.2 L 74.2,-75.3 L 102.0,-96.1 L 130.5,-114.0 L 159.0,-128.8 L 186.9,-140.1 L 213.4,-147.9 L 238.1,-152.2 L 260.1,-152.9 L 279.0,-150.2 L 294.2,-144.5 L 305.2,-136.0 L 311.8,-125.2 L 313.7,-112.5 L 310.7,-98.5 L 302.8,-83.7 L 290.2,-68.6 L 273.1,-53.8 L 251.7,-39.9 L 226.4,-27.3 L 197.9,-16.4 L 166.7,-7.5 L 133.4,-1.0 L 98.8,2.9 L 70.5,4.7 L 105.1,11.0 L 138.7,19.8 L 170.5,30.9 L 199.8,44.0 L 226.1,58.7 L 248.8,74.6 L 267.4,91.3 L 281.7,108.1 L 291.4,124.5 L 296.3,139.9 L 296.6,153.9 L 292.2,165.7 L 283.5,175.1 L 270.7,181.5 L 254.2,184.6 L 234.6,184.1 L 212.4,179.9 L 188.1,171.9 L 162.5,160.0 L 136.2,144.5 L 109.8,125.6 L 84.0,103.7 L 59.3,79.1 L 40.3,58.1 L 56.9,89.1 L 71.0,120.8 L 82.1,152.6 L 90.2,183.6 L 95.0,213.4 L 96.7,241.0 L 95.4,266.0 L 91.1,287.6 L 84.4,305.4 L 75.4,318.9 L 64.6,327.8 L 52.6,331.8 L 39.9,330.8 L 26.9,324.8 L 14.2,313.9 L 2.3,298.2 L -8.3,278.2 L -17.1,254.2 L -23.8,226.8 L -28.1,196.6 L -29.8,164.2 L -28.7,130.3 L -24.8,95.7 L -20.3,67.7 L -34.1,100.1 L -50.2,130.8 L -68.1,159.3 L -87.3,185.0 L -107.5,207.3 L -128.1,225.9 L -148.5,240.4 L -168.0,250.6 L -186.2,256.4 L -202.3,257.8 L -216.0,254.9 L -226.6,248.0 L -233.8,237.4 L -237.2,223.5 L -236.6,206.8 L -231.7,187.7 L -222.7,167.0 L -209.4,145.2 L -192.2,122.8 L -171.2,100.6 L -146.9,79.1 L -119.8,58.8 L -90.3,40.2 L -65.6,26.3 L -99.5,35.7 L -133.6,42.3 L -167.0,46.1 L -199.1,47.1 L -229.2,45.2 L -256.5,40.7 L -280.5,33.8 L -300.7,24.9 L -316.5,14.3 L -327.7,2.5 L -334.0,-9.9 L -335.2,-22.5 L -331.4,-34.8 L -322.6,-46.1 L -309.2,-56.0 L -291.3,-64.1 L -269.4,-70.0 L -244.1,-73.2 L -215.8,-73.7 L -185.4,-71.1 L -153.4,-65.5 L -120.6,-57.0 L -87.7,-45.5 L -61.5,-34.9 L -89.9,-55.6 L -116.4,-78.0 L -140.2,-101.8 L -160.9,-126.3 L -178.2,-151.0 L -191.7,-175.2 L -201.3,-198.2 L -206.9,-219.6 L -208.5,-238.6 L -206.3,-254.6 L -200.5,-267.3 L -191.4,-276.1 L -179.5,-280.8 L -165.1,-281.0 L -148.9,-276.6 L -131.5,-267.7 L -113.3,-254.2 L -94.9,-236.5 L -77.0,-214.7 L -60.0,-189.3 L -44.4,-160.8 L -30.7,-129.8 L -19.1,-97.0 L -11.1,-69.8 L -12.6,-105.0 L -11.5,-139.6 L -7.8,-173.1 L -1.6,-204.6 L 6.9,-233.5 L 17.4,-259.1 L 29.5,-281.0 L 42.7,-298.7 L 56.5,-311.8 L 70.5,-320.1 L 84.0,-323.4 L 96.6,-321.8 L 107.6,-315.4 L 116.7,-304.3 L 123.4,-288.9 L 127.3,-269.7 L 128.2,-247.1 L 125.7,-221.6 L 119.8,-194.0 Z"/>
      <path d="M 102.3,-24.2 L 68.8,-13.6 L 98.2,-15.6 L 133.0,-16.0 L 166.8,-13.8 L 198.9,-9.0 L 228.5,-1.8 L 255.1,7.6 L 278.1,18.7 L 296.9,31.1 L 311.3,44.5 L 320.9,58.2 L 325.5,71.7 L 325.2,84.5 L 320.0,96.0 L 310.0,105.8 L 295.6,113.4 L 277.2,118.4 L 255.2,120.5 L 230.2,119.4 L 202.8,115.0 L 173.6,107.2 L 143.4,96.2 L 112.9,82.0 L 82.7,64.9 L 53.5,45.3 L 73.4,67.1 L 95.5,94.0 L 114.8,121.8 L 131.0,149.9 L 143.9,177.6 L 153.1,204.2 L 158.8,229.1 L 160.8,251.5 L 159.3,271.1 L 154.6,287.1 L 146.9,299.2 L 136.7,306.9 L 124.4,310.0 L 110.6,308.3 L 95.7,301.8 L 80.3,290.5 L 64.9,274.6 L 50.2,254.4 L 36.5,230.2 L 24.4,202.6 L 14.2,172.1 L 6.3,139.4 L 0.8,105.1 L -2.1,70.0 L -6.7,99.2 L -14.0,133.3 L -23.7,165.7 L -35.5,195.9 L -49.1,223.2 L -64.2,247.0 L -80.1,266.9 L -96.4,282.5 L -112.6,293.6 L -128.1,299.9 L -142.3,301.4 L -154.7,298.2 L -164.8,290.6 L -172.1,278.7 L -176.3,263.0 L -177.1,243.9 L -174.2,222.0 L -167.6,197.8 L -157.2,172.1 L -143.2,145.4 L -125.7,118.4 L -105.1,91.8 L -81.7,66.2 L -56.1,42.0 L -81.7,56.6 L -112.9,72.2 L -144.3,84.8 L -175.3,94.4 L -205.1,100.7 L -233.1,103.9 L -258.6,103.8 L -281.0,100.8 L -299.7,95.0 L -314.3,86.8 L -324.4,76.7 L -329.6,65.0 L -329.9,52.3 L -325.2,39.2 L -315.5,26.1 L -301.1,13.6 L -282.2,2.2 L -259.2,-7.7 L -232.6,-15.6 L -203.0,-21.3 L -171.0,-24.4 L -137.3,-24.9 L -102.7,-22.6 L -67.8,-17.6 L -95.2,-28.6 L -126.8,-43.3 L -156.3,-60.0 L -183.1,-78.2 L -206.7,-97.6 L -226.6,-117.5 L -242.4,-137.5 L -254.0,-156.9 L -261.1,-175.1 L -263.8,-191.6 L -262.2,-205.8 L -256.3,-217.2 L -246.6,-225.3 L -233.4,-229.8 L -217.1,-230.4 L -198.4,-226.9 L -177.6,-219.3 L -155.6,-207.4 L -132.8,-191.6 L -109.9,-172.0 L -87.5,-148.9 L -66.2,-122.9 L -46.3,-94.4 L -28.5,-64.0 L -37.0,-92.3 L -45.2,-126.1 L -50.6,-159.6 L -53.0,-191.9 L -52.6,-222.4 L -49.4,-250.4 L -43.7,-275.3 L -35.7,-296.4 L -25.9,-313.4 L -14.7,-325.8 L -2.6,-333.3 L 10.0,-335.8 L 22.4,-333.3 L 34.2,-325.8 L 44.8,-313.4 L 53.8,-296.6 L 60.7,-275.6 L 65.2,-251.0 L 67.0,-223.3 L 65.9,-193.1 L 61.9,-161.3 L 54.8,-128.3 L 44.9,-95.1 L 32.3,-62.2 L 49.1,-86.5 L 70.4,-114.0 L 93.2,-139.0 L 117.0,-161.1 L 141.1,-179.8 L 165.0,-194.7 L 188.0,-205.7 L 209.5,-212.7 L 228.8,-215.6 L 245.5,-214.6 L 259.0,-209.8 L 268.8,-201.6 L 274.6,-190.3 L 276.0,-176.4 L 273.0,-160.4 L 265.4,-142.9 L 253.3,-124.4 L 236.9,-105.5 L 216.3,-86.8 L 192.1,-68.9 L 164.6,-52.2 L 134.5,-37.2 L 102.3,-24.2 Z"/>
      <path d="M 137.4,84.9 L 160.7,107.8 L 180.8,131.3 L 197.2,154.8 L 209.6,177.6 L 218.0,199.1 L 222.2,218.8 L 222.4,236.0 L 218.7,250.2 L 211.4,261.0 L 200.8,267.8 L 187.5,270.5 L 171.7,268.7 L 154.3,262.5 L 135.6,251.8 L 116.2,236.7 L 96.9,217.4 L 78.0,194.4 L 60.3,168.0 L 44.0,138.8 L 29.7,107.4 L 17.6,74.4 L 18.0,91.4 L 20.0,126.2 L 19.3,160.3 L 15.9,192.9 L 10.1,223.2 L 1.9,250.6 L -8.2,274.6 L -19.8,294.6 L -32.5,310.2 L -45.9,321.0 L -59.3,327.0 L -72.2,328.0 L -84.1,324.0 L -94.6,315.2 L -103.0,301.8 L -109.0,284.3 L -112.3,263.0 L -112.6,238.4 L -109.6,211.3 L -103.4,182.2 L -93.8,151.9 L -81.1,121.0 L -65.5,90.1 L -47.2,60.1 L -60.2,71.1 L -86.2,94.4 L -113.3,115.1 L -140.9,132.7 L -168.2,147.0 L -194.8,157.8 L -219.8,164.8 L -242.7,168.2 L -262.8,168.0 L -279.6,164.3 L -292.6,157.5 L -301.5,148.0 L -305.8,136.2 L -305.4,122.6 L -300.2,107.6 L -290.2,92.0 L -275.6,76.1 L -256.6,60.7 L -233.6,46.1 L -206.9,32.8 L -177.2,21.4 L -145.1,12.0 L -111.3,5.0 L -76.4,0.6 L -93.1,-2.8 L -127.5,-8.6 L -160.6,-16.8 L -191.6,-27.4 L -219.8,-39.8 L -244.8,-53.9 L -265.9,-69.1 L -282.8,-84.8 L -295.1,-100.7 L -302.8,-116.2 L -305.6,-130.6 L -303.7,-143.4 L -297.2,-154.1 L -286.2,-162.3 L -271.3,-167.6 L -252.9,-169.6 L -231.4,-168.0 L -207.4,-162.8 L -181.6,-153.9 L -154.7,-141.3 L -127.2,-125.3 L -99.9,-106.0 L -73.3,-83.9 L -48.1,-59.4 L -55.9,-74.5 L -72.8,-105.1 L -87.0,-136.1 L -98.1,-166.9 L -105.9,-196.7 L -110.5,-225.0 L -111.8,-250.9 L -110.0,-274.0 L -105.3,-293.6 L -98.0,-309.2 L -88.5,-320.3 L -77.3,-326.8 L -64.8,-328.4 L -51.5,-325.0 L -38.1,-316.6 L -25.1,-303.4 L -12.9,-285.6 L -2.0,-263.7 L 7.1,-237.9 L 14.0,-209.0 L 18.6,-177.5 L 20.6,-144.2 L 19.9,-109.6 L 16.4,-74.6 L 23.4,-90.1 L 36.7,-122.4 L 52.2,-152.8 L 69.3,-180.7 L 87.8,-205.5 L 107.0,-226.7 L 126.5,-243.9 L 145.6,-256.8 L 163.9,-265.3 L 180.6,-269.4 L 195.3,-268.9 L 207.4,-264.2 L 216.4,-255.4 L 222.0,-242.9 L 223.8,-227.2 L 221.6,-208.8 L 215.3,-188.2 L 204.9,-166.0 L 190.4,-142.8 L 172.2,-119.3 L 150.4,-96.1 L 125.6,-73.8 L 98.1,-52.8 L 68.6,-33.7 L 85.1,-37.9 L 118.6,-47.6 L 152.0,-54.5 L 184.5,-58.5 L 215.4,-59.5 L 243.9,-57.7 L 269.5,-53.1 L 291.6,-46.2 L 309.6,-37.3 L 323.2,-26.7 L 332.0,-15.0 L 335.8,-2.6 L 334.6,9.9 L 328.3,22.1 L 317.2,33.3 L 301.4,43.1 L 281.4,51.0 L 257.5,56.7 L 230.4,59.8 L 200.7,60.2 L 169.0,57.7 L 136.0,52.2 L 102.4,43.8 L 69.1,32.6 L 82.7,42.9 L 111.2,63.1 L 137.4,84.9 Z"/>
    </g>
    <circle cx="-230.3" cy="114.0" r="0.9" fill="#3498db" opacity="0.75"/>
    <circle cx="266.0" cy="-90.6" r="1.4" fill="#3498db" opacity="0.75"/>
    <circle cx="-111.9" cy="-42.9" r="1.7" fill="#3498db" opacity="0.75"/>
    <circle cx="10.3" cy="144.5" r="1.5" fill="#3498db" opacity="0.75"/>
    <circle cx="-165.6" cy="234.0" r="1.1" fill="#3498db" opacity="0.75"/>
    <circle cx="155.4" cy="-147.7" r="1.5" fill="#3498db" opacity="0.75"/>
    <circle cx="-179.2" cy="212.4" r="1.3" fill="#3498db" opacity="0.75"/>
    <circle cx="-45.1" cy="296.6" r="0.7" fill="#3498db" opacity="0.75"/>
    <circle cx="149.5" cy="-205.0" r="1.3" fill="#3498db" opacity="0.75"/>
    <circle cx="-141.9" cy="-30.0" r="1.6" fill="#3498db" opacity="0.75"/>
    <circle cx="-251.0" cy="-146.5" r="1.1" fill="#3498db" opacity="0.75"/>
    <circle cx="-53.4" cy="254.8" r="0.9" fill="#3498db" opacity="0.75"/>
    <circle cx="-153.6" cy="-224.2" r="0.7" fill="#3498db" opacity="0.75"/>
    <circle cx="222.4" cy="-195.9" r="1.1" fill="#3498db" opacity="0.75"/>
    <circle cx="181.3" cy="52.3" r="0.7" fill="#3498db" opacity="0.75"/>
    <circle cx="-110.7" cy="-14.5" r="1.1" fill="#3498db" opacity="0.75"/>
    <circle cx="134.2" cy="-27.4" r="0.6" fill="#3498db" opacity="0.75"/>
    <circle cx="-3.8" cy="106.3" r="1.0" fill="#3498db" opacity="0.75"/>
    <circle cx="-251.1" cy="-167.4" r="1.5" fill="#3498db" opacity="0.75"/>
    <circle cx="-207.0" cy="-99.3" r="1.7" fill="#3498db" opacity="0.75"/>
    <circle cx="31.9" cy="-157.0" r="1.0" fill="#3498db" opacity="0.75"/>
    <circle cx="34.4" cy="-94.8" r="1.3" fill="#3498db" opacity="0.75"/>
    <circle cx="238.7" cy="47.7" r="0.7" fill="#3498db" opacity="0.75"/>
    <circle cx="-63.1" cy="-96.6" r="1.0" fill="#3498db" opacity="0.75"/>
    <circle cx="81.0" cy="77.6" r="1.4" fill="#3498db" opacity="0.75"/>
    <circle cx="100.7" cy="-39.4" r="1.1" fill="#3498db" opacity="0.75"/>
    <circle cx="-50.8" cy="296.6" r="0.6" fill="#3498db" opacity="0.75"/>
    <circle cx="-177.0" cy="-111.4" r="0.9" fill="#3498db" opacity="0.75"/>
    <circle cx="-120.9" cy="80.0" r="1.7" fill="#3498db" opacity="0.75"/>
    <circle cx="-138.3" cy="-120.1" r="1.4" fill="#3498db" opacity="0.75"/>
    <circle cx="240.9" cy="-40.1" r="1.7" fill="#3498db" opacity="0.75"/>
    <circle cx="140.7" cy="-59.7" r="1.2" fill="#3498db" opacity="0.75"/>
    <circle cx="-60.3" cy="-133.4" r="0.8" fill="#3498db" opacity="0.75"/>
    <circle cx="-103.6" cy="208.0" r="1.6" fill="#3498db" opacity="0.75"/>
    <circle cx="67.0" cy="107.8" r="1.5" fill="#3498db" opacity="0.75"/>
    <circle cx="-118.7" cy="-190.7" r="0.9" fill="#3498db" opacity="0.75"/>
    <circle cx="96.2" cy="-119.3" r="0.9" fill="#3498db" opacity="0.75"/>
    <circle cx="232.4" cy="-27.7" r="0.7" fill="#3498db" opacity="0.75"/>
    <circle cx="-19.4" cy="285.7" r="1.4" fill="#3498db" opacity="0.75"/>
    <circle cx="148.5" cy="103.0" r="1.3" fill="#3498db" opacity="0.75"/>
    <circle cx="-84.8" cy="-83.8" r="1.4" fill="#3498db" opacity="0.75"/>
    <circle cx="146.8" cy="23.7" r="1.4" fill="#3498db" opacity="0.75"/>
    <circle cx="-155.6" cy="-163.2" r="1.3" fill="#3498db" opacity="0.75"/>
    <circle cx="208.8" cy="50.1" r="1.5" fill="#3498db" opacity="0.75"/>
    <circle cx="127.9" cy="-47.6" r="1.3" fill="#3498db" opacity="0.75"/>
    <circle cx="-277.2" cy="33.4" r="0.6" fill="#3498db" opacity="0.75"/>
    <circle cx="-134.0" cy="99.9" r="0.7" fill="#3498db" opacity="0.75"/>
    <circle cx="-216.6" cy="-7.7" r="1.3" fill="#3498db" opacity="0.75"/>
    <circle cx="0" cy="0" r="27" fill="#3498db" opacity="0.8"/>
  </g>
</svg>
