<svg xmlns="http://www.w3.org/2000/svg" width="800" height="800" viewBox="0 0 800 800" style="background:#0a0a0f">
  <radialGradient id="g-skill-0-0">
    <stop offset="0%" stop-color="#ffb74d" stop-opacity="0.75"/>
    <stop offset="100%" stop-color="#ffb74d" stop-opacity="0"/>
  </radialGradient>
  <radialGradient id="g-skill-0-1">
    <stop offset="0%" stop-color="#ffb74d" stop-opacity="0.72"/>
    <stop offset="100%" stop-color="#ffb74d" stop-opacity="0"/>
  </radialGradient>
  <radialGradient id="g-skill-0-2">
    <stop offset="0%" stop-color="#ffb74d" stop-opacity="0.70"/>
    <stop offset="100%" stop-color="#ffb74d" stop-opacity="0"/>
  </radialGradient>
  <radialGradient id="g-skill-0-3">
    <stop offset="0%" stop-color="#ffb74d" stop-opacity="0.68"/>
    <stop offset="100%" stop-color="#ffb74d" stop-opacity="0"/>
  </radialGradient>
  <radialGradient id="g-skill-1-0">
    <stop offset="0%" stop-color="#e040fb" stop-opacity="0.70"/>
    <stop offset="100%" stop-color="#e040fb" stop-opacity="0"/>
  </radialGradient>
  <radialGradient id="g-skill-1-1">
    <stop offset="0%" stop-color="#e040fb" stop-opacity="0.65"/>
    <stop offset="100%" stop-color="#e040fb" stop-opacity="0"/>
  </radialGradient>
  <radialGradient id="g-skill-1-2">
    <stop offset="0%" stop-color="#e040fb" stop-opacity="0.68"/>
    <stop offset="100%" stop-color="#e040fb" stop-opacity="0"/>
  </radialGradient>
  <radialGradient id="g-skill-1-3">
    <stop offset="0%" stop-color="#e040fb" stop-opacity="0.62"/>
    <stop offset="100%" stop-color="#e040fb" stop-opacity="0"/>
  </radialGradient>
  <radialGradient id="g-skill-2-0">
    <stop offset="0%" stop-color="#81c784" stop-opacity="0.74"/>
    <stop offset="100%" stop-color="#81c784" stop-opacity="0"/>
  </radialGradient>
  <radialGradient id="g-skill-2-1">
    <stop offset="0%" stop-color="#81c784" stop-opacity="0.71"/>
    <stop offset="100%" stop-color="#81c784" stop-opacity="0"/>
  </radialGradient>
  <radialGradient id="g-skill-2-2">
    <stop offset="0%" stop-color="#81c784" stop-opacity="0.65"/>
    <stop offset="100%" stop-color="#81c784" stop-opacity="0"/>
  </radialGradient>
  <radialGradient id="g-skill-2-3">
    <stop offset="0%" stop-color="#81c784" stop-opacity="0.69"/>
    <stop offset="100%" stop-color="#81c784" stop-opacity="0"/>
  </radialGradient>
  <radialGradient id="g-skill-2-4">
    <stop offset="0%" stop-color="#81c784" stop-opacity="0.66"/>
    <stop offset="100%" stop-color="#81c784" stop-opacity="0"/>
  </radialGradient>
  <radialGradient id="g-skill-3-0">
    <stop offset="0%" stop-color="#4fc3f7" stop-opacity="0.72"/>
    <stop offset="100%" stop-color="#4fc3f7" stop-opacity="0"/>
  </radialGradient>
  <radialGradient id="g-skill-3-1">
    <stop offset="0%" stop-color="#4fc3f7" stop-opacity="0.68"/>
    <stop offset="100%" stop-color="#4fc3f7" stop-opacity="0"/>
  </radialGradient>
  <radialGradient id="g-skill-3-2">
    <stop offset="0%" stop-color="#4fc3f7" stop-opacity="0.70"/>
    <stop offset="100%" stop-color="#4fc3f7" stop-opacity="0"/>
  </radialGradient>
  <radialGradient id="g-skill-3-3">
    <stop offset="0%" stop-color="#4fc3f7" stop-opacity="0.69"/>
    <stop offset="100%" stop-color="#4fc3f7" stop-opacity="0"/>
  </radialGradient>
  <radialGradient id="g-skill-4-0">
    <stop offset="0%" stop-color="#aed581" stop-opacity="0.75"/>
    <stop offset="100%" stop-color="#aed581" stop-opacity="0"/>
  </radialGradient>
  <radialGradient id="g-skill-4-1">
    <stop offset="0%" stop-color="#aed581" stop-opacity="0.72"/>
    <stop offset="100%" stop-color="#aed581" stop-opacity="0"/>
  </radialGradient>
  <radialGradient id="g-skill-4-2">
    <stop offset="0%" stop-color="#aed581" stop-opacity="0.66"/>
    <stop offset="100%" stop-color="#aed581" stop-opacity="0"/>
  </radialGradient>
  <radialGradient id="g-skill-4-3">
    <stop offset="0%" stop-color="#aed581" stop-opacity="0.65"/>
    <stop offset="100%" stop-color="#aed581" stop-opacity="0"/>
  </radialGradient>
  <radialGradient id="g-skill-4-4">
    <stop offset="0%" stop-color="#aed581" stop-opacity="0.64"/>
    <stop offset="100%" stop-color="#aed581" stop-opacity="0"/>
  </radialGradient>
  <radialGradient id="g-skill-5-0">
    <stop offset="0%" stop-color="#90a4ae" stop-opacity="0.47"/>
    <stop offset="100%" stop-color="#90a4ae" stop-opacity="0"/>
  </radialGradient>
  <radialGradient id="g-skill-5-1">
    <stop offset="0%" stop-color="#90a4ae" stop-opacity="0.55"/>
    <stop offset="100%" stop-color="#90a4ae" stop-opacity="0"/>
  </radialGradient>
  <radialGradient id="g-skill-5-2">
    <stop offset="0%" stop-color="#90a4ae" stop-opacity="0.42"/>
    <stop offset="100%" stop-color="#90a4ae" stop-opacity="0"/>
  </radialGradient>
  <radialGradient id="g-skill-5-3">
    <stop offset="0%" stop-color="#90a4ae" stop-opacity="0.40"/>
    <stop offset="100%" stop-color="#90a4ae" stop-opacity="0"/>
  </radialGradient>
  <g transform="translate(400.0,400.0)">
    <circle cx="-263" cy="227" r="0.8" fill="#fff" opacity="0.13"/>
    <circle cx="-329" cy="-46" r="0.7" fill="#fff" opacity="0.09"/>
    <circle cx="-296" cy="-216" r="0.7" fill="#fff" opacity="0.13"/>
    <circle cx="-153" cy="64" r="0.4" fill="#fff" opacity="0.10"/>
    <circle cx="-36" cy="109" r="0.5" fill="#fff" opacity="0.14"/>
    <circle cx="-264" cy="292" r="0.8" fill="#fff" opacity="0.11"/>
    <circle cx="-352" cy="335" r="0.5" fill="#fff" opacity="0.06"/>
    <circle cx="257" cy="-193" r="0.5" fill="#fff" opacity="0.06"/>
    <circle cx="-91" cy="8" r="0.4" fill="#fff" opacity="0.10"/>
    <circle cx="17" cy="-174" r="0.6" fill="#fff" opacity="0.10"/>
    <circle cx="-32" cy="222" r="0.4" fill="#fff" opacity="0.10"/>
    <circle cx="239" cy="-218" r="0.5" fill="#fff" opacity="0.05"/>
    <circle cx="165" cy="49" r="0.7" fill="#fff" opacity="0.08"/>
    <circle cx="-85" cy="54" r="0.5" fill="#fff" opacity="0.09"/>
    <circle cx="68" cy="-201" r="0.7" fill="#fff" opacity="0.11"/>
    <circle cx="240" cy="46" r="0.7" fill="#fff" opacity="0.07"/>
    <circle cx="314" cy="344" r="0.4" fill="#fff" opacity="0.13"/>
    <circle cx="141" cy="-65" r="0.2" fill="#fff" opacity="0.15"/>
    <circle cx="67" cy="313" r="0.7" fill="#fff" opacity="0.07"/>
    <circle cx="-79" cy="-389" r="0.6" fill="#fff" opacity="0.05"/>
    <circle cx="355" cy="266" r="0.7" fill="#fff" opacity="0.09"/>
    <circle cx="55" cy="-64" r="0.5" fill="#fff" opacity="0.11"/>
    <circle cx="320" cy="145" r="0.3" fill="#fff" opacity="0.07"/>
    <circle cx="-397" cy="65" r="0.5" fill="#fff" opacity="0.07"/>
    <circle cx="49" cy="119" r="0.6" fill="#fff" opacity="0.11"/>
    <circle cx="230" cy="-270" r="0.3" fill="#fff" opacity="0.11"/>
    <circle cx="-162" cy="339" r="0.2" fill="#fff" opacity="0.08"/>
    <circle cx="209" cy="181" r="0.4" fill="#fff" opacity="0.13"/>
    <circle cx="-328" cy="54" r="0.8" fill="#fff" opacity="0.07"/>
    <circle cx="-126" cy="-301" r="0.5" fill="#fff" opacity="0.07"/>
    <circle cx="50" cy="8" r="0.5" fill="#fff" opacity="0.13"/>
    <circle cx="-273" cy="-309" r="0.4" fill="#fff" opacity="0.14"/>
    <circle cx="-99" cy="-176" r="0.5" fill="#fff" opacity="0.14"/>
    <circle cx="-84" cy="-317" r="0.4" fill="#fff" opacity="0.07"/>
    <circle cx="194" cy="-84" r="0.7" fill="#fff" opacity="0.06"/>
    <circle cx="-385" cy="-359" r="0.7" fill="#fff" opacity="0.14"/>
    <circle cx="-161" cy="377" r="0.5" fill="#fff" opacity="0.14"/>
    <circle cx="-278" cy="-132" r="0.6" fill="#fff" opacity="0.07"/>
    <circle cx="311" cy="341" r="0.5" fill="#fff" opacity="0.11"/>
    <circle cx="108" cy="137" r="0.4" fill="#fff" opacity="0.08"/>
    <circle cx="140" cy="-288" r="0.7" fill="#fff" opacity="0.09"/>
    <circle cx="-74" cy="-313" r="0.6" fill="#fff" opacity="0.10"/>
    <circle cx="186" cy="-113" r="0.8" fill="#fff" opacity="0.10"/>
    <circle cx="42" cy="86" r="0.7" fill="#fff" opacity="0.07"/>
    <circle cx="188" cy="238" r="0.6" fill="#fff" opacity="0.08"/>
    <circle cx="336" cy="136" r="0.8" fill="#fff" opacity="0.12"/>
    <circle cx="-78" cy="196" r="0.5" fill="#fff" opacity="0.13"/>
    <circle cx="-179" cy="-295" r="0.5" fill="#fff" opacity="0.13"/>
    <circle cx="151" cy="336" r="0.4" fill="#fff" opacity="0.13"/>
    <circle cx="312" cy="-65" r="0.7" fill="#fff" opacity="0.05"/>
    <circle cx="-3" cy="-329" r="0.4" fill="#fff" opacity="0.08"/>
    <circle cx="78" cy="-146" r="0.5" fill="#fff" opacity="0.09"/>
    <circle cx="-12" cy="295" r="0.3" fill="#fff" opacity="0.07"/>
    <circle cx="-155" cy="-222" r="0.8" fill="#fff" opacity="0.08"/>
    <circle cx="-370" cy="-298" r="0.4" fill="#fff" opacity="0.06"/>
    <circle cx="-258" cy="-245" r="0.5" fill="#fff" opacity="0.14"/>
    <circle cx="-153" cy="245" r="0.7" fill="#fff" opacity="0.14"/>
    <circle cx="273" cy="-395" r="0.8" fill="#fff" opacity="0.13"/>
    <circle cx="274" cy="7" r="0.5" fill="#fff" opacity="0.08"/>
    <circle cx="373" cy="-22" r="0.4" fill="#fff" opacity="0.10"/>
    <circle cx="251" cy="-199" r="0.2" fill="#fff" opacity="0.12"/>
    <circle cx="114" cy="278" r="0.6" fill="#fff" opacity="0.14"/>
    <circle cx="-78" cy="-93" r="0.2" fill="#fff" opacity="0.10"/>
    <circle cx="-361" cy="126" r="0.6" fill="#fff" opacity="0.09"/>
    <circle cx="-96" cy="-372" r="0.3" fill="#fff" opacity="0.12"/>
    <circle cx="179" cy="-159" r="0.7" fill="#fff" opacity="0.08"/>
    <circle cx="359" cy="203" r="0.7" fill="#fff" opacity="0.13"/>
    <circle cx="-83" cy="-252" r="0.5" fill="#fff" opacity="0.15"/>
    <circle cx="-146" cy="-313" r="0.2" fill="#fff" opacity="0.07"/>
    <circle cx="302" cy="114" r="0.3" fill="#fff" opacity="0.10"/>
    <circle cx="58" cy="86" r="0.2" fill="#fff" opacity="0.07"/>
    <circle cx="8" cy="-108" r="0.7" fill="#fff" opacity="0.13"/>
    <circle cx="31" cy="-345" r="0.4" fill="#fff" opacity="0.05"/>
    <circle cx="180" cy="-287" r="0.4" fill="#fff" opacity="0.07"/>
    <circle cx="-92" cy="280" r="0.5" fill="#fff" opacity="0.06"/>
    <circle cx="11" cy="381" r="0.3" fill="#fff" opacity="0.14"/>
    <circle cx="-314" cy="145" r="0.7" fill="#fff" opacity="0.08"/>
    <circle cx="-323" cy="87" r="0.6" fill="#fff" opacity="0.10"/>
    <circle cx="284" cy="45" r="0.8" fill="#fff" opacity="0.11"/>
    <circle cx="268" cy="118" r="0.5" fill="#fff" opacity="0.12"/>
    <circle cx="357" cy="271" r="0.5" fill="#fff" opacity="0.11"/>
    <circle cx="-215" cy="94" r="0.5" fill="#fff" opacity="0.07"/>
    <circle cx="-274" cy="-316" r="0.6" fill="#fff" opacity="0.14"/>
    <circle cx="39" cy="68" r="0.7" fill="#fff" opacity="0.05"/>
    <circle cx="296" cy="-128" r="0.3" fill="#fff" opacity="0.06"/>
    <circle cx="-325" cy="-85" r="0.7" fill="#fff" opacity="0.08"/>
    <circle cx="-67" cy="-134" r="0.6" fill="#fff" opacity="0.08"/>
    <circle cx="360" cy="371" r="0.3" fill="#fff" opacity="0.05"/>
    <circle cx="-351" cy="-151" r="0.2" fill="#fff" opacity="0.05"/>
    <circle cx="-83" cy="345" r="0.6" fill="#fff" opacity="0.07"/>
    <circle cx="-30" cy="281" r="0.3" fill="#fff" opacity="0.12"/>
    <circle cx="366" cy="-164" r="0.4" fill="#fff" opacity="0.15"/>
    <circle cx="-225" cy="-323" r="0.2" fill="#fff" opacity="0.12"/>
    <circle cx="164" cy="-205" r="0.6" fill="#fff" opacity="0.11"/>
    <circle cx="252" cy="51" r="0.5" fill="#fff" opacity="0.07"/>
    <circle cx="-257" cy="-207" r="0.3" fill="#fff" opacity="0.11"/>
    <circle cx="-111" cy="356" r="0.5" fill="#fff" opacity="0.12"/>
    <circle cx="288" cy="274" r="0.4" fill="#fff" opacity="0.06"/>
    <circle cx="328" cy="147" r="0.2" fill="#fff" opacity="0.11"/>
    <circle cx="-104" cy="89" r="0.6" fill="#fff" opacity="0.08"/>
    <circle cx="-230" cy="162" r="0.6" fill="#fff" opacity="0.14"/>
    <circle cx="344" cy="-8" r="0.4" fill="#fff" opacity="0.06"/>
    <circle cx="-314" cy="-334" r="0.5" fill="#fff" opacity="0.11"/>
    <circle cx="215" cy="-201" r="0.3" fill="#fff" opacity="0.09"/>
    <circle cx="-76" cy="-15" r="0.7" fill="#fff" opacity="0.07"/>
    <circle cx="283" cy="156" r="0.5" fill="#fff" opacity="0.14"/>
    <circle cx="-261" cy="379" r="0.5" fill="#fff" opacity="0.05"/>
    <circle cx="-320" cy="-9" r="0.7" fill="#fff" opacity="0.07"/>
    <circle cx="25" cy="91" r="0.6" fill="#fff" opacity="0.09"/>
    <circle cx="-128" cy="196" r="0.4" fill="#fff" opacity="0.12"/>
    <circle cx="-62" cy="-222" r="0.6" fill="#fff" opacity="0.10"/>
    <circle cx="347" cy="-87" r="0.5" fill="#fff" opacity="0.12"/>
    <circle cx="396" cy="299" r="0.5" fill="#fff" opacity="0.13"/>
    <circle cx="-48" cy="333" r="0.2" fill="#fff" opacity="0.08"/>
    <circle cx="391" cy="52" r="0.2" fill="#fff" opacity="0.14"/>
    <circle cx="84" cy="-58" r="0.5" fill="#fff" opacity="0.06"/>
    <circle cx="66" cy="-283" r="0.6" fill="#fff" opacity="0.09"/>
    <circle cx="169" cy="-201" r="0.5" fill="#fff" opacity="0.14"/>
    <circle cx="-192" cy="-277" r="0.5" fill="#fff" opacity="0.08"/>
    <circle cx="-296" cy="56" r="0.3" fill="#fff" opacity="0.12"/>
    <circle cx="43" cy="-213" r="0.2" fill="#fff" opacity="0.09"/>
    <circle cx="-230" cy="239" r="0.2" fill="#fff" opacity="0.14"/>
    <circle cx="-256" cy="-249" r="0.4" fill="#fff" opacity="0.13"/>
    <circle cx="-69" cy="17" r="0.3" fill="#fff" opacity="0.07"/>
    <circle cx="-300" cy="-90" r="0.7" fill="#fff" opacity="0.15"/>
    <circle cx="238" cy="-374" r="0.8" fill="#fff" opacity="0.11"/>
    <circle cx="-185" cy="387" r="0.6" fill="#fff" opacity="0.13"/>
    <circle cx="-379" cy="-320" r="0.2" fill="#fff" opacity="0.08"/>
    <circle cx="-74" cy="-176" r="0.5" fill="#fff" opacity="0.06"/>
    <circle cx="-249" cy="207" r="0.3" fill="#fff" opacity="0.10"/>
    <circle cx="29" cy="311" r="0.5" fill="#fff" opacity="0.08"/>
    <circle cx="-21" cy="146" r="0.7" fill="#fff" opacity="0.05"/>
    <circle cx="278" cy="201" r="0.3" fill="#fff" opacity="0.11"/>
    <circle cx="45" cy="-294" r="0.7" fill="#fff" opacity="0.08"/>
    <circle cx="382" cy="-21" r="0.2" fill="#fff" opacity="0.07"/>
    <circle cx="-391" cy="-125" r="0.2" fill="#fff" opacity="0.13"/>
    <circle cx="-91" cy="223" r="0.7" fill="#fff" opacity="0.08"/>
    <circle cx="-350" cy="14" r="0.2" fill="#fff" opacity="0.11"/>
    <circle cx="-145" cy="227" r="0.2" fill="#fff" opacity="0.07"/>
    <circle cx="-314" cy="366" r="0.6" fill="#fff" opacity="0.08"/>
    <circle cx="-300" cy="147" r="0.5" fill="#fff" opacity="0.06"/>
    <circle cx="-174" cy="-273" r="0.7" fill="#fff" opacity="0.12"/>
    <circle cx="-23" cy="-339" r="0.7" fill="#fff" opacity="0.12"/>
    <circle cx="342" cy="379" r="0.6" fill="#fff" opacity="0.06"/>
    <circle cx="142" cy="264" r="0.7" fill="#fff" opacity="0.09"/>
    <circle cx="-204" cy="-167" r="0.6" fill="#fff" opacity="0.09"/>
    <circle cx="-161" cy="168" r="0.3" fill="#fff" opacity="0.08"/>
    <circle cx="255" cy="-162" r="0.6" fill="#fff" opacity="0.14"/>
    <circle cx="24" cy="79" r="0.6" fill="#fff" opacity="0.07"/>
    <circle cx="-57" cy="-109" r="0.7" fill="#fff" opacity="0.11"/>
    <circle cx="238" cy="-324" r="0.3" fill="#fff" opacity="0.09"/>
    <circle cx="-279" cy="-90" r="0.7" fill="#fff" opacity="0.06"/>
    <circle cx="-111" cy="382" r="0.3" fill="#fff" opacity="0.10"/>
    <circle cx="-48" cy="142" r="0.4" fill="#fff" opacity="0.07"/>
    <circle cx="-22" cy="225" r="0.7" fill="#fff" opacity="0.12"/>
    <circle cx="297" cy="59" r="0.6" fill="#fff" opacity="0.09"/>
    <circle cx="214" cy="120" r="0.5" fill="#fff" opacity="0.13"/>
    <circle cx="-108" cy="-204" r="0.7" fill="#fff" opacity="0.05"/>
    <circle cx="-170" cy="-366" r="0.5" fill="#fff" opacity="0.11"/>
    <circle cx="-355" cy="-176" r="0.3" fill="#fff" opacity="0.15"/>
    <circle cx="90" cy="-281" r="0.3" fill="#fff" opacity="0.09"/>
    <circle cx="-115" cy="336" r="0.6" fill="#fff" opacity="0.09"/>
    <circle cx="50" cy="18" r="0.7" fill="#fff" opacity="0.11"/>
    <circle cx="-122" cy="225" r="0.6" fill="#fff" opacity="0.06"/>
    <circle cx="199" cy="-23" r="0.4" fill="#fff" opacity="0.12"/>
    <circle cx="213" cy="-16" r="0.3" fill="#fff" opacity="0.12"/>
    <circle cx="-320" cy="80" r="0.2" fill="#fff" opacity="0.05"/>
    <circle cx="-34" cy="-236" r="0.8" fill="#fff" opacity="0.09"/>
    <circle cx="250" cy="-259" r="0.7" fill="#fff" opacity="0.11"/>
    <circle cx="111" cy="327" r="0.4" fill="#fff" opacity="0.07"/>
    <circle cx="-232" cy="-206" r="0.4" fill="#fff" opacity="0.05"/>
    <circle cx="379" cy="-296" r="0.3" fill="#fff" opacity="0.10"/>
    <circle cx="-88" cy="-4" r="0.5" fill="#fff" opacity="0.10"/>
    <circle cx="99" cy="122" r="0.5" fill="#fff" opacity="0.11"/>
    <circle cx="-89" cy="115" r="0.6" fill="#fff" opacity="0.06"/>
    <circle cx="319" cy="297" r="0.3" fill="#fff" opacity="0.15"/>
    <circle cx="349" cy="340" r="0.6" fill="#fff" opacity="0.11"/>
    <circle cx="79" cy="326" r="0.5" fill="#fff" opacity="0.14"/>
    <circle cx="264" cy="-257" r="0.2" fill="#fff" opacity="0.12"/>
    <circle cx="286" cy="-248" r="0.7" fill="#fff" opacity="0.05"/>
    <circle cx="-17" cy="242" r="0.4" fill="#fff" opacity="0.14"/>
    <circle cx="316" cy="5" r="0.2" fill="#fff" opacity="0.08"/>
    <circle cx="-304" cy="95" r="0.3" fill="#fff" opacity="0.13"/>
    <circle cx="-278" cy="168" r="0.6" fill="#fff" opacity="0.06"/>
    <circle cx="-211" cy="22" r="0.3" fill="#fff" opacity="0.08"/>
    <circle cx="-107" cy="300" r="0.8" fill="#fff" opacity="0.11"/>
    <circle cx="-76" cy="25" r="0.6" fill="#fff" opacity="0.07"/>
    <circle cx="-374" cy="83" r="0.6" fill="#fff" opacity="0.12"/>
    <circle cx="19" cy="-394" r="0.7" fill="#fff" opacity="0.14"/>
    <circle cx="-72" cy="399" r="0.3" fill="#fff" opacity="0.10"/>
    <circle cx="-36" cy="-236" r="0.6" fill="#fff" opacity="0.12"/>
    <circle cx="320" cy="123" r="0.6" fill="#fff" opacity="0.13"/>
    <circle cx="181" cy="-18" r="0.3" fill="#fff" opacity="0.08"/>
    <circle cx="86" cy="50" r="0.6" fill="#fff" opacity="0.12"/>
    <circle cx="-365" cy="252" r="0.7" fill="#fff" opacity="0.14"/>
    <circle cx="213" cy="177" r="0.6" fill="#fff" opacity="0.08"/>
    <circle cx="326" cy="75" r="0.5" fill="#fff" opacity="0.13"/>
    <circle cx="-34" cy="-291" r="0.2" fill="#fff" opacity="0.09"/>
    <circle cx="17" cy="130" r="0.6" fill="#fff" opacity="0.10"/>
    <circle cx="-162" cy="-310" r="0.5" fill="#fff" opacity="0.14"/>
    <text x="0" y="-350" fill="#ffb74d" font-size="10" font-family="'Helvetica Neue', Arial, sans-serif" text-anchor="middle" opacity="0.4" letter-spacing="2">Investment</text>
    <text x="303" y="-175" fill="#e040fb" font-size="10" font-family="'Helvetica Neue', Arial, sans-serif" text-anchor="middle" opacity="0.4" letter-spacing="2">Cognition</text>
    <text x="303" y="175" fill="#81c784" font-size="10" font-family="'Helvetica Neue', Arial, sans-serif" text-anchor="middle" opacity="0.4" letter-spacing="2">Creation</text>
    <text x="0" y="350" fill="#4fc3f7" font-size="10" font-family="'Helvetica Neue', Arial, sans-serif" text-anchor="middle" opacity="0.4" letter-spacing="2">Research</text>
    <text x="-303" y="175" fill="#aed581" font-size="10" font-family="'Helvetica Neue', Arial, sans-serif" text-anchor="middle" opacity="0.4" letter-spacing="2">Platform</text>
    <text x="-303" y="-175" fill="#90a4ae" font-size="10" font-family="'Helvetica Neue', Arial, sans-serif" text-anchor="middle" opacity="0.4" letter-spacing="2">Pipeline</text>
    <circle cx="-73" cy="-210" r="15" fill="url(#g-skill-0-0)"/>
    <circle cx="-73" cy="-210" r="3.7" fill="#fff" opacity="0.75"/>
    <circle cx="-73" cy="-210" r="2.6" fill="#ffb74d" opacity="0.38"/>
    <text x="-73" y="-194" fill="#ffb74d" font-size="6" font-family="'Helvetica Neue', Arial, sans-serif" text-anchor="middle" opacity="0.3">Hedge Fund</text>
    <circle cx="-35" cy="-210" r="14" fill="url(#g-skill-0-1)"/>
    <circle cx="-35" cy="-210" r="3.5" fill="#fff" opacity="0.72"/>
    <circle cx="-35" cy="-210" r="2.5" fill="#ffb74d" opacity="0.36"/>
    <text x="-35" y="-195" fill="#ffb74d" font-size="6" font-family="'Helvetica Neue', Arial, sans-serif" text-anchor="middle" opacity="0.3">Undervalued Hunter</text>
    <circle cx="0" cy="-204" r="14" fill="url(#g-skill-0-2)"/>
    <circle cx="0" cy="-204" r="3.4" fill="#fff" opacity="0.70"/>
    <circle cx="0" cy="-204" r="2.4" fill="#ffb74d" opacity="0.35"/>
    <text x="0" y="-189" fill="#ffb74d" font-size="6" font-family="'Helvetica Neue', Arial, sans-serif" text-anchor="middle" opacity="0.3">Strong Stock Hunter</text>
    <circle cx="30" cy="-193" r="13" fill="url(#g-skill-0-3)"/>
    <circle cx="30" cy="-193" r="3.2" fill="#fff" opacity="0.68"/>
    <circle cx="30" cy="-193" r="2.3" fill="#ffb74d" opacity="0.34"/>
    <text x="30" y="-177" fill="#ffb74d" font-size="6" font-family="'Helvetica Neue', Arial, sans-serif" text-anchor="middle" opacity="0.3">Batch Scorer</text>
    <circle cx="136" cy="-152" r="14" fill="url(#g-skill-1-0)"/>
    <circle cx="136" cy="-152" r="3.4" fill="#fff" opacity="0.70"/>
    <circle cx="136" cy="-152" r="2.4" fill="#e040fb" opacity="0.35"/>
    <text x="136" y="-137" fill="#e040fb" font-size="6" font-family="'Helvetica Neue', Arial, sans-serif" text-anchor="middle" opacity="0.3">Self Evolve</text>
    <circle cx="145" cy="-116" r="12" fill="url(#g-skill-1-1)"/>
    <circle cx="145" cy="-116" r="3.1" fill="#fff" opacity="0.65"/>
    <circle cx="145" cy="-116" r="2.2" fill="#e040fb" opacity="0.32"/>
    <circle cx="169" cy="-97" r="13" fill="url(#g-skill-1-2)"/>
    <circle cx="169" cy="-97" r="3.2" fill="#fff" opacity="0.68"/>
    <circle cx="169" cy="-97" r="2.3" fill="#e040fb" opacity="0.34"/>
    <text x="169" y="-82" fill="#e040fb" font-size="6" font-family="'Helvetica Neue', Arial, sans-serif" text-anchor="middle" opacity="0.3">Triple Reflection</text>
    <circle cx="165" cy="-65" r="12" fill="url(#g-skill-1-3)"/>
    <circle cx="165" cy="-65" r="3.0" fill="#fff" opacity="0.62"/>
    <circle cx="165" cy="-65" r="2.1" fill="#e040fb" opacity="0.31"/>
    <circle cx="214" cy="42" r="15" fill="url(#g-skill-2-0)"/>
    <circle cx="214" cy="42" r="3.6" fill="#fff" opacity="0.74"/>
    <circle cx="214" cy="42" r="2.5" fill="#81c784" opacity="0.37"/>
    <text x="214" y="57" fill="#81c784" font-size="6" font-family="'Helvetica Neue', Arial, sans-serif" text-anchor="middle" opacity="0.3">Skill Craft</text>
    <circle cx="196" cy="67" r="14" fill="url(#g-skill-2-1)"/>
    <circle cx="196" cy="67" r="3.5" fill="#fff" opacity="0.71"/>
    <circle cx="196" cy="67" r="2.4" fill="#81c784" opacity="0.35"/>
    <text x="196" y="83" fill="#81c784" font-size="6" font-family="'Helvetica Neue', Arial, sans-serif" text-anchor="middle" opacity="0.3">Skill Creator</text>
    <circle cx="166" cy="83" r="12" fill="url(#g-skill-2-2)"/>
    <circle cx="166" cy="83" r="3.1" fill="#fff" opacity="0.65"/>
    <circle cx="166" cy="83" r="2.2" fill="#81c784" opacity="0.32"/>
    <circle cx="167" cy="111" r="13" fill="url(#g-skill-2-3)"/>
    <circle cx="167" cy="111" r="3.3" fill="#fff" opacity="0.69"/>
    <circle cx="167" cy="111" r="2.3" fill="#81c784" opacity="0.34"/>
    <text x="167" y="126" fill="#81c784" font-size="6" font-family="'Helvetica Neue', Arial, sans-serif" text-anchor="middle" opacity="0.3">Orchestrator</text>
    <circle cx="144" cy="123" r="13" fill="url(#g-skill-2-4)"/>
    <circle cx="144" cy="123" r="3.2" fill="#fff" opacity="0.66"/>
    <circle cx="144" cy="123" r="2.2" fill="#81c784" opacity="0.33"/>
    <text x="144" y="139" fill="#81c784" font-size="6" font-family="'Helvetica Neue', Arial, sans-serif" text-anchor="middle" opacity="0.3">Memory Distiller</text>
    <circle cx="69" cy="202" r="14" fill="url(#g-skill-3-0)"/>
    <circle cx="69" cy="202" r="3.5" fill="#fff" opacity="0.72"/>
    <circle cx="69" cy="202" r="2.5" fill="#4fc3f7" opacity="0.36"/>
    <text x="69" y="217" fill="#4fc3f7" font-size="6" font-family="'Helvetica Neue', Arial, sans-serif" text-anchor="middle" opacity="0.3">EN Report</text>
    <circle cx="30" cy="193" r="13" fill="url(#g-skill-3-1)"/>
    <circle cx="30" cy="193" r="3.2" fill="#fff" opacity="0.68"/>
    <circle cx="30" cy="193" r="2.3" fill="#4fc3f7" opacity="0.34"/>
    <text x="30" y="208" fill="#4fc3f7" font-size="6" font-family="'Helvetica Neue', Arial, sans-serif" text-anchor="middle" opacity="0.3">Deep Research</text>
    <circle cx="0" cy="204" r="14" fill="url(#g-skill-3-2)"/>
    <circle cx="0" cy="204" r="3.4" fill="#fff" opacity="0.70"/>
    <circle cx="0" cy="204" r="2.4" fill="#4fc3f7" opacity="0.35"/>
    <text x="0" y="219" fill="#4fc3f7" font-size="6" font-family="'Helvetica Neue', Arial, sans-serif" text-anchor="middle" opacity="0.3">Multi-Agent</text>
    <circle cx="-32" cy="198" r="13" fill="url(#g-skill-3-3)"/>
    <circle cx="-32" cy="198" r="3.3" fill="#fff" opacity="0.69"/>
    <circle cx="-32" cy="198" r="2.3" fill="#4fc3f7" opacity="0.34"/>
    <text x="-32" y="213" fill="#4fc3f7" font-size="6" font-family="'Helvetica Neue', Arial, sans-serif" text-anchor="middle" opacity="0.3">Domain Expert</text>
    <circle cx="-145" cy="168" r="15" fill="url(#g-skill-4-0)"/>
    <circle cx="-145" cy="168" r="3.7" fill="#fff" opacity="0.75"/>
    <circle cx="-145" cy="168" r="2.6" fill="#aed581" opacity="0.38"/>
    <text x="-145" y="184" fill="#aed581" font-size="6" font-family="'Helvetica Neue', Arial, sans-serif" text-anchor="middle" opacity="0.3">KB Operations</text>
    <circle cx="-160" cy="140" r="14" fill="url(#g-skill-4-1)"/>
    <circle cx="-160" cy="140" r="3.5" fill="#fff" opacity="0.72"/>
    <circle cx="-160" cy="140" r="2.5" fill="#aed581" opacity="0.36"/>
    <text x="-160" y="156" fill="#aed581" font-size="6" font-family="'Helvetica Neue', Arial, sans-serif" text-anchor="middle" opacity="0.3">Note Management</text>
    <circle cx="-158" cy="105" r="13" fill="url(#g-skill-4-2)"/>
    <circle cx="-158" cy="105" r="3.2" fill="#fff" opacity="0.66"/>
    <circle cx="-158" cy="105" r="2.2" fill="#aed581" opacity="0.33"/>
    <text x="-158" y="120" fill="#aed581" font-size="6" font-family="'Helvetica Neue', Arial, sans-serif" text-anchor="middle" opacity="0.3">KB Audit</text>
    <circle cx="-166" cy="83" r="12" fill="url(#g-skill-4-3)"/>
    <circle cx="-166" cy="83" r="3.1" fill="#fff" opacity="0.65"/>
    <circle cx="-166" cy="83" r="2.2" fill="#aed581" opacity="0.32"/>
    <circle cx="-172" cy="61" r="12" fill="url(#g-skill-4-4)"/>
    <circle cx="-172" cy="61" r="3.0" fill="#fff" opacity="0.64"/>
    <circle cx="-172" cy="61" r="2.1" fill="#aed581" opacity="0.32"/>
    <circle cx="-119" cy="-33" r="8" fill="url(#g-skill-5-0)"/>
    <circle cx="-119" cy="-33" r="2.0" fill="#fff" opacity="0.47"/>
    <circle cx="-119" cy="-33" r="1.4" fill="#90a4ae" opacity="0.24"/>
    <circle cx="-139" cy="-56" r="10" fill="url(#g-skill-5-1)"/>
    <circle cx="-139" cy="-56" r="2.5" fill="#fff" opacity="0.55"/>
    <circle cx="-139" cy="-56" r="1.8" fill="#90a4ae" opacity="0.28"/>
    <circle cx="-91" cy="-52" r="7" fill="url(#g-skill-5-2)"/>
    <circle cx="-91" cy="-52" r="1.8" fill="#fff" opacity="0.42"/>
    <circle cx="-91" cy="-52" r="1.2" fill="#90a4ae" opacity="0.21"/>
    <circle cx="-77" cy="-57" r="6" fill="url(#g-skill-5-3)"/>
    <circle cx="-77" cy="-57" r="1.6" fill="#fff" opacity="0.40"/>
    <circle cx="-77" cy="-57" r="1.1" fill="#90a4ae" opacity="0.20"/>
    <circle cx="0" cy="0" r="30" fill="none" stroke="#e040fb" stroke-width="0.5" opacity="0.15"/>
  </g>
</svg>
