<svg xmlns="http://www.w3.org/2000/svg" width="800" height="800" viewBox="0 0 800 800" style="background:#0a0a0f">
  <radialGradient id="g-skill-0-0">
    <stop offset="0%" stop-color="#ffb74d" stop-opacity="0.75"/>
    <stop offset="100%" stop-color="#ffb74d" stop-opacity="0"/>
  </radialGradient>
  <radialGradient id="g-skill-0-1">
    <stop offset="0%" stop-color="#ffb74d" stop-opacity="0.72"/>
    <stop offset="100%" stop-color="#ffb74d" stop-opacity="0"/>
  </radialGradient>
  <radialGradient id="g-skill-0-2">
    <stop offset="0%" stop-color="#ffb74d" stop-opacity="0.70"/>
    <stop offset="100%" stop-color="#ffb74d" stop-opacity="0"/>
  </radialGradient>
  <radialGradient id="g-skill-0-3">
    <stop offset="0%" stop-color="#ffb74d" stop-opacity="0.68"/>
    <stop offset="100%" stop-color="#ffb74d" stop-opacity="0"/>
  </radialGradient>
  <radialGradient id="g-skill-1-0">
    <stop offset="0%" stop-color="#e040fb" stop-opacity="0.70"/>
    <stop offset="100%" stop-color="#e040fb" stop-opacity="0"/>
  </radialGradient>
  <radialGradient id="g-skill-1-1">
    <stop offset="0%" stop-color="#e040fb" stop-opacity="0.65"/>
    <stop offset="100%" stop-color="#e040fb" stop-opacity="0"/>
  </radialGradient>
  <radialGradient id="g-skill-1-2">
    <stop offset="0%" stop-color="#e040fb" stop-opacity="0.68"/>
    <stop offset="100%" stop-color="#e040fb" stop-opacity="0"/>
  </radialGradient>
  <radialGradient id="g-skill-1-3">
    <stop offset="0%" stop-color="#e040fb" stop-opacity="0.62"/>
    <stop offset="100%" stop-color="#e040fb" stop-opacity="0"/>
  </radialGradient>
  <radialGradient id="g-skill-2-0">
    <stop offset="0%" stop-color="#81c784" stop-opacity="0.74"/>
    <stop offset="100%" stop-color="#81c784" stop-opacity="0"/>
  </radialGradient>
  <radialGradient id="g-skill-2-1">
    <stop offset="0%" stop-color="#81c784" stop-opacity="0.71"/>
    <stop offset="100%" stop-color="#81c784" stop-opacity="0"/>
  </radialGradient>
  <radialGradient id="g-skill-2-2">
    <stop offset="0%" stop-color="#81c784" stop-opacity="0.65"/>
    <stop offset="100%" stop-color="#81c784" stop-opacity="0"/>
  </radialGradient>
  <radialGradient id="g-skill-2-3">
    <stop offset="0%" stop-color="#81c784" stop-opacity="0.69"/>
    <stop offset="100%" stop-color="#81c784" stop-opacity="0"/>
  </radialGradient>
  <radialGradient id="g-skill-2-4">
    <stop offset="0%" stop-color="#81c784" stop-opacity="0.66"/>
    <stop offset="100%" stop-color="#81c784" stop-opacity="0"/>
  </radialGradient>
  <radialGradient id="g-skill-3-0">
    <stop offset="0%" stop-color="#4fc3f7" stop-opacity="0.72"/>
    <stop offset="100%" stop-color="#4fc3f7" stop-opacity="0"/>
  </radialGradient>
  <radialGradient id="g-skill-3-1">
    <stop offset="0%" stop-color="#4fc3f7" stop-opacity="0.68"/>
    <stop offset="100%" stop-color="#4fc3f7" stop-opacity="0"/>
  </radialGradient>
  <radialGradient id="g-skill-3-2">
    <stop offset="0%" stop-color="#4fc3f7" stop-opacity="0.70"/>
    <stop offset="100%" stop-color="#4fc3f7" stop-opacity="0"/>
  </radialGradient>
  <radialGradient id="g-skill-3-3">
    <stop offset="0%" stop-color="#4fc3f7" stop-opacity="0.69"/>
    <stop offset="100%" stop-color="#4fc3f7" stop-opacity="0"/>
  </radialGradient>
  <radialGradient id="g-skill-4-0">
    <stop offset="0%" stop-color="#aed581" stop-opacity="0.75"/>
    <stop offset="100%" stop-color="#aed581" stop-opacity="0"/>
  </radialGradient>
  <radialGradient id="g-skill-4-1">
    <stop offset="0%" stop-color="#aed581" stop-opacity="0.72"/>
    <stop offset="100%" stop-color="#aed581" stop-opacity="0"/>
  </radialGradient>
  <radialGradient id="g-skill-4-2">
    <stop offset="0%" stop-color="#aed581" stop-opacity="0.66"/>
    <stop offset="100%" stop-color="#aed581" stop-opacity="0"/>
  </radialGradient>
  <radialGradient id="g-skill-4-3">
    <stop offset="0%" stop-color="#aed581" stop-opacity="0.65"/>
    <stop offset="100%" stop-color="#aed581" stop-opacity="0"/>
  </radialGradient>
  <radialGradient id="g-skill-4-4">
    <stop offset="0%" stop-color="#aed581" stop-opacity="0.64"/>
    <stop offset="100%" stop-color="#aed581" stop-opacity="0"/>
  </radialGradient>
  <radialGradient id="g-skill-5-0">
    <stop offset="0%" stop-color="#90a4ae" stop-opacity="0.47"/>
    <stop offset="100%" stop-color="#90a4ae" stop-opacity="0"/>
  </radialGradient>
  <radialGradient id="g-skill-5-1">
    <stop offset="0%" stop-color="#90a4ae" stop-opacity="0.55"/>
    <stop offset="100%" stop-color="#90a4ae" stop-opacity="0"/>
  </radialGradient>
  <radialGradient id="g-skill-5-2">
    <stop offset="0%" stop-color="#90a4ae" stop-opacity="0.42"/>
    <stop offset="100%" stop-color="#90a4ae" stop-opacity="0"/>
  </radialGradient>
  <radialGradient id="g-skill-5-3">
    <stop offset="0%" stop-color="#90a4ae" stop-opacity="0.40"/>
    <stop offset="100%" stop-color="#90a4ae" stop-opacity="0"/>
  </radialGradient>
  <g transform="translate(400.0,400.0)">
    <circle cx="399" cy="203" r="0.3" fill="#fff" opacity="0.09"/>
    <circle cx="166" cy="-219" r="0.3" fill="#fff" opacity="0.11"/>
    <circle cx="89" cy="234" r="0.6" fill="#fff" opacity="0.12"/>
    <circle cx="219" cy="-178" r="0.3" fill="#fff" opacity="0.05"/>
    <circle cx="-245" cy="-214" r="0.6" fill="#fff" opacity="0.08"/>
    <circle cx="-249" cy="-26" r="0.4" fill="#fff" opacity="0.13"/>
    <circle cx="-258" cy="304" r="0.3" fill="#fff" opacity="0.15"/>
    <circle cx="360" cy="-300" r="0.7" fill="#fff" opacity="0.06"/>
    <circle cx="293" cy="91" r="0.6" fill="#fff" opacity="0.14"/>
    <circle cx="287" cy="177" r="0.8" fill="#fff" opacity="0.12"/>
    <circle cx="-135" cy="92" r="0.8" fill="#fff" opacity="0.12"/>
    <circle cx="-288" cy="-198" r="0.3" fill="#fff" opacity="0.14"/>
    <circle cx="-290" cy="354" r="0.6" fill="#fff" opacity="0.05"/>
    <circle cx="-361" cy="324" r="0.5" fill="#fff" opacity="0.14"/>
    <circle cx="337" cy="-327" r="0.7" fill="#fff" opacity="0.08"/>
    <circle cx="242" cy="178" r="0.3" fill="#fff" opacity="0.05"/>
    <circle cx="-355" cy="-367" r="0.5" fill="#fff" opacity="0.10"/>
    <circle cx="-0" cy="359" r="0.4" fill="#fff" opacity="0.09"/>
    <circle cx="285" cy="-397" r="0.5" fill="#fff" opacity="0.06"/>
    <circle cx="-365" cy="4" r="0.3" fill="#fff" opacity="0.05"/>
    <circle cx="-361" cy="-46" r="0.4" fill="#fff" opacity="0.12"/>
    <circle cx="-72" cy="-137" r="0.4" fill="#fff" opacity="0.07"/>
    <circle cx="340" cy="-167" r="0.5" fill="#fff" opacity="0.09"/>
    <circle cx="64" cy="-306" r="0.6" fill="#fff" opacity="0.11"/>
    <circle cx="-159" cy="235" r="0.3" fill="#fff" opacity="0.14"/>
    <circle cx="240" cy="-393" r="0.3" fill="#fff" opacity="0.10"/>
    <circle cx="6" cy="-50" r="0.4" fill="#fff" opacity="0.09"/>
    <circle cx="-214" cy="106" r="0.4" fill="#fff" opacity="0.14"/>
    <circle cx="-146" cy="-305" r="0.6" fill="#fff" opacity="0.10"/>
    <circle cx="68" cy="-357" r="0.7" fill="#fff" opacity="0.13"/>
    <circle cx="-224" cy="195" r="0.4" fill="#fff" opacity="0.11"/>
    <circle cx="-20" cy="-395" r="0.7" fill="#fff" opacity="0.15"/>
    <circle cx="-29" cy="268" r="0.6" fill="#fff" opacity="0.09"/>
    <circle cx="133" cy="31" r="0.8" fill="#fff" opacity="0.14"/>
    <circle cx="380" cy="-188" r="0.8" fill="#fff" opacity="0.11"/>
    <circle cx="147" cy="-392" r="0.6" fill="#fff" opacity="0.13"/>
    <circle cx="249" cy="197" r="0.4" fill="#fff" opacity="0.14"/>
    <circle cx="-21" cy="-346" r="0.4" fill="#fff" opacity="0.11"/>
    <circle cx="301" cy="351" r="0.6" fill="#fff" opacity="0.08"/>
    <circle cx="-238" cy="33" r="0.5" fill="#fff" opacity="0.11"/>
    <circle cx="-212" cy="90" r="0.4" fill="#fff" opacity="0.11"/>
    <circle cx="21" cy="234" r="0.4" fill="#fff" opacity="0.06"/>
    <circle cx="178" cy="386" r="0.6" fill="#fff" opacity="0.15"/>
    <circle cx="370" cy="-14" r="0.3" fill="#fff" opacity="0.10"/>
    <circle cx="-182" cy="12" r="0.4" fill="#fff" opacity="0.07"/>
    <circle cx="-278" cy="-296" r="0.4" fill="#fff" opacity="0.08"/>
    <circle cx="223" cy="-193" r="0.3" fill="#fff" opacity="0.14"/>
    <circle cx="-33" cy="-353" r="0.5" fill="#fff" opacity="0.10"/>
    <circle cx="-204" cy="196" r="0.6" fill="#fff" opacity="0.13"/>
    <circle cx="130" cy="265" r="0.5" fill="#fff" opacity="0.08"/>
    <circle cx="369" cy="-181" r="0.7" fill="#fff" opacity="0.07"/>
    <circle cx="-334" cy="369" r="0.4" fill="#fff" opacity="0.11"/>
    <circle cx="-41" cy="-384" r="0.5" fill="#fff" opacity="0.10"/>
    <circle cx="-317" cy="340" r="0.6" fill="#fff" opacity="0.10"/>
    <circle cx="161" cy="-74" r="0.6" fill="#fff" opacity="0.06"/>
    <circle cx="-37" cy="-102" r="0.7" fill="#fff" opacity="0.07"/>
    <circle cx="-26" cy="-250" r="0.6" fill="#fff" opacity="0.15"/>
    <circle cx="52" cy="114" r="0.7" fill="#fff" opacity="0.07"/>
    <circle cx="140" cy="297" r="0.6" fill="#fff" opacity="0.10"/>
    <circle cx="74" cy="-304" r="0.8" fill="#fff" opacity="0.11"/>
    <circle cx="-252" cy="-148" r="0.4" fill="#fff" opacity="0.12"/>
    <circle cx="-384" cy="-348" r="0.2" fill="#fff" opacity="0.06"/>
    <circle cx="-7" cy="221" r="0.7" fill="#fff" opacity="0.10"/>
    <circle cx="90" cy="315" r="0.2" fill="#fff" opacity="0.05"/>
    <circle cx="255" cy="-169" r="0.3" fill="#fff" opacity="0.14"/>
    <circle cx="214" cy="-84" r="0.5" fill="#fff" opacity="0.12"/>
    <circle cx="-6" cy="211" r="0.5" fill="#fff" opacity="0.06"/>
    <circle cx="-217" cy="-377" r="0.4" fill="#fff" opacity="0.07"/>
    <circle cx="129" cy="54" r="0.2" fill="#fff" opacity="0.10"/>
    <circle cx="-42" cy="380" r="0.6" fill="#fff" opacity="0.13"/>
    <circle cx="-174" cy="-126" r="0.4" fill="#fff" opacity="0.11"/>
    <circle cx="-131" cy="-314" r="0.5" fill="#fff" opacity="0.15"/>
    <circle cx="332" cy="-346" r="0.4" fill="#fff" opacity="0.15"/>
    <circle cx="31" cy="-138" r="0.2" fill="#fff" opacity="0.13"/>
    <circle cx="232" cy="-267" r="0.4" fill="#fff" opacity="0.11"/>
    <circle cx="336" cy="103" r="0.5" fill="#fff" opacity="0.14"/>
    <circle cx="-317" cy="-296" r="0.5" fill="#fff" opacity="0.14"/>
    <circle cx="278" cy="295" r="0.3" fill="#fff" opacity="0.12"/>
    <circle cx="-344" cy="363" r="0.4" fill="#fff" opacity="0.13"/>
    <circle cx="227" cy="279" r="0.7" fill="#fff" opacity="0.14"/>
    <circle cx="-157" cy="-229" r="0.7" fill="#fff" opacity="0.09"/>
    <circle cx="48" cy="-333" r="0.4" fill="#fff" opacity="0.08"/>
    <circle cx="40" cy="199" r="0.4" fill="#fff" opacity="0.10"/>
    <circle cx="-86" cy="296" r="0.7" fill="#fff" opacity="0.05"/>
    <circle cx="-128" cy="-140" r="0.7" fill="#fff" opacity="0.06"/>
    <circle cx="-158" cy="298" r="0.3" fill="#fff" opacity="0.14"/>
    <circle cx="201" cy="239" r="0.3" fill="#fff" opacity="0.11"/>
    <circle cx="41" cy="188" r="0.5" fill="#fff" opacity="0.13"/>
    <circle cx="-173" cy="2" r="0.5" fill="#fff" opacity="0.05"/>
    <circle cx="-71" cy="85" r="0.6" fill="#fff" opacity="0.07"/>
    <circle cx="-332" cy="173" r="0.7" fill="#fff" opacity="0.10"/>
    <circle cx="-395" cy="135" r="0.5" fill="#fff" opacity="0.15"/>
    <circle cx="-138" cy="-286" r="0.3" fill="#fff" opacity="0.14"/>
    <circle cx="-40" cy="64" r="0.3" fill="#fff" opacity="0.11"/>
    <circle cx="-67" cy="28" r="0.6" fill="#fff" opacity="0.09"/>
    <circle cx="-287" cy="-114" r="0.4" fill="#fff" opacity="0.13"/>
    <circle cx="-189" cy="17" r="0.4" fill="#fff" opacity="0.07"/>
    <circle cx="-310" cy="123" r="0.4" fill="#fff" opacity="0.13"/>
    <circle cx="-156" cy="-98" r="0.4" fill="#fff" opacity="0.05"/>
    <circle cx="-212" cy="235" r="0.2" fill="#fff" opacity="0.09"/>
    <circle cx="-394" cy="-106" r="0.4" fill="#fff" opacity="0.09"/>
    <circle cx="97" cy="-112" r="0.3" fill="#fff" opacity="0.12"/>
    <circle cx="88" cy="110" r="0.3" fill="#fff" opacity="0.07"/>
    <circle cx="-213" cy="256" r="0.4" fill="#fff" opacity="0.08"/>
    <circle cx="-309" cy="188" r="0.7" fill="#fff" opacity="0.07"/>
    <circle cx="-322" cy="339" r="0.5" fill="#fff" opacity="0.08"/>
    <circle cx="-372" cy="118" r="0.8" fill="#fff" opacity="0.11"/>
    <circle cx="41" cy="-393" r="0.7" fill="#fff" opacity="0.10"/>
    <circle cx="12" cy="-152" r="0.6" fill="#fff" opacity="0.10"/>
    <circle cx="-202" cy="65" r="0.6" fill="#fff" opacity="0.12"/>
    <circle cx="-249" cy="-243" r="0.6" fill="#fff" opacity="0.11"/>
    <circle cx="23" cy="-385" r="0.7" fill="#fff" opacity="0.13"/>
    <circle cx="-139" cy="-352" r="0.4" fill="#fff" opacity="0.11"/>
    <circle cx="242" cy="-192" r="0.5" fill="#fff" opacity="0.12"/>
    <circle cx="-195" cy="47" r="0.4" fill="#fff" opacity="0.14"/>
    <circle cx="-369" cy="-33" r="0.2" fill="#fff" opacity="0.11"/>
    <circle cx="385" cy="276" r="0.6" fill="#fff" opacity="0.07"/>
    <circle cx="301" cy="92" r="0.8" fill="#fff" opacity="0.15"/>
    <circle cx="-211" cy="-395" r="0.3" fill="#fff" opacity="0.06"/>
    <circle cx="-78" cy="-201" r="0.7" fill="#fff" opacity="0.06"/>
    <circle cx="-131" cy="240" r="0.6" fill="#fff" opacity="0.06"/>
    <circle cx="-349" cy="355" r="0.5" fill="#fff" opacity="0.11"/>
    <circle cx="22" cy="-61" r="0.5" fill="#fff" opacity="0.13"/>
    <circle cx="-29" cy="370" r="0.8" fill="#fff" opacity="0.10"/>
    <circle cx="336" cy="371" r="0.6" fill="#fff" opacity="0.08"/>
    <circle cx="-69" cy="-110" r="0.6" fill="#fff" opacity="0.05"/>
    <circle cx="396" cy="-18" r="0.8" fill="#fff" opacity="0.14"/>
    <circle cx="364" cy="-235" r="0.3" fill="#fff" opacity="0.08"/>
    <circle cx="-97" cy="139" r="0.7" fill="#fff" opacity="0.09"/>
    <circle cx="-102" cy="111" r="0.6" fill="#fff" opacity="0.11"/>
    <circle cx="-164" cy="-241" r="0.7" fill="#fff" opacity="0.08"/>
    <circle cx="-197" cy="189" r="0.3" fill="#fff" opacity="0.08"/>
    <circle cx="-296" cy="66" r="0.6" fill="#fff" opacity="0.13"/>
    <circle cx="-167" cy="24" r="0.8" fill="#fff" opacity="0.12"/>
    <circle cx="223" cy="-245" r="0.6" fill="#fff" opacity="0.12"/>
    <circle cx="-112" cy="-381" r="0.6" fill="#fff" opacity="0.13"/>
    <circle cx="87" cy="-212" r="0.6" fill="#fff" opacity="0.06"/>
    <circle cx="299" cy="228" r="0.7" fill="#fff" opacity="0.10"/>
    <circle cx="-87" cy="326" r="0.4" fill="#fff" opacity="0.14"/>
    <circle cx="-174" cy="57" r="0.5" fill="#fff" opacity="0.13"/>
    <circle cx="233" cy="-238" r="0.4" fill="#fff" opacity="0.09"/>
    <circle cx="281" cy="360" r="0.5" fill="#fff" opacity="0.08"/>
    <circle cx="324" cy="-384" r="0.4" fill="#fff" opacity="0.06"/>
    <circle cx="-123" cy="-292" r="0.4" fill="#fff" opacity="0.14"/>
    <circle cx="-50" cy="256" r="0.5" fill="#fff" opacity="0.12"/>
    <circle cx="57" cy="140" r="0.7" fill="#fff" opacity="0.11"/>
    <circle cx="389" cy="-76" r="0.7" fill="#fff" opacity="0.07"/>
    <circle cx="-69" cy="193" r="0.7" fill="#fff" opacity="0.07"/>
    <circle cx="233" cy="-123" r="0.7" fill="#fff" opacity="0.12"/>
    <circle cx="-287" cy="288" r="0.2" fill="#fff" opacity="0.14"/>
    <circle cx="-381" cy="124" r="0.8" fill="#fff" opacity="0.11"/>
    <circle cx="-341" cy="356" r="0.6" fill="#fff" opacity="0.14"/>
    <circle cx="-121" cy="-364" r="0.8" fill="#fff" opacity="0.11"/>
    <circle cx="287" cy="349" r="0.4" fill="#fff" opacity="0.10"/>
    <circle cx="273" cy="-365" r="0.7" fill="#fff" opacity="0.08"/>
    <circle cx="399" cy="-176" r="0.2" fill="#fff" opacity="0.10"/>
    <circle cx="-91" cy="247" r="0.7" fill="#fff" opacity="0.13"/>
    <circle cx="146" cy="152" r="0.4" fill="#fff" opacity="0.11"/>
    <circle cx="-72" cy="111" r="0.4" fill="#fff" opacity="0.10"/>
    <circle cx="60" cy="101" r="0.2" fill="#fff" opacity="0.07"/>
    <circle cx="-356" cy="203" r="0.6" fill="#fff" opacity="0.09"/>
    <circle cx="192" cy="-175" r="0.6" fill="#fff" opacity="0.10"/>
    <circle cx="-17" cy="-361" r="0.5" fill="#fff" opacity="0.12"/>
    <circle cx="309" cy="63" r="0.7" fill="#fff" opacity="0.06"/>
    <circle cx="189" cy="361" r="0.8" fill="#fff" opacity="0.12"/>
    <circle cx="78" cy="-316" r="0.7" fill="#fff" opacity="0.13"/>
    <circle cx="-188" cy="-156" r="0.6" fill="#fff" opacity="0.12"/>
    <circle cx="6" cy="242" r="0.7" fill="#fff" opacity="0.09"/>
    <circle cx="-304" cy="-262" r="0.8" fill="#fff" opacity="0.07"/>
    <circle cx="64" cy="3" r="0.5" fill="#fff" opacity="0.14"/>
    <circle cx="125" cy="-232" r="0.5" fill="#fff" opacity="0.08"/>
    <circle cx="308" cy="392" r="0.3" fill="#fff" opacity="0.05"/>
    <circle cx="-69" cy="57" r="0.3" fill="#fff" opacity="0.07"/>
    <circle cx="-264" cy="-171" r="0.8" fill="#fff" opacity="0.12"/>
    <circle cx="89" cy="-296" r="0.2" fill="#fff" opacity="0.09"/>
    <circle cx="-51" cy="208" r="0.6" fill="#fff" opacity="0.08"/>
    <circle cx="-2" cy="254" r="0.6" fill="#fff" opacity="0.06"/>
    <circle cx="-316" cy="5" r="0.7" fill="#fff" opacity="0.05"/>
    <circle cx="-129" cy="-207" r="0.3" fill="#fff" opacity="0.07"/>
    <circle cx="-208" cy="-114" r="0.5" fill="#fff" opacity="0.13"/>
    <circle cx="-304" cy="251" r="0.3" fill="#fff" opacity="0.08"/>
    <circle cx="-9" cy="218" r="0.8" fill="#fff" opacity="0.11"/>
    <circle cx="371" cy="189" r="0.3" fill="#fff" opacity="0.08"/>
    <circle cx="-67" cy="-59" r="0.7" fill="#fff" opacity="0.06"/>
    <circle cx="69" cy="-101" r="0.3" fill="#fff" opacity="0.06"/>
    <circle cx="39" cy="-220" r="0.5" fill="#fff" opacity="0.11"/>
    <circle cx="-312" cy="-180" r="0.4" fill="#fff" opacity="0.07"/>
    <circle cx="-85" cy="-308" r="0.7" fill="#fff" opacity="0.10"/>
    <circle cx="257" cy="39" r="0.8" fill="#fff" opacity="0.06"/>
    <circle cx="259" cy="38" r="0.8" fill="#fff" opacity="0.12"/>
    <circle cx="-1" cy="272" r="0.3" fill="#fff" opacity="0.06"/>
    <circle cx="-173" cy="-187" r="0.4" fill="#fff" opacity="0.11"/>
    <circle cx="204" cy="5" r="0.7" fill="#fff" opacity="0.08"/>
    <circle cx="18" cy="-100" r="0.8" fill="#fff" opacity="0.06"/>
    <circle cx="-43" cy="249" r="0.3" fill="#fff" opacity="0.09"/>
    <circle cx="14" cy="-397" r="0.2" fill="#fff" opacity="0.10"/>
    <circle cx="270" cy="-330" r="0.8" fill="#fff" opacity="0.08"/>
    <circle cx="-330" cy="-66" r="0.7" fill="#fff" opacity="0.12"/>
    <circle cx="-127" cy="-174" r="0.6" fill="#fff" opacity="0.13"/>
    <circle cx="197" cy="310" r="0.8" fill="#fff" opacity="0.05"/>
    <text x="0" y="-350" fill="#ffb74d" font-size="10" font-family="'Helvetica Neue', Arial, sans-serif" text-anchor="middle" opacity="0.4" letter-spacing="2">Investment</text>
    <text x="303" y="-175" fill="#e040fb" font-size="10" font-family="'Helvetica Neue', Arial, sans-serif" text-anchor="middle" opacity="0.4" letter-spacing="2">Cognition</text>
    <text x="303" y="175" fill="#81c784" font-size="10" font-family="'Helvetica Neue', Arial, sans-serif" text-anchor="middle" opacity="0.4" letter-spacing="2">Creation</text>
    <text x="0" y="350" fill="#4fc3f7" font-size="10" font-family="'Helvetica Neue', Arial, sans-serif" text-anchor="middle" opacity="0.4" letter-spacing="2">Research</text>
    <text x="-303" y="175" fill="#aed581" font-size="10" font-family="'Helvetica Neue', Arial, sans-serif" text-anchor="middle" opacity="0.4" letter-spacing="2">Platform</text>
    <text x="-303" y="-175" fill="#90a4ae" font-size="10" font-family="'Helvetica Neue', Arial, sans-serif" text-anchor="middle" opacity="0.4" letter-spacing="2">Pipeline</text>
    <circle cx="-73" cy="-210" r="15" fill="url(#g-skill-0-0)"/>
    <circle cx="-73" cy="-210" r="3.7" fill="#fff" opacity="0.75"/>
    <circle cx="-73" cy="-210" r="2.6" fill="#ffb74d" opacity="0.38"/>
    <text x="-73" y="-194" fill="#ffb74d" font-size="6" font-family="'Helvetica Neue', Arial, sans-serif" text-anchor="middle" opacity="0.3">Hedge Fund</text>
    <circle cx="-35" cy="-210" r="14" fill="url(#g-skill-0-1)"/>
    <circle cx="-35" cy="-210" r="3.5" fill="#fff" opacity="0.72"/>
    <circle cx="-35" cy="-210" r="2.5" fill="#ffb74d" opacity="0.36"/>
    <text x="-35" y="-195" fill="#ffb74d" font-size="6" font-family="'Helvetica Neue', Arial, sans-serif" text-anchor="middle" opacity="0.3">Undervalued Hunter</text>
    <circle cx="0" cy="-204" r="14" fill="url(#g-skill-0-2)"/>
    <circle cx="0" cy="-204" r="3.4" fill="#fff" opacity="0.70"/>
    <circle cx="0" cy="-204" r="2.4" fill="#ffb74d" opacity="0.35"/>
    <text x="0" y="-189" fill="#ffb74d" font-size="6" font-family="'Helvetica Neue', Arial, sans-serif" text-anchor="middle" opacity="0.3">Strong Stock Hunter</text>
    <circle cx="30" cy="-193" r="13" fill="url(#g-skill-0-3)"/>
    <circle cx="30" cy="-193" r="3.2" fill="#fff" opacity="0.68"/>
    <circle cx="30" cy="-193" r="2.3" fill="#ffb74d" opacity="0.34"/>
    <text x="30" y="-177" fill="#ffb74d" font-size="6" font-family="'Helvetica Neue', Arial, sans-serif" text-anchor="middle" opacity="0.3">Batch Scorer</text>
    <circle cx="136" cy="-152" r="14" fill="url(#g-skill-1-0)"/>
    <circle cx="136" cy="-152" r="3.4" fill="#fff" opacity="0.70"/>
    <circle cx="136" cy="-152" r="2.4" fill="#e040fb" opacity="0.35"/>
    <text x="136" y="-137" fill="#e040fb" font-size="6" font-family="'Helvetica Neue', Arial, sans-serif" text-anchor="middle" opacity="0.3">Self Evolve</text>
    <circle cx="145" cy="-116" r="12" fill="url(#g-skill-1-1)"/>
    <circle cx="145" cy="-116" r="3.1" fill="#fff" opacity="0.65"/>
    <circle cx="145" cy="-116" r="2.2" fill="#e040fb" opacity="0.32"/>
    <circle cx="169" cy="-97" r="13" fill="url(#g-skill-1-2)"/>
    <circle cx="169" cy="-97" r="3.2" fill="#fff" opacity="0.68"/>
    <circle cx="169" cy="-97" r="2.3" fill="#e040fb" opacity="0.34"/>
    <text x="169" y="-82" fill="#e040fb" font-size="6" font-family="'Helvetica Neue', Arial, sans-serif" text-anchor="middle" opacity="0.3">Triple Reflection</text>
    <circle cx="165" cy="-65" r="12" fill="url(#g-skill-1-3)"/>
    <circle cx="165" cy="-65" r="3.0" fill="#fff" opacity="0.62"/>
    <circle cx="165" cy="-65" r="2.1" fill="#e040fb" opacity="0.31"/>
    <circle cx="214" cy="42" r="15" fill="url(#g-skill-2-0)"/>
    <circle cx="214" cy="42" r="3.6" fill="#fff" opacity="0.74"/>
    <circle cx="214" cy="42" r="2.5" fill="#81c784" opacity="0.37"/>
    <text x="214" y="57" fill="#81c784" font-size="6" font-family="'Helvetica Neue', Arial, sans-serif" text-anchor="middle" opacity="0.3">Skill Craft</text>
    <circle cx="196" cy="67" r="14" fill="url(#g-skill-2-1)"/>
    <circle cx="196" cy="67" r="3.5" fill="#fff" opacity="0.71"/>
    <circle cx="196" cy="67" r="2.4" fill="#81c784" opacity="0.35"/>
    <text x="196" y="83" fill="#81c784" font-size="6" font-family="'Helvetica Neue', Arial, sans-serif" text-anchor="middle" opacity="0.3">Skill Creator</text>
    <circle cx="166" cy="83" r="12" fill="url(#g-skill-2-2)"/>
    <circle cx="166" cy="83" r="3.1" fill="#fff" opacity="0.65"/>
    <circle cx="166" cy="83" r="2.2" fill="#81c784" opacity="0.32"/>
    <circle cx="167" cy="111" r="13" fill="url(#g-skill-2-3)"/>
    <circle cx="167" cy="111" r="3.3" fill="#fff" opacity="0.69"/>
    <circle cx="167" cy="111" r="2.3" fill="#81c784" opacity="0.34"/>
    <text x="167" y="126" fill="#81c784" font-size="6" font-family="'Helvetica Neue', Arial, sans-serif" text-anchor="middle" opacity="0.3">Orchestrator</text>
    <circle cx="144" cy="123" r="13" fill="url(#g-skill-2-4)"/>
    <circle cx="144" cy="123" r="3.2" fill="#fff" opacity="0.66"/>
    <circle cx="144" cy="123" r="2.2" fill="#81c784" opacity="0.33"/>
    <text x="144" y="139" fill="#81c784" font-size="6" font-family="'Helvetica Neue', Arial, sans-serif" text-anchor="middle" opacity="0.3">Memory Distiller</text>
    <circle cx="69" cy="202" r="14" fill="url(#g-skill-3-0)"/>
    <circle cx="69" cy="202" r="3.5" fill="#fff" opacity="0.72"/>
    <circle cx="69" cy="202" r="2.5" fill="#4fc3f7" opacity="0.36"/>
    <text x="69" y="217" fill="#4fc3f7" font-size="6" font-family="'Helvetica Neue', Arial, sans-serif" text-anchor="middle" opacity="0.3">EN Report</text>
    <circle cx="30" cy="193" r="13" fill="url(#g-skill-3-1)"/>
    <circle cx="30" cy="193" r="3.2" fill="#fff" opacity="0.68"/>
    <circle cx="30" cy="193" r="2.3" fill="#4fc3f7" opacity="0.34"/>
    <text x="30" y="208" fill="#4fc3f7" font-size="6" font-family="'Helvetica Neue', Arial, sans-serif" text-anchor="middle" opacity="0.3">Deep Research</text>
    <circle cx="0" cy="204" r="14" fill="url(#g-skill-3-2)"/>
    <circle cx="0" cy="204" r="3.4" fill="#fff" opacity="0.70"/>
    <circle cx="0" cy="204" r="2.4" fill="#4fc3f7" opacity="0.35"/>
    <text x="0" y="219" fill="#4fc3f7" font-size="6" font-family="'Helvetica Neue', Arial, sans-serif" text-anchor="middle" opacity="0.3">Multi-Agent</text>
    <circle cx="-32" cy="198" r="13" fill="url(#g-skill-3-3)"/>
    <circle cx="-32" cy="198" r="3.3" fill="#fff" opacity="0.69"/>
    <circle cx="-32" cy="198" r="2.3" fill="#4fc3f7" opacity="0.34"/>
    <text x="-32" y="213" fill="#4fc3f7" font-size="6" font-family="'Helvetica Neue', Arial, sans-serif" text-anchor="middle" opacity="0.3">Domain Expert</text>
    <circle cx="-145" cy="168" r="15" fill="url(#g-skill-4-0)"/>
    <circle cx="-145" cy="168" r="3.7" fill="#fff" opacity="0.75"/>
    <circle cx="-145" cy="168" r="2.6" fill="#aed581" opacity="0.38"/>
    <text x="-145" y="184" fill="#aed581" font-size="6" font-family="'Helvetica Neue', Arial, sans-serif" text-anchor="middle" opacity="0.3">KB Operations</text>
    <circle cx="-160" cy="140" r="14" fill="url(#g-skill-4-1)"/>
    <circle cx="-160" cy="140" r="3.5" fill="#fff" opacity="0.72"/>
    <circle cx="-160" cy="140" r="2.5" fill="#aed581" opacity="0.36"/>
    <text x="-160" y="156" fill="#aed581" font-size="6" font-family="'Helvetica Neue', Arial, sans-serif" text-anchor="middle" opacity="0.3">Note Management</text>
    <circle cx="-158" cy="105" r="13" fill="url(#g-skill-4-2)"/>
    <circle cx="-158" cy="105" r="3.2" fill="#fff" opacity="0.66"/>
    <circle cx="-158" cy="105" r="2.2" fill="#aed581" opacity="0.33"/>
    <text x="-158" y="120" fill="#aed581" font-size="6" font-family="'Helvetica Neue', Arial, sans-serif" text-anchor="middle" opacity="0.3">KB Audit</text>
    <circle cx="-166" cy="83" r="12" fill="url(#g-skill-4-3)"/>
    <circle cx="-166" cy="83" r="3.1" fill="#fff" opacity="0.65"/>
    <circle cx="-166" cy="83" r="2.2" fill="#aed581" opacity="0.32"/>
    <circle cx="-172" cy="61" r="12" fill="url(#g-skill-4-4)"/>
    <circle cx="-172" cy="61" r="3.0" fill="#fff" opacity="0.64"/>
    <circle cx="-172" cy="61" r="2.1" fill="#aed581" opacity="0.32"/>
    <circle cx="-119" cy="-33" r="8" fill="url(#g-skill-5-0)"/>
    <circle cx="-119" cy="-33" r="2.0" fill="#fff" opacity="0.47"/>
    <circle cx="-119" cy="-33" r="1.4" fill="#90a4ae" opacity="0.24"/>
    <circle cx="-139" cy="-56" r="10" fill="url(#g-skill-5-1)"/>
    <circle cx="-139" cy="-56" r="2.5" fill="#fff" opacity="0.55"/>
    <circle cx="-139" cy="-56" r="1.8" fill="#90a4ae" opacity="0.28"/>
    <circle cx="-91" cy="-52" r="7" fill="url(#g-skill-5-2)"/>
    <circle cx="-91" cy="-52" r="1.8" fill="#fff" opacity="0.42"/>
    <circle cx="-91" cy="-52" r="1.2" fill="#90a4ae" opacity="0.21"/>
    <circle cx="-77" cy="-57" r="6" fill="url(#g-skill-5-3)"/>
    <circle cx="-77" cy="-57" r="1.6" fill="#fff" opacity="0.40"/>
    <circle cx="-77" cy="-57" r="1.1" fill="#90a4ae" opacity="0.20"/>
    <circle cx="0" cy="0" r="30" fill="none" stroke="#e040fb" stroke-width="0.5" opacity="0.15"/>
  </g>
</svg>
