<svg xmlns="http://www.w3.org/2000/svg" width="800" height="800" viewBox="0 0 800 800" style="background:#0a0a0f">
  <radialGradient id="g-skill-0-0">
    <stop offset="0%" stop-color="#ffb74d" stop-opacity="0.75"/>
    <stop offset="100%" stop-color="#ffb74d" stop-opacity="0"/>
  </radialGradient>
  <radialGradient id="g-skill-0-1">
    <stop offset="0%" stop-color="#ffb74d" stop-opacity="0.72"/>
    <stop offset="100%" stop-color="#ffb74d" stop-opacity="0"/>
  </radialGradient>
  <radialGradient id="g-skill-0-2">
    <stop offset="0%" stop-color="#ffb74d" stop-opacity="0.70"/>
    <stop offset="100%" stop-color="#ffb74d" stop-opacity="0"/>
  </radialGradient>
  <radialGradient id="g-skill-0-3">
    <stop offset="0%" stop-color="#ffb74d" stop-opacity="0.68"/>
    <stop offset="100%" stop-color="#ffb74d" stop-opacity="0"/>
  </radialGradient>
  <radialGradient id="g-skill-1-0">
    <stop offset="0%" stop-color="#e040fb" stop-opacity="0.70"/>
    <stop offset="100%" stop-color="#e040fb" stop-opacity="0"/>
  </radialGradient>
  <radialGradient id="g-skill-1-1">
    <stop offset="0%" stop-color="#e040fb" stop-opacity="0.65"/>
    <stop offset="100%" stop-color="#e040fb" stop-opacity="0"/>
  </radialGradient>
  <radialGradient id="g-skill-1-2">
    <stop offset="0%" stop-color="#e040fb" stop-opacity="0.68"/>
    <stop offset="100%" stop-color="#e040fb" stop-opacity="0"/>
  </radialGradient>
  <radialGradient id="g-skill-1-3">
    <stop offset="0%" stop-color="#e040fb" stop-opacity="0.62"/>
    <stop offset="100%" stop-color="#e040fb" stop-opacity="0"/>
  </radialGradient>
  <radialGradient id="g-skill-2-0">
    <stop offset="0%" stop-color="#81c784" stop-opacity="0.74"/>
    <stop offset="100%" stop-color="#81c784" stop-opacity="0"/>
  </radialGradient>
  <radialGradient id="g-skill-2-1">
    <stop offset="0%" stop-color="#81c784" stop-opacity="0.71"/>
    <stop offset="100%" stop-color="#81c784" stop-opacity="0"/>
  </radialGradient>
  <radialGradient id="g-skill-2-2">
    <stop offset="0%" stop-color="#81c784" stop-opacity="0.65"/>
    <stop offset="100%" stop-color="#81c784" stop-opacity="0"/>
  </radialGradient>
  <radialGradient id="g-skill-2-3">
    <stop offset="0%" stop-color="#81c784" stop-opacity="0.69"/>
    <stop offset="100%" stop-color="#81c784" stop-opacity="0"/>
  </radialGradient>
  <radialGradient id="g-skill-2-4">
    <stop offset="0%" stop-color="#81c784" stop-opacity="0.66"/>
    <stop offset="100%" stop-color="#81c784" stop-opacity="0"/>
  </radialGradient>
  <radialGradient id="g-skill-3-0">
    <stop offset="0%" stop-color="#4fc3f7" stop-opacity="0.72"/>
    <stop offset="100%" stop-color="#4fc3f7" stop-opacity="0"/>
  </radialGradient>
  <radialGradient id="g-skill-3-1">
    <stop offset="0%" stop-color="#4fc3f7" stop-opacity="0.68"/>
    <stop offset="100%" stop-color="#4fc3f7" stop-opacity="0"/>
  </radialGradient>
  <radialGradient id="g-skill-3-2">
    <stop offset="0%" stop-color="#4fc3f7" stop-opacity="0.70"/>
    <stop offset="100%" stop-color="#4fc3f7" stop-opacity="0"/>
  </radialGradient>
  <radialGradient id="g-skill-3-3">
    <stop offset="0%" stop-color="#4fc3f7" stop-opacity="0.69"/>
    <stop offset="100%" stop-color="#4fc3f7" stop-opacity="0"/>
  </radialGradient>
  <radialGradient id="g-skill-4-0">
    <stop offset="0%" stop-color="#aed581" stop-opacity="0.75"/>
    <stop offset="100%" stop-color="#aed581" stop-opacity="0"/>
  </radialGradient>
  <radialGradient id="g-skill-4-1">
    <stop offset="0%" stop-color="#aed581" stop-opacity="0.72"/>
    <stop offset="100%" stop-color="#aed581" stop-opacity="0"/>
  </radialGradient>
  <radialGradient id="g-skill-4-2">
    <stop offset="0%" stop-color="#aed581" stop-opacity="0.66"/>
    <stop offset="100%" stop-color="#aed581" stop-opacity="0"/>
  </radialGradient>
  <radialGradient id="g-skill-4-3">
    <stop offset="0%" stop-color="#aed581" stop-opacity="0.65"/>
    <stop offset="100%" stop-color="#aed581" stop-opacity="0"/>
  </radialGradient>
  <radialGradient id="g-skill-4-4">
    <stop offset="0%" stop-color="#aed581" stop-opacity="0.64"/>
    <stop offset="100%" stop-color="#aed581" stop-opacity="0"/>
  </radialGradient>
  <radialGradient id="g-skill-5-0">
    <stop offset="0%" stop-color="#90a4ae" stop-opacity="0.47"/>
    <stop offset="100%" stop-color="#90a4ae" stop-opacity="0"/>
  </radialGradient>
  <radialGradient id="g-skill-5-1">
    <stop offset="0%" stop-color="#90a4ae" stop-opacity="0.55"/>
    <stop offset="100%" stop-color="#90a4ae" stop-opacity="0"/>
  </radialGradient>
  <radialGradient id="g-skill-5-2">
    <stop offset="0%" stop-color="#90a4ae" stop-opacity="0.42"/>
    <stop offset="100%" stop-color="#90a4ae" stop-opacity="0"/>
  </radialGradient>
  <radialGradient id="g-skill-5-3">
    <stop offset="0%" stop-color="#90a4ae" stop-opacity="0.40"/>
    <stop offset="100%" stop-color="#90a4ae" stop-opacity="0"/>
  </radialGradient>
  <g transform="translate(400.0,400.0)">
    <circle cx="-379" cy="-313" r="0.5" fill="#fff" opacity="0.10"/>
    <circle cx="-88" cy="-248" r="0.8" fill="#fff" opacity="0.15"/>
    <circle cx="2" cy="239" r="0.4" fill="#fff" opacity="0.11"/>
    <circle cx="280" cy="344" r="0.5" fill="#fff" opacity="0.07"/>
    <circle cx="212" cy="74" r="0.5" fill="#fff" opacity="0.11"/>
    <circle cx="-273" cy="89" r="0.7" fill="#fff" opacity="0.14"/>
    <circle cx="116" cy="-274" r="0.4" fill="#fff" opacity="0.15"/>
    <circle cx="260" cy="-235" r="0.3" fill="#fff" opacity="0.14"/>
    <circle cx="-186" cy="-121" r="0.5" fill="#fff" opacity="0.10"/>
    <circle cx="-267" cy="366" r="0.3" fill="#fff" opacity="0.10"/>
    <circle cx="103" cy="249" r="0.2" fill="#fff" opacity="0.13"/>
    <circle cx="277" cy="271" r="0.8" fill="#fff" opacity="0.11"/>
    <circle cx="-237" cy="-284" r="0.4" fill="#fff" opacity="0.14"/>
    <circle cx="120" cy="327" r="0.8" fill="#fff" opacity="0.10"/>
    <circle cx="-24" cy="-12" r="0.5" fill="#fff" opacity="0.12"/>
    <circle cx="2" cy="195" r="0.6" fill="#fff" opacity="0.08"/>
    <circle cx="-316" cy="-221" r="0.7" fill="#fff" opacity="0.13"/>
    <circle cx="187" cy="-170" r="0.7" fill="#fff" opacity="0.13"/>
    <circle cx="-10" cy="-32" r="0.5" fill="#fff" opacity="0.11"/>
    <circle cx="355" cy="-56" r="0.2" fill="#fff" opacity="0.07"/>
    <circle cx="-261" cy="226" r="0.3" fill="#fff" opacity="0.12"/>
    <circle cx="240" cy="-167" r="0.7" fill="#fff" opacity="0.09"/>
    <circle cx="276" cy="377" r="0.6" fill="#fff" opacity="0.08"/>
    <circle cx="65" cy="328" r="0.5" fill="#fff" opacity="0.10"/>
    <circle cx="-30" cy="-214" r="0.6" fill="#fff" opacity="0.15"/>
    <circle cx="-221" cy="-167" r="0.2" fill="#fff" opacity="0.05"/>
    <circle cx="-360" cy="-128" r="0.4" fill="#fff" opacity="0.07"/>
    <circle cx="316" cy="168" r="0.3" fill="#fff" opacity="0.05"/>
    <circle cx="2" cy="-169" r="0.2" fill="#fff" opacity="0.11"/>
    <circle cx="206" cy="208" r="0.5" fill="#fff" opacity="0.09"/>
    <circle cx="-186" cy="306" r="0.3" fill="#fff" opacity="0.13"/>
    <circle cx="204" cy="-388" r="0.6" fill="#fff" opacity="0.10"/>
    <circle cx="225" cy="-315" r="0.4" fill="#fff" opacity="0.14"/>
    <circle cx="283" cy="-395" r="0.3" fill="#fff" opacity="0.10"/>
    <circle cx="-227" cy="115" r="0.3" fill="#fff" opacity="0.14"/>
    <circle cx="251" cy="49" r="0.7" fill="#fff" opacity="0.06"/>
    <circle cx="224" cy="-77" r="0.3" fill="#fff" opacity="0.05"/>
    <circle cx="-101" cy="-352" r="0.4" fill="#fff" opacity="0.06"/>
    <circle cx="-240" cy="278" r="0.2" fill="#fff" opacity="0.15"/>
    <circle cx="-108" cy="-47" r="0.4" fill="#fff" opacity="0.10"/>
    <circle cx="243" cy="-273" r="0.7" fill="#fff" opacity="0.10"/>
    <circle cx="206" cy="170" r="0.8" fill="#fff" opacity="0.10"/>
    <circle cx="-370" cy="-161" r="0.3" fill="#fff" opacity="0.08"/>
    <circle cx="147" cy="-8" r="0.5" fill="#fff" opacity="0.14"/>
    <circle cx="-72" cy="369" r="0.3" fill="#fff" opacity="0.10"/>
    <circle cx="-91" cy="352" r="0.7" fill="#fff" opacity="0.09"/>
    <circle cx="48" cy="229" r="0.3" fill="#fff" opacity="0.09"/>
    <circle cx="-289" cy="-317" r="0.7" fill="#fff" opacity="0.07"/>
    <circle cx="74" cy="122" r="0.7" fill="#fff" opacity="0.11"/>
    <circle cx="95" cy="-149" r="0.6" fill="#fff" opacity="0.08"/>
    <circle cx="58" cy="-134" r="0.7" fill="#fff" opacity="0.10"/>
    <circle cx="108" cy="292" r="0.3" fill="#fff" opacity="0.10"/>
    <circle cx="-273" cy="299" r="0.6" fill="#fff" opacity="0.08"/>
    <circle cx="381" cy="221" r="0.7" fill="#fff" opacity="0.14"/>
    <circle cx="306" cy="-156" r="0.3" fill="#fff" opacity="0.08"/>
    <circle cx="288" cy="-279" r="0.5" fill="#fff" opacity="0.13"/>
    <circle cx="-293" cy="31" r="0.7" fill="#fff" opacity="0.14"/>
    <circle cx="-115" cy="96" r="0.6" fill="#fff" opacity="0.10"/>
    <circle cx="128" cy="183" r="0.5" fill="#fff" opacity="0.10"/>
    <circle cx="46" cy="179" r="0.6" fill="#fff" opacity="0.06"/>
    <circle cx="118" cy="-158" r="0.8" fill="#fff" opacity="0.09"/>
    <circle cx="88" cy="-183" r="0.8" fill="#fff" opacity="0.06"/>
    <circle cx="-392" cy="381" r="0.7" fill="#fff" opacity="0.11"/>
    <circle cx="46" cy="-76" r="0.3" fill="#fff" opacity="0.05"/>
    <circle cx="371" cy="11" r="0.4" fill="#fff" opacity="0.08"/>
    <circle cx="177" cy="-129" r="0.7" fill="#fff" opacity="0.12"/>
    <circle cx="-125" cy="139" r="0.6" fill="#fff" opacity="0.07"/>
    <circle cx="-255" cy="12" r="0.5" fill="#fff" opacity="0.13"/>
    <circle cx="-126" cy="165" r="0.3" fill="#fff" opacity="0.07"/>
    <circle cx="-259" cy="252" r="0.8" fill="#fff" opacity="0.14"/>
    <circle cx="319" cy="-272" r="0.5" fill="#fff" opacity="0.07"/>
    <circle cx="-351" cy="-127" r="0.3" fill="#fff" opacity="0.10"/>
    <circle cx="-11" cy="-186" r="0.3" fill="#fff" opacity="0.12"/>
    <circle cx="-156" cy="-265" r="0.5" fill="#fff" opacity="0.12"/>
    <circle cx="-388" cy="136" r="0.6" fill="#fff" opacity="0.07"/>
    <circle cx="-224" cy="301" r="0.4" fill="#fff" opacity="0.06"/>
    <circle cx="2" cy="-136" r="0.7" fill="#fff" opacity="0.14"/>
    <circle cx="223" cy="-218" r="0.7" fill="#fff" opacity="0.07"/>
    <circle cx="-48" cy="296" r="0.6" fill="#fff" opacity="0.07"/>
    <circle cx="-350" cy="261" r="0.4" fill="#fff" opacity="0.07"/>
    <circle cx="252" cy="-202" r="0.6" fill="#fff" opacity="0.06"/>
    <circle cx="-118" cy="-273" r="0.3" fill="#fff" opacity="0.13"/>
    <circle cx="235" cy="-189" r="0.3" fill="#fff" opacity="0.11"/>
    <circle cx="17" cy="-360" r="0.4" fill="#fff" opacity="0.11"/>
    <circle cx="-116" cy="156" r="0.4" fill="#fff" opacity="0.12"/>
    <circle cx="-141" cy="172" r="0.3" fill="#fff" opacity="0.06"/>
    <circle cx="309" cy="-55" r="0.4" fill="#fff" opacity="0.15"/>
    <circle cx="134" cy="339" r="0.5" fill="#fff" opacity="0.06"/>
    <circle cx="151" cy="-281" r="0.8" fill="#fff" opacity="0.05"/>
    <circle cx="119" cy="49" r="0.4" fill="#fff" opacity="0.11"/>
    <circle cx="-381" cy="-252" r="0.6" fill="#fff" opacity="0.05"/>
    <circle cx="56" cy="187" r="0.7" fill="#fff" opacity="0.11"/>
    <circle cx="-137" cy="-207" r="0.4" fill="#fff" opacity="0.09"/>
    <circle cx="-357" cy="306" r="0.5" fill="#fff" opacity="0.14"/>
    <circle cx="350" cy="267" r="0.7" fill="#fff" opacity="0.09"/>
    <circle cx="-263" cy="260" r="0.8" fill="#fff" opacity="0.13"/>
    <circle cx="46" cy="-46" r="0.5" fill="#fff" opacity="0.14"/>
    <circle cx="272" cy="119" r="0.6" fill="#fff" opacity="0.14"/>
    <circle cx="133" cy="293" r="0.6" fill="#fff" opacity="0.14"/>
    <circle cx="-230" cy="291" r="0.6" fill="#fff" opacity="0.15"/>
    <circle cx="-237" cy="-127" r="0.8" fill="#fff" opacity="0.10"/>
    <circle cx="-348" cy="143" r="0.6" fill="#fff" opacity="0.14"/>
    <circle cx="265" cy="-345" r="0.4" fill="#fff" opacity="0.09"/>
    <circle cx="-167" cy="-113" r="0.8" fill="#fff" opacity="0.06"/>
    <circle cx="-380" cy="-285" r="0.6" fill="#fff" opacity="0.05"/>
    <circle cx="107" cy="354" r="0.6" fill="#fff" opacity="0.10"/>
    <circle cx="-378" cy="20" r="0.8" fill="#fff" opacity="0.13"/>
    <circle cx="-288" cy="285" r="0.6" fill="#fff" opacity="0.08"/>
    <circle cx="-80" cy="37" r="0.8" fill="#fff" opacity="0.05"/>
    <circle cx="252" cy="-164" r="0.6" fill="#fff" opacity="0.08"/>
    <circle cx="-315" cy="-231" r="0.3" fill="#fff" opacity="0.09"/>
    <circle cx="-240" cy="-364" r="0.5" fill="#fff" opacity="0.05"/>
    <circle cx="288" cy="162" r="0.7" fill="#fff" opacity="0.05"/>
    <circle cx="-239" cy="-215" r="0.5" fill="#fff" opacity="0.15"/>
    <circle cx="176" cy="347" r="0.7" fill="#fff" opacity="0.07"/>
    <circle cx="-221" cy="220" r="0.6" fill="#fff" opacity="0.08"/>
    <circle cx="-206" cy="312" r="0.8" fill="#fff" opacity="0.12"/>
    <circle cx="-373" cy="226" r="0.3" fill="#fff" opacity="0.06"/>
    <circle cx="-193" cy="-214" r="0.3" fill="#fff" opacity="0.11"/>
    <circle cx="-368" cy="279" r="0.7" fill="#fff" opacity="0.13"/>
    <circle cx="-311" cy="21" r="0.2" fill="#fff" opacity="0.08"/>
    <circle cx="284" cy="-216" r="0.5" fill="#fff" opacity="0.15"/>
    <circle cx="100" cy="321" r="0.5" fill="#fff" opacity="0.09"/>
    <circle cx="-148" cy="-48" r="0.7" fill="#fff" opacity="0.08"/>
    <circle cx="-139" cy="-81" r="0.2" fill="#fff" opacity="0.09"/>
    <circle cx="308" cy="-280" r="0.2" fill="#fff" opacity="0.12"/>
    <circle cx="180" cy="-229" r="0.7" fill="#fff" opacity="0.12"/>
    <circle cx="-86" cy="67" r="0.4" fill="#fff" opacity="0.12"/>
    <circle cx="-257" cy="145" r="0.5" fill="#fff" opacity="0.08"/>
    <circle cx="-143" cy="-188" r="0.3" fill="#fff" opacity="0.08"/>
    <circle cx="-373" cy="251" r="0.7" fill="#fff" opacity="0.07"/>
    <circle cx="110" cy="-312" r="0.7" fill="#fff" opacity="0.14"/>
    <circle cx="363" cy="-157" r="0.2" fill="#fff" opacity="0.09"/>
    <circle cx="400" cy="-142" r="0.6" fill="#fff" opacity="0.14"/>
    <circle cx="-151" cy="-138" r="0.7" fill="#fff" opacity="0.07"/>
    <circle cx="-64" cy="58" r="0.6" fill="#fff" opacity="0.10"/>
    <circle cx="224" cy="-355" r="0.4" fill="#fff" opacity="0.10"/>
    <circle cx="-67" cy="115" r="0.6" fill="#fff" opacity="0.08"/>
    <circle cx="389" cy="255" r="0.4" fill="#fff" opacity="0.10"/>
    <circle cx="-108" cy="322" r="0.7" fill="#fff" opacity="0.10"/>
    <circle cx="-291" cy="-212" r="0.7" fill="#fff" opacity="0.14"/>
    <circle cx="-198" cy="67" r="0.2" fill="#fff" opacity="0.12"/>
    <circle cx="-203" cy="-112" r="0.4" fill="#fff" opacity="0.10"/>
    <circle cx="-397" cy="-260" r="0.5" fill="#fff" opacity="0.06"/>
    <circle cx="199" cy="386" r="0.7" fill="#fff" opacity="0.06"/>
    <circle cx="61" cy="73" r="0.2" fill="#fff" opacity="0.05"/>
    <circle cx="-159" cy="279" r="0.5" fill="#fff" opacity="0.08"/>
    <circle cx="-141" cy="344" r="0.3" fill="#fff" opacity="0.07"/>
    <circle cx="89" cy="-161" r="0.3" fill="#fff" opacity="0.09"/>
    <circle cx="251" cy="-98" r="0.4" fill="#fff" opacity="0.10"/>
    <circle cx="-380" cy="-136" r="0.6" fill="#fff" opacity="0.07"/>
    <circle cx="-397" cy="-253" r="0.5" fill="#fff" opacity="0.08"/>
    <circle cx="97" cy="-325" r="0.4" fill="#fff" opacity="0.06"/>
    <circle cx="297" cy="259" r="0.5" fill="#fff" opacity="0.14"/>
    <circle cx="-367" cy="372" r="0.2" fill="#fff" opacity="0.15"/>
    <circle cx="204" cy="-360" r="0.2" fill="#fff" opacity="0.12"/>
    <circle cx="-52" cy="199" r="0.6" fill="#fff" opacity="0.13"/>
    <circle cx="-250" cy="105" r="0.8" fill="#fff" opacity="0.10"/>
    <circle cx="-287" cy="48" r="0.5" fill="#fff" opacity="0.07"/>
    <circle cx="-61" cy="137" r="0.4" fill="#fff" opacity="0.06"/>
    <circle cx="31" cy="-43" r="0.8" fill="#fff" opacity="0.14"/>
    <circle cx="313" cy="111" r="0.6" fill="#fff" opacity="0.11"/>
    <circle cx="253" cy="30" r="0.7" fill="#fff" opacity="0.08"/>
    <circle cx="-13" cy="-369" r="0.5" fill="#fff" opacity="0.12"/>
    <circle cx="221" cy="-146" r="0.7" fill="#fff" opacity="0.14"/>
    <circle cx="35" cy="-48" r="0.8" fill="#fff" opacity="0.11"/>
    <circle cx="-1" cy="-308" r="0.3" fill="#fff" opacity="0.09"/>
    <circle cx="-312" cy="-148" r="0.5" fill="#fff" opacity="0.12"/>
    <circle cx="392" cy="-14" r="0.7" fill="#fff" opacity="0.14"/>
    <circle cx="225" cy="287" r="0.2" fill="#fff" opacity="0.11"/>
    <circle cx="376" cy="-283" r="0.6" fill="#fff" opacity="0.05"/>
    <circle cx="314" cy="166" r="0.4" fill="#fff" opacity="0.14"/>
    <circle cx="106" cy="68" r="0.3" fill="#fff" opacity="0.12"/>
    <circle cx="-218" cy="190" r="0.6" fill="#fff" opacity="0.05"/>
    <circle cx="-325" cy="-360" r="0.2" fill="#fff" opacity="0.06"/>
    <circle cx="-169" cy="-193" r="0.7" fill="#fff" opacity="0.12"/>
    <circle cx="4" cy="277" r="0.7" fill="#fff" opacity="0.13"/>
    <circle cx="-166" cy="-100" r="0.5" fill="#fff" opacity="0.10"/>
    <circle cx="36" cy="-207" r="0.2" fill="#fff" opacity="0.10"/>
    <circle cx="134" cy="55" r="0.6" fill="#fff" opacity="0.10"/>
    <circle cx="-229" cy="270" r="0.3" fill="#fff" opacity="0.12"/>
    <circle cx="326" cy="103" r="0.4" fill="#fff" opacity="0.13"/>
    <circle cx="237" cy="-317" r="0.3" fill="#fff" opacity="0.12"/>
    <circle cx="363" cy="286" r="0.4" fill="#fff" opacity="0.07"/>
    <circle cx="184" cy="312" r="0.3" fill="#fff" opacity="0.08"/>
    <circle cx="297" cy="120" r="0.4" fill="#fff" opacity="0.07"/>
    <circle cx="82" cy="-101" r="0.6" fill="#fff" opacity="0.07"/>
    <circle cx="218" cy="112" r="0.7" fill="#fff" opacity="0.15"/>
    <circle cx="-227" cy="111" r="0.4" fill="#fff" opacity="0.13"/>
    <circle cx="-0" cy="-263" r="0.8" fill="#fff" opacity="0.12"/>
    <circle cx="347" cy="271" r="0.3" fill="#fff" opacity="0.05"/>
    <circle cx="-126" cy="-118" r="0.4" fill="#fff" opacity="0.13"/>
    <circle cx="-75" cy="-20" r="0.2" fill="#fff" opacity="0.10"/>
    <circle cx="210" cy="-18" r="0.8" fill="#fff" opacity="0.14"/>
    <circle cx="193" cy="48" r="0.2" fill="#fff" opacity="0.10"/>
    <circle cx="-165" cy="-312" r="0.3" fill="#fff" opacity="0.11"/>
    <circle cx="151" cy="-128" r="0.8" fill="#fff" opacity="0.06"/>
    <circle cx="-73" cy="296" r="0.7" fill="#fff" opacity="0.09"/>
    <circle cx="399" cy="192" r="0.4" fill="#fff" opacity="0.12"/>
    <circle cx="-26" cy="114" r="0.6" fill="#fff" opacity="0.06"/>
    <text x="0" y="-350" fill="#ffb74d" font-size="10" font-family="'Helvetica Neue', Arial, sans-serif" text-anchor="middle" opacity="0.4" letter-spacing="2">Investment</text>
    <text x="303" y="-175" fill="#e040fb" font-size="10" font-family="'Helvetica Neue', Arial, sans-serif" text-anchor="middle" opacity="0.4" letter-spacing="2">Cognition</text>
    <text x="303" y="175" fill="#81c784" font-size="10" font-family="'Helvetica Neue', Arial, sans-serif" text-anchor="middle" opacity="0.4" letter-spacing="2">Creation</text>
    <text x="0" y="350" fill="#4fc3f7" font-size="10" font-family="'Helvetica Neue', Arial, sans-serif" text-anchor="middle" opacity="0.4" letter-spacing="2">Research</text>
    <text x="-303" y="175" fill="#aed581" font-size="10" font-family="'Helvetica Neue', Arial, sans-serif" text-anchor="middle" opacity="0.4" letter-spacing="2">Platform</text>
    <text x="-303" y="-175" fill="#90a4ae" font-size="10" font-family="'Helvetica Neue', Arial, sans-serif" text-anchor="middle" opacity="0.4" letter-spacing="2">Pipeline</text>
    <circle cx="-73" cy="-210" r="15" fill="url(#g-skill-0-0)"/>
    <circle cx="-73" cy="-210" r="3.7" fill="#fff" opacity="0.75"/>
    <circle cx="-73" cy="-210" r="2.6" fill="#ffb74d" opacity="0.38"/>
    <text x="-73" y="-194" fill="#ffb74d" font-size="6" font-family="'Helvetica Neue', Arial, sans-serif" text-anchor="middle" opacity="0.3">Hedge Fund</text>
    <circle cx="-35" cy="-210" r="14" fill="url(#g-skill-0-1)"/>
    <circle cx="-35" cy="-210" r="3.5" fill="#fff" opacity="0.72"/>
    <circle cx="-35" cy="-210" r="2.5" fill="#ffb74d" opacity="0.36"/>
    <text x="-35" y="-195" fill="#ffb74d" font-size="6" font-family="'Helvetica Neue', Arial, sans-serif" text-anchor="middle" opacity="0.3">Undervalued Hunter</text>
    <circle cx="0" cy="-204" r="14" fill="url(#g-skill-0-2)"/>
    <circle cx="0" cy="-204" r="3.4" fill="#fff" opacity="0.70"/>
    <circle cx="0" cy="-204" r="2.4" fill="#ffb74d" opacity="0.35"/>
    <text x="0" y="-189" fill="#ffb74d" font-size="6" font-family="'Helvetica Neue', Arial, sans-serif" text-anchor="middle" opacity="0.3">Strong Stock Hunter</text>
    <circle cx="30" cy="-193" r="13" fill="url(#g-skill-0-3)"/>
    <circle cx="30" cy="-193" r="3.2" fill="#fff" opacity="0.68"/>
    <circle cx="30" cy="-193" r="2.3" fill="#ffb74d" opacity="0.34"/>
    <text x="30" y="-177" fill="#ffb74d" font-size="6" font-family="'Helvetica Neue', Arial, sans-serif" text-anchor="middle" opacity="0.3">Batch Scorer</text>
    <circle cx="136" cy="-152" r="14" fill="url(#g-skill-1-0)"/>
    <circle cx="136" cy="-152" r="3.4" fill="#fff" opacity="0.70"/>
    <circle cx="136" cy="-152" r="2.4" fill="#e040fb" opacity="0.35"/>
    <text x="136" y="-137" fill="#e040fb" font-size="6" font-family="'Helvetica Neue', Arial, sans-serif" text-anchor="middle" opacity="0.3">Self Evolve</text>
    <circle cx="145" cy="-116" r="12" fill="url(#g-skill-1-1)"/>
    <circle cx="145" cy="-116" r="3.1" fill="#fff" opacity="0.65"/>
    <circle cx="145" cy="-116" r="2.2" fill="#e040fb" opacity="0.32"/>
    <circle cx="169" cy="-97" r="13" fill="url(#g-skill-1-2)"/>
    <circle cx="169" cy="-97" r="3.2" fill="#fff" opacity="0.68"/>
    <circle cx="169" cy="-97" r="2.3" fill="#e040fb" opacity="0.34"/>
    <text x="169" y="-82" fill="#e040fb" font-size="6" font-family="'Helvetica Neue', Arial, sans-serif" text-anchor="middle" opacity="0.3">Triple Reflection</text>
    <circle cx="165" cy="-65" r="12" fill="url(#g-skill-1-3)"/>
    <circle cx="165" cy="-65" r="3.0" fill="#fff" opacity="0.62"/>
    <circle cx="165" cy="-65" r="2.1" fill="#e040fb" opacity="0.31"/>
    <circle cx="214" cy="42" r="15" fill="url(#g-skill-2-0)"/>
    <circle cx="214" cy="42" r="3.6" fill="#fff" opacity="0.74"/>
    <circle cx="214" cy="42" r="2.5" fill="#81c784" opacity="0.37"/>
    <text x="214" y="57" fill="#81c784" font-size="6" font-family="'Helvetica Neue', Arial, sans-serif" text-anchor="middle" opacity="0.3">Skill Craft</text>
    <circle cx="196" cy="67" r="14" fill="url(#g-skill-2-1)"/>
    <circle cx="196" cy="67" r="3.5" fill="#fff" opacity="0.71"/>
    <circle cx="196" cy="67" r="2.4" fill="#81c784" opacity="0.35"/>
    <text x="196" y="83" fill="#81c784" font-size="6" font-family="'Helvetica Neue', Arial, sans-serif" text-anchor="middle" opacity="0.3">Skill Creator</text>
    <circle cx="166" cy="83" r="12" fill="url(#g-skill-2-2)"/>
    <circle cx="166" cy="83" r="3.1" fill="#fff" opacity="0.65"/>
    <circle cx="166" cy="83" r="2.2" fill="#81c784" opacity="0.32"/>
    <circle cx="167" cy="111" r="13" fill="url(#g-skill-2-3)"/>
    <circle cx="167" cy="111" r="3.3" fill="#fff" opacity="0.69"/>
    <circle cx="167" cy="111" r="2.3" fill="#81c784" opacity="0.34"/>
    <text x="167" y="126" fill="#81c784" font-size="6" font-family="'Helvetica Neue', Arial, sans-serif" text-anchor="middle" opacity="0.3">Orchestrator</text>
    <circle cx="144" cy="123" r="13" fill="url(#g-skill-2-4)"/>
    <circle cx="144" cy="123" r="3.2" fill="#fff" opacity="0.66"/>
    <circle cx="144" cy="123" r="2.2" fill="#81c784" opacity="0.33"/>
    <text x="144" y="139" fill="#81c784" font-size="6" font-family="'Helvetica Neue', Arial, sans-serif" text-anchor="middle" opacity="0.3">Memory Distiller</text>
    <circle cx="69" cy="202" r="14" fill="url(#g-skill-3-0)"/>
    <circle cx="69" cy="202" r="3.5" fill="#fff" opacity="0.72"/>
    <circle cx="69" cy="202" r="2.5" fill="#4fc3f7" opacity="0.36"/>
    <text x="69" y="217" fill="#4fc3f7" font-size="6" font-family="'Helvetica Neue', Arial, sans-serif" text-anchor="middle" opacity="0.3">EN Report</text>
    <circle cx="30" cy="193" r="13" fill="url(#g-skill-3-1)"/>
    <circle cx="30" cy="193" r="3.2" fill="#fff" opacity="0.68"/>
    <circle cx="30" cy="193" r="2.3" fill="#4fc3f7" opacity="0.34"/>
    <text x="30" y="208" fill="#4fc3f7" font-size="6" font-family="'Helvetica Neue', Arial, sans-serif" text-anchor="middle" opacity="0.3">Deep Research</text>
    <circle cx="0" cy="204" r="14" fill="url(#g-skill-3-2)"/>
    <circle cx="0" cy="204" r="3.4" fill="#fff" opacity="0.70"/>
    <circle cx="0" cy="204" r="2.4" fill="#4fc3f7" opacity="0.35"/>
    <text x="0" y="219" fill="#4fc3f7" font-size="6" font-family="'Helvetica Neue', Arial, sans-serif" text-anchor="middle" opacity="0.3">Multi-Agent</text>
    <circle cx="-32" cy="198" r="13" fill="url(#g-skill-3-3)"/>
    <circle cx="-32" cy="198" r="3.3" fill="#fff" opacity="0.69"/>
    <circle cx="-32" cy="198" r="2.3" fill="#4fc3f7" opacity="0.34"/>
    <text x="-32" y="213" fill="#4fc3f7" font-size="6" font-family="'Helvetica Neue', Arial, sans-serif" text-anchor="middle" opacity="0.3">Domain Expert</text>
    <circle cx="-145" cy="168" r="15" fill="url(#g-skill-4-0)"/>
    <circle cx="-145" cy="168" r="3.7" fill="#fff" opacity="0.75"/>
    <circle cx="-145" cy="168" r="2.6" fill="#aed581" opacity="0.38"/>
    <text x="-145" y="184" fill="#aed581" font-size="6" font-family="'Helvetica Neue', Arial, sans-serif" text-anchor="middle" opacity="0.3">KB Operations</text>
    <circle cx="-160" cy="140" r="14" fill="url(#g-skill-4-1)"/>
    <circle cx="-160" cy="140" r="3.5" fill="#fff" opacity="0.72"/>
    <circle cx="-160" cy="140" r="2.5" fill="#aed581" opacity="0.36"/>
    <text x="-160" y="156" fill="#aed581" font-size="6" font-family="'Helvetica Neue', Arial, sans-serif" text-anchor="middle" opacity="0.3">Note Management</text>
    <circle cx="-158" cy="105" r="13" fill="url(#g-skill-4-2)"/>
    <circle cx="-158" cy="105" r="3.2" fill="#fff" opacity="0.66"/>
    <circle cx="-158" cy="105" r="2.2" fill="#aed581" opacity="0.33"/>
    <text x="-158" y="120" fill="#aed581" font-size="6" font-family="'Helvetica Neue', Arial, sans-serif" text-anchor="middle" opacity="0.3">KB Audit</text>
    <circle cx="-166" cy="83" r="12" fill="url(#g-skill-4-3)"/>
    <circle cx="-166" cy="83" r="3.1" fill="#fff" opacity="0.65"/>
    <circle cx="-166" cy="83" r="2.2" fill="#aed581" opacity="0.32"/>
    <circle cx="-172" cy="61" r="12" fill="url(#g-skill-4-4)"/>
    <circle cx="-172" cy="61" r="3.0" fill="#fff" opacity="0.64"/>
    <circle cx="-172" cy="61" r="2.1" fill="#aed581" opacity="0.32"/>
    <circle cx="-119" cy="-33" r="8" fill="url(#g-skill-5-0)"/>
    <circle cx="-119" cy="-33" r="2.0" fill="#fff" opacity="0.47"/>
    <circle cx="-119" cy="-33" r="1.4" fill="#90a4ae" opacity="0.24"/>
    <circle cx="-139" cy="-56" r="10" fill="url(#g-skill-5-1)"/>
    <circle cx="-139" cy="-56" r="2.5" fill="#fff" opacity="0.55"/>
    <circle cx="-139" cy="-56" r="1.8" fill="#90a4ae" opacity="0.28"/>
    <circle cx="-91" cy="-52" r="7" fill="url(#g-skill-5-2)"/>
    <circle cx="-91" cy="-52" r="1.8" fill="#fff" opacity="0.42"/>
    <circle cx="-91" cy="-52" r="1.2" fill="#90a4ae" opacity="0.21"/>
    <circle cx="-77" cy="-57" r="6" fill="url(#g-skill-5-3)"/>
    <circle cx="-77" cy="-57" r="1.6" fill="#fff" opacity="0.40"/>
    <circle cx="-77" cy="-57" r="1.1" fill="#90a4ae" opacity="0.20"/>
    <circle cx="0" cy="0" r="30" fill="none" stroke="#e040fb" stroke-width="0.5" opacity="0.15"/>
  </g>
</svg>
