<svg xmlns="http://www.w3.org/2000/svg" width="800" height="800" viewBox="0 0 800 800" style="background:#0a0a0f">
  <radialGradient id="g-skill-0-0">
    <stop offset="0%" stop-color="#ffb74d" stop-opacity="0.75"/>
    <stop offset="100%" stop-color="#ffb74d" stop-opacity="0"/>
  </radialGradient>
  <radialGradient id="g-skill-0-1">
    <stop offset="0%" stop-color="#ffb74d" stop-opacity="0.72"/>
    <stop offset="100%" stop-color="#ffb74d" stop-opacity="0"/>
  </radialGradient>
  <radialGradient id="g-skill-0-2">
    <stop offset="0%" stop-color="#ffb74d" stop-opacity="0.70"/>
    <stop offset="100%" stop-color="#ffb74d" stop-opacity="0"/>
  </radialGradient>
  <radialGradient id="g-skill-0-3">
    <stop offset="0%" stop-color="#ffb74d" stop-opacity="0.68"/>
    <stop offset="100%" stop-color="#ffb74d" stop-opacity="0"/>
  </radialGradient>
  <radialGradient id="g-skill-1-0">
    <stop offset="0%" stop-color="#e040fb" stop-opacity="0.70"/>
    <stop offset="100%" stop-color="#e040fb" stop-opacity="0"/>
  </radialGradient>
  <radialGradient id="g-skill-1-1">
    <stop offset="0%" stop-color="#e040fb" stop-opacity="0.65"/>
    <stop offset="100%" stop-color="#e040fb" stop-opacity="0"/>
  </radialGradient>
  <radialGradient id="g-skill-1-2">
    <stop offset="0%" stop-color="#e040fb" stop-opacity="0.68"/>
    <stop offset="100%" stop-color="#e040fb" stop-opacity="0"/>
  </radialGradient>
  <radialGradient id="g-skill-1-3">
    <stop offset="0%" stop-color="#e040fb" stop-opacity="0.62"/>
    <stop offset="100%" stop-color="#e040fb" stop-opacity="0"/>
  </radialGradient>
  <radialGradient id="g-skill-2-0">
    <stop offset="0%" stop-color="#81c784" stop-opacity="0.74"/>
    <stop offset="100%" stop-color="#81c784" stop-opacity="0"/>
  </radialGradient>
  <radialGradient id="g-skill-2-1">
    <stop offset="0%" stop-color="#81c784" stop-opacity="0.71"/>
    <stop offset="100%" stop-color="#81c784" stop-opacity="0"/>
  </radialGradient>
  <radialGradient id="g-skill-2-2">
    <stop offset="0%" stop-color="#81c784" stop-opacity="0.65"/>
    <stop offset="100%" stop-color="#81c784" stop-opacity="0"/>
  </radialGradient>
  <radialGradient id="g-skill-2-3">
    <stop offset="0%" stop-color="#81c784" stop-opacity="0.69"/>
    <stop offset="100%" stop-color="#81c784" stop-opacity="0"/>
  </radialGradient>
  <radialGradient id="g-skill-2-4">
    <stop offset="0%" stop-color="#81c784" stop-opacity="0.66"/>
    <stop offset="100%" stop-color="#81c784" stop-opacity="0"/>
  </radialGradient>
  <radialGradient id="g-skill-3-0">
    <stop offset="0%" stop-color="#4fc3f7" stop-opacity="0.72"/>
    <stop offset="100%" stop-color="#4fc3f7" stop-opacity="0"/>
  </radialGradient>
  <radialGradient id="g-skill-3-1">
    <stop offset="0%" stop-color="#4fc3f7" stop-opacity="0.68"/>
    <stop offset="100%" stop-color="#4fc3f7" stop-opacity="0"/>
  </radialGradient>
  <radialGradient id="g-skill-3-2">
    <stop offset="0%" stop-color="#4fc3f7" stop-opacity="0.70"/>
    <stop offset="100%" stop-color="#4fc3f7" stop-opacity="0"/>
  </radialGradient>
  <radialGradient id="g-skill-3-3">
    <stop offset="0%" stop-color="#4fc3f7" stop-opacity="0.69"/>
    <stop offset="100%" stop-color="#4fc3f7" stop-opacity="0"/>
  </radialGradient>
  <radialGradient id="g-skill-4-0">
    <stop offset="0%" stop-color="#aed581" stop-opacity="0.75"/>
    <stop offset="100%" stop-color="#aed581" stop-opacity="0"/>
  </radialGradient>
  <radialGradient id="g-skill-4-1">
    <stop offset="0%" stop-color="#aed581" stop-opacity="0.72"/>
    <stop offset="100%" stop-color="#aed581" stop-opacity="0"/>
  </radialGradient>
  <radialGradient id="g-skill-4-2">
    <stop offset="0%" stop-color="#aed581" stop-opacity="0.66"/>
    <stop offset="100%" stop-color="#aed581" stop-opacity="0"/>
  </radialGradient>
  <radialGradient id="g-skill-4-3">
    <stop offset="0%" stop-color="#aed581" stop-opacity="0.65"/>
    <stop offset="100%" stop-color="#aed581" stop-opacity="0"/>
  </radialGradient>
  <radialGradient id="g-skill-4-4">
    <stop offset="0%" stop-color="#aed581" stop-opacity="0.64"/>
    <stop offset="100%" stop-color="#aed581" stop-opacity="0"/>
  </radialGradient>
  <radialGradient id="g-skill-5-0">
    <stop offset="0%" stop-color="#90a4ae" stop-opacity="0.47"/>
    <stop offset="100%" stop-color="#90a4ae" stop-opacity="0"/>
  </radialGradient>
  <radialGradient id="g-skill-5-1">
    <stop offset="0%" stop-color="#90a4ae" stop-opacity="0.55"/>
    <stop offset="100%" stop-color="#90a4ae" stop-opacity="0"/>
  </radialGradient>
  <radialGradient id="g-skill-5-2">
    <stop offset="0%" stop-color="#90a4ae" stop-opacity="0.42"/>
    <stop offset="100%" stop-color="#90a4ae" stop-opacity="0"/>
  </radialGradient>
  <radialGradient id="g-skill-5-3">
    <stop offset="0%" stop-color="#90a4ae" stop-opacity="0.40"/>
    <stop offset="100%" stop-color="#90a4ae" stop-opacity="0"/>
  </radialGradient>
  <g transform="translate(400.0,400.0)">
    <circle cx="-241" cy="-45" r="0.6" fill="#fff" opacity="0.15"/>
    <circle cx="-380" cy="284" r="0.6" fill="#fff" opacity="0.06"/>
    <circle cx="125" cy="19" r="0.2" fill="#fff" opacity="0.12"/>
    <circle cx="-381" cy="321" r="0.2" fill="#fff" opacity="0.12"/>
    <circle cx="62" cy="211" r="0.5" fill="#fff" opacity="0.11"/>
    <circle cx="346" cy="-209" r="0.3" fill="#fff" opacity="0.07"/>
    <circle cx="108" cy="-110" r="0.4" fill="#fff" opacity="0.15"/>
    <circle cx="92" cy="337" r="0.6" fill="#fff" opacity="0.12"/>
    <circle cx="117" cy="337" r="0.3" fill="#fff" opacity="0.08"/>
    <circle cx="-377" cy="-347" r="0.8" fill="#fff" opacity="0.06"/>
    <circle cx="370" cy="307" r="0.8" fill="#fff" opacity="0.05"/>
    <circle cx="389" cy="81" r="0.5" fill="#fff" opacity="0.11"/>
    <circle cx="-289" cy="266" r="0.7" fill="#fff" opacity="0.07"/>
    <circle cx="-317" cy="-46" r="0.6" fill="#fff" opacity="0.09"/>
    <circle cx="345" cy="224" r="0.3" fill="#fff" opacity="0.14"/>
    <circle cx="-30" cy="223" r="0.5" fill="#fff" opacity="0.11"/>
    <circle cx="218" cy="277" r="0.6" fill="#fff" opacity="0.05"/>
    <circle cx="346" cy="-363" r="0.6" fill="#fff" opacity="0.07"/>
    <circle cx="-276" cy="163" r="0.4" fill="#fff" opacity="0.06"/>
    <circle cx="157" cy="125" r="0.6" fill="#fff" opacity="0.07"/>
    <circle cx="-132" cy="177" r="0.3" fill="#fff" opacity="0.10"/>
    <circle cx="-176" cy="-25" r="0.6" fill="#fff" opacity="0.12"/>
    <circle cx="-78" cy="-174" r="0.6" fill="#fff" opacity="0.12"/>
    <circle cx="-163" cy="3" r="0.4" fill="#fff" opacity="0.08"/>
    <circle cx="139" cy="220" r="0.5" fill="#fff" opacity="0.05"/>
    <circle cx="-220" cy="-304" r="0.5" fill="#fff" opacity="0.06"/>
    <circle cx="-224" cy="81" r="0.2" fill="#fff" opacity="0.05"/>
    <circle cx="61" cy="-382" r="0.2" fill="#fff" opacity="0.11"/>
    <circle cx="-114" cy="350" r="0.3" fill="#fff" opacity="0.11"/>
    <circle cx="-229" cy="-62" r="0.3" fill="#fff" opacity="0.08"/>
    <circle cx="-232" cy="-391" r="0.2" fill="#fff" opacity="0.08"/>
    <circle cx="11" cy="-10" r="0.5" fill="#fff" opacity="0.10"/>
    <circle cx="156" cy="209" r="0.4" fill="#fff" opacity="0.14"/>
    <circle cx="-62" cy="194" r="0.4" fill="#fff" opacity="0.05"/>
    <circle cx="211" cy="-287" r="0.8" fill="#fff" opacity="0.10"/>
    <circle cx="230" cy="-90" r="0.8" fill="#fff" opacity="0.11"/>
    <circle cx="115" cy="265" r="0.6" fill="#fff" opacity="0.09"/>
    <circle cx="333" cy="372" r="0.3" fill="#fff" opacity="0.06"/>
    <circle cx="-70" cy="-130" r="0.4" fill="#fff" opacity="0.06"/>
    <circle cx="-13" cy="-8" r="0.7" fill="#fff" opacity="0.09"/>
    <circle cx="332" cy="-81" r="0.7" fill="#fff" opacity="0.14"/>
    <circle cx="-71" cy="-281" r="0.2" fill="#fff" opacity="0.08"/>
    <circle cx="202" cy="26" r="0.2" fill="#fff" opacity="0.09"/>
    <circle cx="-161" cy="-143" r="0.7" fill="#fff" opacity="0.08"/>
    <circle cx="-273" cy="284" r="0.6" fill="#fff" opacity="0.14"/>
    <circle cx="-32" cy="-112" r="0.4" fill="#fff" opacity="0.14"/>
    <circle cx="-243" cy="264" r="0.7" fill="#fff" opacity="0.14"/>
    <circle cx="218" cy="251" r="0.7" fill="#fff" opacity="0.05"/>
    <circle cx="-223" cy="-313" r="0.6" fill="#fff" opacity="0.14"/>
    <circle cx="33" cy="-264" r="0.8" fill="#fff" opacity="0.08"/>
    <circle cx="359" cy="-153" r="0.7" fill="#fff" opacity="0.14"/>
    <circle cx="277" cy="-262" r="0.3" fill="#fff" opacity="0.15"/>
    <circle cx="341" cy="-39" r="0.7" fill="#fff" opacity="0.12"/>
    <circle cx="103" cy="-121" r="0.6" fill="#fff" opacity="0.07"/>
    <circle cx="323" cy="-346" r="0.5" fill="#fff" opacity="0.15"/>
    <circle cx="71" cy="193" r="0.6" fill="#fff" opacity="0.14"/>
    <circle cx="78" cy="-125" r="0.5" fill="#fff" opacity="0.11"/>
    <circle cx="368" cy="-1" r="0.8" fill="#fff" opacity="0.14"/>
    <circle cx="-398" cy="108" r="0.3" fill="#fff" opacity="0.11"/>
    <circle cx="-309" cy="-228" r="0.7" fill="#fff" opacity="0.12"/>
    <circle cx="-124" cy="-158" r="0.8" fill="#fff" opacity="0.13"/>
    <circle cx="175" cy="-383" r="0.7" fill="#fff" opacity="0.05"/>
    <circle cx="30" cy="-117" r="0.6" fill="#fff" opacity="0.10"/>
    <circle cx="-336" cy="254" r="0.6" fill="#fff" opacity="0.06"/>
    <circle cx="253" cy="-171" r="0.2" fill="#fff" opacity="0.05"/>
    <circle cx="229" cy="-397" r="0.5" fill="#fff" opacity="0.14"/>
    <circle cx="168" cy="363" r="0.6" fill="#fff" opacity="0.12"/>
    <circle cx="47" cy="-72" r="0.4" fill="#fff" opacity="0.09"/>
    <circle cx="-320" cy="-81" r="0.3" fill="#fff" opacity="0.11"/>
    <circle cx="-24" cy="117" r="0.7" fill="#fff" opacity="0.06"/>
    <circle cx="188" cy="312" r="0.4" fill="#fff" opacity="0.06"/>
    <circle cx="-376" cy="-338" r="0.5" fill="#fff" opacity="0.12"/>
    <circle cx="192" cy="384" r="0.5" fill="#fff" opacity="0.12"/>
    <circle cx="-352" cy="327" r="0.6" fill="#fff" opacity="0.09"/>
    <circle cx="-43" cy="-136" r="0.3" fill="#fff" opacity="0.12"/>
    <circle cx="-95" cy="-380" r="0.3" fill="#fff" opacity="0.08"/>
    <circle cx="-2" cy="-72" r="0.5" fill="#fff" opacity="0.06"/>
    <circle cx="302" cy="-105" r="0.4" fill="#fff" opacity="0.11"/>
    <circle cx="251" cy="-153" r="0.4" fill="#fff" opacity="0.09"/>
    <circle cx="256" cy="-59" r="0.4" fill="#fff" opacity="0.10"/>
    <circle cx="-234" cy="319" r="0.4" fill="#fff" opacity="0.08"/>
    <circle cx="319" cy="146" r="0.5" fill="#fff" opacity="0.06"/>
    <circle cx="17" cy="63" r="0.7" fill="#fff" opacity="0.05"/>
    <circle cx="-102" cy="38" r="0.5" fill="#fff" opacity="0.14"/>
    <circle cx="-112" cy="194" r="0.6" fill="#fff" opacity="0.06"/>
    <circle cx="-125" cy="281" r="0.8" fill="#fff" opacity="0.10"/>
    <circle cx="388" cy="174" r="0.4" fill="#fff" opacity="0.11"/>
    <circle cx="127" cy="-220" r="0.2" fill="#fff" opacity="0.15"/>
    <circle cx="158" cy="377" r="0.8" fill="#fff" opacity="0.14"/>
    <circle cx="218" cy="376" r="0.6" fill="#fff" opacity="0.09"/>
    <circle cx="-352" cy="391" r="0.7" fill="#fff" opacity="0.12"/>
    <circle cx="-289" cy="-117" r="0.5" fill="#fff" opacity="0.14"/>
    <circle cx="-351" cy="-238" r="0.5" fill="#fff" opacity="0.10"/>
    <circle cx="-175" cy="301" r="0.6" fill="#fff" opacity="0.11"/>
    <circle cx="-8" cy="168" r="0.5" fill="#fff" opacity="0.09"/>
    <circle cx="-121" cy="-187" r="0.4" fill="#fff" opacity="0.15"/>
    <circle cx="-104" cy="199" r="0.4" fill="#fff" opacity="0.13"/>
    <circle cx="-3" cy="-137" r="0.6" fill="#fff" opacity="0.10"/>
    <circle cx="247" cy="-106" r="0.4" fill="#fff" opacity="0.15"/>
    <circle cx="42" cy="-334" r="0.3" fill="#fff" opacity="0.12"/>
    <circle cx="64" cy="179" r="0.5" fill="#fff" opacity="0.13"/>
    <circle cx="273" cy="-37" r="0.4" fill="#fff" opacity="0.13"/>
    <circle cx="-57" cy="-72" r="0.3" fill="#fff" opacity="0.10"/>
    <circle cx="-217" cy="-342" r="0.5" fill="#fff" opacity="0.10"/>
    <circle cx="220" cy="317" r="0.8" fill="#fff" opacity="0.07"/>
    <circle cx="310" cy="-67" r="0.8" fill="#fff" opacity="0.11"/>
    <circle cx="-126" cy="-9" r="0.4" fill="#fff" opacity="0.10"/>
    <circle cx="385" cy="-308" r="0.7" fill="#fff" opacity="0.12"/>
    <circle cx="-7" cy="283" r="0.3" fill="#fff" opacity="0.07"/>
    <circle cx="-65" cy="348" r="0.8" fill="#fff" opacity="0.12"/>
    <circle cx="356" cy="40" r="0.3" fill="#fff" opacity="0.13"/>
    <circle cx="-368" cy="280" r="0.8" fill="#fff" opacity="0.14"/>
    <circle cx="-167" cy="156" r="0.4" fill="#fff" opacity="0.07"/>
    <circle cx="199" cy="386" r="0.3" fill="#fff" opacity="0.12"/>
    <circle cx="-271" cy="349" r="0.5" fill="#fff" opacity="0.09"/>
    <circle cx="-62" cy="-371" r="0.3" fill="#fff" opacity="0.08"/>
    <circle cx="60" cy="179" r="0.6" fill="#fff" opacity="0.12"/>
    <circle cx="172" cy="-14" r="0.4" fill="#fff" opacity="0.07"/>
    <circle cx="279" cy="211" r="0.8" fill="#fff" opacity="0.13"/>
    <circle cx="-42" cy="-40" r="0.6" fill="#fff" opacity="0.15"/>
    <circle cx="-324" cy="147" r="0.8" fill="#fff" opacity="0.07"/>
    <circle cx="74" cy="258" r="0.6" fill="#fff" opacity="0.06"/>
    <circle cx="313" cy="214" r="0.6" fill="#fff" opacity="0.06"/>
    <circle cx="-220" cy="-47" r="0.3" fill="#fff" opacity="0.05"/>
    <circle cx="-304" cy="101" r="0.7" fill="#fff" opacity="0.09"/>
    <circle cx="299" cy="236" r="0.6" fill="#fff" opacity="0.15"/>
    <circle cx="9" cy="-265" r="0.4" fill="#fff" opacity="0.12"/>
    <circle cx="-291" cy="-16" r="0.7" fill="#fff" opacity="0.10"/>
    <circle cx="183" cy="16" r="0.6" fill="#fff" opacity="0.15"/>
    <circle cx="-242" cy="49" r="0.6" fill="#fff" opacity="0.08"/>
    <circle cx="-96" cy="-79" r="0.6" fill="#fff" opacity="0.13"/>
    <circle cx="162" cy="43" r="0.6" fill="#fff" opacity="0.14"/>
    <circle cx="269" cy="-192" r="0.7" fill="#fff" opacity="0.08"/>
    <circle cx="194" cy="-50" r="0.5" fill="#fff" opacity="0.12"/>
    <circle cx="264" cy="-192" r="0.3" fill="#fff" opacity="0.14"/>
    <circle cx="-390" cy="-343" r="0.7" fill="#fff" opacity="0.06"/>
    <circle cx="82" cy="272" r="0.6" fill="#fff" opacity="0.12"/>
    <circle cx="394" cy="-294" r="0.6" fill="#fff" opacity="0.09"/>
    <circle cx="-358" cy="11" r="0.6" fill="#fff" opacity="0.10"/>
    <circle cx="-50" cy="263" r="0.6" fill="#fff" opacity="0.07"/>
    <circle cx="219" cy="-382" r="0.4" fill="#fff" opacity="0.09"/>
    <circle cx="175" cy="354" r="0.4" fill="#fff" opacity="0.07"/>
    <circle cx="260" cy="221" r="0.5" fill="#fff" opacity="0.08"/>
    <circle cx="117" cy="-177" r="0.7" fill="#fff" opacity="0.14"/>
    <circle cx="119" cy="358" r="0.8" fill="#fff" opacity="0.07"/>
    <circle cx="50" cy="54" r="0.4" fill="#fff" opacity="0.15"/>
    <circle cx="-229" cy="-4" r="0.3" fill="#fff" opacity="0.08"/>
    <circle cx="142" cy="6" r="0.3" fill="#fff" opacity="0.08"/>
    <circle cx="-302" cy="326" r="0.3" fill="#fff" opacity="0.10"/>
    <circle cx="-79" cy="389" r="0.4" fill="#fff" opacity="0.07"/>
    <circle cx="73" cy="191" r="0.3" fill="#fff" opacity="0.10"/>
    <circle cx="-383" cy="-87" r="0.7" fill="#fff" opacity="0.08"/>
    <circle cx="254" cy="-81" r="0.5" fill="#fff" opacity="0.12"/>
    <circle cx="-43" cy="-396" r="0.5" fill="#fff" opacity="0.07"/>
    <circle cx="132" cy="-390" r="0.7" fill="#fff" opacity="0.13"/>
    <circle cx="-95" cy="-369" r="0.2" fill="#fff" opacity="0.05"/>
    <circle cx="-11" cy="-66" r="0.7" fill="#fff" opacity="0.06"/>
    <circle cx="25" cy="-303" r="0.7" fill="#fff" opacity="0.09"/>
    <circle cx="-349" cy="-3" r="0.6" fill="#fff" opacity="0.14"/>
    <circle cx="-260" cy="-399" r="0.6" fill="#fff" opacity="0.10"/>
    <circle cx="-322" cy="-209" r="0.3" fill="#fff" opacity="0.06"/>
    <circle cx="-303" cy="-123" r="0.4" fill="#fff" opacity="0.07"/>
    <circle cx="11" cy="-265" r="0.5" fill="#fff" opacity="0.08"/>
    <circle cx="174" cy="-318" r="0.7" fill="#fff" opacity="0.13"/>
    <circle cx="381" cy="-62" r="0.3" fill="#fff" opacity="0.06"/>
    <circle cx="-137" cy="301" r="0.6" fill="#fff" opacity="0.10"/>
    <circle cx="41" cy="101" r="0.4" fill="#fff" opacity="0.05"/>
    <circle cx="32" cy="-360" r="0.4" fill="#fff" opacity="0.06"/>
    <circle cx="290" cy="188" r="0.6" fill="#fff" opacity="0.09"/>
    <circle cx="102" cy="-61" r="0.5" fill="#fff" opacity="0.05"/>
    <circle cx="35" cy="-170" r="0.8" fill="#fff" opacity="0.10"/>
    <circle cx="87" cy="-53" r="0.7" fill="#fff" opacity="0.06"/>
    <circle cx="383" cy="399" r="0.8" fill="#fff" opacity="0.13"/>
    <circle cx="-393" cy="194" r="0.6" fill="#fff" opacity="0.05"/>
    <circle cx="-245" cy="373" r="0.5" fill="#fff" opacity="0.14"/>
    <circle cx="4" cy="285" r="0.8" fill="#fff" opacity="0.08"/>
    <circle cx="92" cy="328" r="0.5" fill="#fff" opacity="0.13"/>
    <circle cx="257" cy="119" r="0.8" fill="#fff" opacity="0.07"/>
    <circle cx="23" cy="236" r="0.5" fill="#fff" opacity="0.12"/>
    <circle cx="161" cy="395" r="0.2" fill="#fff" opacity="0.12"/>
    <circle cx="82" cy="-48" r="0.6" fill="#fff" opacity="0.13"/>
    <circle cx="-102" cy="-139" r="0.6" fill="#fff" opacity="0.13"/>
    <circle cx="145" cy="345" r="0.4" fill="#fff" opacity="0.13"/>
    <circle cx="122" cy="-274" r="0.5" fill="#fff" opacity="0.14"/>
    <circle cx="-297" cy="-292" r="0.4" fill="#fff" opacity="0.10"/>
    <circle cx="275" cy="-90" r="0.6" fill="#fff" opacity="0.10"/>
    <circle cx="-224" cy="-249" r="0.6" fill="#fff" opacity="0.15"/>
    <circle cx="398" cy="-213" r="0.5" fill="#fff" opacity="0.07"/>
    <circle cx="30" cy="201" r="0.6" fill="#fff" opacity="0.13"/>
    <circle cx="-339" cy="-180" r="0.4" fill="#fff" opacity="0.13"/>
    <circle cx="-63" cy="104" r="0.4" fill="#fff" opacity="0.11"/>
    <circle cx="338" cy="3" r="0.5" fill="#fff" opacity="0.11"/>
    <circle cx="-128" cy="-14" r="0.4" fill="#fff" opacity="0.12"/>
    <circle cx="-1" cy="279" r="0.2" fill="#fff" opacity="0.06"/>
    <circle cx="99" cy="335" r="0.7" fill="#fff" opacity="0.07"/>
    <circle cx="-169" cy="-274" r="0.8" fill="#fff" opacity="0.11"/>
    <circle cx="82" cy="131" r="0.8" fill="#fff" opacity="0.07"/>
    <circle cx="379" cy="-209" r="0.6" fill="#fff" opacity="0.06"/>
    <circle cx="-353" cy="187" r="0.4" fill="#fff" opacity="0.13"/>
    <circle cx="-389" cy="361" r="0.2" fill="#fff" opacity="0.05"/>
    <text x="0" y="-350" fill="#ffb74d" font-size="10" font-family="'Helvetica Neue', Arial, sans-serif" text-anchor="middle" opacity="0.4" letter-spacing="2">Investment</text>
    <text x="303" y="-175" fill="#e040fb" font-size="10" font-family="'Helvetica Neue', Arial, sans-serif" text-anchor="middle" opacity="0.4" letter-spacing="2">Cognition</text>
    <text x="303" y="175" fill="#81c784" font-size="10" font-family="'Helvetica Neue', Arial, sans-serif" text-anchor="middle" opacity="0.4" letter-spacing="2">Creation</text>
    <text x="0" y="350" fill="#4fc3f7" font-size="10" font-family="'Helvetica Neue', Arial, sans-serif" text-anchor="middle" opacity="0.4" letter-spacing="2">Research</text>
    <text x="-303" y="175" fill="#aed581" font-size="10" font-family="'Helvetica Neue', Arial, sans-serif" text-anchor="middle" opacity="0.4" letter-spacing="2">Platform</text>
    <text x="-303" y="-175" fill="#90a4ae" font-size="10" font-family="'Helvetica Neue', Arial, sans-serif" text-anchor="middle" opacity="0.4" letter-spacing="2">Pipeline</text>
    <circle cx="-73" cy="-210" r="15" fill="url(#g-skill-0-0)"/>
    <circle cx="-73" cy="-210" r="3.7" fill="#fff" opacity="0.75"/>
    <circle cx="-73" cy="-210" r="2.6" fill="#ffb74d" opacity="0.38"/>
    <text x="-73" y="-194" fill="#ffb74d" font-size="6" font-family="'Helvetica Neue', Arial, sans-serif" text-anchor="middle" opacity="0.3">Hedge Fund</text>
    <circle cx="-35" cy="-210" r="14" fill="url(#g-skill-0-1)"/>
    <circle cx="-35" cy="-210" r="3.5" fill="#fff" opacity="0.72"/>
    <circle cx="-35" cy="-210" r="2.5" fill="#ffb74d" opacity="0.36"/>
    <text x="-35" y="-195" fill="#ffb74d" font-size="6" font-family="'Helvetica Neue', Arial, sans-serif" text-anchor="middle" opacity="0.3">Undervalued Hunter</text>
    <circle cx="0" cy="-204" r="14" fill="url(#g-skill-0-2)"/>
    <circle cx="0" cy="-204" r="3.4" fill="#fff" opacity="0.70"/>
    <circle cx="0" cy="-204" r="2.4" fill="#ffb74d" opacity="0.35"/>
    <text x="0" y="-189" fill="#ffb74d" font-size="6" font-family="'Helvetica Neue', Arial, sans-serif" text-anchor="middle" opacity="0.3">Strong Stock Hunter</text>
    <circle cx="30" cy="-193" r="13" fill="url(#g-skill-0-3)"/>
    <circle cx="30" cy="-193" r="3.2" fill="#fff" opacity="0.68"/>
    <circle cx="30" cy="-193" r="2.3" fill="#ffb74d" opacity="0.34"/>
    <text x="30" y="-177" fill="#ffb74d" font-size="6" font-family="'Helvetica Neue', Arial, sans-serif" text-anchor="middle" opacity="0.3">Batch Scorer</text>
    <circle cx="136" cy="-152" r="14" fill="url(#g-skill-1-0)"/>
    <circle cx="136" cy="-152" r="3.4" fill="#fff" opacity="0.70"/>
    <circle cx="136" cy="-152" r="2.4" fill="#e040fb" opacity="0.35"/>
    <text x="136" y="-137" fill="#e040fb" font-size="6" font-family="'Helvetica Neue', Arial, sans-serif" text-anchor="middle" opacity="0.3">Self Evolve</text>
    <circle cx="145" cy="-116" r="12" fill="url(#g-skill-1-1)"/>
    <circle cx="145" cy="-116" r="3.1" fill="#fff" opacity="0.65"/>
    <circle cx="145" cy="-116" r="2.2" fill="#e040fb" opacity="0.32"/>
    <circle cx="169" cy="-97" r="13" fill="url(#g-skill-1-2)"/>
    <circle cx="169" cy="-97" r="3.2" fill="#fff" opacity="0.68"/>
    <circle cx="169" cy="-97" r="2.3" fill="#e040fb" opacity="0.34"/>
    <text x="169" y="-82" fill="#e040fb" font-size="6" font-family="'Helvetica Neue', Arial, sans-serif" text-anchor="middle" opacity="0.3">Triple Reflection</text>
    <circle cx="165" cy="-65" r="12" fill="url(#g-skill-1-3)"/>
    <circle cx="165" cy="-65" r="3.0" fill="#fff" opacity="0.62"/>
    <circle cx="165" cy="-65" r="2.1" fill="#e040fb" opacity="0.31"/>
    <circle cx="214" cy="42" r="15" fill="url(#g-skill-2-0)"/>
    <circle cx="214" cy="42" r="3.6" fill="#fff" opacity="0.74"/>
    <circle cx="214" cy="42" r="2.5" fill="#81c784" opacity="0.37"/>
    <text x="214" y="57" fill="#81c784" font-size="6" font-family="'Helvetica Neue', Arial, sans-serif" text-anchor="middle" opacity="0.3">Skill Craft</text>
    <circle cx="196" cy="67" r="14" fill="url(#g-skill-2-1)"/>
    <circle cx="196" cy="67" r="3.5" fill="#fff" opacity="0.71"/>
    <circle cx="196" cy="67" r="2.4" fill="#81c784" opacity="0.35"/>
    <text x="196" y="83" fill="#81c784" font-size="6" font-family="'Helvetica Neue', Arial, sans-serif" text-anchor="middle" opacity="0.3">Skill Creator</text>
    <circle cx="166" cy="83" r="12" fill="url(#g-skill-2-2)"/>
    <circle cx="166" cy="83" r="3.1" fill="#fff" opacity="0.65"/>
    <circle cx="166" cy="83" r="2.2" fill="#81c784" opacity="0.32"/>
    <circle cx="167" cy="111" r="13" fill="url(#g-skill-2-3)"/>
    <circle cx="167" cy="111" r="3.3" fill="#fff" opacity="0.69"/>
    <circle cx="167" cy="111" r="2.3" fill="#81c784" opacity="0.34"/>
    <text x="167" y="126" fill="#81c784" font-size="6" font-family="'Helvetica Neue', Arial, sans-serif" text-anchor="middle" opacity="0.3">Orchestrator</text>
    <circle cx="144" cy="123" r="13" fill="url(#g-skill-2-4)"/>
    <circle cx="144" cy="123" r="3.2" fill="#fff" opacity="0.66"/>
    <circle cx="144" cy="123" r="2.2" fill="#81c784" opacity="0.33"/>
    <text x="144" y="139" fill="#81c784" font-size="6" font-family="'Helvetica Neue', Arial, sans-serif" text-anchor="middle" opacity="0.3">Memory Distiller</text>
    <circle cx="69" cy="202" r="14" fill="url(#g-skill-3-0)"/>
    <circle cx="69" cy="202" r="3.5" fill="#fff" opacity="0.72"/>
    <circle cx="69" cy="202" r="2.5" fill="#4fc3f7" opacity="0.36"/>
    <text x="69" y="217" fill="#4fc3f7" font-size="6" font-family="'Helvetica Neue', Arial, sans-serif" text-anchor="middle" opacity="0.3">EN Report</text>
    <circle cx="30" cy="193" r="13" fill="url(#g-skill-3-1)"/>
    <circle cx="30" cy="193" r="3.2" fill="#fff" opacity="0.68"/>
    <circle cx="30" cy="193" r="2.3" fill="#4fc3f7" opacity="0.34"/>
    <text x="30" y="208" fill="#4fc3f7" font-size="6" font-family="'Helvetica Neue', Arial, sans-serif" text-anchor="middle" opacity="0.3">Deep Research</text>
    <circle cx="0" cy="204" r="14" fill="url(#g-skill-3-2)"/>
    <circle cx="0" cy="204" r="3.4" fill="#fff" opacity="0.70"/>
    <circle cx="0" cy="204" r="2.4" fill="#4fc3f7" opacity="0.35"/>
    <text x="0" y="219" fill="#4fc3f7" font-size="6" font-family="'Helvetica Neue', Arial, sans-serif" text-anchor="middle" opacity="0.3">Multi-Agent</text>
    <circle cx="-32" cy="198" r="13" fill="url(#g-skill-3-3)"/>
    <circle cx="-32" cy="198" r="3.3" fill="#fff" opacity="0.69"/>
    <circle cx="-32" cy="198" r="2.3" fill="#4fc3f7" opacity="0.34"/>
    <text x="-32" y="213" fill="#4fc3f7" font-size="6" font-family="'Helvetica Neue', Arial, sans-serif" text-anchor="middle" opacity="0.3">Domain Expert</text>
    <circle cx="-145" cy="168" r="15" fill="url(#g-skill-4-0)"/>
    <circle cx="-145" cy="168" r="3.7" fill="#fff" opacity="0.75"/>
    <circle cx="-145" cy="168" r="2.6" fill="#aed581" opacity="0.38"/>
    <text x="-145" y="184" fill="#aed581" font-size="6" font-family="'Helvetica Neue', Arial, sans-serif" text-anchor="middle" opacity="0.3">KB Operations</text>
    <circle cx="-160" cy="140" r="14" fill="url(#g-skill-4-1)"/>
    <circle cx="-160" cy="140" r="3.5" fill="#fff" opacity="0.72"/>
    <circle cx="-160" cy="140" r="2.5" fill="#aed581" opacity="0.36"/>
    <text x="-160" y="156" fill="#aed581" font-size="6" font-family="'Helvetica Neue', Arial, sans-serif" text-anchor="middle" opacity="0.3">Note Management</text>
    <circle cx="-158" cy="105" r="13" fill="url(#g-skill-4-2)"/>
    <circle cx="-158" cy="105" r="3.2" fill="#fff" opacity="0.66"/>
    <circle cx="-158" cy="105" r="2.2" fill="#aed581" opacity="0.33"/>
    <text x="-158" y="120" fill="#aed581" font-size="6" font-family="'Helvetica Neue', Arial, sans-serif" text-anchor="middle" opacity="0.3">KB Audit</text>
    <circle cx="-166" cy="83" r="12" fill="url(#g-skill-4-3)"/>
    <circle cx="-166" cy="83" r="3.1" fill="#fff" opacity="0.65"/>
    <circle cx="-166" cy="83" r="2.2" fill="#aed581" opacity="0.32"/>
    <circle cx="-172" cy="61" r="12" fill="url(#g-skill-4-4)"/>
    <circle cx="-172" cy="61" r="3.0" fill="#fff" opacity="0.64"/>
    <circle cx="-172" cy="61" r="2.1" fill="#aed581" opacity="0.32"/>
    <circle cx="-119" cy="-33" r="8" fill="url(#g-skill-5-0)"/>
    <circle cx="-119" cy="-33" r="2.0" fill="#fff" opacity="0.47"/>
    <circle cx="-119" cy="-33" r="1.4" fill="#90a4ae" opacity="0.24"/>
    <circle cx="-139" cy="-56" r="10" fill="url(#g-skill-5-1)"/>
    <circle cx="-139" cy="-56" r="2.5" fill="#fff" opacity="0.55"/>
    <circle cx="-139" cy="-56" r="1.8" fill="#90a4ae" opacity="0.28"/>
    <circle cx="-91" cy="-52" r="7" fill="url(#g-skill-5-2)"/>
    <circle cx="-91" cy="-52" r="1.8" fill="#fff" opacity="0.42"/>
    <circle cx="-91" cy="-52" r="1.2" fill="#90a4ae" opacity="0.21"/>
    <circle cx="-77" cy="-57" r="6" fill="url(#g-skill-5-3)"/>
    <circle cx="-77" cy="-57" r="1.6" fill="#fff" opacity="0.40"/>
    <circle cx="-77" cy="-57" r="1.1" fill="#90a4ae" opacity="0.20"/>
    <circle cx="0" cy="0" r="30" fill="none" stroke="#e040fb" stroke-width="0.5" opacity="0.15"/>
  </g>
</svg>
